<svg viewBox="0 0 330 200" xmlns="http://www.w3.org/2000/svg"><g><g><g><g><g><line x1="51.53200149536133" y1="176.89999961853027" x2="46.53200149536133" y2="176.89999961853027" style="visibility: inherit;" fill="rgb(0, 0, 0)" stroke="rgb(204, 204, 204)" stroke-width="1px"></line><line x1="51.53200149536133" y1="165.10666631062824" x2="46.53200149536133" y2="165.10666631062824" style="visibility: inherit;" fill="rgb(0, 0, 0)" stroke="rgb(204, 204, 204)" stroke-width="1px"></line><line x1="51.53200149536133" y1="153.3133330027262" x2="46.53200149536133" y2="153.3133330027262" style="visibility: inherit;" fill="rgb(0, 0, 0)" stroke="rgb(204, 204, 204)" stroke-width="1px"></line><line x1="51.53200149536133" y1="141.51999969482418" x2="46.53200149536133" y2="141.51999969482418" style="visibility: inherit;" fill="rgb(0, 0, 0)" stroke="rgb(204, 204, 204)" stroke-width="1px"></line><line x1="51.53200149536133" y1="129.72666638692218" x2="46.53200149536133" y2="129.72666638692218" style="visibility: inherit;" fill="rgb(0, 0, 0)" stroke="rgb(204, 204, 204)" stroke-width="1px"></line><line x1="51.53200149536133" y1="117.93333307902013" x2="46.53200149536133" y2="117.93333307902013" style="visibility: inherit;" fill="rgb(0, 0, 0)" stroke="rgb(204, 204, 204)" stroke-width="1px"></line><line x1="51.53200149536133" y1="106.13999977111818" x2="46.53200149536133" y2="106.13999977111818" style="visibility: inherit;" fill="rgb(0, 0, 0)" stroke="rgb(204, 204, 204)" stroke-width="1px"></line><line x1="51.53200149536133" y1="94.34666646321617" x2="46.53200149536133" y2="94.34666646321617" style="visibility: inherit;" fill="rgb(0, 0, 0)" stroke="rgb(204, 204, 204)" stroke-width="1px"></line><line x1="51.53200149536133" y1="82.55333315531414" x2="46.53200149536133" y2="82.55333315531414" style="visibility: inherit;" fill="rgb(0, 0, 0)" stroke="rgb(204, 204, 204)" stroke-width="1px"></line><line x1="51.53200149536133" y1="70.75999984741209" x2="46.53200149536133" y2="70.75999984741209" style="visibility: inherit;" fill="rgb(0, 0, 0)" stroke="rgb(204, 204, 204)" stroke-width="1px"></line><line x1="51.53200149536133" y1="58.96666653951008" x2="46.53200149536133" y2="58.96666653951008" style="visibility: inherit;" fill="rgb(0, 0, 0)" stroke="rgb(204, 204, 204)" stroke-width="1px"></line><line x1="51.53200149536133" y1="47.17333323160804" x2="46.53200149536133" y2="47.17333323160804" style="visibility: inherit;" fill="rgb(0, 0, 0)" stroke="rgb(204, 204, 204)" stroke-width="1px"></line><line x1="51.53200149536133" y1="35.37999992370609" x2="46.53200149536133" y2="35.37999992370609" style="visibility: inherit;" fill="rgb(0, 0, 0)" stroke="rgb(204, 204, 204)" stroke-width="1px"></line><line x1="51.53200149536133" y1="23.586666615804052" x2="46.53200149536133" y2="23.586666615804052" style="visibility: inherit;" fill="rgb(0, 0, 0)" stroke="rgb(204, 204, 204)" stroke-width="1px"></line><line x1="51.53200149536133" y1="11.793333307902035" x2="46.53200149536133" y2="11.793333307902035" style="visibility: inherit;" fill="rgb(0, 0, 0)" stroke="rgb(204, 204, 204)" stroke-width="1px"></line><line x1="51.53200149536133" y1="0" x2="46.53200149536133" y2="0" style="visibility: inherit;" fill="rgb(0, 0, 0)" stroke="rgb(204, 204, 204)" stroke-width="1px"></line></g><g transform="translate(41.53200149536133, 0)"><text style="text-anchor: end; visibility: hidden; font-family: Roboto, sans-serif; font-size: 12px; font-weight: 200;" x="0" y="176.89999961853027" dx="0em" dy="0.3em" fill="rgb(33, 33, 33)" stroke="none" stroke-width="1px">0.7</text><text style="text-anchor: end; visibility: inherit; font-family: Roboto, sans-serif; font-size: 12px; font-weight: 200;" x="0" y="165.10666631062824" dx="0em" dy="0.3em" fill="rgb(33, 33, 33)" stroke="none" stroke-width="1px">0.72</text><text style="text-anchor: end; visibility: hidden; font-family: Roboto, sans-serif; font-size: 12px; font-weight: 200;" x="0" y="153.3133330027262" dx="0em" dy="0.3em" fill="rgb(33, 33, 33)" stroke="none" stroke-width="1px">0.74</text><text style="text-anchor: end; visibility: hidden; font-family: Roboto, sans-serif; font-size: 12px; font-weight: 200;" x="0" y="141.51999969482418" dx="0em" dy="0.3em" fill="rgb(33, 33, 33)" stroke="none" stroke-width="1px">0.76</text><text style="text-anchor: end; visibility: inherit; font-family: Roboto, sans-serif; font-size: 12px; font-weight: 200;" x="0" y="129.72666638692218" dx="0em" dy="0.3em" fill="rgb(33, 33, 33)" stroke="none" stroke-width="1px">0.78</text><text style="text-anchor: end; visibility: hidden; font-family: Roboto, sans-serif; font-size: 12px; font-weight: 200;" x="0" y="117.93333307902013" dx="0em" dy="0.3em" fill="rgb(33, 33, 33)" stroke="none" stroke-width="1px">0.8</text><text style="text-anchor: end; visibility: hidden; font-family: Roboto, sans-serif; font-size: 12px; font-weight: 200;" x="0" y="106.13999977111818" dx="0em" dy="0.3em" fill="rgb(33, 33, 33)" stroke="none" stroke-width="1px">0.82</text><text style="text-anchor: end; visibility: inherit; font-family: Roboto, sans-serif; font-size: 12px; font-weight: 200;" x="0" y="94.34666646321617" dx="0em" dy="0.3em" fill="rgb(33, 33, 33)" stroke="none" stroke-width="1px">0.84</text><text style="text-anchor: end; visibility: hidden; font-family: Roboto, sans-serif; font-size: 12px; font-weight: 200;" x="0" y="82.55333315531414" dx="0em" dy="0.3em" fill="rgb(33, 33, 33)" stroke="none" stroke-width="1px">0.86</text><text style="text-anchor: end; visibility: hidden; font-family: Roboto, sans-serif; font-size: 12px; font-weight: 200;" x="0" y="70.75999984741209" dx="0em" dy="0.3em" fill="rgb(33, 33, 33)" stroke="none" stroke-width="1px">0.88</text><text style="text-anchor: end; visibility: inherit; font-family: Roboto, sans-serif; font-size: 12px; font-weight: 200;" x="0" y="58.96666653951008" dx="0em" dy="0.3em" fill="rgb(33, 33, 33)" stroke="none" stroke-width="1px">0.9</text><text style="text-anchor: end; visibility: hidden; font-family: Roboto, sans-serif; font-size: 12px; font-weight: 200;" x="0" y="47.17333323160804" dx="0em" dy="0.3em" fill="rgb(33, 33, 33)" stroke="none" stroke-width="1px">0.92</text><text style="text-anchor: end; visibility: hidden; font-family: Roboto, sans-serif; font-size: 12px; font-weight: 200;" x="0" y="35.37999992370609" dx="0em" dy="0.3em" fill="rgb(33, 33, 33)" stroke="none" stroke-width="1px">0.94</text><text style="text-anchor: end; visibility: inherit; font-family: Roboto, sans-serif; font-size: 12px; font-weight: 200;" x="0" y="23.586666615804052" dx="0em" dy="0.3em" fill="rgb(33, 33, 33)" stroke="none" stroke-width="1px">0.96</text><text style="text-anchor: end; visibility: hidden; font-family: Roboto, sans-serif; font-size: 12px; font-weight: 200;" x="0" y="11.793333307902035" dx="0em" dy="0.3em" fill="rgb(33, 33, 33)" stroke="none" stroke-width="1px">0.98</text><text style="text-anchor: end; visibility: hidden; font-family: Roboto, sans-serif; font-size: 12px; font-weight: 200;" x="0" y="0" dx="0em" dy="0.3em" fill="rgb(33, 33, 33)" stroke="none" stroke-width="1px">1</text></g><line x1="51.53200149536133" y1="0" x2="51.53200149536133" y2="176.89999961853027" fill="rgb(0, 0, 0)" stroke="rgb(204, 204, 204)" stroke-width="1px"></line></g></g><g transform="translate(51, 0)" clip-path="url(#clip_0)"><clipPath id="clip_0"><rect width="278" height="176"></rect></clipPath><g><g><g><line x1="0" y1="0" x2="0" y2="176.89999961853027" fill="rgb(0, 0, 0)" stroke="rgb(66, 66, 66)" stroke-width="1px" opacity="0.25"></line><line x1="34.808499813079834" y1="0" x2="34.808499813079834" y2="176.89999961853027" fill="rgb(0, 0, 0)" stroke="rgb(66, 66, 66)" stroke-width="1px" opacity="0.25"></line><line x1="69.61699962615967" y1="0" x2="69.61699962615967" y2="176.89999961853027" fill="rgb(0, 0, 0)" stroke="rgb(66, 66, 66)" stroke-width="1px" opacity="0.25"></line><line x1="104.4254994392395" y1="0" x2="104.4254994392395" y2="176.89999961853027" fill="rgb(0, 0, 0)" stroke="rgb(66, 66, 66)" stroke-width="1px" opacity="0.25"></line><line x1="139.23399925231934" y1="0" x2="139.23399925231934" y2="176.89999961853027" fill="rgb(0, 0, 0)" stroke="rgb(66, 66, 66)" stroke-width="1px" opacity="0.25"></line><line x1="174.04249906539917" y1="0" x2="174.04249906539917" y2="176.89999961853027" fill="rgb(0, 0, 0)" stroke="rgb(66, 66, 66)" stroke-width="1px" opacity="0.25"></line><line x1="208.850998878479" y1="0" x2="208.850998878479" y2="176.89999961853027" fill="rgb(0, 0, 0)" stroke="rgb(66, 66, 66)" stroke-width="1px" opacity="0.25"></line><line x1="243.65949869155884" y1="0" x2="243.65949869155884" y2="176.89999961853027" fill="rgb(0, 0, 0)" stroke="rgb(66, 66, 66)" stroke-width="1px" opacity="0.25"></line><line x1="278.4679985046387" y1="0" x2="278.4679985046387" y2="176.89999961853027" fill="rgb(0, 0, 0)" stroke="rgb(66, 66, 66)" stroke-width="1px" opacity="0.25"></line></g><g><line x1="0" y1="176.89999961853027" x2="278.4679985046387" y2="176.89999961853027" fill="rgb(0, 0, 0)" stroke="rgb(66, 66, 66)" stroke-width="1px" opacity="0.25"></line><line x1="0" y1="165.10666631062824" x2="278.4679985046387" y2="165.10666631062824" fill="rgb(0, 0, 0)" stroke="rgb(66, 66, 66)" stroke-width="1px" opacity="0.25"></line><line x1="0" y1="153.3133330027262" x2="278.4679985046387" y2="153.3133330027262" fill="rgb(0, 0, 0)" stroke="rgb(66, 66, 66)" stroke-width="1px" opacity="0.25"></line><line x1="0" y1="141.51999969482418" x2="278.4679985046387" y2="141.51999969482418" fill="rgb(0, 0, 0)" stroke="rgb(66, 66, 66)" stroke-width="1px" opacity="0.25"></line><line x1="0" y1="129.72666638692218" x2="278.4679985046387" y2="129.72666638692218" fill="rgb(0, 0, 0)" stroke="rgb(66, 66, 66)" stroke-width="1px" opacity="0.25"></line><line x1="0" y1="117.93333307902013" x2="278.4679985046387" y2="117.93333307902013" fill="rgb(0, 0, 0)" stroke="rgb(66, 66, 66)" stroke-width="1px" opacity="0.25"></line><line x1="0" y1="106.13999977111818" x2="278.4679985046387" y2="106.13999977111818" fill="rgb(0, 0, 0)" stroke="rgb(66, 66, 66)" stroke-width="1px" opacity="0.25"></line><line x1="0" y1="94.34666646321617" x2="278.4679985046387" y2="94.34666646321617" fill="rgb(0, 0, 0)" stroke="rgb(66, 66, 66)" stroke-width="1px" opacity="0.25"></line><line x1="0" y1="82.55333315531414" x2="278.4679985046387" y2="82.55333315531414" fill="rgb(0, 0, 0)" stroke="rgb(66, 66, 66)" stroke-width="1px" opacity="0.25"></line><line x1="0" y1="70.75999984741209" x2="278.4679985046387" y2="70.75999984741209" fill="rgb(0, 0, 0)" stroke="rgb(66, 66, 66)" stroke-width="1px" opacity="0.25"></line><line x1="0" y1="58.96666653951008" x2="278.4679985046387" y2="58.96666653951008" fill="rgb(0, 0, 0)" stroke="rgb(66, 66, 66)" stroke-width="1px" opacity="0.25"></line><line x1="0" y1="47.17333323160804" x2="278.4679985046387" y2="47.17333323160804" fill="rgb(0, 0, 0)" stroke="rgb(66, 66, 66)" stroke-width="1px" opacity="0.25"></line><line x1="0" y1="35.37999992370609" x2="278.4679985046387" y2="35.37999992370609" fill="rgb(0, 0, 0)" stroke="rgb(66, 66, 66)" stroke-width="1px" opacity="0.25"></line><line x1="0" y1="23.586666615804052" x2="278.4679985046387" y2="23.586666615804052" fill="rgb(0, 0, 0)" stroke="rgb(66, 66, 66)" stroke-width="1px" opacity="0.25"></line><line x1="0" y1="11.793333307902035" x2="278.4679985046387" y2="11.793333307902035" fill="rgb(0, 0, 0)" stroke="rgb(66, 66, 66)" stroke-width="1px" opacity="0.25"></line><line x1="0" y1="0" x2="278.4679985046387" y2="0" fill="rgb(0, 0, 0)" stroke="rgb(66, 66, 66)" stroke-width="1px" opacity="0.25"></line></g></g></g><g><g><line x1="0" y1="589.6666653951008" x2="278.4679985046387" y2="589.6666653951008" fill="rgb(0, 0, 0)" stroke="rgb(153, 153, 153)" stroke-width="1.5px"></line></g></g><g><g><line x1="34.808499813079834" y1="0" x2="34.808499813079834" y2="176.89999961853027" fill="rgb(0, 0, 0)" stroke="rgb(153, 153, 153)" stroke-width="1.5px"></line></g></g><g><g><g><g><g><path style="fill: none;" stroke="rgb(0, 119, 187)" stroke-width="2px" d="M34.93381041240692,0L35.135699711322786,-1.1783907157960423e-13L35.240125210762024,-1.1783907157960423e-13L35.42809110975266,69.91304600276484L35.52555490922928,75.42736648936393L35.55340170907974,62.973980953369285L35.69959740829468,47.03694636701017L35.95021860694885,35.73308362504516L36.00591220664978,88.77572868705353L36.50715460395813,95.30872309247827L36.61158010339737,87.35728416091591L36.77169920253753,81.26016562352304L37.495715998649594,64.06269135234132L37.607103198051455,174.01943488348837L37.69760529756546,150.16974047478737L37.85076269674301,125.33337901325982L38.04569029569626,99.68924873272962L38.11530729532242,79.38564171824484L38.157077495098115,93.19079994173032L38.35896679401398,92.23157802776454L38.51908589315415,73.6135413432748L38.55389439296722,58.781391122948975L38.56781779289246,46.95530400155219L38.67920499229431,49.36897050933634L38.95767299079895,39.45773281009732L39.2431026892662,31.54226320914039L39.2848728890419,25.2185206961111L39.38929838848114,61.52169947718135L39.507647287845614,66.9157035488638L40.12723858451844,94.84379850609203L40.20381728410721,99.46628190062277L40.405706583023075,79.55725196190336L40.837331980705265,81.33692672251519L40.976565979957584,88.65991978656258L41.874625275135045,70.92073996302585L41.95120397472382,115.7177959857593L42.02778267431259,98.46642613675978L42.26448047304153,78.76904992442265L42.54294847154617,74.80791087270013L42.6404122710228,107.02394136298247L42.689144170761104,85.61687670081344L42.82837817001342,139.2580637926524L42.91191856956482,111.40455542257084L42.995458969116214,136.29833010392613L43.05115256881714,162.1097868103236L43.287850367546085,159.17106031834095L43.524548166275025,133.23279326114303L43.53847156620025,106.58564035754723L43.62897366571427,85.26813196897952L43.65682046556473,74.11101439530626L44.3877989616394,147.73965201593532L44.67322866010666,118.19145170810371L44.951696658611304,94.55298862822048L44.95865835857391,128.71258907950855L45.209279557228086,102.96995087030159L45.32066675662995,82.37588364468807L45.34155185651779,142.55755425314055L45.58521135520935,114.04597513084386L45.6060964550972,91.2367364108543L45.70356025457382,102.47273961756335L46.135185652256006,81.97816656777721L46.190879251956936,112.75589386078714L46.4345387506485,90.20469739411047L46.65731314945221,101.64709836755489L46.719968449115754,116.69768758155116L47.66675964403152,116.94481537444986L47.757261743545534,99.45251473757706L48.02876804208755,91.35533879847335L48.09838504171371,73.08426728063725L48.3141977405548,58.467411419299545L48.45343173980712,58.567258238860774L48.460393439769746,46.85380535751801L49.21921873569488,37.483043496529305L49.28187403535843,65.36643800614148L49.35149103498458,52.29314970000284L49.42806973457336,41.83451930885967L50.186895030498505,45.26094465560663L50.95268202638626,42.10542369719679L51.2311500248909,45.47766812251273L51.76720092201233,107.14213473200162L51.80200942182541,126.99037042618404L51.892511521339415,136.97229778340198L51.948205121040345,174.44116965032342L51.969090220928194,139.55293546777241L52.10832422018051,123.43567737118268L52.2336348195076,110.54187092750347L52.33109861898423,100.22682579405928L52.748800616741185,121.45812305821525L52.7557623167038,108.95982750721086L52.90195801591873,87.16786196442631L53.09688561487198,69.73428954508198L53.1525792145729,55.787431619131745L53.20827281427383,62.319942451753924L53.49370251274109,49.855953951717744L53.556357812404634,45.781431218667095L53.66078331184387,42.52181303313849L53.72343861150742,45.81077951809668L53.97405981016159,36.64862361156116L53.98102151012421,52.90556410331754L54.078485309600836,60.01444843420544L54.1968342089653,59.80488783760751L54.38480010795593,71.43057548153085L54.60757450675964,68.937789475242L54.72592340612412,61.04689963936109L55.5056338019371,48.83751971067388L56.27142079782486,86.24334619039476L56.278382497787476,104.37467828267135L56.417616497039795,83.49974262542368L56.42457819700241,125.76646064100458L56.529003696441656,177.26983571823075L56.70304619550705,159.50586572437703L57.07897799348831,139.39802166949752L57.204288592815395,146.89841866526297L57.371369391918186,141.10540014208763L57.538450191020964,124.67764920382973L57.55933529090881,123.32878457298521L58.17196488761902,104.55969571812795L58.50612648582459,83.64775657442561L58.902943383693696,90.50487046948972L59.05610078287125,113.68055873567857L59.11179438257217,90.94444698850018L59.17444968223572,114.03221995086726L59.355453881263735,97.12244402049939L59.63392187976837,95.3879523665011L59.65480697965622,82.2070299530166L59.87061967849731,89.35228917234684L59.982006877899174,83.2751604281518L60.24655147647857,172.7601279379405L60.26743657636643,208.96810149483844L60.36490037584305,178.6951299223621L60.49717267513275,148.85277199771176L60.650330074310304,119.08221759816637L60.99145337247848,101.16244213835749L61.13764907169342,98.6199508607891L61.59712126922608,84.79262874845641L61.611044669151305,67.83410299876444L61.97305306720734,66.06061148928879L62.06355516672134,70.53848634153444L62.18886576604843,56.43078907322732L62.4812571644783,51.041299318407695L62.73884006309509,46.72970751455193L62.81541876268387,37.38376601164143L63.24008246040344,35.803680869138994L63.41412495946884,69.91960705534383L63.49766535902023,67.7290147345524L63.51855045890808,54.18321178764187L63.67170785808563,61.03656658021674L63.915367356777196,60.62258235445081L63.99194605636597,48.49806588356064L64.23560555505752,38.79845270684844L64.444456553936,54.62542737540796L64.86912025165557,43.70034190032636L64.93873725128174,46.75360261053841L65.81591144657135,49.196211178708104L66.37980914354324,57.04696609306973L66.4076559433937,57.4309019647331L66.58169844245911,45.944721571786445L66.91586004066468,72.13577858701008L67.17344293928146,75.39862001971134L67.45887263774871,83.90556122569816L67.47279603767394,96.60778225031359L67.51456623744964,159.83955754969003L67.57722153711319,145.56164318985532L67.73734063625335,163.62264497174252L68.0645405344963,183.96811445707826L68.44743403244019,147.17449156566266L68.46831913232803,159.01625561256253L68.47528083229065,133.10967254987594L68.53097443199158,106.48773803990072L68.79551903057099,96.98351952219794L68.99044662952423,89.38014470803567L69.12271892881394,71.50411576642857L69.26195292806625,80.789957823072L69.47776562690734,64.63196625845761L70.16697392320633,75.29223821669525L70.22962922286986,89.7171238431113L70.2435526227951,89.4636962245923L70.53594402122498,71.57095697967384L70.56379082107544,63.15343364356492L70.66821632051467,50.52274691485192L70.69606312036515,40.41819753188152L70.91883751916885,79.50788844536345L71.00933961868286,87.1929759662199L71.18338211774825,69.7543807729759L71.27388421726228,79.39016982830987L71.37830971670151,81.20213301275113L71.44096501636506,64.9617064102009L71.67070111513138,57.866033187986574L71.83778191423417,46.29282655038928L71.858667014122,42.93092930013734L72.13713501262664,63.82807670986489L72.19282861232757,56.95912942771776L72.4225647110939,45.56730354217421L72.71495610952377,48.24717192401669L72.77761140918733,38.59773753921338L73.1605049071312,54.46485524129981L74.26045350122452,43.57188419303985L74.69904059886932,34.85750735443184L74.89396819782257,33.7826739433714L75.05408729696275,50.61280436462627L75.40913399505615,93.56024197138521L75.64583179378509,86.64152266738547L75.7363338932991,69.31321813390834L76.27238479042053,67.24390359740404L76.44642728948594,59.691790937749076L76.55781448888779,71.34009796012839L76.64135488843918,57.07207836810274L76.94766968679427,63.347659844585436L77.351448284626,50.67812787566833L77.53941418361663,46.439170360360556L77.56726098346711,54.8413334383917L78.14508208036423,55.66639584099069L78.27039267969133,62.22311382289584L78.52101387834549,67.46848820841994L78.88998397636414,107.04478904642015L78.90390737628937,115.11916450689122L79.07098817539215,103.88866069579032L79.07794987535476,89.00759661645814L79.11275837516786,88.89607444326977L79.14756687498092,124.1868580343L80.25447716903687,128.832819697195L80.37978776836395,132.549589027511L80.41459626817704,123.72966837211204L80.50509836769105,98.98373469768964L80.53990686750413,85.08365581797767L80.65129406690598,109.34358701441451L80.68610256671906,146.44153615104165L80.74875786638259,123.0498969806592L80.86014506578445,139.71657994455978L81.26392366361618,117.66993201547372L81.59112356185912,94.13594561237896L81.6607405614853,75.30875648990315L81.79997456073761,72.04033428219982L82.16198295879363,63.52893548558576L82.44045095729827,62.61647747874594L82.49614455699921,126.74984918729726L82.95561675453186,160.3665458893479L82.97650185441971,134.18990477130416L83.05308055400849,119.14525290732068L83.47774425172805,113.0061994759598L83.51255275154114,96.30162764059376L83.52647615146637,94.7312992625783L83.91633134937287,75.78503941006265L84.35491844701767,113.69803000773432L84.37580354690552,90.95842400618744L84.4175737466812,78.66340726477591L84.68211834526062,68.82739387164663L84.9814714436531,96.33857745734971L85.30170964193344,118.34752432591219L85.44790534114838,94.67801946072974L85.68460313987731,93.43241271868709L85.8934541387558,74.74593017494968L85.99787963819504,77.48674129006302L86.09534343767166,109.16272345190868L86.57570073509217,116.81351203128202L86.77062833404541,93.45080962502564L86.79847513389586,80.6573157598464L86.81239853382111,64.52585260787713L86.89593893337249,75.20734729623082L87.06301973247528,66.06254589681056L87.14656013202668,52.850036717448425L87.2440239315033,42.28002937395873L87.32060263109207,45.61735258944428L87.66868762922287,42.390550131381275L87.7313429288864,33.91244010510502L87.74526632881164,27.12995208408398L87.98196412754059,21.703961667267187L88.02373432731628,52.743170663394665L88.13512152671814,124.74786828015492L88.6015554242134,105.69496268394978L88.62244052410125,84.55597014715984L88.80344472312927,73.54144417755374L89.06798932170868,70.62648443232034L89.0749510216713,56.50118754585626L89.2559552206993,45.20095003668499L89.37430412006378,77.43742238938043L89.49265301942826,67.84660597133019L89.7711210179329,71.96728192716742L89.81289121770858,75.26382269183719L90.00781881666182,107.38438857332805L90.40463571453094,115.39084412841748L90.8223377122879,98.20934336255988L91.04511211109161,108.05080795980294L91.35142690944672,110.02731157777148L91.50458430862427,158.78184840669178L91.64381830787659,168.30214108538584L92.00582670593262,146.43504195858603L92.09632880544662,140.73469877679796L92.4304904036522,142.07109229119334L92.52795420312881,113.65687383295469L92.56276270294188,90.92549906636376L93.02919660043717,108.12040058267193L93.12666039991377,110.0829856760667L93.2658943991661,88.06638854085334L93.920294195652,70.45311083268267L94.31711109352112,62.259156725972L94.3588812932968,61.60065447105494L94.42153659296036,61.07385266712128L94.80443009090423,48.85908213369699L95.08985978937149,39.087265706957574L95.11770658922195,48.9598097156693L95.33351928806304,50.96117686281276L95.50060008716582,46.665609550076155L95.54237028694153,96.29915417957096L95.73729788589478,124.21265376351502L95.90437868499755,111.16345210108932L95.91830208492279,136.10409210072973L96.23157858324052,120.67660277086115L96.30119558286667,96.54128221668893L96.52396998167039,77.2330257733511L96.55877848148346,61.78642061868087L96.60751038122177,49.42913649494469L96.88597837972641,45.439977255781706L96.91382517957686,36.35198180462536L97.3593739771843,40.87491453397763L97.50556967639923,44.49326071745944L97.69353557538986,47.387937664244866L97.86757807445525,43.80701819122179L98.30616517210007,94.01228109248751L98.52197787094116,81.1064929338159L98.93967986869812,76.67852343733003L99.21814786720276,79.0328158999673L99.48965416574478,139.8829199242744L99.57319456529616,111.90633593941952L99.63584986495972,89.52506875153558L99.74027536439897,124.69005348091271L99.86558596372605,105.64871084455605L99.96304976320266,143.4856352151549L100.05355186271667,132.47850532222716L100.08836036252976,105.98280425778171L100.15797736215592,84.7862434062254L100.63833465957642,103.20899605456125L101.20919405651092,106.15386205357817L101.27184935617447,96.71641873313985L101.40412165546417,130.4431334661961L102.13510015153885,151.52783719281516L102.14206185150147,121.22226975425215L102.4205298500061,138.25447816343413L102.70595954847336,145.98358386032825L102.71292124843598,116.78686708826262L102.83823184776307,93.42949367061009L103.12366154623032,86.53692402676539L103.20024024581909,128.19620576092237L103.2907423453331,102.55696460873787L103.38124444484711,93.83890077726765L103.49959334421158,75.07112062181409L103.68755924320222,65.95356455727716L103.84767834234238,58.65951970564759L104.06349104118347,52.82428382434396L104.07045274114608,42.25942705947514L104.07741444110871,122.25754145684516L104.14703144073486,103.70270122530204L104.23753354024888,118.34216230982257L104.27930374002457,112.36372699796131L104.3767675395012,107.5809787484723L104.8640865368843,97.85811208905518L105.05205243587493,119.5631520312765L105.26786513471603,107.44385071529857L105.38621403408051,97.74840966251621L105.75518413209915,89.99205682029032L105.87353303146362,83.78697454650957L105.92226493120194,102.40958096678858L106.29819672918319,81.9276647734309L106.37477542877197,71.43879987857066L106.80640082645417,57.15103990285652L106.82728592634201,51.61749998211112L106.83424762630463,47.19066804551475L107.17537092447282,49.5458635266891L107.5234559226036,39.63669082135126L107.5652261223793,49.39934980718428L107.57218782234192,86.6928102656057L107.61395802211761,98.83758148223956L107.9133111205101,79.07006518579165L108.03166001987458,63.256052148633295L108.33101311826707,97.77817213876489L108.57467261695862,90.01586680128928L108.8322555155754,72.01269344103142L108.90187251520157,57.61015475282512L108.91579591512681,63.77812095236338L109.34742131280899,51.02249676189073L109.41703831243515,58.50799455961587L109.46577021217347,70.39306085762182L109.7929701104164,56.314448686097435L110.28725080776215,80.43156027845892L111.54731850099564,70.24191628259298L111.58212700080871,103.36686344593264L111.63782060050964,123.9701531167785L111.76313119983672,99.17612249342282L112.04159919834136,79.34089799473824L112.20867999744415,69.36938645561645L112.25045019721985,96.77217152452558L112.25741189718246,77.41773721962046L112.4941096959114,61.93418977569637L112.57068839550018,73.13401703048619L112.86307979393005,64.4038816842148L112.90484999370574,81.0064386171269L112.96054359340668,82.49514804380482L113.68456038951874,83.68611558514712L113.69152208948135,66.94889246811768L114.13010918712615,83.04244724424913L114.19972618675233,66.4339577953993L114.2345346865654,53.14716623631948L114.47123248529435,66.10439819898473L114.50604098510742,76.47018376911687L114.59654308462142,61.176147015293516L114.61046648454666,48.94091761223477L115.04905358219148,50.94606318006514L115.4110619802475,40.756850544052114L115.64079807901382,73.88214279527409L116.23254257583618,82.69237944614838L116.51101057434082,72.05057161674465L116.65024457359314,87.1237905631508L116.71289987325669,69.69903245052062L116.85909557247163,55.75922596041652L117.07490827131271,44.6073807683332L117.08883167123794,53.37590176476981L117.2837592701912,48.59738947164169L117.42299326944352,38.87791157731334L117.48564856910706,31.10232926185066L117.52741876888274,30.778531469306397L118.03562286615372,30.51949323527098L118.1539717655182,30.312262648042715L118.53686526346208,53.73314338818919L118.87798856163025,42.986514710551354L119.56719685792923,81.56254218829937L119.5950436577797,82.94003090074278L119.9848988556862,78.14535381087157L120.23552005434037,62.51628304869723L120.45133275318146,73.59969164888689L120.46525615310668,64.77642137893544L120.54879655265809,57.717805162974244L120.8133411512375,93.34757455023765L121.09180914974213,98.26472485011926L121.1196559495926,78.6117798800954L121.13357934951782,86.47608911400546L121.27977504873276,69.18087129120437L121.28673674869538,120.20802811761226L121.39116224813462,131.54642382367075L121.474702647686,122.92713620903986L121.66266854667664,110.13503805750919L121.67659194660187,94.00469850583319L121.69051534652709,98.79042401459569L122.20568114376069,90.82566830195387L122.53288104200364,108.04053597114401L122.86008094024658,104.1224259270185L123.27778293800354,95.09126983189215L123.79294873523712,99.65968107544282L123.85560403490067,126.90107528021257L124.62139103078842,178.17752742847054L124.64923783063888,177.9220232723574L124.9207441291809,148.2342866777118L125.11567172813415,136.2774264922727L125.14351852798463,109.02194119381812L125.28971422719955,146.18421949456456L125.38021632671355,122.84404365547753L125.47768012619018,169.03523406885668L125.64476092529297,135.22818725508532L125.95107572364806,108.18254980406823L126.6193989200592,92.44270790308046L127.0510243177414,121.12749674232262L127.12760301733017,108.69532648413545L127.42695611572266,98.74959027758568L127.74023261404038,90.79300131234594L128.0117389125824,96.2210662598059L128.22058991146088,82.87352106767061L128.47817281007767,66.29881685413649L128.94460670757294,53.03905348330918L129.13953430652617,54.224571876924664L129.1952279062271,49.27632556136565L129.64773840379715,57.11105759919582L129.78001070308684,51.58551413918255L129.79393410301208,64.8550765212752L129.81481920289994,81.36739448677521L129.90532130241394,70.99058364924609L130.43441049957275,56.79246691939686L130.89388269710543,63.123970685620755L131.09577199602128,62.292505638773946L131.22108259534835,49.83400451101915L131.5065122938156,69.35053687857037L131.68751649284363,61.37709756268219L132.0704099907875,60.89500714042309L132.13306529045104,48.71600571233847L132.31406948947907,44.86947262969668L132.59253748798372,88.96557658344155L133.3722478837967,88.86245841685648L133.50452018308638,76.98663479331107L133.58109888267518,96.9693091642298L133.70640948200227,89.36877642166117L134.0684178800583,77.39168919715489L134.11714977979662,73.70668044800125L134.70193257665633,58.965344358400976L134.73674107646943,82.55227681630168L134.78547297620773,89.62848666297053L135.05001757478715,142.46278847485107L135.09178777456282,119.86689883970675L135.18925157403945,95.89351907176543L135.2449451737404,82.61148331723818L135.251906873703,89.67585186371971L135.7253024711609,95.32734670090491L135.9968087697029,93.95187451082722L136.2892001681328,81.05816766848768L136.60943836641312,70.74320219461602L136.76259576559067,62.49122981551867L137.45876576185225,61.78631294269226L137.5631912612915,49.429050354153766L137.97393155908586,45.43990834314894L138.19670595788958,89.42192515420336L138.28720805740355,83.33086921364001L138.315054857254,78.45802446118935L138.68402495527266,68.66308762877743L138.71187175512313,54.93047010302194L138.8162972545624,67.53104129234671L139.36627155160903,71.71483018398065L139.68650974988938,57.3718641471845L139.693471449852,81.27749264732851L139.72131824970245,65.0219941178628L139.9997862482071,52.017595294290274L140.0972500476837,124.16740798487139L140.19471384716033,111.12725547817446L140.29913934659956,112.48846959246873L140.45925844573972,95.88744373380095L140.52191374540328,88.50328407731806L140.6193775448799,70.80262726185443L141.4478198404312,115.60876834899364L141.55920703983307,92.48701467919489L141.6566708393097,73.98961174335594L141.75413463878633,59.19168939468478L141.81678993844986,118.11335066022248L142.15095153665544,118.07734573810707L142.26233873605727,100.35854465031156L142.30410893583297,92.0801648105266L142.4085344352722,120.83746226827957L142.4503046350479,102.5666378744496L142.64523223400116,82.05331029955966L143.48063622951508,77.43597732992507L143.67556382846834,73.7421109542174L143.8844148273468,58.99368876337393L144.19072962570192,88.47161337073153L144.26034662532805,70.77729069658521L144.44831252431868,56.621832557268164L144.52489122390747,45.29746604581453L144.7546273226738,77.51463519668405L144.8103209223747,62.011708157347265L144.94259322166442,90.88602888591019L145.0191719212532,119.8821535285864L145.31156331968307,107.69905191314643L145.64572491788863,109.7459067404463L145.65268661785126,87.79672539235702L146.41847361373902,105.61738164346657L146.7247884120941,96.28723440505061L147.01021811056137,94.71978467414374L147.0659117102623,87.56915682959232L147.48361370801925,70.05532546367385L147.49057540798185,56.04426037093911L147.8386604061127,44.83540829675125L147.8595455060005,53.558323787504285L147.87346890592573,60.53665618010667L147.91523910570143,54.32599300391119L148.3747113032341,43.46079440312893L148.6044474020004,52.45863267260638L148.92468560028078,47.86357419791099L149.05695789957045,44.187527418154644L149.0778429994583,35.35002193452374L149.1683450989723,57.76335081737398L150.39360429239272,46.210680653899175L150.40752769231796,36.96854452311935L150.47714469194415,47.264832768598716L151.28470188760755,73.19186754445994L151.31254868745805,58.553494035567944L152.001756983757,52.739463288280284L152.2245313825607,53.984899720901566L152.32199518203737,49.08458783654714L152.3428802819252,39.26767026923772L152.509961081028,37.310804275216114L152.78842907953262,41.64197251045023L152.81627587938308,33.313578008360196L153.1713225774765,32.547530466514054L153.26878637695313,55.52135764296631L153.53333097553252,50.313754174198976L153.55421607542038,40.2510033393592L153.68648837471008,32.20080267148735L153.9928031730652,37.553971227467215L154.0345733728409,53.62984219190291L154.0415350728035,66.49053896345143L154.15292227220536,53.19243117076115L154.23646267175675,54.34727402688629L154.75162846899033,43.47781922150903L154.76555186891557,117.33558712664642L154.89782416820526,135.14513206134953L154.9883262677193,108.1161056490796L155.05794326734542,104.18288166936695L155.11363686704635,101.03630248559682L155.90030896282195,92.62237107875478L156.15789186143877,121.27122728286211L156.74267465829848,102.91364988611562L157.07683625650407,100.02091705899578L157.45276805448532,85.91340170702259L157.55719355392455,68.73072136561802L157.56415525388718,54.98457709249444L157.66858075332644,114.74766081847014L157.8286998524666,103.59145774505343L157.94704875183106,88.76983425586863L158.0097040514946,100.49920067445001L158.24640185022352,98.08935768966325L158.50398474884034,78.47148615173062L158.82422294712066,62.777188921384486L159.234963244915,126.87841834140815L159.2836951446533,101.50273467312653L159.29065684461594,104.78885294843035L159.3185036444664,89.72775041857012L159.6665886425972,77.678868394682L159.78493754196165,68.03976277557145L159.86847794151308,54.43181022045714L160.1539076399803,108.40877926101446L160.17479273986817,104.41702055891484L160.3627586388588,89.43028450695775L160.56464793777465,77.44089566539213L160.73172873687744,61.95271653231368L160.8779244360924,49.56217322585093L160.96146483564377,45.546406640506696L161.0171584353447,60.0237905223345L161.04500523519516,71.60569762779676L161.07285203504563,57.28455810223742L161.56017103242874,69.41431169171902L162.04052832984922,85.01478262313027L162.43038352775574,85.70182324860751L162.52088562726973,74.45812665871189L162.9385876250267,77.25649847707275L163.02212802457808,61.80519878165824L163.1056684241295,90.72082138535902L163.2100939235687,84.36998619856455L163.3771747226715,85.1859861089549L163.46767682218552,68.14878888716393L163.53033212184909,89.89903243931212L163.75310652065275,77.81589401127563L164.40750631713868,62.25271520902048L164.44231481695175,55.69884022704223L164.53281691646575,56.35240127191115L164.60939561605454,62.77191816763221L165.39606771183014,67.90753168420902L165.40302941179277,60.222693407193184L165.44479961156844,54.07482278558037L165.46568471145628,90.43318864832258L165.5492251110077,95.9332161285872L165.65365061044693,76.74657290286973L166.3707057065964,67.29392638212173L166.41247590637207,71.52513825580066L167.01814380311964,74.9101077547438L167.33142030143736,59.92808620379502L167.35230540132522,47.94246896303603L167.77000739908217,38.3539751704288L167.83962439870834,30.683180136343026L167.86747119855883,30.44321216890031L167.87443289852143,24.35456973512028L168.53579439496994,37.17365293819951L168.54971779489517,35.635590410385475L169.01615169239045,40.3018014185857L169.3015813908577,55.82810634479766L169.6496663889885,44.66248507583811L169.70535998868942,35.72998806067045L169.80978548812865,40.3773195388137L169.90724928760528,32.301855631050955L170.0047130870819,31.738152564666592L170.38064488506316,60.77052338131422L170.54772568416598,54.51308676487727L170.5686107840538,43.6104694119018L170.88188728237154,52.578372679624685L171.37616797971725,83.33936050373217L171.48755517911908,66.67148840298572L171.63375087833404,71.02718787249184L171.68248277807234,62.718418357819424L172.3925761742592,56.07140274608138L172.40649957418444,50.753790256691026L172.93558877134325,46.49970026517866L173.07482277059555,43.09642827196879L173.3115205693245,34.477142617575055L173.42290776872633,33.478382153885995L173.49948646831513,32.6793737829347L173.91022676610947,61.52350035592866L173.9171884660721,49.21880028474292L173.94503526592257,57.06503737789758L174.03553736543654,45.65202990231806L174.13996286487577,42.41829198168034L174.56462656259535,33.93463358534426L174.9753668603897,33.044374928101355L176.20758775377274,38.228829032758384L176.35378345298767,36.47973128603264L176.56263445186616,40.977114119103405L176.78540885066988,74.05835365531514L176.84806415033339,59.24668292425214L176.98033644962308,47.397346339401736L177.1056470489502,37.91787707152141L177.47461714696885,30.334301657217132L177.61385114622115,65.54410368580609L177.7670085453987,52.4352829486449L177.92712764453887,53.741555449193214L178.04547654390336,42.9932443593546L178.0663616437912,34.394595487483635L178.08724674367906,27.515676389986893L178.34482964229582,22.01254111198952L178.53975724124908,35.30003003969491L178.66506784057617,63.620025361336836L178.67899124050143,86.2760216186504L179.3333910369873,69.02081729492033L179.52135693597793,84.69998710569126L179.70236113500596,79.55331877483037L179.87640363407135,69.53932307969025L179.8972887339592,55.63145846375223L180.6352289299965,44.50516677100178L180.66307572984695,53.29413056690469L180.76750122928618,48.53197251334969L180.78142462921141,56.51557516078302L180.8162331290245,45.212460128626404L180.8580033288002,59.75663331283024L180.94850542831423,47.80530665026418L181.00419902801514,67.72757858996641L181.25482022666932,54.1820628719731L181.36620742607116,49.242318357404415L181.90225832319257,39.39385468592349L182.05541572237016,66.89508507831972L182.15287952184676,136.06939981209496L182.20857312154772,108.85551984967596L182.2503433213234,110.6710810896699L182.4313475203514,106.2268620218392L182.45919432020185,90.87815767729728L182.62627511930467,72.70252614183782L182.70285381889343,64.0586889732962L182.8629729180336,63.04028026891428L182.946513317585,56.32889227495733L183.1692877163887,74.54644708972097L183.71926201343535,59.63715767177676L183.92115131235124,47.7097261374214L184.24138951063156,55.857778060040424L185.05590840625763,50.582890507858224L185.06983180618286,46.362980466112425L185.1324871058464,37.09038437288993L185.16033390569686,29.672307498311945L185.1672956056595,88.60117708329828L185.2160275053978,106.26094299621957L185.32741470479965,96.80208348725301L185.71030820274353,77.44166678980237L185.72423160266877,73.74666252211924L186.01662300109865,64.8939980775213L186.11408680057525,57.81186652184298L186.6570993976593,69.83615842740355L186.70583129739762,67.66225583220016L186.88683549642562,54.129804665760126L188.40448608827592,55.09717282288542L188.57156688737868,49.97440631813425L188.7595327863693,45.87619311433332L188.91269018554686,42.597622551292595L188.98230718517303,57.66476325096321L189.0936943845749,57.92513969104791L189.56012828207017,46.34011175283834L189.86644308042526,66.55542267202576L189.93606008005142,70.93433528772385L189.94998347997665,56.74746823017912L189.99871537971498,57.19130367442061L190.1031408791542,45.753042939536456L190.59742157649993,95.56910089113924L190.61134497642516,76.45528071291139L190.86892787504195,61.164224570329104L191.20308947324753,48.93137965626331L191.5442127714157,39.14510372501063L191.6695233707428,37.21275103983436L191.91318286943437,29.770200831867513L192.17076576805115,23.816160665494035L192.4561954665184,78.01959507190527L192.85301236438752,62.415676057524216L193.22894416236878,61.725869936296704L193.39602496147157,67.07069309914063L193.40298666143417,59.55322253913843L194.37762465620042,88.91924039134311L194.56559055519105,77.03206037290038L194.80925005388258,73.41897738859768L194.8510202536583,70.5285110011555L194.87886705350877,62.31947686075033L195.29656905126572,61.64891057887758L195.3313775510788,49.319128463102054L195.4218796505928,51.248631860759005L195.58199874973297,46.895573548433106L195.66553914928437,37.51645883874647L196.75156434345246,35.909835130823005L197.00218554210664,28.727868104658427L197.15534294128418,40.67229163383003L197.22495994091034,38.43450136688985L197.55912153911592,30.747601093511864L197.75404913806915,24.59808087480945L197.76101083803178,31.471793790124902L198.40844893455505,31.074103091925764L198.67299353313447,36.652611563817956L199.0280402312279,29.322089251054397L199.04196363115312,29.354339460669387L199.29258482980725,29.380139628361455L199.41789542913438,58.88411303227009L199.4387805290222,58.900619516093414L199.92609952640532,47.12049561287472L200.61530782270432,37.6963964902998L201.37413311862943,36.0537852520657L201.55513731765748,28.843028201652583L202.07030311489106,34.86775165159943L202.37661791324615,33.79086938110541L202.41838811302185,32.929363564710215L202.73166461133957,67.62015321180058L203.42087290763857,65.88945165971782L203.84553660535812,58.608229387600105L204.0126174044609,46.88658351008009L204.36766410255433,37.509266808064055L204.5208215017319,30.007413446451203L204.61132360124586,41.69592790726423L204.91763839960097,74.63340468584376L205.15433619832993,65.6033918085009L205.18218299818037,76.06937865672985L205.30053189754486,72.6488320156612L205.3144552974701,64.01573367235483L206.1080890932083,63.00591602816123L206.24732309246065,50.404732822528985L206.31694009208678,69.80711952777823L206.49098259115218,67.63902471249989L206.7903356895447,60.00788782982579L206.8877994890213,53.902978323686504L207.16626748752594,43.1223826589492L207.5839694852829,40.39457418698522L207.65358648490906,55.902324559517325L207.73016518449785,56.515188737891215L207.75801198434831,57.00548008059033L207.980786383152,45.6043840644723L208.0295182828903,36.48350725157784L208.17571398210526,52.77347101119138L208.4193734807968,42.2187768089531L208.55860748004915,39.671689506988315L208.57253087997435,73.01401396562305L208.69087977933884,58.411211172498454L208.78834357881544,88.00563129803118L209.21996897649765,76.30117309825079L209.2338923764229,66.93760653842658L209.630709274292,53.55008523074126L209.70032627391817,42.84006818459303L210.06233467197418,34.27205454767444L210.15283677148818,33.31431169796547L210.5844621691704,26.65144935837235L210.75154296827316,33.11448857697525L211.62175546360015,26.4915908615802L211.9419936618805,27.089940749090047L212.10211276102066,27.568620659097977L213.11155925559996,22.054896527278405L213.36914215421677,23.54058528164867L213.45268255376817,24.729136285144765L213.6336867527962,43.369974238044946L213.74507395219803,40.592647450261886L213.75899735212326,50.16411511031279L213.8146909518242,40.13129208825026L213.82861435174942,43.89836276087756L214.12100575017928,46.91201929897936L214.5178226480484,37.52961543918346L214.62224814748762,65.40369368092773L214.62920984745026,52.32295494474221L214.99817994546888,41.85836395579375L215.1652607445717,51.17668831473831L215.23487774419783,40.94135065179062L215.31841814374926,44.54640961170983L215.74308184146884,35.637127689367865L216.20255403900146,46.19969930159753L216.26520933866502,36.95975944127805L216.48798373746874,29.567807553022444L216.55063903713224,35.44757513269526L216.6063326368332,34.25472816598205L216.66202623653413,39.19711162306297L216.87783893537522,60.841022568205474L216.89176233530043,78.15615132431945L217.08668993425368,62.52492105945558L217.44173663234713,55.916604907390315L217.643625931263,86.00994628594466L217.6575493311882,68.80795702875571L217.83159183025361,78.63303083293373L217.9220939297676,62.90642466634699L217.93601732969285,56.22180779290348L217.9986726293564,50.874114294148704L218.4372597270012,46.595959495144804L218.7435745253563,60.86343280604499L218.77838302516935,48.69074624483598L219.2308935227394,56.64259414597208L219.64163382053374,57.107404407054986L219.89921671915056,57.4792526159213L219.9340252189636,75.46673536249212L219.9688337187767,60.37338828999372L220.03845071840286,77.78204390175006L220.19856981754302,62.22563512140006L220.30995701694488,49.780508097120034L220.55361651563643,51.61773556797332L220.6232335152626,47.19085651420453L220.63715691518783,108.51268435583823L220.66500371503832,98.60347657494795L220.69285051488876,84.77944931978419L220.91562491369245,67.82355945582735L221.05485891294478,54.25884756466189L221.47952261066436,43.407078051729535L221.486484310627,46.51899153166097L221.4934460105896,72.5951945549097L222.17569260692596,63.972823703753654L222.56554780483248,51.178258963002925L222.87186260318757,52.73593626067971L222.9762881026268,71.67208227829875L223.10856040191652,63.23433388246487L223.18513910150529,50.587467105971925L223.498415599823,46.366641744603406L223.6306878991127,37.093313395682685L223.74903679847716,53.261315926475284L223.9370026974678,48.50572080100618L224.91860239219665,38.80457664080492L225.329342689991,31.04366131264393L225.52427028894425,24.83492905011512L225.8514701871872,25.764611299917938L225.87235528707504,32.40501813021172L225.9350105867386,25.924014504169357L226.40144448423385,20.739211603335498L226.5128316836357,16.591369282668428L226.5546018834114,13.273095426134763L227.13242298030852,28.308473491011103L227.16026978015898,46.23344400273801L227.3064654793739,36.98675520219038L227.6823972773552,59.0727374315073L228.19060137462617,59.051519035483146L228.28806517410277,47.24121522838653L228.51780127286912,49.58630127298655L228.57349487257005,39.66904101838922L228.60134167242052,31.735232814711352L228.62918847227095,25.388186251769074L228.99815857028963,20.3105490014153L229.01208197021484,22.145107260958117L229.1582776694298,29.509414899043854L229.54813286733628,29.504199979061035L229.7778689661026,23.60335998324882L230.04937526464462,48.36602125635415L230.44619216251374,38.69281700508332L230.51580916213987,30.95425360406662L231.14932385873794,24.763402883253317L231.28159615802764,19.81072230660266L232.2075022530556,27.641906935559433L232.2631958527565,39.803522698550815L232.43027665185926,73.11948051887309L232.67393615055084,58.495584415098484L232.86190204954147,52.69313559190473L232.88278714942933,53.947837563801144L232.93848074913026,43.158270051040915L233.05682964849473,46.31994513111009L233.07771474838256,78.33261846492047L233.32137424707415,74.45942386221373L233.45364654636384,59.56753908977098L233.80869324445723,77.13736454157186L233.9061570439339,85.29655684318662L234.01754424333572,74.13391353437514L234.10804634284972,71.10045991777746L235.24976513671874,56.880367934221994L235.26368853664397,69.09095955730672L235.68139053440095,55.2727676458454L235.87631813335418,44.2182141166763L236.50287112998964,35.37457129334106L236.51679452991488,40.092986124950215L236.586411529541,37.971056959786004L237.094615626812,30.376845567828823L237.52624102449417,30.198144514089005L237.57497292423247,47.745180821200314L237.81167072296142,38.19614465696026L238.5008790192604,36.45358378539415L238.8559257173538,35.05953508814121L239.12743201589583,33.944296130338884L239.1552788157463,44.845434054374365L239.51032551383972,77.15300960353191L239.69829141283034,61.72240768282554L239.91410411167146,49.377926146260464L239.94891261148453,39.50234091700837L240.1090317106247,31.6018727336067L240.21345721006392,31.178166246711278L240.3248444094658,36.73586208764633L240.6311592078209,29.38868967011704L241.01405270576478,41.200948886196905L241.12543990516662,44.754088199234864L241.36909940385817,47.59659964966525L241.41086960363387,49.87060881000956L241.49441000318527,51.689816138284975L241.6684525022507,94.42185139031217L242.0861545000076,87.33081020252706L242.1557714996338,81.65797725229898L242.2045033993721,65.3263818018392L242.32285229873656,58.15777350129723L242.48297139787672,58.319547891315096L242.60132029724122,52.55230637287797L242.6848606967926,47.93851315812829L242.78232449626924,50.14413961677995L243.06079249477386,51.90864078370128L243.40191579294205,41.52691262696101L243.4784944925308,33.22153010156883L243.6525369915962,32.47389214108094L244.04239218950272,25.979113712864763L244.12593258905412,26.679959030117708L244.2164346885681,21.343967224094186L244.43920908737184,17.07517377927536" fill="none"></path></g></g></g></g><g opacity="0.2"><g><g><g><path style="fill: none;" stroke="rgb(0, 119, 187)" stroke-width="2px" d="M34.93381041240692,0L35.135699711322786,0L35.240125210762024,0L35.42809110975266,206.383311800162L35.52555490922928,88.44998575051628L35.55340170907974,29.48334029912946L35.69959740829468,0L35.95021860694885,0L36.00591220664978,265.3499923984209L36.50715460395813,117.93332604964574L36.61158010339737,58.9666454513868L36.77169920253753,58.9666454513868L37.495715998649594,0L37.607103198051455,589.6666653951008L37.69760529756546,58.9666454513868L37.85076269674301,29.48334029912946L38.04569029569626,0L38.11530729532242,0L38.157077495098115,147.4166663487752L38.35896679401398,88.44998575051628L38.51908589315415,0L38.55389439296722,0L38.56781779289246,0L38.67920499229431,58.9666454513868L38.95767299079895,0L39.2431026892662,0L39.2848728890419,0L39.38929838848114,206.383311800162L39.507647287845614,88.44998575051628L40.12723858451844,206.383311800162L40.20381728410721,117.93332604964574L40.405706583023075,0L40.837331980705265,88.44998575051628L40.976565979957584,117.93332604964574L41.874625275135045,0L41.95120397472382,294.8333326975504L42.02778267431259,29.48334029912946L42.26448047304153,0L42.54294847154617,58.9666454513868L42.6404122710228,235.86665209929149L42.689144170761104,0L42.82837817001342,353.7999957223733L42.91191856956482,0L42.995458969116214,235.86665209929149L43.05115256881714,265.3499923984209L43.287850367546085,147.4166663487752L43.524548166275025,29.48334029912946L43.53847156620025,0L43.62897366571427,0L43.65682046556473,29.48334029912946L44.3877989616394,442.2499990463256L44.67322866010666,0L44.951696658611304,0L44.95865835857391,265.3499923984209L45.209279557228086,0L45.32066675662995,0L45.34155185651779,383.2833360215028L45.58521135520935,0L45.6060964550972,0L45.70356025457382,147.4166663487752L46.135185652256006,0L46.190879251956936,235.86665209929149L46.4345387506485,0L46.65731314945221,147.4166663487752L46.719968449115754,176.90000664790466L47.66675964403152,117.93332604964574L47.757261743545534,29.48334029912946L48.02876804208755,58.9666454513868L48.09838504171371,0L48.3141977405548,0L48.45343173980712,58.9666454513868L48.460393439769746,0L49.21921873569488,0L49.28187403535843,176.90000664790466L49.35149103498458,0L49.42806973457336,0L50.186895030498505,58.9666454513868L50.95268202638626,29.48334029912946L51.2311500248909,58.9666454513868L51.76720092201233,353.7999957223733L51.948205121040345,324.3166554232438L51.969090220928194,0L52.10832422018051,58.9666454513868L52.2336348195076,58.9666454513868L52.33109861898423,58.9666454513868L52.748800616741185,206.383311800162L52.7557623167038,58.9666454513868L52.90195801591873,0L53.09688561487198,0L53.1525792145729,0L53.20827281427383,88.44998575051628L53.49370251274109,0L53.556357812404634,29.48334029912946L53.66078331184387,29.48334029912946L53.72343861150742,58.9666454513868L53.97405981016159,0L53.98102151012421,117.93332604964574L54.078485309600836,88.44998575051628L54.1968342089653,58.9666454513868L54.38480010795593,117.93332604964574L54.60757450675964,58.9666454513868L54.72592340612412,29.48334029912946L55.5056338019371,0L56.27142079782486,235.86665209929149L56.278382497787476,176.90000664790466L56.417616497039795,0L56.42457819700241,294.8333326975504L56.529003696441656,383.2833360215028L56.70304619550705,88.44998575051628L57.07897799348831,58.9666454513868L57.204288592815395,176.90000664790466L57.371369391918186,117.93332604964574L57.538450191020964,58.9666454513868L57.55933529090881,117.93332604964574L58.17196488761902,29.48334029912946L58.50612648582459,0L58.902943383693696,117.93332604964574L59.05610078287125,206.383311800162L59.11179438257217,0L59.17444968223572,206.383311800162L59.355453881263735,29.48334029912946L59.63392187976837,88.44998575051628L59.65480697965622,29.48334029912946L59.87061967849731,117.93332604964574L59.982006877899174,58.9666454513868L60.24655147647857,530.6999979769189L60.29528337621689,265.3499923984209L60.3440152759552,88.44998575051628L60.36490037584305,117.93332604964574L60.49717267513275,29.48334029912946L60.650330074310304,0L60.99145337247848,29.48334029912946L61.13764907169342,88.44998575051628L61.59712126922608,29.48334029912946L61.611044669151305,0L61.97305306720734,58.9666454513868L62.06355516672134,88.44998575051628L62.18886576604843,0L62.4812571644783,29.48334029912946L62.73884006309509,29.48334029912946L62.81541876268387,0L63.24008246040344,29.48334029912946L63.41412495946884,206.383311800162L63.49766535902023,58.9666454513868L63.51855045890808,0L63.67170785808563,88.44998575051628L63.915367356777196,58.9666454513868L63.99194605636597,0L64.23560555505752,0L64.444456553936,117.93332604964574L64.86912025165557,0L64.93873725128174,58.9666454513868L65.81591144657135,58.9666454513868L66.37980914354324,88.44998575051628L66.4076559433937,58.9666454513868L66.58169844245911,0L66.91586004066468,176.90000664790466L67.17344293928146,88.44998575051628L67.45887263774871,117.93332604964574L67.47279603767394,147.4166663487752L67.51456623744964,412.7666587471961L67.57722153711319,88.44998575051628L67.73734063625335,235.86665209929149L68.0645405344963,265.3499923984209L68.44743403244019,0L68.46831913232803,206.383311800162L68.47528083229065,29.48334029912946L68.53097443199158,0L68.79551903057099,58.9666454513868L68.99044662952423,58.9666454513868L69.12271892881394,0L69.26195292806625,117.93332604964574L69.47776562690734,0L70.16697392320633,117.93332604964574L70.22962922286986,147.4166663487752L70.2435526227951,88.44998575051628L70.53594402122498,0L70.56379082107544,29.48334029912946L70.66821632051467,0L70.69606312036515,0L70.91883751916885,235.86665209929149L71.00933961868286,117.93332604964574L71.18338211774825,0L71.27388421726228,117.93332604964574L71.37830971670151,88.44998575051628L71.44096501636506,0L71.67070111513138,29.48334029912946L71.83778191423417,0L71.858667014122,29.48334029912946L72.13713501262664,147.4166663487752L72.19282861232757,29.48334029912946L72.4225647110939,0L72.71495610952377,58.9666454513868L72.77761140918733,0L73.1605049071312,117.93332604964574L74.26045350122452,0L74.69904059886932,0L74.89396819782257,29.48334029912946L75.05408729696275,117.93332604964574L75.40913399505615,265.3499923984209L75.64583179378509,58.9666454513868L75.7363338932991,0L76.27238479042053,58.9666454513868L76.44642728948594,29.48334029912946L76.55781448888779,117.93332604964574L76.64135488843918,0L76.94766968679427,88.44998575051628L77.351448284626,0L77.53941418361663,29.48334029912946L77.56726098346711,88.44998575051628L78.14508208036423,58.9666454513868L78.27039267969133,88.44998575051628L78.52101387834549,88.44998575051628L78.88998397636414,265.3499923984209L78.90390737628937,147.4166663487752L79.07098817539215,58.9666454513868L79.07794987535476,29.48334029912946L79.11275837516786,88.44998575051628L79.14756687498092,265.3499923984209L80.25447716903687,147.4166663487752L80.37978776836395,147.4166663487752L80.41459626817704,88.44998575051628L80.50509836769105,0L80.53990686750413,29.48334029912946L80.65129406690598,206.383311800162L80.68610256671906,294.8333326975504L80.74875786638259,29.48334029912946L80.86014506578445,206.383311800162L81.26392366361618,29.48334029912946L81.59112356185912,0L81.6607405614853,0L81.79997456073761,58.9666454513868L82.16198295879363,29.48334029912946L82.44045095729827,58.9666454513868L82.49614455699921,383.2833360215028L82.95561675453186,294.8333326975504L82.97650185441971,29.48334029912946L83.05308055400849,58.9666454513868L83.47774425172805,88.44998575051628L83.51255275154114,29.48334029912946L83.52647615146637,88.44998575051628L83.91633134937287,0L84.35491844701767,265.3499923984209L84.37580354690552,0L84.4175737466812,29.48334029912946L84.68211834526062,29.48334029912946L84.9814714436531,206.383311800162L85.30170964193344,206.383311800162L85.44790534114838,0L85.68460313987731,88.44998575051628L85.8934541387558,0L85.99787963819504,88.44998575051628L86.09534343767166,235.86665209929149L86.57570073509217,147.4166663487752L86.77062833404541,0L86.79847513389586,29.48334029912946L86.81239853382111,0L86.89593893337249,117.93332604964574L87.06301973247528,29.48334029912946L87.14656013202668,0L87.2440239315033,0L87.32060263109207,58.9666454513868L87.66868762922287,29.48334029912946L87.7313429288864,0L87.74526632881164,0L87.98196412754059,0L88.02373432731628,176.90000664790466L88.13512152671814,412.7666587471961L88.6015554242134,29.48334029912946L88.62244052410125,0L88.80344472312927,29.48334029912946L89.06798932170868,58.9666454513868L89.0749510216713,0L89.2559552206993,0L89.37430412006378,206.383311800162L89.49265301942826,29.48334029912946L89.7711210179329,88.44998575051628L89.81289121770858,88.44998575051628L90.00781881666182,235.86665209929149L90.40463571453094,147.4166663487752L90.8223377122879,29.48334029912946L91.04511211109161,147.4166663487752L91.35142690944672,117.93332604964574L91.50458430862427,353.7999957223733L91.64381830787659,206.383311800162L92.00582670593262,58.9666454513868L92.09632880544662,117.93332604964574L92.4304904036522,147.4166663487752L92.52795420312881,0L92.56276270294188,0L93.02919660043717,176.90000664790466L93.12666039991377,117.93332604964574L93.2658943991661,0L93.920294195652,0L94.31711109352112,29.48334029912946L94.3588812932968,58.9666454513868L94.42153659296036,58.9666454513868L94.80443009090423,0L95.08985978937149,0L95.11770658922195,88.44998575051628L95.33351928806304,58.9666454513868L95.50060008716582,29.48334029912946L95.54237028694153,294.8333326975504L95.73729788589478,235.86665209929149L95.90437868499755,58.9666454513868L95.91830208492279,235.86665209929149L96.23157858324052,58.9666454513868L96.30119558286667,0L96.52396998167039,0L96.55877848148346,0L96.60751038122177,0L96.88597837972641,29.48334029912946L96.91382517957686,0L97.3593739771843,58.9666454513868L97.50556967639923,58.9666454513868L97.69353557538986,58.9666454513868L97.86757807445525,29.48334029912946L98.30616517210007,294.8333326975504L98.52197787094116,29.48334029912946L98.93967986869812,58.9666454513868L99.21814786720276,88.44998575051628L99.48965416574478,383.2833360215028L99.57319456529616,0L99.63584986495972,0L99.74027536439897,265.3499923984209L99.86558596372605,29.48334029912946L99.96304976320266,294.8333326975504L100.05355186271667,88.44998575051628L100.08836036252976,0L100.15797736215592,0L100.63833465957642,176.90000664790466L101.20919405651092,117.93332604964574L101.27184935617447,58.9666454513868L101.40412165546417,265.3499923984209L102.13510015153885,235.86665209929149L102.14206185150147,0L102.4205298500061,206.383311800162L102.70595954847336,176.90000664790466L102.71292124843598,0L102.83823184776307,0L103.12366154623032,58.9666454513868L103.20024024581909,294.8333326975504L103.2907423453331,0L103.38124444484711,58.9666454513868L103.49959334421158,0L103.68755924320222,29.48334029912946L103.84767834234238,29.48334029912946L104.06349104118347,29.48334029912946L104.07045274114608,0L104.07741444110871,442.2499990463256L104.14703144073486,29.48334029912946L104.23753354024888,176.90000664790466L104.27930374002457,88.44998575051628L104.3767675395012,88.44998575051628L104.8640865368843,58.9666454513868L105.05205243587493,206.383311800162L105.26786513471603,58.9666454513868L105.38621403408051,58.9666454513868L105.75518413209915,58.9666454513868L105.87353303146362,58.9666454513868L105.92226493120194,176.90000664790466L106.29819672918319,0L106.37477542877197,29.48334029912946L106.80640082645417,0L106.82728592634201,29.48334029912946L106.83424762630463,29.48334029912946L107.17537092447282,58.9666454513868L107.5234559226036,0L107.5652261223793,88.44998575051628L107.57218782234192,235.86665209929149L107.61395802211761,147.4166663487752L107.9133111205101,0L108.03166001987458,0L108.33101311826707,235.86665209929149L108.57467261695862,58.9666454513868L108.8322555155754,0L108.90187251520157,0L108.91579591512681,88.44998575051628L109.34742131280899,0L109.41703831243515,88.44998575051628L109.46577021217347,117.93332604964574L109.7929701104164,0L110.28725080776215,176.90000664790466L111.54731850099564,29.48334029912946L111.58212700080871,235.86665209929149L111.63782060050964,206.383311800162L111.76313119983672,0L112.04159919834136,0L112.20867999744415,29.48334029912946L112.25045019721985,206.383311800162L112.25741189718246,0L112.4941096959114,0L112.57068839550018,117.93332604964574L112.86307979393005,29.48334029912946L112.90484999370574,147.4166663487752L112.96054359340668,88.44998575051628L113.68456038951874,88.44998575051628L113.69152208948135,0L114.13010918712615,147.4166663487752L114.19972618675233,0L114.2345346865654,0L114.47123248529435,117.93332604964574L114.50604098510742,117.93332604964574L114.59654308462142,0L114.61046648454666,0L115.04905358219148,58.9666454513868L115.4110619802475,0L115.64079807901382,206.383311800162L116.23254257583618,117.93332604964574L116.51101057434082,29.48334029912946L116.65024457359314,147.4166663487752L116.71289987325669,0L116.85909557247163,0L117.07490827131271,0L117.08883167123794,88.44998575051628L117.2837592701912,29.48334029912946L117.42299326944352,0L117.48564856910706,0L117.52741876888274,29.48334029912946L118.03562286615372,29.48334029912946L118.1539717655182,29.48334029912946L118.53686526346208,147.4166663487752L118.87798856163025,0L119.56719685792923,235.86665209929149L119.5950436577797,88.44998575051628L119.9848988556862,58.9666454513868L120.23552005434037,0L120.45133275318146,117.93332604964574L120.46525615310668,29.48334029912946L120.54879655265809,29.48334029912946L120.8133411512375,235.86665209929149L121.09180914974213,117.93332604964574L121.1196559495926,0L121.13357934951782,117.93332604964574L121.27977504873276,0L121.28673674869538,324.3166554232438L121.39116224813462,176.90000664790466L121.474702647686,88.44998575051628L121.66266854667664,58.9666454513868L121.67659194660187,29.48334029912946L121.69051534652709,117.93332604964574L122.20568114376069,58.9666454513868L122.53288104200364,176.90000664790466L122.86008094024658,88.44998575051628L123.27778293800354,58.9666454513868L123.79294873523712,117.93332604964574L123.85560403490067,235.86665209929149L124.64923783063888,176.90000664790466L124.9207441291809,29.48334029912946L125.11567172813415,88.44998575051628L125.14351852798463,0L125.28971422719955,294.8333326975504L125.38021632671355,29.48334029912946L125.47768012619018,353.7999957223733L125.64476092529297,0L125.95107572364806,0L126.6193989200592,29.48334029912946L127.0510243177414,235.86665209929149L127.12760301733017,58.9666454513868L127.42695611572266,58.9666454513868L127.74023261404038,58.9666454513868L128.0117389125824,117.93332604964574L128.22058991146088,29.48334029912946L128.47817281007767,0L128.94460670757294,0L129.13953430652617,58.9666454513868L129.1952279062271,29.48334029912946L129.64773840379715,88.44998575051628L129.78001070308684,29.48334029912946L129.79393410301208,117.93332604964574L129.81481920289994,147.4166663487752L129.90532130241394,29.48334029912946L130.43441049957275,0L130.89388269710543,88.44998575051628L131.09577199602128,58.9666454513868L131.22108259534835,0L131.5065122938156,147.4166663487752L131.68751649284363,29.48334029912946L132.0704099907875,58.9666454513868L132.13306529045104,0L132.31406948947907,29.48334029912946L132.59253748798372,265.3499923984209L133.3722478837967,88.44998575051628L133.50452018308638,29.48334029912946L133.58109888267518,176.90000664790466L133.70640948200227,58.9666454513868L134.0684178800583,29.48334029912946L134.11714977979662,58.9666454513868L134.70193257665633,0L134.73674107646943,176.90000664790466L134.78547297620773,117.93332604964574L135.05001757478715,353.7999957223733L135.09178777456282,29.48334029912946L135.18925157403945,0L135.2449451737404,29.48334029912946L135.251906873703,117.93332604964574L135.7253024711609,117.93332604964574L135.9968087697029,88.44998575051628L136.2892001681328,29.48334029912946L136.60943836641312,29.48334029912946L136.76259576559067,29.48334029912946L137.45876576185225,58.9666454513868L137.5631912612915,0L137.97393155908586,29.48334029912946L138.19670595788958,265.3499923984209L138.28720805740355,58.9666454513868L138.315054857254,58.9666454513868L138.68402495527266,29.48334029912946L138.71187175512313,0L138.8162972545624,117.93332604964574L139.36627155160903,88.44998575051628L139.68650974988938,0L139.693471449852,176.90000664790466L139.72131824970245,0L139.9997862482071,0L140.0972500476837,412.7666587471961L140.19471384716033,58.9666454513868L140.29913934659956,117.93332604964574L140.45925844573972,29.48334029912946L140.52191374540328,58.9666454513868L140.6193775448799,0L141.4478198404312,294.8333326975504L141.55920703983307,0L141.6566708393097,0L141.75413463878633,0L141.81678993844986,353.7999957223733L142.15095153665544,117.93332604964574L142.26233873605727,29.48334029912946L142.30410893583297,58.9666454513868L142.4085344352722,235.86665209929149L142.4503046350479,29.48334029912946L142.64523223400116,0L143.48063622951508,58.9666454513868L143.67556382846834,58.9666454513868L143.8844148273468,0L144.19072962570192,206.383311800162L144.26034662532805,0L144.44831252431868,0L144.52489122390747,0L144.7546273226738,206.383311800162L144.8103209223747,0L144.94259322166442,206.383311800162L145.0191719212532,235.86665209929149L145.31156331968307,58.9666454513868L145.64572491788863,117.93332604964574L145.65268661785126,0L146.41847361373902,176.90000664790466L146.7247884120941,58.9666454513868L147.01021811056137,88.44998575051628L147.0659117102623,58.9666454513868L147.48361370801925,0L147.49057540798185,0L147.8386604061127,0L147.8595455060005,88.44998575051628L147.87346890592573,88.44998575051628L147.91523910570143,29.48334029912946L148.3747113032341,0L148.6044474020004,88.44998575051628L148.92468560028078,29.48334029912946L149.05695789957045,29.48334029912946L149.0778429994583,0L149.1683450989723,147.4166663487752L150.39360429239272,0L150.40752769231796,0L150.47714469194415,88.44998575051628L151.28470188760755,176.90000664790466L151.31254868745805,0L152.001756983757,29.48334029912946L152.2245313825607,58.9666454513868L152.32199518203737,29.48334029912946L152.3428802819252,0L152.509961081028,29.48334029912946L152.78842907953262,58.9666454513868L152.81627587938308,0L153.1713225774765,29.48334029912946L153.26878637695313,147.4166663487752L153.53333097553252,29.48334029912946L153.55421607542038,0L153.68648837471008,0L153.9928031730652,58.9666454513868L154.0345733728409,117.93332604964574L154.0415350728035,117.93332604964574L154.15292227220536,0L154.23646267175675,58.9666454513868L154.75162846899033,0L154.76555186891557,412.7666587471961L154.89782416820526,206.383311800162L154.9883262677193,0L155.05794326734542,88.44998575051628L155.11363686704635,88.44998575051628L155.90030896282195,58.9666454513868L156.15789186143877,235.86665209929149L156.74267465829848,29.48334029912946L157.07683625650407,88.44998575051628L157.45276805448532,29.48334029912946L157.55719355392455,0L157.56415525388718,0L157.66858075332644,353.7999957223733L157.8286998524666,58.9666454513868L157.94704875183106,29.48334029912946L158.0097040514946,147.4166663487752L158.24640185022352,88.44998575051628L158.50398474884034,0L158.82422294712066,0L159.234963244915,383.2833360215028L159.2836951446533,0L159.29065684461594,117.93332604964574L159.3185036444664,29.48334029912946L159.6665886425972,29.48334029912946L159.78493754196165,29.48334029912946L159.86847794151308,0L160.1539076399803,324.3166554232438L160.17479273986817,88.44998575051628L160.3627586388588,29.48334029912946L160.56464793777465,29.48334029912946L160.73172873687744,0L160.8779244360924,0L160.96146483564377,29.48334029912946L161.0171584353447,117.93332604964574L161.04500523519516,117.93332604964574L161.07285203504563,0L161.56017103242874,117.93332604964574L162.04052832984922,147.4166663487752L162.43038352775574,88.44998575051628L162.52088562726973,29.48334029912946L162.9385876250267,88.44998575051628L163.02212802457808,0L163.1056684241295,206.383311800162L163.2100939235687,58.9666454513868L163.3771747226715,88.44998575051628L163.46767682218552,0L163.53033212184909,176.90000664790466L163.75310652065275,29.48334029912946L164.40750631713868,0L164.44231481695175,29.48334029912946L164.53281691646575,58.9666454513868L164.60939561605454,88.44998575051628L165.39606771183014,88.44998575051628L165.40302941179277,29.48334029912946L165.44479961156844,29.48334029912946L165.46568471145628,235.86665209929149L165.5492251110077,117.93332604964574L165.65365061044693,0L166.3707057065964,29.48334029912946L166.41247590637207,88.44998575051628L167.01814380311964,88.44998575051628L167.33142030143736,0L167.35230540132522,0L167.77000739908217,0L167.83962439870834,0L167.86747119855883,29.48334029912946L167.87443289852143,0L168.53579439496994,88.44998575051628L168.54971779489517,29.48334029912946L169.01615169239045,58.9666454513868L169.3015813908577,117.93332604964574L169.6496663889885,0L169.70535998868942,0L169.80978548812865,58.9666454513868L169.90724928760528,0L170.0047130870819,29.48334029912946L170.38064488506316,176.90000664790466L170.54772568416598,29.48334029912946L170.5686107840538,0L170.88188728237154,88.44998575051628L171.37616797971725,206.383311800162L171.48755517911908,0L171.63375087833404,88.44998575051628L171.68248277807234,29.48334029912946L172.3925761742592,29.48334029912946L172.40649957418444,29.48334029912946L172.93558877134325,29.48334029912946L173.07482277059555,29.48334029912946L173.3115205693245,0L173.42290776872633,29.48334029912946L173.49948646831513,29.48334029912946L173.91022676610947,176.90000664790466L173.9171884660721,0L173.94503526592257,88.44998575051628L174.03553736543654,0L174.13996286487577,29.48334029912946L174.56462656259535,0L174.9753668603897,29.48334029912946L176.20758775377274,58.9666454513868L176.35378345298767,29.48334029912946L176.56263445186616,58.9666454513868L176.78540885066988,206.383311800162L176.84806415033339,0L176.98033644962308,0L177.1056470489502,0L177.47461714696885,0L177.61385114622115,206.383311800162L177.7670085453987,0L177.92712764453887,58.9666454513868L178.04547654390336,0L178.0663616437912,0L178.08724674367906,0L178.34482964229582,0L178.53975724124908,88.44998575051628L178.66506784057617,176.90000664790466L178.67899124050143,176.90000664790466L179.3333910369873,0L179.52135693597793,147.4166663487752L179.70236113500596,58.9666454513868L179.87640363407135,29.48334029912946L179.8972887339592,0L180.6352289299965,0L180.66307572984695,88.44998575051628L180.76750122928618,29.48334029912946L180.78142462921141,88.44998575051628L180.8162331290245,0L180.8580033288002,117.93332604964574L180.94850542831423,0L181.00419902801514,147.4166663487752L181.25482022666932,0L181.36620742607116,29.48334029912946L181.90225832319257,0L182.05541572237016,176.90000664790466L182.15287952184676,412.7666587471961L182.20857312154772,0L182.2503433213234,117.93332604964574L182.4313475203514,88.44998575051628L182.45919432020185,29.48334029912946L182.62627511930467,0L182.70285381889343,29.48334029912946L182.8629729180336,58.9666454513868L182.946513317585,29.48334029912946L183.1692877163887,147.4166663487752L183.71926201343535,0L183.92115131235124,0L184.24138951063156,88.44998575051628L185.05590840625763,29.48334029912946L185.06983180618286,29.48334029912946L185.1324871058464,0L185.16033390569686,0L185.1672956056595,324.3166554232438L185.2160275053978,176.90000664790466L185.32741470479965,58.9666454513868L185.71030820274353,0L185.72423160266877,58.9666454513868L186.01662300109865,29.48334029912946L186.11408680057525,29.48334029912946L186.6570993976593,117.93332604964574L186.70583129739762,58.9666454513868L186.88683549642562,0L188.40448608827592,58.9666454513868L188.57156688737868,29.48334029912946L188.7595327863693,29.48334029912946L188.91269018554686,29.48334029912946L188.98230718517303,117.93332604964574L189.0936943845749,58.9666454513868L189.56012828207017,0L189.86644308042526,147.4166663487752L189.93606008005142,88.44998575051628L189.94998347997665,0L189.99871537971498,58.9666454513868L190.1031408791542,0L190.59742157649993,294.8333326975504L190.61134497642516,0L190.86892787504195,0L191.20308947324753,0L191.5442127714157,0L191.6695233707428,29.48334029912946L191.91318286943437,0L192.17076576805115,0L192.4561954665184,294.8333326975504L192.85301236438752,0L193.22894416236878,58.9666454513868L193.39602496147157,88.44998575051628L193.40298666143417,29.48334029912946L194.37762465620042,206.383311800162L194.56559055519105,29.48334029912946L194.80925005388258,58.9666454513868L194.8510202536583,58.9666454513868L194.87886705350877,29.48334029912946L195.29656905126572,58.9666454513868L195.3313775510788,0L195.4218796505928,58.9666454513868L195.58199874973297,29.48334029912946L195.66553914928437,0L196.75156434345246,29.48334029912946L197.00218554210664,0L197.15534294128418,88.44998575051628L197.22495994091034,29.48334029912946L197.55912153911592,0L197.75404913806915,0L197.76101083803178,58.9666454513868L198.40844893455505,29.48334029912946L198.67299353313447,58.9666454513868L199.0280402312279,0L199.04196363115312,29.48334029912946L199.29258482980725,29.48334029912946L199.41789542913438,176.90000664790466L199.4387805290222,58.9666454513868L199.92609952640532,0L200.61530782270432,0L201.37413311862943,29.48334029912946L201.55513731765748,0L202.07030311489106,58.9666454513868L202.37661791324615,29.48334029912946L202.41838811302185,29.48334029912946L202.73166461133957,206.383311800162L203.42087290763857,58.9666454513868L203.84553660535812,29.48334029912946L204.0126174044609,0L204.36766410255433,0L204.5208215017319,0L204.61132360124586,88.44998575051628L204.91763839960097,206.383311800162L205.15433619832993,29.48334029912946L205.18218299818037,117.93332604964574L205.30053189754486,58.9666454513868L205.3144552974701,29.48334029912946L206.1080890932083,58.9666454513868L206.24732309246065,0L206.31694009208678,147.4166663487752L206.49098259115218,58.9666454513868L206.7903356895447,29.48334029912946L206.8877994890213,29.48334029912946L207.16626748752594,0L207.5839694852829,29.48334029912946L207.65358648490906,117.93332604964574L207.73016518449785,58.9666454513868L207.75801198434831,58.9666454513868L207.980786383152,0L208.0295182828903,0L208.17571398210526,117.93332604964574L208.4193734807968,0L208.55860748004915,29.48334029912946L208.57253087997435,206.383311800162L208.69087977933884,0L208.78834357881544,206.383311800162L209.21996897649765,29.48334029912946L209.2338923764229,29.48334029912946L209.630709274292,0L209.70032627391817,0L210.06233467197418,0L210.15283677148818,29.48334029912946L210.5844621691704,0L210.75154296827316,58.9666454513868L211.62175546360015,0L211.9419936618805,29.48334029912946L212.10211276102066,29.48334029912946L213.11155925559996,0L213.36914215421677,29.48334029912946L213.45268255376817,29.48334029912946L213.6336867527962,117.93332604964574L213.74507395219803,29.48334029912946L213.75899735212326,88.44998575051628L213.8146909518242,0L213.82861435174942,58.9666454513868L214.12100575017928,58.9666454513868L214.5178226480484,0L214.62224814748762,176.90000664790466L214.62920984745026,0L214.99817994546888,0L215.1652607445717,88.44998575051628L215.23487774419783,0L215.31841814374926,58.9666454513868L215.74308184146884,0L216.20255403900146,88.44998575051628L216.26520933866502,0L216.48798373746874,0L216.55063903713224,58.9666454513868L216.6063326368332,29.48334029912946L216.66202623653413,58.9666454513868L216.87783893537522,147.4166663487752L216.89176233530043,147.4166663487752L217.08668993425368,0L217.44173663234713,29.48334029912946L217.643625931263,206.383311800162L217.6575493311882,0L217.83159183025361,117.93332604964574L217.9220939297676,0L217.93601732969285,29.48334029912946L217.9986726293564,29.48334029912946L218.4372597270012,29.48334029912946L218.7435745253563,117.93332604964574L218.77838302516935,0L219.2308935227394,88.44998575051628L219.64163382053374,58.9666454513868L219.89921671915056,58.9666454513868L219.9340252189636,147.4166663487752L219.9688337187767,0L220.03845071840286,147.4166663487752L220.19856981754302,0L220.30995701694488,0L220.55361651563643,58.9666454513868L220.6232335152626,29.48334029912946L220.63715691518783,353.7999957223733L220.66500371503832,58.9666454513868L220.69285051488876,29.48334029912946L220.91562491369245,0L221.05485891294478,0L221.47952261066436,0L221.486484310627,58.9666454513868L221.4934460105896,176.90000664790466L222.17569260692596,29.48334029912946L222.56554780483248,0L222.87186260318757,58.9666454513868L222.9762881026268,147.4166663487752L223.10856040191652,29.48334029912946L223.18513910150529,0L223.498415599823,29.48334029912946L223.6306878991127,0L223.74903679847716,117.93332604964574L223.9370026974678,29.48334029912946L224.91860239219665,0L225.329342689991,0L225.52427028894425,0L225.8514701871872,29.48334029912946L225.87235528707504,58.9666454513868L225.9350105867386,0L226.40144448423385,0L226.5128316836357,0L226.5546018834114,0L227.13242298030852,88.44998575051628L227.16026978015898,117.93332604964574L227.3064654793739,0L227.6823972773552,147.4166663487752L228.19060137462617,58.9666454513868L228.28806517410277,0L228.51780127286912,58.9666454513868L228.57349487257005,0L228.60134167242052,0L228.62918847227095,0L228.99815857028963,0L229.01208197021484,29.48334029912946L229.1582776694298,58.9666454513868L229.54813286733628,29.48334029912946L229.7778689661026,0L230.04937526464462,147.4166663487752L230.44619216251374,0L230.51580916213987,0L231.14932385873794,0L231.28159615802764,0L232.2075022530556,58.9666454513868L232.2631958527565,88.44998575051628L232.43027665185926,206.383311800162L232.67393615055084,0L232.86190204954147,29.48334029912946L232.88278714942933,58.9666454513868L232.93848074913026,0L233.05682964849473,58.9666454513868L233.07771474838256,206.383311800162L233.32137424707415,58.9666454513868L233.45364654636384,0L233.80869324445723,147.4166663487752L233.9061570439339,117.93332604964574L234.01754424333572,29.48334029912946L234.10804634284972,58.9666454513868L235.24976513671874,0L235.26368853664397,117.93332604964574L235.68139053440095,0L235.87631813335418,0L236.50287112998964,0L236.51679452991488,58.9666454513868L236.586411529541,29.48334029912946L237.094615626812,0L237.52624102449417,29.48334029912946L237.57497292423247,117.93332604964574L237.81167072296142,0L238.5008790192604,29.48334029912946L238.8559257173538,29.48334029912946L239.12743201589583,29.48334029912946L239.1552788157463,88.44998575051628L239.51032551383972,206.383311800162L239.69829141283034,0L239.91410411167146,0L239.94891261148453,0L240.1090317106247,0L240.21345721006392,29.48334029912946L240.3248444094658,58.9666454513868L240.6311592078209,0L241.01405270576478,88.44998575051628L241.12543990516662,58.9666454513868L241.36909940385817,58.9666454513868L241.41086960363387,58.9666454513868L241.49441000318527,58.9666454513868L241.6684525022507,265.3499923984209L242.0861545000076,58.9666454513868L242.1557714996338,58.9666454513868L242.2045033993721,0L242.32285229873656,29.48334029912946L242.48297139787672,58.9666454513868L242.60132029724122,29.48334029912946L242.6848606967926,29.48334029912946L242.78232449626924,58.9666454513868L243.06079249477386,58.9666454513868L243.40191579294205,0L243.4784944925308,0L243.6525369915962,29.48334029912946L244.04239218950272,0L244.12593258905412,29.48334029912946L244.2164346885681,0L244.43920908737184,0" fill="none"></path></g></g></g></g></g></g><g transform="translate(51, 176)" clip-path="url(#clip_1)"><clipPath id="clip_1"><rect width="278" height="23"></rect></clipPath><g><g><line x1="0" y1="0" x2="0" y2="5" style="visibility: inherit;" fill="rgb(0, 0, 0)" stroke="rgb(204, 204, 204)" stroke-width="1px"></line><line x1="34.808499813079834" y1="0" x2="34.808499813079834" y2="5" style="visibility: inherit;" fill="rgb(0, 0, 0)" stroke="rgb(204, 204, 204)" stroke-width="1px"></line><line x1="69.61699962615967" y1="0" x2="69.61699962615967" y2="5" style="visibility: inherit;" fill="rgb(0, 0, 0)" stroke="rgb(204, 204, 204)" stroke-width="1px"></line><line x1="104.4254994392395" y1="0" x2="104.4254994392395" y2="5" style="visibility: inherit;" fill="rgb(0, 0, 0)" stroke="rgb(204, 204, 204)" stroke-width="1px"></line><line x1="139.23399925231934" y1="0" x2="139.23399925231934" y2="5" style="visibility: inherit;" fill="rgb(0, 0, 0)" stroke="rgb(204, 204, 204)" stroke-width="1px"></line><line x1="174.04249906539917" y1="0" x2="174.04249906539917" y2="5" style="visibility: inherit;" fill="rgb(0, 0, 0)" stroke="rgb(204, 204, 204)" stroke-width="1px"></line><line x1="208.850998878479" y1="0" x2="208.850998878479" y2="5" style="visibility: inherit;" fill="rgb(0, 0, 0)" stroke="rgb(204, 204, 204)" stroke-width="1px"></line><line x1="243.65949869155884" y1="0" x2="243.65949869155884" y2="5" style="visibility: inherit;" fill="rgb(0, 0, 0)" stroke="rgb(204, 204, 204)" stroke-width="1px"></line><line x1="278.4679985046387" y1="0" x2="278.4679985046387" y2="5" style="visibility: inherit;" fill="rgb(0, 0, 0)" stroke="rgb(204, 204, 204)" stroke-width="1px"></line></g><g transform="translate(0, 8)"><text style="text-anchor: middle; visibility: hidden; font-family: Roboto, sans-serif; font-size: 12px; font-weight: 200;" x="0" y="0" dx="0em" dy="0.95em" fill="rgb(33, 33, 33)" stroke="none" stroke-width="1px">-5k</text><text style="text-anchor: middle; visibility: inherit; font-family: Roboto, sans-serif; font-size: 12px; font-weight: 200;" x="34.808499813079834" y="0" dx="0em" dy="0.95em" fill="rgb(33, 33, 33)" stroke="none" stroke-width="1px">0</text><text style="text-anchor: middle; visibility: inherit; font-family: Roboto, sans-serif; font-size: 12px; font-weight: 200;" x="69.61699962615967" y="0" dx="0em" dy="0.95em" fill="rgb(33, 33, 33)" stroke="none" stroke-width="1px">5k</text><text style="text-anchor: middle; visibility: inherit; font-family: Roboto, sans-serif; font-size: 12px; font-weight: 200;" x="104.4254994392395" y="0" dx="0em" dy="0.95em" fill="rgb(33, 33, 33)" stroke="none" stroke-width="1px">10k</text><text style="text-anchor: middle; visibility: inherit; font-family: Roboto, sans-serif; font-size: 12px; font-weight: 200;" x="139.23399925231934" y="0" dx="0em" dy="0.95em" fill="rgb(33, 33, 33)" stroke="none" stroke-width="1px">15k</text><text style="text-anchor: middle; visibility: inherit; font-family: Roboto, sans-serif; font-size: 12px; font-weight: 200;" x="174.04249906539917" y="0" dx="0em" dy="0.95em" fill="rgb(33, 33, 33)" stroke="none" stroke-width="1px">20k</text><text style="text-anchor: middle; visibility: inherit; font-family: Roboto, sans-serif; font-size: 12px; font-weight: 200;" x="208.850998878479" y="0" dx="0em" dy="0.95em" fill="rgb(33, 33, 33)" stroke="none" stroke-width="1px">25k</text><text style="text-anchor: middle; visibility: inherit; font-family: Roboto, sans-serif; font-size: 12px; font-weight: 200;" x="243.65949869155884" y="0" dx="0em" dy="0.95em" fill="rgb(33, 33, 33)" stroke="none" stroke-width="1px">30k</text><text style="text-anchor: middle; visibility: hidden; font-family: Roboto, sans-serif; font-size: 12px; font-weight: 200;" x="278.4679985046387" y="0" dx="0em" dy="0.95em" fill="rgb(33, 33, 33)" stroke="none" stroke-width="1px">35k</text></g><line x1="0" y1="0" x2="278.4679985046387" y2="0" fill="rgb(0, 0, 0)" stroke="rgb(204, 204, 204)" stroke-width="1px"></line></g></g></g></g></svg>