<svg viewBox="0 0 330 200" xmlns="http://www.w3.org/2000/svg"><g><g><g><g><g><line x1="51.53200149536133" y1="176.89999961853027" x2="46.53200149536133" y2="176.89999961853027" style="visibility: inherit;" fill="rgb(0, 0, 0)" stroke="rgb(204, 204, 204)" stroke-width="1px"></line><line x1="51.53200149536133" y1="165.10666631062824" x2="46.53200149536133" y2="165.10666631062824" style="visibility: inherit;" fill="rgb(0, 0, 0)" stroke="rgb(204, 204, 204)" stroke-width="1px"></line><line x1="51.53200149536133" y1="153.3133330027262" x2="46.53200149536133" y2="153.3133330027262" style="visibility: inherit;" fill="rgb(0, 0, 0)" stroke="rgb(204, 204, 204)" stroke-width="1px"></line><line x1="51.53200149536133" y1="141.51999969482418" x2="46.53200149536133" y2="141.51999969482418" style="visibility: inherit;" fill="rgb(0, 0, 0)" stroke="rgb(204, 204, 204)" stroke-width="1px"></line><line x1="51.53200149536133" y1="129.72666638692218" x2="46.53200149536133" y2="129.72666638692218" style="visibility: inherit;" fill="rgb(0, 0, 0)" stroke="rgb(204, 204, 204)" stroke-width="1px"></line><line x1="51.53200149536133" y1="117.93333307902013" x2="46.53200149536133" y2="117.93333307902013" style="visibility: inherit;" fill="rgb(0, 0, 0)" stroke="rgb(204, 204, 204)" stroke-width="1px"></line><line x1="51.53200149536133" y1="106.13999977111818" x2="46.53200149536133" y2="106.13999977111818" style="visibility: inherit;" fill="rgb(0, 0, 0)" stroke="rgb(204, 204, 204)" stroke-width="1px"></line><line x1="51.53200149536133" y1="94.34666646321617" x2="46.53200149536133" y2="94.34666646321617" style="visibility: inherit;" fill="rgb(0, 0, 0)" stroke="rgb(204, 204, 204)" stroke-width="1px"></line><line x1="51.53200149536133" y1="82.55333315531414" x2="46.53200149536133" y2="82.55333315531414" style="visibility: inherit;" fill="rgb(0, 0, 0)" stroke="rgb(204, 204, 204)" stroke-width="1px"></line><line x1="51.53200149536133" y1="70.75999984741209" x2="46.53200149536133" y2="70.75999984741209" style="visibility: inherit;" fill="rgb(0, 0, 0)" stroke="rgb(204, 204, 204)" stroke-width="1px"></line><line x1="51.53200149536133" y1="58.96666653951008" x2="46.53200149536133" y2="58.96666653951008" style="visibility: inherit;" fill="rgb(0, 0, 0)" stroke="rgb(204, 204, 204)" stroke-width="1px"></line><line x1="51.53200149536133" y1="47.17333323160804" x2="46.53200149536133" y2="47.17333323160804" style="visibility: inherit;" fill="rgb(0, 0, 0)" stroke="rgb(204, 204, 204)" stroke-width="1px"></line><line x1="51.53200149536133" y1="35.37999992370609" x2="46.53200149536133" y2="35.37999992370609" style="visibility: inherit;" fill="rgb(0, 0, 0)" stroke="rgb(204, 204, 204)" stroke-width="1px"></line><line x1="51.53200149536133" y1="23.586666615804052" x2="46.53200149536133" y2="23.586666615804052" style="visibility: inherit;" fill="rgb(0, 0, 0)" stroke="rgb(204, 204, 204)" stroke-width="1px"></line><line x1="51.53200149536133" y1="11.793333307902035" x2="46.53200149536133" y2="11.793333307902035" style="visibility: inherit;" fill="rgb(0, 0, 0)" stroke="rgb(204, 204, 204)" stroke-width="1px"></line><line x1="51.53200149536133" y1="0" x2="46.53200149536133" y2="0" style="visibility: inherit;" fill="rgb(0, 0, 0)" stroke="rgb(204, 204, 204)" stroke-width="1px"></line></g><g transform="translate(41.53200149536133, 0)"><text style="text-anchor: end; visibility: hidden; font-family: Roboto, sans-serif; font-size: 12px; font-weight: 200;" x="0" y="176.89999961853027" dx="0em" dy="0.3em" fill="rgb(33, 33, 33)" stroke="none" stroke-width="1px">0.7</text><text style="text-anchor: end; visibility: inherit; font-family: Roboto, sans-serif; font-size: 12px; font-weight: 200;" x="0" y="165.10666631062824" dx="0em" dy="0.3em" fill="rgb(33, 33, 33)" stroke="none" stroke-width="1px">0.72</text><text style="text-anchor: end; visibility: hidden; font-family: Roboto, sans-serif; font-size: 12px; font-weight: 200;" x="0" y="153.3133330027262" dx="0em" dy="0.3em" fill="rgb(33, 33, 33)" stroke="none" stroke-width="1px">0.74</text><text style="text-anchor: end; visibility: hidden; font-family: Roboto, sans-serif; font-size: 12px; font-weight: 200;" x="0" y="141.51999969482418" dx="0em" dy="0.3em" fill="rgb(33, 33, 33)" stroke="none" stroke-width="1px">0.76</text><text style="text-anchor: end; visibility: inherit; font-family: Roboto, sans-serif; font-size: 12px; font-weight: 200;" x="0" y="129.72666638692218" dx="0em" dy="0.3em" fill="rgb(33, 33, 33)" stroke="none" stroke-width="1px">0.78</text><text style="text-anchor: end; visibility: hidden; font-family: Roboto, sans-serif; font-size: 12px; font-weight: 200;" x="0" y="117.93333307902013" dx="0em" dy="0.3em" fill="rgb(33, 33, 33)" stroke="none" stroke-width="1px">0.8</text><text style="text-anchor: end; visibility: hidden; font-family: Roboto, sans-serif; font-size: 12px; font-weight: 200;" x="0" y="106.13999977111818" dx="0em" dy="0.3em" fill="rgb(33, 33, 33)" stroke="none" stroke-width="1px">0.82</text><text style="text-anchor: end; visibility: inherit; font-family: Roboto, sans-serif; font-size: 12px; font-weight: 200;" x="0" y="94.34666646321617" dx="0em" dy="0.3em" fill="rgb(33, 33, 33)" stroke="none" stroke-width="1px">0.84</text><text style="text-anchor: end; visibility: hidden; font-family: Roboto, sans-serif; font-size: 12px; font-weight: 200;" x="0" y="82.55333315531414" dx="0em" dy="0.3em" fill="rgb(33, 33, 33)" stroke="none" stroke-width="1px">0.86</text><text style="text-anchor: end; visibility: hidden; font-family: Roboto, sans-serif; font-size: 12px; font-weight: 200;" x="0" y="70.75999984741209" dx="0em" dy="0.3em" fill="rgb(33, 33, 33)" stroke="none" stroke-width="1px">0.88</text><text style="text-anchor: end; visibility: inherit; font-family: Roboto, sans-serif; font-size: 12px; font-weight: 200;" x="0" y="58.96666653951008" dx="0em" dy="0.3em" fill="rgb(33, 33, 33)" stroke="none" stroke-width="1px">0.9</text><text style="text-anchor: end; visibility: hidden; font-family: Roboto, sans-serif; font-size: 12px; font-weight: 200;" x="0" y="47.17333323160804" dx="0em" dy="0.3em" fill="rgb(33, 33, 33)" stroke="none" stroke-width="1px">0.92</text><text style="text-anchor: end; visibility: hidden; font-family: Roboto, sans-serif; font-size: 12px; font-weight: 200;" x="0" y="35.37999992370609" dx="0em" dy="0.3em" fill="rgb(33, 33, 33)" stroke="none" stroke-width="1px">0.94</text><text style="text-anchor: end; visibility: inherit; font-family: Roboto, sans-serif; font-size: 12px; font-weight: 200;" x="0" y="23.586666615804052" dx="0em" dy="0.3em" fill="rgb(33, 33, 33)" stroke="none" stroke-width="1px">0.96</text><text style="text-anchor: end; visibility: hidden; font-family: Roboto, sans-serif; font-size: 12px; font-weight: 200;" x="0" y="11.793333307902035" dx="0em" dy="0.3em" fill="rgb(33, 33, 33)" stroke="none" stroke-width="1px">0.98</text><text style="text-anchor: end; visibility: hidden; font-family: Roboto, sans-serif; font-size: 12px; font-weight: 200;" x="0" y="0" dx="0em" dy="0.3em" fill="rgb(33, 33, 33)" stroke="none" stroke-width="1px">1</text></g><line x1="51.53200149536133" y1="0" x2="51.53200149536133" y2="176.89999961853027" fill="rgb(0, 0, 0)" stroke="rgb(204, 204, 204)" stroke-width="1px"></line></g></g><g transform="translate(51, 0)" clip-path="url(#clip_0)"><clipPath id="clip_0"><rect width="278" height="176"></rect></clipPath><g><g><g><line x1="0" y1="0" x2="0" y2="176.89999961853027" fill="rgb(0, 0, 0)" stroke="rgb(66, 66, 66)" stroke-width="1px" opacity="0.25"></line><line x1="34.808499813079834" y1="0" x2="34.808499813079834" y2="176.89999961853027" fill="rgb(0, 0, 0)" stroke="rgb(66, 66, 66)" stroke-width="1px" opacity="0.25"></line><line x1="69.61699962615967" y1="0" x2="69.61699962615967" y2="176.89999961853027" fill="rgb(0, 0, 0)" stroke="rgb(66, 66, 66)" stroke-width="1px" opacity="0.25"></line><line x1="104.4254994392395" y1="0" x2="104.4254994392395" y2="176.89999961853027" fill="rgb(0, 0, 0)" stroke="rgb(66, 66, 66)" stroke-width="1px" opacity="0.25"></line><line x1="139.23399925231934" y1="0" x2="139.23399925231934" y2="176.89999961853027" fill="rgb(0, 0, 0)" stroke="rgb(66, 66, 66)" stroke-width="1px" opacity="0.25"></line><line x1="174.04249906539917" y1="0" x2="174.04249906539917" y2="176.89999961853027" fill="rgb(0, 0, 0)" stroke="rgb(66, 66, 66)" stroke-width="1px" opacity="0.25"></line><line x1="208.850998878479" y1="0" x2="208.850998878479" y2="176.89999961853027" fill="rgb(0, 0, 0)" stroke="rgb(66, 66, 66)" stroke-width="1px" opacity="0.25"></line><line x1="243.65949869155884" y1="0" x2="243.65949869155884" y2="176.89999961853027" fill="rgb(0, 0, 0)" stroke="rgb(66, 66, 66)" stroke-width="1px" opacity="0.25"></line><line x1="278.4679985046387" y1="0" x2="278.4679985046387" y2="176.89999961853027" fill="rgb(0, 0, 0)" stroke="rgb(66, 66, 66)" stroke-width="1px" opacity="0.25"></line></g><g><line x1="0" y1="176.89999961853027" x2="278.4679985046387" y2="176.89999961853027" fill="rgb(0, 0, 0)" stroke="rgb(66, 66, 66)" stroke-width="1px" opacity="0.25"></line><line x1="0" y1="165.10666631062824" x2="278.4679985046387" y2="165.10666631062824" fill="rgb(0, 0, 0)" stroke="rgb(66, 66, 66)" stroke-width="1px" opacity="0.25"></line><line x1="0" y1="153.3133330027262" x2="278.4679985046387" y2="153.3133330027262" fill="rgb(0, 0, 0)" stroke="rgb(66, 66, 66)" stroke-width="1px" opacity="0.25"></line><line x1="0" y1="141.51999969482418" x2="278.4679985046387" y2="141.51999969482418" fill="rgb(0, 0, 0)" stroke="rgb(66, 66, 66)" stroke-width="1px" opacity="0.25"></line><line x1="0" y1="129.72666638692218" x2="278.4679985046387" y2="129.72666638692218" fill="rgb(0, 0, 0)" stroke="rgb(66, 66, 66)" stroke-width="1px" opacity="0.25"></line><line x1="0" y1="117.93333307902013" x2="278.4679985046387" y2="117.93333307902013" fill="rgb(0, 0, 0)" stroke="rgb(66, 66, 66)" stroke-width="1px" opacity="0.25"></line><line x1="0" y1="106.13999977111818" x2="278.4679985046387" y2="106.13999977111818" fill="rgb(0, 0, 0)" stroke="rgb(66, 66, 66)" stroke-width="1px" opacity="0.25"></line><line x1="0" y1="94.34666646321617" x2="278.4679985046387" y2="94.34666646321617" fill="rgb(0, 0, 0)" stroke="rgb(66, 66, 66)" stroke-width="1px" opacity="0.25"></line><line x1="0" y1="82.55333315531414" x2="278.4679985046387" y2="82.55333315531414" fill="rgb(0, 0, 0)" stroke="rgb(66, 66, 66)" stroke-width="1px" opacity="0.25"></line><line x1="0" y1="70.75999984741209" x2="278.4679985046387" y2="70.75999984741209" fill="rgb(0, 0, 0)" stroke="rgb(66, 66, 66)" stroke-width="1px" opacity="0.25"></line><line x1="0" y1="58.96666653951008" x2="278.4679985046387" y2="58.96666653951008" fill="rgb(0, 0, 0)" stroke="rgb(66, 66, 66)" stroke-width="1px" opacity="0.25"></line><line x1="0" y1="47.17333323160804" x2="278.4679985046387" y2="47.17333323160804" fill="rgb(0, 0, 0)" stroke="rgb(66, 66, 66)" stroke-width="1px" opacity="0.25"></line><line x1="0" y1="35.37999992370609" x2="278.4679985046387" y2="35.37999992370609" fill="rgb(0, 0, 0)" stroke="rgb(66, 66, 66)" stroke-width="1px" opacity="0.25"></line><line x1="0" y1="23.586666615804052" x2="278.4679985046387" y2="23.586666615804052" fill="rgb(0, 0, 0)" stroke="rgb(66, 66, 66)" stroke-width="1px" opacity="0.25"></line><line x1="0" y1="11.793333307902035" x2="278.4679985046387" y2="11.793333307902035" fill="rgb(0, 0, 0)" stroke="rgb(66, 66, 66)" stroke-width="1px" opacity="0.25"></line><line x1="0" y1="0" x2="278.4679985046387" y2="0" fill="rgb(0, 0, 0)" stroke="rgb(66, 66, 66)" stroke-width="1px" opacity="0.25"></line></g></g></g><g><g><line x1="0" y1="589.6666653951008" x2="278.4679985046387" y2="589.6666653951008" fill="rgb(0, 0, 0)" stroke="rgb(153, 153, 153)" stroke-width="1.5px"></line></g></g><g><g><line x1="34.808499813079834" y1="0" x2="34.808499813079834" y2="176.89999961853027" fill="rgb(0, 0, 0)" stroke="rgb(153, 153, 153)" stroke-width="1.5px"></line></g></g><g><g><g><g><g><path style="fill: none;" stroke="rgb(0, 119, 187)" stroke-width="2px" d="M34.93381041240692,117.93332604964567L35.135699711322786,134.312959549162L35.240125210762024,224.26666289883877L35.42809110975266,148.29557113093946L35.52555490922928,191.8872422300027L36.00591220664978,201.4455936589165L36.50715460395813,169.52203836883712L36.61158010339737,138.8823714033539L36.77169920253753,109.0562625276756L37.495715998649594,210.77012164122652L37.607103198051455,166.67685493497518L37.69760529756546,138.2375322981994L37.85076269674301,134.05907801632083L38.04569029569626,221.2472314263001L38.35896679401398,185.75214760478403L38.51908589315415,154.20743754699552L38.55389439296722,194.42268533559783L39.507647287845614,190.45805057608274L40.12723858451844,175.93512716241415L40.20381728410721,152.51823985829728L40.405706583023075,204.60919434215077L40.837331980705265,169.56180961440322L40.976565979957584,147.43155540978967L41.874625275135045,206.41917235726632L41.95120397472382,176.9190936532165L42.02778267431259,171.01707594092701L42.26448047304153,183.98968547818976L42.54294847154617,158.98092217928954L42.6404122710228,138.97540764471006L42.689144170761104,211.43136336878248L42.82837817001342,169.14149307073558L42.91191856956482,153.00209321605513L42.995458969116214,134.1939796520173L43.05115256881714,113.25093958339232L43.287850367546085,96.49683593123257L43.524548166275025,124.37157619919459L43.53847156620025,152.5678882378102L43.62897366571427,198.71180102946198L43.65682046556473,206.14287730329255L44.3877989616394,164.91383109014544L44.67322866010666,161.41436617641074L44.951696658611304,170.40822102382893L44.95865835857391,136.32637757638315L45.209279557228086,168.02791686254167L45.32066675662995,140.31889787811104L45.34155185651779,118.15172001250764L45.58521135520935,212.45493490036424L45.6060964550972,205.34393562790402L45.70356025457382,170.17176266095092L46.135185652256006,165.62073781897547L46.190879251956936,132.49655776707917L46.4345387506485,147.27392016857166L46.65731314945221,123.71578940700495L46.719968449115754,98.97261910037217L47.66675964403152,90.97142115621767L47.757261743545534,78.67380103249727L48.02876804208755,80.62903847881235L48.09838504171371,93.98656680028914L48.3141977405548,86.98258137799962L48.45343173980712,75.48273164838116L48.460393439769746,78.07618274193047L49.21921873569488,86.04761207506512L49.28187403535843,68.83808850013247L49.35149103498458,119.9338046398303L49.42806973457336,154.9137117602646L50.186895030498505,171.10430038678666L50.95268202638626,178.16010286425117L51.2311500248909,142.5280815044468L51.76720092201233,114.02246469990678L51.80200942182541,108.90796883773639L51.892511521339415,87.12637482388675L51.948205121040345,69.70109970147595L51.969090220928194,67.5542088359211L52.10832422018051,65.83669614907048L52.2336348195076,70.35935409030716L52.33109861898423,79.8741485174305L52.748800616741185,63.89931876659058L52.7557623167038,92.39611744088278L52.90195801591873,185.9535604673995L53.1525792145729,207.46027572276378L53.20827281427383,171.8648886034619L53.49370251274109,172.87191221313302L53.556357812404634,155.98752691011347L53.66078331184387,154.2733547969933L53.72343861150742,123.41868382531882L53.97405981016159,157.70161361067696L53.98102151012421,126.16129088051044L54.078485309600836,118.61902985297523L54.1968342089653,112.58522103150018L54.38480010795593,113.65484203526871L54.60757450675964,96.82054168628513L54.72592340612412,89.2497624386737L55.5056338019371,124.46980843297412L56.27142079782486,105.47251480519074L56.278382497787476,90.27467990332933L56.417616497039795,178.35974352105762L56.42457819700241,142.68779481587077L56.529003696441656,114.15023585207244L56.70304619550705,91.32018868125843L57.07897799348831,90.74614809510201L57.204288592815395,72.59691847587837L57.371369391918186,63.97420284045139L57.538450191020964,74.76602748236758L57.55933529090881,65.70949004566803L58.17196488761902,82.05092530636436L58.50612648582459,89.22740545504698L58.902943383693696,77.27859242382831L59.05610078287125,61.82287393902633L59.11179438257217,61.251628241497336L59.17444968223572,49.001302593179446L59.355453881263735,62.78770728448919L59.63392187976837,56.12683388741088L59.65480697965622,74.38480037969781L59.87061967849731,59.50784030374915L59.982006877899174,47.606272242993455L60.24655147647857,38.08501779439099L60.26743657636643,30.468014235510463L60.29528337621689,24.3744113884068L60.3440152759552,54.879530440312514L60.36490037584305,43.90362435224819L60.49717267513275,64.60623275155629L60.650330074310304,63.4783152915223L60.99145337247848,56.67932029304321L61.13764907169342,51.240124294260156L61.59712126922608,52.785428525685525L61.611044669151305,95.29834130023445L61.97305306720734,82.13534110001297L62.06355516672134,95.19160614976573L62.18886576604843,129.22328339949755L62.4812571644783,109.27529477942359L62.73884006309509,99.2135649138161L62.81541876268387,161.92418368049275L63.24008246040344,141.33267603467138L63.41412495946884,124.85946991801437L63.49766535902023,105.78424399423726L63.51855045890808,173.07739500465527L63.67170785808563,150.25524509400142L63.915367356777196,161.4808584352336L63.99194605636597,170.46134910821934L64.23560555505752,171.7490806161564L64.444456553936,166.88259776268023L64.86912025165557,157.09274342007333L64.93873725128174,143.3641918861619L65.81591144657135,120.58802156875537L66.37980914354324,102.36708531483028L66.4076559433937,81.89366825186424L66.58169844245911,71.4116026613172L66.91586004066468,57.129282129053784L67.17344293928146,63.393422853346294L67.45887263774871,56.61140634250293L67.47279603767394,45.289125074002385L67.51456623744964,36.23130005920189L67.57722153711319,28.9850400473615L67.73734063625335,23.188032037889162L68.0645405344963,24.44709369013722L68.44743403244019,54.937676281690784L68.46831913232803,43.95014102535265L68.47528083229065,46.95344191055944L68.53097443199158,126.01275333771264L68.79551903057099,106.706870729996L68.99044662952423,91.26216464382269L69.12271892881394,131.97639825456818L69.26195292806625,123.27111575375784L69.47776562690734,110.4102216932836L70.16697392320633,106.01817450473014L70.22962922286986,84.81453960378414L70.2435526227951,73.74829974285323L70.53594402122498,106.17197021414084L70.56379082107544,114.42090944106772L70.66821632051467,91.53672755285415L70.69606312036515,126.2993805219675L70.91883751916885,112.83283350785133L71.00933961868286,96.16293486610695L71.18338211774825,118.20701025291798L71.27388421726228,100.46227626216032L71.37830971670151,86.26648906955418L71.44096501636506,69.01319125564332L71.67070111513138,72.90055015461789L71.83778191423417,164.46043971907812L71.858667014122,178.7416821951208L72.13713501262664,154.78667484637398L72.19282861232757,165.1060022371316L72.4225647110939,137.98146984953115L72.71495610952377,139.86850914937992L72.77761140918733,129.5848044696072L73.1605049071312,109.56451163551161L74.26045350122452,105.34160645851254L74.69904059886932,90.16995322663597L74.89396819782257,83.9292916715861L75.05408729696275,67.14343333726885L75.40913399505615,53.71474666981509L75.64583179378509,72.45513060560707L75.7363338932991,99.24076684451803L76.27238479042053,97.08261062571769L76.44642728948594,101.25275371050331L76.55781448888779,86.89887102822853L76.64135488843918,93.10576203251196L76.94766968679427,92.17460677611287L77.351448284626,103.22301869064538L77.53941418361663,153.33841409699096L77.56726098346711,128.5673993374187L78.14508208036423,108.75058752976084L78.27039267969133,87.00047002380865L78.52101387834549,75.49704407887283L78.88998397636414,60.39763526309828L78.90390737628937,60.111437300755945L79.07098817539215,65.77914699070804L79.07794987535476,64.41664668284375L79.11275837516786,51.533317346275034L79.14756687498092,41.22665387702004L80.25447716903687,38.877991161441955L80.37978776836395,48.79239007925682L80.41459626817704,44.93058012323137L80.50509836769105,47.737793188862426L80.53990686750413,67.67356782084502L80.65129406690598,54.138854256676034L80.68610256671906,43.31108340534085L80.74875786638259,52.33886387437597L80.86014506578445,47.767759159326694L81.26392366361618,73.59420865704229L81.59112356185912,100.15202928566625L81.6607405614853,150.8816225730076L81.79997456073761,120.70529805840607L82.16198295879363,102.4609065065508L82.44045095729827,87.86539326506659L82.49614455699921,70.2923146120533L82.95561675453186,56.233851689642634L82.97650185441971,56.78041044199143L83.05308055400849,51.32099641341905L83.47774425172805,76.4367984603162L83.51255275154114,67.04610682807885L83.52647615146637,59.533553522289004L83.91633134937287,83.00684414741211L84.35491844701767,66.40547531792969L84.37580354690552,82.60771352409884L84.4175737466812,66.08617081927909L84.68211834526062,76.45560186535238L84.9814714436531,67.06114955210782L85.30170964193344,53.64891964168627L85.44790534114838,78.29913704292994L85.68460313987731,74.4326387246213L85.8934541387558,124.40944206434578L85.99787963819504,111.32088274175398L86.09534343767166,89.05670619340316L86.57570073509217,71.24536495472252L86.77062833404541,133.65295916807858L86.79847513389586,118.71569642474022L86.81239853382111,106.76588623006947L86.89593893337249,91.30937704388143L87.06301973247528,114.32416399513751L87.14656013202668,97.35599925593586L87.2440239315033,77.88479940474866L87.32060263109207,68.20450758362482L87.66868762922287,54.56360606689989L87.7313429288864,67.23755006344908L87.74526632881164,65.58336914103663L87.98196412754059,64.26002440310664L88.02373432731628,51.40801952248531L88.13512152671814,47.02308367781409L88.6015554242134,49.4117960325286L88.62244052410125,45.426104885848815L88.80344472312927,42.23755196850492L89.06798932170868,33.790041574803936L89.0749510216713,62.41203458942412L89.2559552206993,85.30962900112024L89.37430412006378,74.14437126072205L89.49265301942826,71.10882609885498L89.7711210179329,56.887060879083954L89.81289121770858,69.09631391319633L90.00781881666182,55.27705113055707L90.40463571453094,67.80830611437474L90.8223377122879,83.72997816125488L91.04511211109161,78.77731161928122L91.35142690944672,68.91851735525084L91.50458430862427,55.13481388420067L91.64381830787659,44.10785110736056L92.00582670593262,64.76961415564342L92.09632880544662,93.09235368454712L92.4304904036522,74.4738829476377L92.52795420312881,59.579106358110174L92.56276270294188,88.93994744652056L93.02919660043717,71.15195795721641L93.12666039991377,74.6115635158764L93.2658943991661,95.06925214228202L93.920294195652,99.64206692375475L94.31711109352112,120.99031589903619L94.3588812932968,138.06891507926136L94.42153659296036,116.35180012323505L94.80443009090423,122.56477336834313L95.08985978937149,103.94848675450037L95.11770658922195,83.15878940360028L95.33351928806304,72.42369958270613L95.50060008716582,57.93895966616495L95.54237028694153,46.35116773293197L95.73729788589478,37.080934186345566L95.90437868499755,41.45807643935379L95.91830208492279,39.06312921130886L96.23157858324052,43.04383245932445L96.30119558286667,87.50506444714374L96.52396998167039,70.00405155771496L96.55877848148346,56.00324124617195L96.60751038122177,86.07925535696994L96.88597837972641,86.55340143567922L96.91382517957686,128.20938768805348L97.3593739771843,143.84417251047518L97.50556967639923,120.97200606820606L97.69353557538986,120.36427006449401L97.86757807445525,102.1880841114211L98.30616517210007,87.6471353489628L98.52197787094116,81.91103736944754L98.93967986869812,65.52882989555808L99.21814786720276,64.2163930067238L99.48965416574478,51.373114405379035L99.57319456529616,70.58182479405824L99.63584986495972,80.05212504517576L99.74027536439897,69.93836809596644L99.86558596372605,61.84736253659905L99.96304976320266,55.37455808910518L100.05355186271667,44.29964647128413L100.08836036252976,112.09638438132781L100.15797736215592,89.67710750506225L100.63833465957642,77.63835406387564L101.20919405651092,62.110683251100546L101.27184935617447,55.58521466070638L101.40412165546417,44.468171728565125L102.13510015153885,35.57453738285212L102.14206185150147,69.73629226631412L102.4205298500061,55.78903381305128L102.70595954847336,44.63122705044101L102.71292124843598,53.39497879045605L102.83823184776307,54.5093121226422L103.12366154623032,61.29744684821706L103.20024024581909,49.03795747857364L103.2907423453331,98.19703252236899L103.38124444484711,84.45429407772106L103.49959334421158,85.25343241228013L103.68755924320222,74.09941398964999L103.84767834234238,59.27953119172001L104.06349104118347,47.423624953375985L104.07045274114608,85.11223038255906L104.07741444110871,68.08978430604725L104.14703144073486,83.95516071459278L104.23753354024888,67.16412857167423L104.27930374002457,71.42130000744261L104.3767675395012,57.13704000595407L104.8640865368843,45.70963200476326L105.05205243587493,36.56770560381058L105.26786513471603,29.254164483048456L105.38621403408051,64.67999394647119L105.75518413209915,69.4339923072802L105.87353303146362,55.547193845824154L105.92226493120194,44.43775507665934L106.29819672918319,41.44687212115339L106.37477542877197,33.157497696922725L106.80640082645417,67.80266051757059L106.82728592634201,60.13879647388235L106.83424762630463,48.1110371791059L107.17537092447282,62.07549495321386L107.5234559226036,49.660395962571116L107.5652261223793,51.52164586033426L107.57218782234192,41.21731668826741L107.61395802211761,44.76718244089128L107.9133111205101,59.400411162642186L108.03166001987458,47.52032893011372L108.33101311826707,43.91293120391692L108.57467261695862,35.13034496313352L108.8322555155754,28.104275970506794L108.90187251520157,128.6234203717892L108.91579591512681,102.89873629743134L109.34742131280899,135.3889875176293L109.41703831243515,114.20785807392936L109.46577021217347,91.36628645914345L109.7929701104164,96.67969437724389L110.28725080776215,77.34375550179514L111.54731850099564,73.66833349171345L111.58212700080871,58.93466679337078L111.63782060050964,47.147733434696605L111.76313119983672,43.61485480758322L112.04159919834136,52.58188099616983L112.20867999744415,47.96217285676176L112.25045019721985,38.36973828540939L112.25741189718246,71.97245298835988L112.4941096959114,69.37129148096527L112.57068839550018,55.497033184772235L112.86307979393005,56.19095563809513L112.90484999370574,44.952764510476136L112.96054359340668,53.65220875848418L113.68456038951874,42.92176700678731L113.69152208948135,40.23408166525575L114.13010918712615,32.18726533220458L114.19972618675233,25.749812265763694L114.2345346865654,79.56651635212106L114.47123248529435,75.44654217197417L114.50604098510742,66.25390179740519L114.59654308462142,70.69311858802742L114.61046648454666,97.83115723045437L115.04905358219148,90.05825487464082L115.4110619802475,83.83993298999L115.64079807901382,67.07194639199197L116.23254257583618,53.65755711359359L116.51101057434082,48.8227137507007L116.65024457359314,44.95483906038651L116.71289987325669,77.24053360834158L116.85909557247163,67.68909494649913L117.07490827131271,60.047944017025145L117.08883167123794,59.831684303897454L117.2837592701912,83.24534877269892L117.42299326944352,72.49294707798497L117.48564856910706,57.99435766238801L117.52741876888274,93.5688165497687L118.03562286615372,98.44171844974406L118.1539717655182,78.75337475979528L118.53686526346208,63.00269980783624L118.87798856163025,56.298827906094814L119.56719685792923,45.039062324875836L119.5950436577797,36.031249859900655L119.9848988556862,28.824999887920484L120.23552005434037,46.646665120265524L120.45133275318146,37.31733209621242L120.46525615310668,35.75053373679577L120.54879655265809,40.39375607971395L120.8133411512375,32.31500486377119L121.09180914974213,25.852003891016974L121.1196559495926,56.0616044423945L121.13357934951782,44.8492835539156L121.27977504873276,53.56942399323579L121.28673674869538,42.85553919458861L121.39116224813462,40.1810994154968L121.474702647686,32.14487953239744L121.66266854667664,37.50923271619531L121.67659194660187,41.80071526323359L121.69051534652709,33.440572210586865L122.20568114376069,26.75245776846952L122.53288104200364,21.401966214775634L122.86008094024658,28.914902062097855L123.27778293800354,40.82191879978152L123.79294873523712,32.65753503982524L123.85560403490067,26.126028031860212L124.62139103078842,20.9008224254882L124.64923783063888,16.72065794039054L124.9207441291809,54.65318871234482L125.11567172813415,49.61921902970168L125.14351852798463,57.3853723738646L125.28971422719955,45.90829789909167L125.38021632671355,83.89996873913161L125.47768012619018,67.1199749913053L125.64476092529297,77.28264520297336L125.95107572364806,85.41278137230779L126.6193989200592,74.22689315767214L127.0510243177414,59.38151452613772L127.12760301733017,47.50521162091017L127.42695611572266,38.004169296728136L127.74023261404038,30.40333543738254L128.0117389125824,30.219336409731863L128.22058991146088,30.072137187611442L128.47817281007767,47.6443749600183L128.94460670757294,38.11549996801466L129.13953430652617,42.28572906468905L129.1952279062271,33.82858325175126L129.64773840379715,27.06286660140099L129.78001070308684,27.546961340946652L129.79393410301208,22.037569072757307L129.81481920289994,29.423384348483143L129.90532130241394,35.33203656906385L130.43441049957275,34.162297315076984L130.89388269710543,27.329837852061605L131.09577199602128,45.45053549157841L131.22108259534835,42.257096453088565L131.5065122938156,33.80567716247083L131.68751649284363,74.21787214983493L132.0704099907875,59.37429771986794L132.13306529045104,59.29276726617167L132.31406948947907,71.02087902286647L132.59253748798372,56.816703218293206L133.3722478837967,63.14335972473781L133.50452018308638,68.20468492989347L133.58109888267518,54.56374794391478L133.70640948200227,43.65099835513181L134.0684178800583,34.92079868410547L134.11714977979662,27.93663894728438L134.70193257665633,28.24597921765341L134.73674107646943,34.39011246440007L134.78547297620773,27.512089971520048L135.05001757478715,22.00967197721606L135.09178777456282,17.607737581772874L135.18925157403945,14.086190065418286L135.2449451737404,64.33895053201887L135.251906873703,57.36782848544098L135.7253024711609,45.894262788352776L135.9968087697029,42.61207829050813L136.2892001681328,39.98633069223246L136.60943836641312,49.679061703889204L136.76259576559067,92.81324784279559L137.45876576185225,80.14726633406237L137.5631912612915,81.80781021735316L137.97393155908586,71.34291623370848L138.19670595788958,80.66099819689595L138.28720805740355,76.32212764779409L138.315054857254,72.8510312085126L138.68402495527266,58.28082496681006L138.71187175512313,82.00466130302901L138.8162972545624,65.60372904242324L139.36627155160903,52.482983233938576L139.68650974988938,77.36638791673182L139.693471449852,61.89311033338544L139.72131824970245,61.30781735698567L139.9997862482071,60.83958297586586L140.0972500476837,48.67166638069267L140.19471384716033,50.73066219483145L140.29913934659956,46.481197815691104L140.45925844573972,37.18495825255287L140.52191374540328,41.54129569231965L140.6193775448799,56.819701763784835L141.4478198404312,45.45576141102783L141.55920703983307,59.95127433875142L141.6566708393097,89.23768183103353L141.75413463878633,77.28681352465267L141.81678993844986,61.82945081972211L142.15095153665544,61.256889746055045L142.26233873605727,72.5921770067732L142.30410893583297,69.8670706956959L142.4085344352722,61.79032461638257L142.4503046350479,49.432259693106054L142.64523223400116,86.71913817434312L143.48063622951508,75.2719785993004L143.67556382846834,95.59758420902128L143.8844148273468,111.85806869679791L144.19072962570192,89.48645495743837L144.26034662532805,71.58916396595066L144.44831252431868,63.16799923258648L144.52489122390747,62.327728476346515L144.7546273226738,55.758850840903115L144.8103209223747,85.88374303275494L144.94259322166442,68.70699442620392L145.0191719212532,54.965595540963115L145.31156331968307,61.66247358287376L145.64572491788863,49.32997886629901L145.65268661785126,74.84398442262011L146.41847361373902,59.8751875380961L146.7247884120941,47.90015003047689L147.01021811056137,38.3201200243815L147.0659117102623,30.656096019505163L147.48361370801925,30.42154487543008L147.49057540798185,77.40723438002824L147.8386604061127,61.925787504022615L147.8595455060005,49.54063000321808L147.87346890592573,45.52917206240029L147.91523910570143,48.21666674019759L148.3747113032341,79.84999575219047L148.6044474020004,63.879996601752396L148.92468560028078,68.79399443150521L149.05695789957045,66.82852463548151L149.0778429994583,59.3594877682111L149.1683450989723,47.48759021456887L150.39360429239272,37.99007217165507L150.40752769231796,30.392057737324073L150.47714469194415,24.31364618985925L151.28470188760755,19.45091695188738L151.31254868745805,33.25073071161316L152.001756983757,61.98058589887145L152.2245313825607,55.481136778923066L152.32199518203737,50.281577482964316L152.3428802819252,93.29526046605567L152.509961081028,80.53287643267038L152.78842907953262,70.32296920596225L152.81627587938308,97.53503772480225L153.1713225774765,78.02803017984179L153.26878637695313,62.42242414387342L153.53333097553252,49.93793931509876L153.55421607542038,39.95035145207903L153.68648837471008,43.75361025194054L153.9928031730652,76.27955056158484L154.0345733728409,61.02364044926789L154.0415350728035,48.81891235941431L154.15292227220536,56.74512703763471L154.23646267175675,57.18943072038513L154.75162846899033,116.51154372078278L154.76555186891557,93.20923497662623L154.89782416820526,74.567387981301L154.9883262677193,65.55057844486676L155.05794326734542,52.44046275589337L155.11363686704635,41.9523702047147L155.90030896282195,33.56189616377179L156.15789186143877,26.849516931017412L156.74267465829848,21.479613544813922L157.07683625650407,17.183690835851156L157.45276805448532,19.64362072850676L157.55719355392455,39.301561792734525L157.56415525388718,37.337917494013546L157.66858075332644,29.87033399521082L157.8286998524666,23.896267196168687L157.94704875183106,19.11701375693497L158.0097040514946,21.190279065373815L158.24640185022352,22.84889131212499L158.50398474884034,18.279113049699998L158.82422294712066,73.58995697927004L159.234963244915,58.87196558341603L159.2836951446533,47.09757246673283L159.29065684461594,37.67805797338627L159.3185036444664,30.142446378709003L159.6665886425972,35.90728619324454L159.78493754196165,28.725828954595656L159.86847794151308,22.980663163676486L160.1539076399803,18.38453053094119L160.17479273986817,20.604292484578853L160.3627586388588,16.4834339876631L160.56464793777465,13.186747190130513L160.73172873687744,10.54939775210439L160.8779244360924,8.439518201683544L160.96146483564377,6.751614561346835L161.0171584353447,5.401291649077487L161.04500523519516,4.321033319262002L161.07285203504563,21.146823805512874L161.56017103242874,22.814127104236235L162.04052832984922,24.147969743214905L162.43038352775574,19.318375794571896L162.52088562726973,27.248029725934884L162.9385876250267,33.591752871025264L163.02212802457808,32.77007035664615L163.1056684241295,26.216056285316945L163.2100939235687,20.972845028253577L163.3771747226715,16.77827602260283L163.46767682218552,37.00928602801141L163.53033212184909,35.504096882235075L163.75310652065275,28.403277505788054L164.40750631713868,28.619290064456315L164.44231481695175,22.895432051565045L164.53281691646575,24.213013701077926L164.60939561605454,25.267079020688193L165.39606771183014,20.213663216550554L165.40302941179277,33.860927723343686L165.44479961156844,27.088742178674952L165.46568471145628,21.67099374293994L165.5492251110077,17.33679499435198L165.65365061044693,37.456101205410725L166.3707057065964,35.86154902415452L166.41247590637207,28.6892392193236L167.01814380311964,22.95139137545888L167.33142030143736,65.53444352022541L167.35230540132522,52.427554816180326L167.77000739908217,53.735372943221584L167.83962439870834,48.88496641440314L167.86747119855883,45.00464119134841L167.87443289852143,47.797042043356065L168.53579439496994,38.23763363468483L168.54971779489517,30.590106907747828L169.01615169239045,24.472085526198246L169.3015813908577,25.474336480784427L169.6496663889885,55.75947051420851L169.70535998868942,44.60757641136682L169.80978548812865,35.686061129093446L169.90724928760528,52.1355141132039L170.0047130870819,41.708411290563134L170.38064488506316,33.36672903245052L170.54772568416598,26.693383225960446L170.5686107840538,21.354706580768337L170.88188728237154,17.08376526461468L171.37616797971725,13.667012211691763L171.48755517911908,46.313611098934366L171.63375087833404,37.05088887914749L171.68248277807234,47.330708253421264L172.3925761742592,37.864566602737035L172.40649957418444,36.18832134201548L172.93558877134325,46.64065422371563L173.07482277059555,72.69252470855345L173.3115205693245,87.63735303659779L173.42290776872633,70.10988242927827L173.49948646831513,67.88123503369994L173.91022676610947,54.304988026959975L173.9171884660721,61.13398757167123L173.94503526592257,48.90719005733697L174.03553736543654,50.919081136146886L174.13996286487577,58.42526205902077L174.56462656259535,58.53353873749394L174.9753668603897,52.72349904982101L176.20758775377274,48.07546729968275L176.35378345298767,38.46037383974616L176.56263445186616,36.66496713162288L176.78540885066988,29.331973705298296L176.84806415033339,23.46557896423862L176.98033644962308,36.46246032149418L177.1056470489502,29.169968257195364L177.47461714696885,23.335974605756324L177.61385114622115,18.66877968460504L177.7670085453987,14.935023747684L177.92712764453887,11.94801899814718L178.04547654390336,27.248412348620995L178.0663616437912,21.798729878896776L178.08724674367906,17.43898390311745L178.34482964229582,55.22784948252638L178.53975724124908,44.18227958602112L178.66506784057617,35.34582366881687L178.67899124050143,28.276658935053486L179.3333910369873,28.517995207868616L179.52135693597793,22.814396166294877L179.70236113500596,18.251516933035926L179.87640363407135,14.60121354642872L179.8972887339592,29.37096798724625L180.6352289299965,52.98010765955199L180.66307572984695,42.38408612764162L180.76750122928618,33.90726890211326L180.78142462921141,27.12581512169061L180.8162331290245,27.59732015717841L180.8580033288002,27.974524185568647L180.94850542831423,75.44961782813914L181.00419902801514,60.35969426251134L181.25482022666932,71.8744206199382L181.36620742607116,63.39620455577641L181.90225832319257,103.78696212430536L182.05541572237016,83.0295696994443L182.15287952184676,66.42365575955544L182.20857312154772,123.89892375211899L182.2503433213234,105.01580706152103L182.4313475203514,84.01264564921682L182.45919432020185,67.21011651937343L182.62627511930467,124.52809235997333L182.70285381889343,99.62247388797869L182.8629729180336,103.28464432031208L182.946513317585,82.62771545624966L183.1692877163887,66.10217236499975L183.71926201343535,76.46840310192896L183.92115131235124,96.55472381112415L184.24138951063156,77.24377904889934L185.05590840625763,85.38168844904862L185.06983180618286,80.09867984951626L185.1324871058464,64.07894387961302L185.16033390569686,104.33315358337461L185.1672956056595,83.46652286669969L185.2160275053978,72.66988635318563L185.32741470479965,81.7225742924776L185.71030820274353,83.06805658408537L185.72423160266877,66.45444526726834L186.01662300109865,53.16355621381468L186.11408680057525,54.32417406132905L186.6570993976593,43.45933924906328L186.70583129739762,34.76747139925058L186.88683549642562,39.60730620967782L188.40448608827592,31.685844967742263L188.57156688737868,37.14200506447116L188.7595327863693,29.7136040515769L188.91269018554686,29.667551301087457L188.98230718517303,35.52737013114733L189.0936943845749,28.42189610491788L189.56012828207017,28.634184943760243L189.86644308042526,22.90734795500822L189.93606008005142,24.222546423832405L189.94998347997665,19.378037139065928L189.99871537971498,15.50242971125271L190.1031408791542,12.401943769002168L190.59742157649993,9.921555015201754L190.61134497642516,43.317245341742364L190.86892787504195,58.240461483323024L191.20308947324753,58.385698276935784L191.5442127714157,46.708558621548626L191.6695233707428,37.36684689723888L191.91318286943437,29.89347751779108L192.17076576805115,35.70811110451021L192.4561954665184,28.566488883608162L192.85301236438752,46.439856316815664L193.22894416236878,66.63521832320761L193.39602496147157,59.20484271839205L193.40298666143417,47.36387417471362L194.37762465620042,37.89109933977087L194.56559055519105,30.312879471816686L194.80925005388258,30.146971637279222L194.8510202536583,24.11757730982341L194.87886705350877,36.98405899796201L195.29656905126572,64.96724852795057L195.3313775510788,51.97379882236047L195.4218796505928,41.579039057888394L195.58199874973297,33.2632312463107L195.66553914928437,32.507253056874454L196.75156434345246,26.005802445499587L197.00218554210664,32.59797104667701L197.15534294128418,26.078376837341626L197.22495994091034,32.65603056015065L197.55912153911592,37.91815353839787L197.75404913806915,42.1278519209956L197.76101083803178,33.70228153679648L198.40844893455505,32.85849328926303L198.67299353313447,26.286794631410405L199.0280402312279,32.822764795405675L199.04196363115312,38.05154092660191L199.29258482980725,30.441232741281485L199.41789542913438,24.352986193025213L199.4387805290222,25.379057014246023L199.92609952640532,26.199913671222685L200.61530782270432,50.44326420673319L201.37413311862943,46.251279425212466L201.55513731765748,48.79435263044734L202.07030311489106,39.035482104357875L202.37661791324615,31.22838568348628L202.41838811302185,30.879376606614883L202.73166461133957,24.70350128529193L203.42087290763857,25.659469088059396L203.84553660535812,20.527575270447517L204.0126174044609,34.11205736646126L204.36766410255433,33.18631395299494L204.5208215017319,26.54905116239595L204.61132360124586,21.23924092991674L204.91763839960097,16.991392743933382L205.15433619832993,25.38644328542401L205.18218299818037,20.30915462833923L205.30053189754486,16.247323702671352L205.3144552974701,36.58452417206623L206.1080890932083,29.267619337652985L206.24732309246065,29.310763529948275L206.31694009208678,23.448610823958614L206.49098259115218,24.65555671899272L206.7903356895447,37.414442525297446L206.8877994890213,77.1048844400962L207.16626748752594,79.37390470218025L207.5839694852829,63.499123761744194L207.65358648490906,50.79929900939531L207.73016518449785,40.639439207516254L207.75801198434831,32.511551366013016L207.980786383152,26.009241092810424L208.0295182828903,38.49739002435162L208.17571398210526,30.79791201948129L208.4193734807968,30.53499767541092L208.55860748004915,24.427998140328768L208.57253087997435,19.542398512262995L208.69087977933884,15.633918809810408L208.78834357881544,12.507135047848294L209.21996897649765,27.69570518838192L209.2338923764229,22.156564150705535L209.630709274292,17.725251320564453L209.70032627391817,49.560202386032486L210.06233467197418,51.44149099910331L210.15283677148818,52.946521889559946L210.5844621691704,60.047214661751205L210.75154296827316,48.03777172940097L211.62175546360015,44.32688544334662L211.9419936618805,41.3581764145032L212.10211276102066,33.08654113160256L213.11155925559996,26.469232905282006L213.36914215421677,32.968715414502924L213.45268255376817,26.374972331602365L213.6336867527962,21.099977865281936L213.74507395219803,16.879982292225517L213.75899735212326,13.503985833780433L213.8146909518242,10.803188667024315L213.82861435174942,8.642550933619452L214.12100575017928,12.81070880672141L214.5178226480484,16.145235105202985L214.62224814748762,12.91618808416236L214.62920984745026,98.78295027659506L214.99817994546888,161.57969197071523L215.1652607445717,129.26375357657224L215.23487774419783,121.10100001136105L215.31841814374926,102.77746806891476L215.74308184146884,88.1186425149577L216.20255403900146,70.4949140119662L216.26520933866502,68.18926029985029L216.48798373746874,119.41473932452897L216.55063903713224,101.42845951944905L216.6063326368332,87.03943567538512L216.66202623653413,93.2182137502372L216.87783893537522,74.57457100018975L216.89176233530043,59.65965680015183L217.08668993425368,53.62439349994731L217.44173663234713,42.899514799957856L217.643625931263,34.3196118399663L217.6575493311882,39.249018562250406L217.83159183025361,31.399214849800284L217.9220939297676,25.119371879840234L217.93601732969285,25.992165563698084L217.9986726293564,26.690400510784357L218.4372597270012,21.352320408627516L218.7435745253563,22.9785243867279L218.77838302516935,59.659481869414705L219.2308935227394,47.72758549553175L219.64163382053374,38.1820683964254L219.89921671915056,30.545654717140323L219.9340252189636,24.436523773712292L219.9688337187767,31.34254810924717L220.03845071840286,25.07403848739772L220.19856981754302,25.955898849744084L220.30995701694488,20.76471907979527L220.55361651563643,16.61177526383623L220.6232335152626,25.082749301346333L220.63715691518783,20.066199441077078L220.66500371503832,16.05295955286169L220.69285051488876,12.84236764228934L220.91562491369245,16.170562173657313L221.05485891294478,12.936449738925822L221.47952261066436,16.245827850966577L221.486484310627,18.893330340599103L221.4934460105896,15.114664272479274L222.17569260692596,23.885060508260757L222.56554780483248,66.28137882646685L222.87186260318757,53.02510306117349L222.9762881026268,42.42008244893882L223.10856040191652,33.93606595915104L223.18513910150529,62.52885409690177L223.498415599823,50.02308327752142L223.6306878991127,51.81179571229451L223.74903679847716,41.449436569835626L223.9370026974678,33.15954925586848L224.91860239219665,32.424307464520616L225.329342689991,31.836114031442357L225.52427028894425,31.365559284979835L225.8514701871872,54.57578069773888L225.87235528707504,49.55729261801696L225.9350105867386,51.439163184690884L226.40144448423385,47.047998607578606L226.5128316836357,43.535066945888715L226.5546018834114,46.62138264698833L227.13242298030852,37.29710611759069L227.16026978015898,29.837684894072577L227.3064654793739,23.870147915258023L227.6823972773552,24.992786392032272L228.19060137462617,19.99422911362584L228.28806517410277,15.995383290900676L228.51780127286912,12.796306632720523L228.57349487257005,33.82371051610558L228.60134167242052,38.85229750316179L228.62918847227095,48.77183515263274L228.99815857028963,44.91413618193202L229.01208197021484,41.827977005371565L229.1582776694298,45.25571069457457L229.54813286733628,59.79123376558876L229.7778689661026,53.72965507229689L230.04937526464462,42.98372405783754L230.44619216251374,40.28364730609598L230.51580916213987,32.226917844876766L231.14932385873794,25.781534275901443L231.28159615802764,44.21189263065028L232.2075022530556,35.36951410452024L232.2631958527565,28.295611283616203L232.43027665185926,22.636489026892956L232.67393615055084,18.109191221514383L232.86190204954147,14.487352977211515L232.88278714942933,11.589882381769232L232.93848074913026,15.1685739652413L233.05682964849473,12.13485917219306L233.07771474838256,9.707887337754435L233.32137424707415,7.76630987020358L233.45364654636384,6.213047896162884L233.80869324445723,4.9704383169302755L233.9061570439339,3.976350653544201L234.01754424333572,3.1810805228353334L234.10804634284972,26.13152962819741L235.24976513671874,26.801891762383875L235.26368853664397,27.33818146973301L235.68139053440095,33.663874266063765L235.87631813335418,38.72442850312835L236.50287112998964,30.979542802502703L236.51679452991488,24.783634242002147L236.586411529541,19.826907393601722L237.094615626812,51.2415272444623L237.52624102449417,40.99322179556984L237.57497292423247,32.79457743645585L237.81167072296142,43.925659099267975L238.5008790192604,35.14052727941437L238.8559257173538,39.90575091380885L239.12743201589583,31.924600731047097L239.1552788157463,25.539680584837686L239.51032551383972,20.431744467870182L239.69829141283034,34.03539272439939L239.91410411167146,27.228314179519533L239.94891261148453,33.57598043389294L240.1090317106247,32.757452406940246L240.21345721006392,32.10262998537802L240.3248444094658,31.578772048128293L240.6311592078209,37.056346728779964L241.01405270576478,29.645077383023995L241.12543990516662,23.71606190641922L241.36909940385817,18.97284952513542L241.41086960363387,15.178279620108324L241.49441000318527,12.14262369608663L241.6684525022507,9.714098956869297L242.0861545000076,19.564608255772793L242.1557714996338,21.548354664444116L242.2045033993721,17.23868373155528L242.32285229873656,13.790946985244236L242.48297139787672,11.03275758819538L242.60132029724122,20.619535160833642L242.6848606967926,16.49562812866691L242.78232449626924,13.19650250293353L243.06079249477386,16.453870062172772L243.40191579294205,30.85309319984148L243.4784944925308,36.47580365015051L243.6525369915962,29.180642920120412L244.04239218950272,46.93117954602546L244.12593258905412,37.54494363682039L244.2164346885681,30.035954909456304L244.43920908737184,29.925431987390976" fill="none"></path></g></g></g></g><g opacity="0.2"><g><g><g><path style="fill: none;" stroke="rgb(0, 119, 187)" stroke-width="2px" d="M34.93381041240692,117.93332604964574L35.135699711322786,147.4166663487752L35.240125210762024,353.7999957223733L35.42809110975266,0L35.52555490922928,294.8333326975504L35.95021860694885,265.3499923984209L36.00591220664978,29.48334029912946L36.50715460395813,58.9666454513868L36.61158010339737,29.48334029912946L36.77169920253753,0L37.495715998649594,589.6666653951008L37.607103198051455,0L37.69760529756546,29.48334029912946L37.85076269674301,117.93332604964574L38.04569029569626,560.1833316860099L38.11530729532242,265.3499923984209L38.157077495098115,58.9666454513868L38.35896679401398,147.4166663487752L38.51908589315415,29.48334029912946L38.55389439296722,353.7999957223733L38.56781779289246,471.73333055873707L38.67920499229431,58.9666454513868L38.95767299079895,294.8333326975504L39.2848728890419,265.3499923984209L39.38929838848114,0L39.507647287845614,88.44998575051628L40.12723858451844,117.93332604964574L40.20381728410721,58.9666454513868L40.405706583023075,412.7666587471961L40.837331980705265,29.48334029912946L40.976565979957584,58.9666454513868L41.874625275135045,442.2499990463256L41.95120397472382,58.9666454513868L42.02778267431259,147.4166663487752L42.26448047304153,235.86665209929149L42.54294847154617,58.9666454513868L42.6404122710228,58.9666454513868L42.689144170761104,501.2166620711485L42.82837817001342,0L42.91191856956482,88.44998575051628L42.995458969116214,58.9666454513868L43.05115256881714,29.48334029912946L43.287850367546085,29.48334029912946L43.524548166275025,235.86665209929149L43.65682046556473,235.86665209929149L44.3877989616394,0L44.67322866010666,147.4166663487752L44.951696658611304,206.383311800162L44.95865835857391,0L45.209279557228086,294.8333326975504L45.32066675662995,29.48334029912946L45.34155185651779,29.48334029912946L45.58521135520935,589.6666653951008L45.6060964550972,176.90000664790466L45.70356025457382,29.48334029912946L46.135185652256006,147.4166663487752L46.190879251956936,0L46.4345387506485,206.383311800162L46.65731314945221,29.48334029912946L46.719968449115754,0L47.66675964403152,58.9666454513868L47.757261743545534,29.48334029912946L48.02876804208755,88.44998575051628L48.09838504171371,147.4166663487752L48.3141977405548,58.9666454513868L48.45343173980712,29.48334029912946L48.460393439769746,88.44998575051628L49.21921873569488,117.93332604964574L49.28187403535843,0L49.35149103498458,324.3166554232438L50.95268202638626,206.383311800162L51.2311500248909,0L51.76720092201233,0L51.80200942182541,88.44998575051628L51.892511521339415,0L51.948205121040345,0L51.969090220928194,58.9666454513868L52.10832422018051,58.9666454513868L52.2336348195076,88.44998575051628L52.33109861898423,117.93332604964574L52.748800616741185,0L52.7557623167038,206.383311800162L53.09688561487198,442.2499990463256L53.1525792145729,88.44998575051628L53.20827281427383,29.48334029912946L53.49370251274109,176.90000664790466L53.556357812404634,88.44998575051628L53.66078331184387,147.4166663487752L53.72343861150742,0L53.97405981016159,294.8333326975504L53.98102151012421,0L54.078485309600836,88.44998575051628L54.1968342089653,88.44998575051628L54.38480010795593,117.93332604964574L54.60757450675964,29.48334029912946L54.72592340612412,58.9666454513868L55.5056338019371,265.3499923984209L56.27142079782486,29.48334029912946L56.278382497787476,29.48334029912946L56.417616497039795,530.6999979769189L56.42457819700241,0L56.529003696441656,0L56.70304619550705,0L57.07897799348831,88.44998575051628L57.204288592815395,0L57.371369391918186,29.48334029912946L57.538450191020964,117.93332604964574L57.55933529090881,29.48334029912946L58.17196488761902,147.4166663487752L58.50612648582459,117.93332604964574L58.902943383693696,29.48334029912946L59.05610078287125,0L59.11179438257217,58.9666454513868L59.17444968223572,0L59.355453881263735,117.93332604964574L59.63392187976837,29.48334029912946L59.65480697965622,147.4166663487752L59.87061967849731,0L59.982006877899174,0L60.24655147647857,0L60.26743657636643,0L60.29528337621689,0L60.3440152759552,176.90000664790466L60.36490037584305,0L60.49717267513275,147.4166663487752L60.650330074310304,58.9666454513868L60.99145337247848,29.48334029912946L61.13764907169342,29.48334029912946L61.59712126922608,58.9666454513868L61.611044669151305,265.3499923984209L61.97305306720734,29.48334029912946L62.06355516672134,147.4166663487752L62.18886576604843,265.3499923984209L62.4812571644783,29.48334029912946L62.73884006309509,58.9666454513868L62.81541876268387,412.7666587471961L63.24008246040344,58.9666454513868L63.41412495946884,58.9666454513868L63.49766535902023,29.48334029912946L63.51855045890808,442.2499990463256L63.67170785808563,58.9666454513868L63.915367356777196,206.383311800162L64.23560555505752,176.90000664790466L64.444456553936,147.4166663487752L64.86912025165557,117.93332604964574L64.93873725128174,88.44998575051628L65.81591144657135,29.48334029912946L66.37980914354324,29.48334029912946L66.4076559433937,0L66.58169844245911,29.48334029912946L66.91586004066468,0L67.17344293928146,88.44998575051628L67.45887263774871,29.48334029912946L67.47279603767394,0L67.51456623744964,0L67.57722153711319,0L67.73734063625335,0L68.0645405344963,29.48334029912946L68.44743403244019,176.90000664790466L68.46831913232803,0L68.47528083229065,58.9666454513868L68.53097443199158,442.2499990463256L68.79551903057099,29.48334029912946L68.99044662952423,29.48334029912946L69.12271892881394,294.8333326975504L69.26195292806625,88.44998575051628L69.47776562690734,58.9666454513868L70.16697392320633,88.44998575051628L70.22962922286986,0L70.2435526227951,29.48334029912946L70.53594402122498,235.86665209929149L70.56379082107544,147.4166663487752L70.66821632051467,0L70.69606312036515,265.3499923984209L70.91883751916885,58.9666454513868L71.00933961868286,29.48334029912946L71.18338211774825,206.383311800162L71.27388421726228,29.48334029912946L71.37830971670151,29.48334029912946L71.44096501636506,0L71.67070111513138,88.44998575051628L71.83778191423417,530.6999979769189L71.858667014122,235.86665209929149L72.13713501262664,58.9666454513868L72.19282861232757,206.383311800162L72.4225647110939,29.48334029912946L72.71495610952377,147.4166663487752L72.77761140918733,88.44998575051628L73.1605049071312,29.48334029912946L74.26045350122452,88.44998575051628L74.69904059886932,29.48334029912946L74.89396819782257,58.9666454513868L75.05408729696275,0L75.40913399505615,0L75.64583179378509,147.4166663487752L75.7363338932991,206.383311800162L76.27238479042053,88.44998575051628L76.44642728948594,117.93332604964574L76.55781448888779,29.48334029912946L76.64135488843918,117.93332604964574L76.94766968679427,88.44998575051628L77.351448284626,147.4166663487752L77.53941418361663,353.7999957223733L77.56726098346711,29.48334029912946L78.14508208036423,29.48334029912946L78.27039267969133,0L78.52101387834549,29.48334029912946L78.88998397636414,0L78.90390737628937,58.9666454513868L79.07098817539215,88.44998575051628L79.07794987535476,58.9666454513868L79.11275837516786,0L79.14756687498092,0L80.25447716903687,29.48334029912946L80.37978776836395,88.44998575051628L80.41459626817704,29.48334029912946L80.50509836769105,58.9666454513868L80.53990686750413,147.4166663487752L80.65129406690598,0L80.68610256671906,0L80.74875786638259,88.44998575051628L80.86014506578445,29.48334029912946L81.26392366361618,176.90000664790466L81.6607405614853,353.7999957223733L81.79997456073761,0L82.16198295879363,29.48334029912946L82.44045095729827,29.48334029912946L82.49614455699921,0L82.95561675453186,0L82.97650185441971,58.9666454513868L83.05308055400849,29.48334029912946L83.47774425172805,176.90000664790466L83.51255275154114,29.48334029912946L83.52647615146637,29.48334029912946L83.91633134937287,176.90000664790466L84.35491844701767,0L84.37580354690552,147.4166663487752L84.4175737466812,0L84.68211834526062,117.93332604964574L84.9814714436531,29.48334029912946L85.30170964193344,0L85.44790534114838,176.90000664790466L85.68460313987731,58.9666454513868L85.8934541387558,324.3166554232438L85.99787963819504,58.9666454513868L86.09534343767166,0L86.57570073509217,0L86.77062833404541,383.2833360215028L86.79847513389586,58.9666454513868L86.81239853382111,58.9666454513868L86.89593893337249,29.48334029912946L87.06301973247528,206.383311800162L87.14656013202668,29.48334029912946L87.2440239315033,0L87.32060263109207,29.48334029912946L87.66868762922287,0L87.7313429288864,117.93332604964574L87.74526632881164,58.9666454513868L87.98196412754059,58.9666454513868L88.02373432731628,0L88.13512152671814,29.48334029912946L88.6015554242134,58.9666454513868L88.62244052410125,29.48334029912946L88.80344472312927,29.48334029912946L89.06798932170868,0L89.0749510216713,176.90000664790466L89.2559552206993,176.90000664790466L89.37430412006378,29.48334029912946L89.49265301942826,58.9666454513868L89.7711210179329,0L89.81289121770858,117.93332604964574L90.00781881666182,0L90.40463571453094,117.93332604964574L90.8223377122879,147.4166663487752L91.04511211109161,58.9666454513868L91.35142690944672,29.48334029912946L91.50458430862427,0L91.64381830787659,0L92.00582670593262,147.4166663487752L92.09632880544662,206.383311800162L92.4304904036522,0L92.52795420312881,0L92.56276270294188,206.383311800162L93.02919660043717,0L93.12666039991377,88.44998575051628L93.2658943991661,176.90000664790466L93.920294195652,117.93332604964574L94.31711109352112,206.383311800162L94.3588812932968,206.383311800162L94.42153659296036,29.48334029912946L94.80443009090423,147.4166663487752L95.08985978937149,29.48334029912946L95.11770658922195,0L95.33351928806304,29.48334029912946L95.50060008716582,0L95.54237028694153,0L95.73729788589478,0L95.90437868499755,58.9666454513868L95.91830208492279,29.48334029912946L96.23157858324052,58.9666454513868L96.30119558286667,265.3499923984209L96.52396998167039,0L96.55877848148346,0L96.60751038122177,206.383311800162L96.88597837972641,88.44998575051628L96.91382517957686,294.8333326975504L97.3593739771843,206.383311800162L97.50556967639923,29.48334029912946L97.69353557538986,117.93332604964574L97.86757807445525,29.48334029912946L98.30616517210007,29.48334029912946L98.52197787094116,58.9666454513868L98.93967986869812,0L99.21814786720276,58.9666454513868L99.48965416574478,0L99.57319456529616,147.4166663487752L99.63584986495972,117.93332604964574L99.74027536439897,29.48334029912946L99.86558596372605,29.48334029912946L99.96304976320266,29.48334029912946L100.05355186271667,0L100.08836036252976,383.2833360215028L100.15797736215592,0L100.63833465957642,29.48334029912946L101.20919405651092,0L101.27184935617447,29.48334029912946L101.40412165546417,0L102.13510015153885,0L102.14206185150147,206.383311800162L102.4205298500061,0L102.70595954847336,0L102.71292124843598,88.44998575051628L102.83823184776307,58.9666454513868L103.12366154623032,88.44998575051628L103.20024024581909,0L103.2907423453331,294.8333326975504L103.38124444484711,29.48334029912946L103.49959334421158,88.44998575051628L103.68755924320222,29.48334029912946L103.84767834234238,0L104.06349104118347,0L104.07045274114608,235.86665209929149L104.07741444110871,0L104.14703144073486,147.4166663487752L104.23753354024888,0L104.27930374002457,88.44998575051628L104.3767675395012,0L104.8640865368843,0L105.05205243587493,0L105.26786513471603,0L105.38621403408051,206.383311800162L105.75518413209915,88.44998575051628L105.87353303146362,0L105.92226493120194,0L106.29819672918319,29.48334029912946L106.37477542877197,0L106.80640082645417,206.383311800162L106.82728592634201,29.48334029912946L106.83424762630463,0L107.17537092447282,117.93332604964574L107.5234559226036,0L107.5652261223793,58.9666454513868L107.57218782234192,0L107.61395802211761,58.9666454513868L107.9133111205101,117.93332604964574L108.03166001987458,0L108.33101311826707,29.48334029912946L108.57467261695862,0L108.8322555155754,0L108.90187251520157,530.6999979769189L108.91579591512681,0L109.34742131280899,265.3499923984209L109.41703831243515,29.48334029912946L109.46577021217347,0L109.7929701104164,117.93332604964574L110.28725080776215,0L111.54731850099564,58.9666454513868L111.58212700080871,0L111.63782060050964,0L111.76313119983672,29.48334029912946L112.04159919834136,88.44998575051628L112.20867999744415,29.48334029912946L112.25045019721985,0L112.25741189718246,206.383311800162L112.4941096959114,58.9666454513868L112.57068839550018,0L112.86307979393005,58.9666454513868L112.90484999370574,0L112.96054359340668,88.44998575051628L113.68456038951874,0L113.69152208948135,29.48334029912946L114.13010918712615,0L114.19972618675233,0L114.2345346865654,294.8333326975504L114.47123248529435,58.9666454513868L114.50604098510742,29.48334029912946L114.59654308462142,88.44998575051628L114.61046648454666,206.383311800162L115.04905358219148,58.9666454513868L115.4110619802475,58.9666454513868L115.64079807901382,0L116.23254257583618,0L116.51101057434082,29.48334029912946L116.65024457359314,29.48334029912946L116.71289987325669,206.383311800162L116.85909557247163,29.48334029912946L117.07490827131271,29.48334029912946L117.08883167123794,58.9666454513868L117.2837592701912,176.90000664790466L117.42299326944352,29.48334029912946L117.48564856910706,0L117.52741876888274,235.86665209929149L118.03562286615372,117.93332604964574L118.1539717655182,0L118.53686526346208,0L118.87798856163025,29.48334029912946L119.56719685792923,0L119.5950436577797,0L119.9848988556862,0L120.23552005434037,117.93332604964574L120.45133275318146,0L120.46525615310668,29.48334029912946L120.54879655265809,58.9666454513868L120.8133411512375,0L121.09180914974213,0L121.1196559495926,176.90000664790466L121.13357934951782,0L121.27977504873276,88.44998575051628L121.28673674869538,0L121.39116224813462,29.48334029912946L121.474702647686,0L121.66266854667664,58.9666454513868L121.67659194660187,58.9666454513868L121.69051534652709,0L122.20568114376069,0L122.53288104200364,0L122.86008094024658,58.9666454513868L123.27778293800354,88.44998575051628L123.79294873523712,0L123.85560403490067,0L124.62139103078842,0L124.64923783063888,0L124.9207441291809,206.383311800162L125.11567172813415,29.48334029912946L125.14351852798463,88.44998575051628L125.28971422719955,0L125.38021632671355,235.86665209929149L125.47768012619018,0L125.64476092529297,117.93332604964574L125.95107572364806,117.93332604964574L126.6193989200592,29.48334029912946L127.0510243177414,0L127.12760301733017,0L127.42695611572266,0L127.74023261404038,0L128.0117389125824,29.48334029912946L128.22058991146088,29.48334029912946L128.47817281007767,117.93332604964574L128.94460670757294,0L129.13953430652617,58.9666454513868L129.1952279062271,0L129.64773840379715,0L129.78001070308684,29.48334029912946L129.79393410301208,0L129.81481920289994,58.9666454513868L129.90532130241394,58.9666454513868L130.43441049957275,29.48334029912946L130.89388269710543,0L131.09577199602128,117.93332604964574L131.22108259534835,29.48334029912946L131.5065122938156,0L131.68751649284363,235.86665209929149L132.0704099907875,0L132.13306529045104,58.9666454513868L132.31406948947907,117.93332604964574L132.59253748798372,0L133.3722478837967,88.44998575051628L133.50452018308638,88.44998575051628L133.58109888267518,0L133.70640948200227,0L134.0684178800583,0L134.11714977979662,0L134.70193257665633,29.48334029912946L134.73674107646943,58.9666454513868L134.78547297620773,0L135.05001757478715,0L135.09178777456282,0L135.18925157403945,0L135.2449451737404,265.3499923984209L135.251906873703,29.48334029912946L135.7253024711609,0L135.9968087697029,29.48334029912946L136.2892001681328,29.48334029912946L136.60943836641312,88.44998575051628L136.76259576559067,265.3499923984209L137.45876576185225,29.48334029912946L137.5631912612915,88.44998575051628L137.97393155908586,29.48334029912946L138.19670595788958,117.93332604964574L138.28720805740355,58.9666454513868L138.315054857254,58.9666454513868L138.68402495527266,0L138.71187175512313,176.90000664790466L138.8162972545624,0L139.36627155160903,0L139.68650974988938,176.90000664790466L139.693471449852,0L139.72131824970245,58.9666454513868L139.9997862482071,58.9666454513868L140.0972500476837,0L140.19471384716033,58.9666454513868L140.29913934659956,29.48334029912946L140.45925844573972,0L140.52191374540328,58.9666454513868L140.6193775448799,117.93332604964574L141.4478198404312,0L141.55920703983307,117.93332604964574L141.6566708393097,206.383311800162L141.75413463878633,29.48334029912946L141.81678993844986,0L142.15095153665544,58.9666454513868L142.26233873605727,117.93332604964574L142.30410893583297,58.9666454513868L142.4085344352722,29.48334029912946L142.4503046350479,0L142.64523223400116,235.86665209929149L143.48063622951508,29.48334029912946L143.67556382846834,176.90000664790466L143.8844148273468,176.90000664790466L144.19072962570192,0L144.26034662532805,0L144.44831252431868,29.48334029912946L144.52489122390747,58.9666454513868L144.7546273226738,29.48334029912946L144.8103209223747,206.383311800162L144.94259322166442,0L145.0191719212532,0L145.31156331968307,88.44998575051628L145.64572491788863,0L145.65268661785126,176.90000664790466L146.41847361373902,0L146.7247884120941,0L147.01021811056137,0L147.0659117102623,0L147.48361370801925,29.48334029912946L147.49057540798185,265.3499923984209L147.8386604061127,0L147.8595455060005,0L147.87346890592573,29.48334029912946L147.91523910570143,58.9666454513868L148.3747113032341,206.383311800162L148.6044474020004,0L148.92468560028078,88.44998575051628L149.05695789957045,58.9666454513868L149.0778429994583,29.48334029912946L149.1683450989723,0L150.39360429239272,0L150.40752769231796,0L150.47714469194415,0L151.28470188760755,0L151.31254868745805,88.44998575051628L152.001756983757,176.90000664790466L152.2245313825607,29.48334029912946L152.32199518203737,29.48334029912946L152.3428802819252,265.3499923984209L152.509961081028,29.48334029912946L152.78842907953262,29.48334029912946L152.81627587938308,206.383311800162L153.1713225774765,0L153.26878637695313,0L153.53333097553252,0L153.55421607542038,0L153.68648837471008,58.9666454513868L153.9928031730652,206.383311800162L154.0345733728409,0L154.0415350728035,0L154.15292227220536,88.44998575051628L154.23646267175675,58.9666454513868L154.75162846899033,353.7999957223733L154.76555186891557,0L154.89782416820526,0L154.9883262677193,29.48334029912946L155.05794326734542,0L155.11363686704635,0L155.90030896282195,0L156.15789186143877,0L156.74267465829848,0L157.07683625650407,0L157.45276805448532,29.48334029912946L157.55719355392455,117.93332604964574L157.56415525388718,29.48334029912946L157.66858075332644,0L157.8286998524666,0L157.94704875183106,0L158.0097040514946,29.48334029912946L158.24640185022352,29.48334029912946L158.50398474884034,0L158.82422294712066,294.8333326975504L159.234963244915,0L159.2836951446533,0L159.29065684461594,0L159.3185036444664,0L159.6665886425972,58.9666454513868L159.78493754196165,0L159.86847794151308,0L160.1539076399803,0L160.17479273986817,29.48334029912946L160.3627586388588,0L160.56464793777465,0L160.73172873687744,0L160.8779244360924,0L160.96146483564377,0L161.0171584353447,0L161.04500523519516,0L161.07285203504563,88.44998575051628L161.56017103242874,29.48334029912946L162.04052832984922,29.48334029912946L162.43038352775574,0L162.52088562726973,58.9666454513868L162.9385876250267,58.9666454513868L163.02212802457808,29.48334029912946L163.1056684241295,0L163.2100939235687,0L163.3771747226715,0L163.46767682218552,117.93332604964574L163.53033212184909,29.48334029912946L163.75310652065275,0L164.40750631713868,29.48334029912946L164.44231481695175,0L164.53281691646575,29.48334029912946L164.60939561605454,29.48334029912946L165.39606771183014,0L165.40302941179277,88.44998575051628L165.44479961156844,0L165.46568471145628,0L165.5492251110077,0L165.65365061044693,117.93332604964574L166.3707057065964,29.48334029912946L166.41247590637207,0L167.01814380311964,0L167.33142030143736,235.86665209929149L167.35230540132522,0L167.77000739908217,58.9666454513868L167.83962439870834,29.48334029912946L167.86747119855883,29.48334029912946L167.87443289852143,58.9666454513868L168.53579439496994,0L168.54971779489517,0L169.01615169239045,0L169.3015813908577,29.48334029912946L169.6496663889885,176.90000664790466L169.70535998868942,0L169.80978548812865,0L169.90724928760528,117.93332604964574L170.0047130870819,0L170.38064488506316,0L170.54772568416598,0L170.5686107840538,0L170.88188728237154,0L171.37616797971725,0L171.48755517911908,176.90000664790466L171.63375087833404,0L171.68248277807234,88.44998575051628L172.3925761742592,0L172.40649957418444,29.48334029912946L172.93558877134325,88.44998575051628L173.07482277059555,176.90000664790466L173.3115205693245,147.4166663487752L173.42290776872633,0L173.49948646831513,58.9666454513868L173.91022676610947,0L173.9171884660721,88.44998575051628L173.94503526592257,0L174.03553736543654,58.9666454513868L174.13996286487577,88.44998575051628L174.56462656259535,58.9666454513868L174.9753668603897,29.48334029912946L176.20758775377274,29.48334029912946L176.35378345298767,0L176.56263445186616,29.48334029912946L176.78540885066988,0L176.84806415033339,0L176.98033644962308,88.44998575051628L177.1056470489502,0L177.47461714696885,0L177.61385114622115,0L177.7670085453987,0L177.92712764453887,0L178.04547654390336,88.44998575051628L178.0663616437912,0L178.08724674367906,0L178.34482964229582,206.383311800162L178.53975724124908,0L178.66506784057617,0L178.67899124050143,0L179.3333910369873,29.48334029912946L179.52135693597793,0L179.70236113500596,0L179.87640363407135,0L179.8972887339592,88.44998575051628L180.6352289299965,147.4166663487752L180.66307572984695,0L180.76750122928618,0L180.78142462921141,0L180.8162331290245,29.48334029912946L180.8580033288002,29.48334029912946L180.94850542831423,265.3499923984209L181.00419902801514,0L181.25482022666932,117.93332604964574L181.36620742607116,29.48334029912946L181.90225832319257,265.3499923984209L182.05541572237016,0L182.15287952184676,0L182.20857312154772,353.7999957223733L182.2503433213234,29.48334029912946L182.4313475203514,0L182.45919432020185,0L182.62627511930467,353.7999957223733L182.70285381889343,0L182.8629729180336,117.93332604964574L182.946513317585,0L183.1692877163887,0L183.71926201343535,117.93332604964574L183.92115131235124,176.90000664790466L184.24138951063156,0L185.05590840625763,117.93332604964574L185.06983180618286,58.9666454513868L185.1324871058464,0L185.16033390569686,265.3499923984209L185.1672956056595,0L185.2160275053978,29.48334029912946L185.32741470479965,117.93332604964574L185.71030820274353,88.44998575051628L185.72423160266877,0L186.01662300109865,0L186.11408680057525,58.9666454513868L186.6570993976593,0L186.70583129739762,0L186.88683549642562,58.9666454513868L188.40448608827592,0L188.57156688737868,58.9666454513868L188.7595327863693,0L188.91269018554686,29.48334029912946L188.98230718517303,58.9666454513868L189.0936943845749,0L189.56012828207017,29.48334029912946L189.86644308042526,0L189.93606008005142,29.48334029912946L189.94998347997665,0L189.99871537971498,0L190.1031408791542,0L190.59742157649993,0L190.61134497642516,176.90000664790466L190.86892787504195,117.93332604964574L191.20308947324753,58.9666454513868L191.5442127714157,0L191.6695233707428,0L191.91318286943437,0L192.17076576805115,58.9666454513868L192.4561954665184,0L192.85301236438752,117.93332604964574L193.22894416236878,147.4166663487752L193.39602496147157,29.48334029912946L193.40298666143417,0L194.37762465620042,0L194.56559055519105,0L194.80925005388258,29.48334029912946L194.8510202536583,0L194.87886705350877,88.44998575051628L195.29656905126572,176.90000664790466L195.3313775510788,0L195.4218796505928,0L195.58199874973297,0L195.66553914928437,29.48334029912946L196.75156434345246,0L197.00218554210664,58.9666454513868L197.15534294128418,0L197.22495994091034,58.9666454513868L197.55912153911592,58.9666454513868L197.75404913806915,58.9666454513868L197.76101083803178,0L198.40844893455505,29.48334029912946L198.67299353313447,0L199.0280402312279,58.9666454513868L199.04196363115312,58.9666454513868L199.29258482980725,0L199.41789542913438,0L199.4387805290222,29.48334029912946L199.92609952640532,29.48334029912946L200.61530782270432,147.4166663487752L201.37413311862943,29.48334029912946L201.55513731765748,58.9666454513868L202.07030311489106,0L202.37661791324615,0L202.41838811302185,29.48334029912946L202.73166461133957,0L203.42087290763857,29.48334029912946L203.84553660535812,0L204.0126174044609,88.44998575051628L204.36766410255433,29.48334029912946L204.5208215017319,0L204.61132360124586,0L204.91763839960097,0L205.15433619832993,58.9666454513868L205.18218299818037,0L205.30053189754486,0L205.3144552974701,117.93332604964574L206.1080890932083,0L206.24732309246065,29.48334029912946L206.31694009208678,0L206.49098259115218,29.48334029912946L206.7903356895447,88.44998575051628L206.8877994890213,235.86665209929149L207.16626748752594,88.44998575051628L207.5839694852829,0L207.65358648490906,0L207.73016518449785,0L207.75801198434831,0L207.980786383152,0L208.0295182828903,88.44998575051628L208.17571398210526,0L208.4193734807968,29.48334029912946L208.55860748004915,0L208.57253087997435,0L208.69087977933884,0L208.78834357881544,0L209.21996897649765,88.44998575051628L209.2338923764229,0L209.630709274292,0L209.70032627391817,176.90000664790466L210.06233467197418,58.9666454513868L210.15283677148818,58.9666454513868L210.5844621691704,88.44998575051628L210.75154296827316,0L211.62175546360015,29.48334029912946L211.9419936618805,29.48334029912946L212.10211276102066,0L213.11155925559996,0L213.36914215421677,58.9666454513868L213.45268255376817,0L213.6336867527962,0L213.74507395219803,0L213.75899735212326,0L213.8146909518242,0L213.82861435174942,0L214.12100575017928,29.48334029912946L214.5178226480484,29.48334029912946L214.62224814748762,0L214.62920984745026,442.2499990463256L214.99817994546888,412.7666587471961L215.1652607445717,0L215.23487774419783,88.44998575051628L215.31841814374926,29.48334029912946L215.74308184146884,29.48334029912946L216.20255403900146,0L216.26520933866502,58.9666454513868L216.48798373746874,324.3166554232438L216.55063903713224,29.48334029912946L216.6063326368332,29.48334029912946L216.66202623653413,117.93332604964574L216.87783893537522,0L216.89176233530043,0L217.08668993425368,29.48334029912946L217.44173663234713,0L217.643625931263,0L217.6575493311882,58.9666454513868L217.83159183025361,0L217.9220939297676,0L217.93601732969285,29.48334029912946L217.9986726293564,29.48334029912946L218.4372597270012,0L218.7435745253563,29.48334029912946L218.77838302516935,206.383311800162L219.2308935227394,0L219.64163382053374,0L219.89921671915056,0L219.9340252189636,0L219.9688337187767,58.9666454513868L220.03845071840286,0L220.19856981754302,29.48334029912946L220.30995701694488,0L220.55361651563643,0L220.6232335152626,58.9666454513868L220.63715691518783,0L220.66500371503832,0L220.69285051488876,0L220.91562491369245,29.48334029912946L221.05485891294478,0L221.47952261066436,29.48334029912946L221.486484310627,29.48334029912946L221.4934460105896,0L222.17569260692596,58.9666454513868L222.56554780483248,235.86665209929149L222.87186260318757,0L222.9762881026268,0L223.10856040191652,0L223.18513910150529,176.90000664790466L223.498415599823,0L223.6306878991127,58.9666454513868L223.74903679847716,0L223.9370026974678,0L224.91860239219665,29.48334029912946L225.329342689991,29.48334029912946L225.52427028894425,29.48334029912946L225.8514701871872,147.4166663487752L225.87235528707504,29.48334029912946L225.9350105867386,58.9666454513868L226.40144448423385,29.48334029912946L226.5128316836357,29.48334029912946L226.5546018834114,58.9666454513868L227.13242298030852,0L227.16026978015898,0L227.3064654793739,0L227.6823972773552,29.48334029912946L228.19060137462617,0L228.28806517410277,0L228.51780127286912,0L228.57349487257005,117.93332604964574L228.60134167242052,58.9666454513868L228.62918847227095,88.44998575051628L228.99815857028963,29.48334029912946L229.01208197021484,29.48334029912946L229.1582776694298,58.9666454513868L229.54813286733628,117.93332604964574L229.7778689661026,29.48334029912946L230.04937526464462,0L230.44619216251374,29.48334029912946L230.51580916213987,0L231.14932385873794,0L231.28159615802764,117.93332604964574L232.2075022530556,0L232.2631958527565,0L232.43027665185926,0L232.67393615055084,0L232.86190204954147,0L232.88278714942933,0L232.93848074913026,29.48334029912946L233.05682964849473,0L233.07771474838256,0L233.32137424707415,0L233.45364654636384,0L233.80869324445723,0L233.9061570439339,0L234.01754424333572,0L234.10804634284972,117.93332604964574L235.24976513671874,29.48334029912946L235.26368853664397,29.48334029912946L235.68139053440095,58.9666454513868L235.87631813335418,58.9666454513868L236.50287112998964,0L236.51679452991488,0L236.586411529541,0L237.094615626812,176.90000664790466L237.52624102449417,0L237.57497292423247,0L237.81167072296142,88.44998575051628L238.5008790192604,0L238.8559257173538,58.9666454513868L239.12743201589583,0L239.1552788157463,0L239.51032551383972,0L239.69829141283034,88.44998575051628L239.91410411167146,0L239.94891261148453,58.9666454513868L240.1090317106247,29.48334029912946L240.21345721006392,29.48334029912946L240.3248444094658,29.48334029912946L240.6311592078209,58.9666454513868L241.01405270576478,0L241.12543990516662,0L241.36909940385817,0L241.41086960363387,0L241.49441000318527,0L241.6684525022507,0L242.0861545000076,58.9666454513868L242.1557714996338,29.48334029912946L242.2045033993721,0L242.32285229873656,0L242.48297139787672,0L242.60132029724122,58.9666454513868L242.6848606967926,0L242.78232449626924,0L243.06079249477386,29.48334029912946L243.40191579294205,88.44998575051628L243.4784944925308,58.9666454513868L243.6525369915962,0L244.04239218950272,117.93332604964574L244.12593258905412,0L244.2164346885681,0L244.43920908737184,29.48334029912946" fill="none"></path></g></g></g></g></g></g><g transform="translate(51, 176)" clip-path="url(#clip_1)"><clipPath id="clip_1"><rect width="278" height="23"></rect></clipPath><g><g><line x1="0" y1="0" x2="0" y2="5" style="visibility: inherit;" fill="rgb(0, 0, 0)" stroke="rgb(204, 204, 204)" stroke-width="1px"></line><line x1="34.808499813079834" y1="0" x2="34.808499813079834" y2="5" style="visibility: inherit;" fill="rgb(0, 0, 0)" stroke="rgb(204, 204, 204)" stroke-width="1px"></line><line x1="69.61699962615967" y1="0" x2="69.61699962615967" y2="5" style="visibility: inherit;" fill="rgb(0, 0, 0)" stroke="rgb(204, 204, 204)" stroke-width="1px"></line><line x1="104.4254994392395" y1="0" x2="104.4254994392395" y2="5" style="visibility: inherit;" fill="rgb(0, 0, 0)" stroke="rgb(204, 204, 204)" stroke-width="1px"></line><line x1="139.23399925231934" y1="0" x2="139.23399925231934" y2="5" style="visibility: inherit;" fill="rgb(0, 0, 0)" stroke="rgb(204, 204, 204)" stroke-width="1px"></line><line x1="174.04249906539917" y1="0" x2="174.04249906539917" y2="5" style="visibility: inherit;" fill="rgb(0, 0, 0)" stroke="rgb(204, 204, 204)" stroke-width="1px"></line><line x1="208.850998878479" y1="0" x2="208.850998878479" y2="5" style="visibility: inherit;" fill="rgb(0, 0, 0)" stroke="rgb(204, 204, 204)" stroke-width="1px"></line><line x1="243.65949869155884" y1="0" x2="243.65949869155884" y2="5" style="visibility: inherit;" fill="rgb(0, 0, 0)" stroke="rgb(204, 204, 204)" stroke-width="1px"></line><line x1="278.4679985046387" y1="0" x2="278.4679985046387" y2="5" style="visibility: inherit;" fill="rgb(0, 0, 0)" stroke="rgb(204, 204, 204)" stroke-width="1px"></line></g><g transform="translate(0, 8)"><text style="text-anchor: middle; visibility: hidden; font-family: Roboto, sans-serif; font-size: 12px; font-weight: 200;" x="0" y="0" dx="0em" dy="0.95em" fill="rgb(33, 33, 33)" stroke="none" stroke-width="1px">-5k</text><text style="text-anchor: middle; visibility: inherit; font-family: Roboto, sans-serif; font-size: 12px; font-weight: 200;" x="34.808499813079834" y="0" dx="0em" dy="0.95em" fill="rgb(33, 33, 33)" stroke="none" stroke-width="1px">0</text><text style="text-anchor: middle; visibility: inherit; font-family: Roboto, sans-serif; font-size: 12px; font-weight: 200;" x="69.61699962615967" y="0" dx="0em" dy="0.95em" fill="rgb(33, 33, 33)" stroke="none" stroke-width="1px">5k</text><text style="text-anchor: middle; visibility: inherit; font-family: Roboto, sans-serif; font-size: 12px; font-weight: 200;" x="104.4254994392395" y="0" dx="0em" dy="0.95em" fill="rgb(33, 33, 33)" stroke="none" stroke-width="1px">10k</text><text style="text-anchor: middle; visibility: inherit; font-family: Roboto, sans-serif; font-size: 12px; font-weight: 200;" x="139.23399925231934" y="0" dx="0em" dy="0.95em" fill="rgb(33, 33, 33)" stroke="none" stroke-width="1px">15k</text><text style="text-anchor: middle; visibility: inherit; font-family: Roboto, sans-serif; font-size: 12px; font-weight: 200;" x="174.04249906539917" y="0" dx="0em" dy="0.95em" fill="rgb(33, 33, 33)" stroke="none" stroke-width="1px">20k</text><text style="text-anchor: middle; visibility: inherit; font-family: Roboto, sans-serif; font-size: 12px; font-weight: 200;" x="208.850998878479" y="0" dx="0em" dy="0.95em" fill="rgb(33, 33, 33)" stroke="none" stroke-width="1px">25k</text><text style="text-anchor: middle; visibility: inherit; font-family: Roboto, sans-serif; font-size: 12px; font-weight: 200;" x="243.65949869155884" y="0" dx="0em" dy="0.95em" fill="rgb(33, 33, 33)" stroke="none" stroke-width="1px">30k</text><text style="text-anchor: middle; visibility: hidden; font-family: Roboto, sans-serif; font-size: 12px; font-weight: 200;" x="278.4679985046387" y="0" dx="0em" dy="0.95em" fill="rgb(33, 33, 33)" stroke="none" stroke-width="1px">35k</text></g><line x1="0" y1="0" x2="278.4679985046387" y2="0" fill="rgb(0, 0, 0)" stroke="rgb(204, 204, 204)" stroke-width="1px"></line></g></g></g></g></svg>