<svg viewBox="0 0 330 200" xmlns="http://www.w3.org/2000/svg"><g><g><g><g><g><line x1="51.53200149536133" y1="176.89999961853027" x2="46.53200149536133" y2="176.89999961853027" style="visibility: inherit;" fill="rgb(0, 0, 0)" stroke="rgb(204, 204, 204)" stroke-width="1px"></line><line x1="51.53200149536133" y1="164.26428536006384" x2="46.53200149536133" y2="164.26428536006384" style="visibility: inherit;" fill="rgb(0, 0, 0)" stroke="rgb(204, 204, 204)" stroke-width="1px"></line><line x1="51.53200149536133" y1="151.62857110159737" x2="46.53200149536133" y2="151.62857110159737" style="visibility: inherit;" fill="rgb(0, 0, 0)" stroke="rgb(204, 204, 204)" stroke-width="1px"></line><line x1="51.53200149536133" y1="138.99285684313094" x2="46.53200149536133" y2="138.99285684313094" style="visibility: inherit;" fill="rgb(0, 0, 0)" stroke="rgb(204, 204, 204)" stroke-width="1px"></line><line x1="51.53200149536133" y1="126.35714258466446" x2="46.53200149536133" y2="126.35714258466446" style="visibility: inherit;" fill="rgb(0, 0, 0)" stroke="rgb(204, 204, 204)" stroke-width="1px"></line><line x1="51.53200149536133" y1="113.72142832619802" x2="46.53200149536133" y2="113.72142832619802" style="visibility: inherit;" fill="rgb(0, 0, 0)" stroke="rgb(204, 204, 204)" stroke-width="1px"></line><line x1="51.53200149536133" y1="101.0857140677316" x2="46.53200149536133" y2="101.0857140677316" style="visibility: inherit;" fill="rgb(0, 0, 0)" stroke="rgb(204, 204, 204)" stroke-width="1px"></line><line x1="51.53200149536133" y1="88.44999980926514" x2="46.53200149536133" y2="88.44999980926514" style="visibility: inherit;" fill="rgb(0, 0, 0)" stroke="rgb(204, 204, 204)" stroke-width="1px"></line><line x1="51.53200149536133" y1="75.8142855507987" x2="46.53200149536133" y2="75.8142855507987" style="visibility: inherit;" fill="rgb(0, 0, 0)" stroke="rgb(204, 204, 204)" stroke-width="1px"></line><line x1="51.53200149536133" y1="63.17857129233225" x2="46.53200149536133" y2="63.17857129233225" style="visibility: inherit;" fill="rgb(0, 0, 0)" stroke="rgb(204, 204, 204)" stroke-width="1px"></line><line x1="51.53200149536133" y1="50.542857033865786" x2="46.53200149536133" y2="50.542857033865786" style="visibility: inherit;" fill="rgb(0, 0, 0)" stroke="rgb(204, 204, 204)" stroke-width="1px"></line><line x1="51.53200149536133" y1="37.90714277539935" x2="46.53200149536133" y2="37.90714277539935" style="visibility: inherit;" fill="rgb(0, 0, 0)" stroke="rgb(204, 204, 204)" stroke-width="1px"></line><line x1="51.53200149536133" y1="25.271428516932925" x2="46.53200149536133" y2="25.271428516932925" style="visibility: inherit;" fill="rgb(0, 0, 0)" stroke="rgb(204, 204, 204)" stroke-width="1px"></line><line x1="51.53200149536133" y1="12.635714258466463" x2="46.53200149536133" y2="12.635714258466463" style="visibility: inherit;" fill="rgb(0, 0, 0)" stroke="rgb(204, 204, 204)" stroke-width="1px"></line><line x1="51.53200149536133" y1="0" x2="46.53200149536133" y2="0" style="visibility: inherit;" fill="rgb(0, 0, 0)" stroke="rgb(204, 204, 204)" stroke-width="1px"></line></g><g transform="translate(41.53200149536133, 0)"><text style="text-anchor: end; visibility: hidden; font-family: Roboto, sans-serif; font-size: 12px; font-weight: 200;" x="0" y="176.89999961853027" dx="0em" dy="0.3em" fill="rgb(33, 33, 33)" stroke="none" stroke-width="1px">0.03</text><text style="text-anchor: end; visibility: inherit; font-family: Roboto, sans-serif; font-size: 12px; font-weight: 200;" x="0" y="164.26428536006384" dx="0em" dy="0.3em" fill="rgb(33, 33, 33)" stroke="none" stroke-width="1px">0.04</text><text style="text-anchor: end; visibility: hidden; font-family: Roboto, sans-serif; font-size: 12px; font-weight: 200;" x="0" y="151.62857110159737" dx="0em" dy="0.3em" fill="rgb(33, 33, 33)" stroke="none" stroke-width="1px">0.05</text><text style="text-anchor: end; visibility: inherit; font-family: Roboto, sans-serif; font-size: 12px; font-weight: 200;" x="0" y="138.99285684313094" dx="0em" dy="0.3em" fill="rgb(33, 33, 33)" stroke="none" stroke-width="1px">0.06</text><text style="text-anchor: end; visibility: hidden; font-family: Roboto, sans-serif; font-size: 12px; font-weight: 200;" x="0" y="126.35714258466446" dx="0em" dy="0.3em" fill="rgb(33, 33, 33)" stroke="none" stroke-width="1px">0.07</text><text style="text-anchor: end; visibility: inherit; font-family: Roboto, sans-serif; font-size: 12px; font-weight: 200;" x="0" y="113.72142832619802" dx="0em" dy="0.3em" fill="rgb(33, 33, 33)" stroke="none" stroke-width="1px">0.08</text><text style="text-anchor: end; visibility: hidden; font-family: Roboto, sans-serif; font-size: 12px; font-weight: 200;" x="0" y="101.0857140677316" dx="0em" dy="0.3em" fill="rgb(33, 33, 33)" stroke="none" stroke-width="1px">0.09</text><text style="text-anchor: end; visibility: inherit; font-family: Roboto, sans-serif; font-size: 12px; font-weight: 200;" x="0" y="88.44999980926514" dx="0em" dy="0.3em" fill="rgb(33, 33, 33)" stroke="none" stroke-width="1px">0.1</text><text style="text-anchor: end; visibility: hidden; font-family: Roboto, sans-serif; font-size: 12px; font-weight: 200;" x="0" y="75.8142855507987" dx="0em" dy="0.3em" fill="rgb(33, 33, 33)" stroke="none" stroke-width="1px">0.11</text><text style="text-anchor: end; visibility: inherit; font-family: Roboto, sans-serif; font-size: 12px; font-weight: 200;" x="0" y="63.17857129233225" dx="0em" dy="0.3em" fill="rgb(33, 33, 33)" stroke="none" stroke-width="1px">0.12</text><text style="text-anchor: end; visibility: hidden; font-family: Roboto, sans-serif; font-size: 12px; font-weight: 200;" x="0" y="50.542857033865786" dx="0em" dy="0.3em" fill="rgb(33, 33, 33)" stroke="none" stroke-width="1px">0.13</text><text style="text-anchor: end; visibility: inherit; font-family: Roboto, sans-serif; font-size: 12px; font-weight: 200;" x="0" y="37.90714277539935" dx="0em" dy="0.3em" fill="rgb(33, 33, 33)" stroke="none" stroke-width="1px">0.14</text><text style="text-anchor: end; visibility: hidden; font-family: Roboto, sans-serif; font-size: 12px; font-weight: 200;" x="0" y="25.271428516932925" dx="0em" dy="0.3em" fill="rgb(33, 33, 33)" stroke="none" stroke-width="1px">0.15</text><text style="text-anchor: end; visibility: inherit; font-family: Roboto, sans-serif; font-size: 12px; font-weight: 200;" x="0" y="12.635714258466463" dx="0em" dy="0.3em" fill="rgb(33, 33, 33)" stroke="none" stroke-width="1px">0.16</text><text style="text-anchor: end; visibility: hidden; font-family: Roboto, sans-serif; font-size: 12px; font-weight: 200;" x="0" y="0" dx="0em" dy="0.3em" fill="rgb(33, 33, 33)" stroke="none" stroke-width="1px">0.17</text></g><line x1="51.53200149536133" y1="0" x2="51.53200149536133" y2="176.89999961853027" fill="rgb(0, 0, 0)" stroke="rgb(204, 204, 204)" stroke-width="1px"></line></g></g><g transform="translate(51, 0)" clip-path="url(#clip_0)"><clipPath id="clip_0"><rect width="278" height="176"></rect></clipPath><g><g><g><line x1="0" y1="0" x2="0" y2="176.89999961853027" fill="rgb(0, 0, 0)" stroke="rgb(66, 66, 66)" stroke-width="1px" opacity="0.25"></line><line x1="34.808499813079834" y1="0" x2="34.808499813079834" y2="176.89999961853027" fill="rgb(0, 0, 0)" stroke="rgb(66, 66, 66)" stroke-width="1px" opacity="0.25"></line><line x1="69.61699962615967" y1="0" x2="69.61699962615967" y2="176.89999961853027" fill="rgb(0, 0, 0)" stroke="rgb(66, 66, 66)" stroke-width="1px" opacity="0.25"></line><line x1="104.4254994392395" y1="0" x2="104.4254994392395" y2="176.89999961853027" fill="rgb(0, 0, 0)" stroke="rgb(66, 66, 66)" stroke-width="1px" opacity="0.25"></line><line x1="139.23399925231934" y1="0" x2="139.23399925231934" y2="176.89999961853027" fill="rgb(0, 0, 0)" stroke="rgb(66, 66, 66)" stroke-width="1px" opacity="0.25"></line><line x1="174.04249906539917" y1="0" x2="174.04249906539917" y2="176.89999961853027" fill="rgb(0, 0, 0)" stroke="rgb(66, 66, 66)" stroke-width="1px" opacity="0.25"></line><line x1="208.850998878479" y1="0" x2="208.850998878479" y2="176.89999961853027" fill="rgb(0, 0, 0)" stroke="rgb(66, 66, 66)" stroke-width="1px" opacity="0.25"></line><line x1="243.65949869155884" y1="0" x2="243.65949869155884" y2="176.89999961853027" fill="rgb(0, 0, 0)" stroke="rgb(66, 66, 66)" stroke-width="1px" opacity="0.25"></line><line x1="278.4679985046387" y1="0" x2="278.4679985046387" y2="176.89999961853027" fill="rgb(0, 0, 0)" stroke="rgb(66, 66, 66)" stroke-width="1px" opacity="0.25"></line></g><g><line x1="0" y1="176.89999961853027" x2="278.4679985046387" y2="176.89999961853027" fill="rgb(0, 0, 0)" stroke="rgb(66, 66, 66)" stroke-width="1px" opacity="0.25"></line><line x1="0" y1="164.26428536006384" x2="278.4679985046387" y2="164.26428536006384" fill="rgb(0, 0, 0)" stroke="rgb(66, 66, 66)" stroke-width="1px" opacity="0.25"></line><line x1="0" y1="151.62857110159737" x2="278.4679985046387" y2="151.62857110159737" fill="rgb(0, 0, 0)" stroke="rgb(66, 66, 66)" stroke-width="1px" opacity="0.25"></line><line x1="0" y1="138.99285684313094" x2="278.4679985046387" y2="138.99285684313094" fill="rgb(0, 0, 0)" stroke="rgb(66, 66, 66)" stroke-width="1px" opacity="0.25"></line><line x1="0" y1="126.35714258466446" x2="278.4679985046387" y2="126.35714258466446" fill="rgb(0, 0, 0)" stroke="rgb(66, 66, 66)" stroke-width="1px" opacity="0.25"></line><line x1="0" y1="113.72142832619802" x2="278.4679985046387" y2="113.72142832619802" fill="rgb(0, 0, 0)" stroke="rgb(66, 66, 66)" stroke-width="1px" opacity="0.25"></line><line x1="0" y1="101.0857140677316" x2="278.4679985046387" y2="101.0857140677316" fill="rgb(0, 0, 0)" stroke="rgb(66, 66, 66)" stroke-width="1px" opacity="0.25"></line><line x1="0" y1="88.44999980926514" x2="278.4679985046387" y2="88.44999980926514" fill="rgb(0, 0, 0)" stroke="rgb(66, 66, 66)" stroke-width="1px" opacity="0.25"></line><line x1="0" y1="75.8142855507987" x2="278.4679985046387" y2="75.8142855507987" fill="rgb(0, 0, 0)" stroke="rgb(66, 66, 66)" stroke-width="1px" opacity="0.25"></line><line x1="0" y1="63.17857129233225" x2="278.4679985046387" y2="63.17857129233225" fill="rgb(0, 0, 0)" stroke="rgb(66, 66, 66)" stroke-width="1px" opacity="0.25"></line><line x1="0" y1="50.542857033865786" x2="278.4679985046387" y2="50.542857033865786" fill="rgb(0, 0, 0)" stroke="rgb(66, 66, 66)" stroke-width="1px" opacity="0.25"></line><line x1="0" y1="37.90714277539935" x2="278.4679985046387" y2="37.90714277539935" fill="rgb(0, 0, 0)" stroke="rgb(66, 66, 66)" stroke-width="1px" opacity="0.25"></line><line x1="0" y1="25.271428516932925" x2="278.4679985046387" y2="25.271428516932925" fill="rgb(0, 0, 0)" stroke="rgb(66, 66, 66)" stroke-width="1px" opacity="0.25"></line><line x1="0" y1="12.635714258466463" x2="278.4679985046387" y2="12.635714258466463" fill="rgb(0, 0, 0)" stroke="rgb(66, 66, 66)" stroke-width="1px" opacity="0.25"></line><line x1="0" y1="0" x2="278.4679985046387" y2="0" fill="rgb(0, 0, 0)" stroke="rgb(66, 66, 66)" stroke-width="1px" opacity="0.25"></line></g></g></g><g><g><line x1="0" y1="214.8071423939296" x2="278.4679985046387" y2="214.8071423939296" fill="rgb(0, 0, 0)" stroke="rgb(153, 153, 153)" stroke-width="1.5px"></line></g></g><g><g><line x1="34.808499813079834" y1="0" x2="34.808499813079834" y2="176.89999961853027" fill="rgb(0, 0, 0)" stroke="rgb(153, 153, 153)" stroke-width="1.5px"></line></g></g><g><g><g><g><g><path style="fill: none;" stroke="rgb(0, 119, 187)" stroke-width="2px" d="M34.93381041240692,84.36460710133508L35.135699711322786,77.76635718035863L35.240125210762024,48.39736134787413L35.42809110975266,35.01861741034986L35.52555490922928,13.507794719831253L35.55340170907974,17.518839771653543L35.69959740829468,-0.11709015986491282L35.95021860694885,12.466707119865514L36.00591220664978,8.985344795372463L36.50715460395813,14.797109531249001L36.61158010339737,28.41047971515143L36.77169920253753,38.69866233164146L37.495715998649594,-4.014813479152766L37.69760529756546,-3.2568067244837717L37.85076269674301,8.381446335420152L38.04569029569626,-62.26721563235404L38.35896679401398,-21.362208858464932L38.51908589315415,8.452176831390513L38.55389439296722,4.5659712489954964L38.56781779289246,-17.669371736154744L39.2848728890419,-11.024254387892478L39.38929838848114,4.643677123941726L39.507647287845614,15.83294101788332L40.12723858451844,7.264973716636838L40.20381728410721,13.945463957639957L40.405706583023075,3.097090959567873L40.837331980705265,15.868821361425779L40.976565979957584,25.130129997892368L41.874625275135045,-0.7991903410241131L41.95120397472382,3.7954379877134925L42.02778267431259,6.717339998298308L42.26448047304153,16.643984031778537L42.54294847154617,25.261903254496282L42.6404122710228,23.51265753633033L42.689144170761104,-13.286751780637392L42.82837817001342,-12.606080629681266L42.91191856956482,10.368796580065927L42.995458969116214,15.820464727875216L43.05115256881714,15.85645041611588L43.287850367546085,27.363783366939042L43.524548166275025,20.446699910892285L43.53847156620025,22.08047156114985L43.62897366571427,12.187275765461312L43.65682046556473,14.22708002348878L44.3877989616394,-7.354405055172057L44.67322866010666,8.622260260296335L44.951696658611304,16.268427694540886L44.95865835857391,16.712972247213404L45.209279557228086,29.58930941188379L45.32066675662995,48.053871660803885L45.34155185651779,30.435337702062732L45.58521135520935,-18.768297340708184L45.6060964550972,2.632205946843457L45.70356025457382,17.998317226530386L46.135185652256006,37.99522773661808L46.190879251956936,39.80941713852629L46.4345387506485,40.17968829721899L46.65731314945221,36.92344659715541L46.719968449115754,44.63778541639934L47.66675964403152,47.84482108263465L47.757261743545534,63.079843708637306L48.02876804208755,65.79349290881551L48.09838504171371,74.09260683935759L48.3141977405548,79.0779913630634L48.45343173980712,82.93228741137867L48.460393439769746,89.89651531651728L49.21921873569488,89.86168146598341L49.28187403535843,83.75428502597178L49.35149103498458,67.69264682328962L49.42806973457336,49.48687394928195L50.186895030498505,41.87533050443565L50.95268202638626,46.864743594911424L51.2311500248909,64.02588825779236L51.76720092201233,57.77604730769067L51.80200942182541,54.924858561276324L51.892511521339415,61.90858112530947L51.948205121040345,51.26227003395388L51.969090220928194,64.86894847416933L52.10832422018051,71.8001814418033L52.2336348195076,78.32231235814008L52.33109861898423,73.98349339123135L52.748800616741185,74.027943238989L52.7557623167038,65.0737397009937L52.90195801591873,5.072374265556454L53.09688561487198,-13.86239282586378L53.1525792145729,5.800037725863041L53.20827281427383,25.560909143530623L53.49370251274109,29.87863516839297L53.556357812404634,37.89325444912814L53.66078331184387,43.61883460071781L53.72343861150742,59.63680201210186L53.97405981016159,52.187391161004136L53.98102151012421,61.74610779511824L54.078485309600836,70.54629265459208L54.1968342089653,73.6880279374294L54.38480010795593,69.57879460555363L54.60757450675964,79.58986844121036L54.72592340612412,86.38231372125524L55.5056338019371,76.33757427935001L56.27142079782486,73.28365226627814L56.278382497787476,69.33449880058275L56.417616497039795,26.701489210273373L56.42457819700241,20.754436654943646L56.529003696441656,0.8506115780628888L56.70304619550705,26.062575748532595L57.07897799348831,32.23490149433351L57.204288592815395,41.20857888053816L57.371369391918186,53.17850327357407L57.538450191020964,61.66235666674273L57.55933529090881,65.05698357547601L58.17196488761902,71.20254220115628L58.50612648582459,74.57261208479648L58.902943383693696,77.67693029259358L59.05610078287125,69.2180137609239L59.11179438257217,82.36824769344888L59.17444968223572,73.08256736769992L59.355453881263735,74.34391150609801L59.63392187976837,80.52094398173186L59.65480697965622,79.45312512961681L59.87061967849731,83.7768497199998L59.982006877899174,94.3602899144642L60.24655147647857,18.691381944748493L60.26743657636643,12.546607556106999L60.29528337621689,21.701378881319567L60.3440152759552,22.317877326413853L60.36490037584305,33.575666769679586L60.49717267513275,43.51010525036439L60.650330074310304,58.49227550330757L60.99145337247848,69.6073471131101L61.13764907169342,76.52451295335767L61.59712126922608,85.73543063577398L61.611044669151305,72.07424849162572L61.97305306720734,77.95403202463729L62.06355516672134,64.9961790337171L62.18886576604843,53.14648650075342L62.4812571644783,65.12595964839629L62.73884006309509,75.45242756069048L62.81541876268387,53.91987768077636L63.24008246040344,68.97370297425798L63.41412495946884,70.4866385610576L63.49766535902023,74.56102153866333L63.51855045890808,53.205980887213414L63.67170785808563,57.63894758350263L63.915367356777196,55.36372609747268L63.99194605636597,58.76771721929926L64.23560555505752,67.23675905702966L64.444456553936,61.739188677662376L64.86912025165557,75.43510177284331L64.93873725128174,80.82182248234643L65.81591144657135,81.45684775629596L66.37980914354324,87.87323668006158L66.4076559433937,94.60854811086298L66.58169844245911,105.2032242410146L66.91586004066468,102.0568739380642L67.17344293928146,93.6508844334245L67.45887263774871,94.1079921276414L67.47279603767394,92.94016125558885L67.51456623744964,55.3879069094814L67.57722153711319,67.12134990627735L67.73734063625335,62.22047337311455L68.0645405344963,56.89069387516846L68.44743403244019,53.5253071745703L68.46831913232803,49.65395331025471L68.47528083229065,59.58538767750102L68.53097443199158,27.456736852441153L68.79551903057099,42.349856235577285L68.99044662952423,57.97223691748441L69.12271892881394,60.78530034491871L69.26195292806625,59.959615247378586L69.47776562690734,76.3382538305884L70.16697392320633,74.03122761154113L70.22962922286986,78.40931809861235L70.2435526227951,88.22581560424437L70.53594402122498,83.05535018414105L70.56379082107544,85.5943592535776L70.66821632051467,93.03071234058524L70.69606312036515,84.96952730384831L70.91883751916885,63.80191651843731L71.00933961868286,58.66083739489858L71.18338211774825,60.05945678914555L71.27388421726228,66.70110396349673L71.37830971670151,76.00235338974569L71.44096501636506,92.36396046131189L71.67070111513138,96.68689444402585L71.83778191423417,47.43710053403392L71.858667014122,39.976670384633515L72.13713501262664,48.20829273753332L72.19282861232757,41.29026653412135L72.4225647110939,60.86028006440378L72.71495610952377,53.791560729649696L72.77761140918733,69.49589427176244L73.1605049071312,67.22143371509614L74.26045350122452,76.53824898464939L74.69904059886932,93.24267865926444L74.89396819782257,95.02322235897368L75.05408729696275,98.6066989199751L75.40913399505615,86.55781291825708L75.64583179378509,87.43402377260753L75.7363338932991,82.50740081569373L76.27238479042053,83.15014642737293L76.44642728948594,83.80045168951807L76.55781448888779,86.77435176271176L76.64135488843918,90.95607518456343L76.94766968679427,94.25567010011795L77.351448284626,99.05874270782572L77.53941418361663,76.41328091488818L77.56726098346711,81.92120731673252L78.14508208036423,89.70693525614155L78.27039267969133,94.5478908530819L78.52101387834549,99.29614383138492L78.88998397636414,90.2021115839524L78.90390737628937,89.06848913404555L79.07098817539215,88.56929802890411L79.07794987535476,91.39027667578301L79.11275837516786,95.92768175667923L79.14756687498092,77.70851196831671L80.25447716903687,80.24496054611458L80.37978776836395,73.29930786949373L80.41459626817704,78.11854154806554L80.50509836769105,85.16622976377121L80.53990686750413,89.59374130494763L80.65129406690598,92.40562887263158L80.68610256671906,75.7115892930924L80.74875786638259,79.44940749985993L80.86014506578445,80.50381753736737L81.26392366361618,77.99065860785191L81.59112356185912,76.34552085736026L81.6607405614853,59.10226663645685L81.79997456073761,65.72421642138501L82.16198295879363,81.71903086431435L82.44045095729827,93.00767564932084L82.49614455699921,71.58322739979064L82.95561675453186,68.24632749859306L82.97650185441971,77.22751743914729L83.05308055400849,89.14575232264426L83.47774425172805,82.72111495996397L83.51255275154114,92.76265087284673L83.52647615146637,97.76691149368224L83.91633134937287,92.03646781432387L84.35491844701767,85.51084379979149L84.37580354690552,88.85811580756561L84.4175737466812,100.47329282227942L84.68211834526062,101.08169924818172L84.9814714436531,89.42827048336285L85.30170964193344,87.70317347121943L85.44790534114838,85.22039412966333L85.68460313987731,82.4035019491019L85.8934541387558,64.57424574977962L85.99787963819504,68.9033955578915L86.09534343767166,69.58286471923591L86.57570073509217,66.20444075553974L86.77062833404541,41.696066211265325L86.79847513389586,54.20041004922457L86.81239853382111,68.02393651640104L86.89593893337249,77.32788880017536L87.06301973247528,74.37564519531658L87.14656013202668,87.7090861691179L87.2440239315033,99.87393075278347L87.32060263109207,104.47651018652166L87.66868762922287,110.51654600336101L87.7313429288864,113.79253664346847L87.74526632881164,111.1284910673859L87.98196412754059,117.54727602787321L88.02373432731628,108.48692795639175L88.13512152671814,69.12447669896311L88.6015554242134,76.92409942754863L88.62244052410125,90.40039422809299L88.80344472312927,95.0462736610337L89.06798932170868,88.1108389375672L89.0749510216713,83.1999870082974L89.2559552206993,82.71655501068982L89.37430412006378,80.11418385773652L89.49265301942826,83.63024787969704L89.7711210179329,90.71885918946569L89.81289121770858,82.14410150068188L90.00781881666182,76.82268900558849L90.40463571453094,72.51519605224699L90.8223377122879,70.18472763638245L91.04511211109161,76.79287358913646L91.35142690944672,84.25864454216018L91.50458430862427,64.16736521564428L91.64381830787659,66.49688311694325L92.00582670593262,69.33795078050923L92.09632880544662,57.458228347400386L92.4304904036522,69.97138312085242L92.52795420312881,89.59074043624048L92.56276270294188,84.83131721982356L93.02919660043717,89.56811380623141L93.12666039991377,90.61825093350144L93.2658943991661,85.68757498927444L93.920294195652,90.39993101715648L94.31711109352112,80.6862053832571L94.3588812932968,74.5183251789021L94.42153659296036,88.32795838221949L94.80443009090423,89.52725907062202L95.08985978937149,101.93342896186425L95.11770658922195,103.90973718910674L95.33351928806304,110.39571461108068L95.50060008716582,122.30332701960032L95.54237028694153,100.37272381678224L95.73729788589478,85.98166883155837L95.90437868499755,91.96248880424244L95.91830208492279,81.34169457157519L96.23157858324052,91.56477910210205L96.30119558286667,76.50813032252067L96.52396998167039,91.43208453754868L96.55877848148346,107.90488468211304L96.60751038122177,95.85365279667072L96.88597837972641,94.19619393522186L96.91382517957686,78.3805057940933L97.3593739771843,77.14862384365136L97.50556967639923,86.72301484246556L97.69353557538986,83.46698364903474L97.86757807445525,94.84740947296285L98.30616517210007,84.27104914492509L98.52197787094116,92.30890559989898L98.93967986869812,104.18700615334389L99.21814786720276,105.6432378453937L99.48965416574478,68.01223711567164L99.57319456529616,80.18874712676126L99.63584986495972,89.46025108128545L99.74027536439897,79.48790912698084L99.86558596372605,95.08817853564734L99.96304976320266,78.73590793485356L100.05355186271667,90.83052400097083L100.08836036252976,64.74692052225517L100.15797736215592,84.45978250006551L100.63833465957642,76.76403602126774L101.20919405651092,83.23734181243886L101.27184935617447,86.36259257601851L101.40412165546417,81.09528423705005L102.13510015153885,82.48515255526372L102.14206185150147,77.77056820679321L102.4205298500061,73.66861176294182L102.70595954847336,75.75538048412538L102.71292124843598,84.00344828113957L102.83823184776307,97.679100226048L103.12366154623032,101.3560803796433L103.20024024581909,89.2497483589054L103.2907423453331,74.77315610935439L103.38124444484711,84.36850415454177L103.49959334421158,94.07878668384384L103.68755924320222,109.03207239940338L103.84767834234238,117.5859404693488L104.06349104118347,127.2233054027904L104.07045274114608,111.58726850632955L104.07741444110871,65.60932790827653L104.14703144073486,69.07759766236073L104.23753354024888,69.67047012311379L104.27930374002457,70.83855040168523L104.3767675395012,80.07551043320665L104.8640865368843,89.13208330618733L105.05205243587493,76.72192847807545L105.26786513471603,87.54398318467301L105.38621403408051,81.00910276670764L105.75518413209915,88.38129560373578L105.87353303146362,90.8779799458134L105.92226493120194,80.9308411720462L106.29819672918319,99.88018589658861L106.37477542877197,110.72157659088637L106.80640082645417,103.21268762455071L106.82728592634201,108.76187930397113L106.83424762630463,119.740015734506L107.17537092447282,112.74803062792023L107.5234559226036,125.10498634289507L107.5652261223793,122.28724056011524L107.57218782234192,109.63305560093691L107.61395802211761,106.08600686847456L107.9133111205101,107.68926492576973L108.03166001987458,122.24946780921722L108.33101311826707,99.40302807746201L108.57467261695862,105.2092059687957L108.8322555155754,116.87134274696676L108.90187251520157,75.05657187840835L108.91579591512681,87.82432646197508L109.34742131280899,79.14581511088036L109.41703831243515,85.45253078637278L109.46577021217347,95.21390811824504L109.7929701104164,102.45409948945853L110.28725080776215,98.55467833183475L111.54731850099564,108.82912733801749L111.58212700080871,98.24007077235372L111.63782060050964,91.00640651156412L111.76313119983672,98.07712980852327L112.04159919834136,105.6926049287533L112.20867999744415,113.57424638452567L112.25045019721985,107.32577905135626L112.25741189718246,95.43908562256928L112.4941096959114,108.29383436038349L112.57068839550018,107.50894251146477L112.86307979393005,114.34265381260865L112.90484999370574,110.36464313331824L112.96054359340668,111.19757707117645L113.68456038951874,115.29673365740656L113.69152208948135,119.57720251597632L114.13010918712615,112.9073124542042L114.19972618675233,128.007576818293L114.2345346865654,99.08364224354824L114.47123248529435,93.55527859212818L114.50604098510742,99.47299075848282L114.59654308462142,102.06432473649657L114.61046648454666,99.80301625834065L115.04905358219148,105.87037222221484L115.4110619802475,117.37376120041873L115.64079807901382,109.15249619663932L116.23254257583618,111.42792436569303L116.51101057434082,120.60347197339676L116.65024457359314,115.93143438468077L116.71289987325669,102.92838337315955L116.85909557247163,115.18865763611164L117.07490827131271,127.24533323183194L117.08883167123794,123.15616636409216L117.2837592701912,107.92378867996305L117.42299326944352,114.54571808868542L117.48564856910706,127.69482038754468L117.52741876888274,97.15208103014943L118.03562286615372,88.05793644700158L118.1539717655182,104.61031344854341L118.53686526346208,101.32517793957999L118.87798856163025,113.69568748069521L119.56719685792923,91.0667989943023L119.5950436577797,100.14998647541401L119.9848988556862,109.34769829512177L120.23552005434037,114.21674053433915L120.45133275318146,118.41317674361228L120.46525615310668,122.03817311965896L120.54879655265809,129.32171509992315L120.8133411512375,111.57152790144148L121.09180914974213,114.3120926825396L121.1196559495926,108.53077864900082L121.13357934951782,108.60966114594076L121.27977504873276,113.11667489292914L121.28673674869538,93.28519986870863L121.39116224813462,79.85073108153821L121.474702647686,91.51483772791917L121.66266854667664,98.00209589381608L121.67659194660187,106.76918056986335L121.69051534652709,107.77547839878672L122.20568114376069,120.6046171647603L122.53288104200364,117.57195777108959L122.86008094024658,119.50644368438527L123.27778293800354,120.4519646126222L123.79294873523712,121.48054241477077L123.85560403490067,106.82436066117799L124.62139103078842,72.76848603138859L124.64923783063888,73.93722131989844L124.9207441291809,67.06131367010175L125.11567172813415,81.10024570865674L125.14351852798463,88.14983114082743L125.28971422719955,78.33206140326952L125.38021632671355,73.1919774565231L125.47768012619018,63.80218192109053L125.64476092529297,78.88360061743899L125.95107572364806,88.52942605039196L126.6193989200592,101.05755260341985L127.0510243177414,97.70320954519481L127.12760301733017,110.01223278398028L127.42695611572266,118.36743841020528L127.74023261404038,126.1121566394968L128.0117389125824,119.57991763804696L128.22058991146088,124.40729987101712L128.47817281007767,121.76635146042626L128.94460670757294,136.24191767113854L129.13953430652617,125.37674979447664L129.1952279062271,130.0354065472078L129.64773840379715,132.2499030452427L129.78001070308684,137.9446377302388L129.79393410301208,139.99394574881975L129.81481920289994,122.62492594336868L129.90532130241394,125.81697768131909L130.43441049957275,131.74282086475395L130.89388269710543,131.77178167653653L131.09577199602128,126.44555245467895L131.22108259534835,133.88149864460866L131.5065122938156,125.70070556862694L131.68751649284363,101.77307837107837L132.0704099907875,111.14808420856866L132.13306529045104,117.63098703997287L132.31406948947907,114.13806570119849L132.59253748798372,88.54147984804388L133.3722478837967,94.30358680026595L133.50452018308638,96.26867860524649L133.58109888267518,96.92328876882007L133.70640948200227,109.86667270792532L134.0684178800583,114.94801785241306L134.11714977979662,124.79503937356928L134.70193257665633,133.45020111440255L134.73674107646943,128.93083875833233L134.78547297620773,126.3007121450996L135.05001757478715,97.04352261271093L135.09178777456282,112.62678212282528L135.18925157403945,125.20897618232146L135.2449451737404,103.81936854663229L135.251906873703,104.19841477323517L135.7253024711609,113.88473971577591L135.9968087697029,113.87806147021382L136.2892001681328,116.31251306192404L136.60943836641312,115.54884399181093L136.76259576559067,93.35094402069868L137.45876576185225,101.82429498208624L137.5631912612915,110.17162615686075L137.97393155908586,120.40470014242804L138.19670595788958,93.15275739371468L138.28720805740355,98.69672056144054L138.315054857254,106.93101441294691L138.68402495527266,119.13583598917512L138.71187175512313,104.38356938340988L138.8162972545624,102.46367514324464L139.36627155160903,110.39721393296117L139.68650974988938,93.14798650218027L139.693471449852,95.59293654655536L139.72131824970245,105.58598329634536L139.9997862482071,112.56346383843685L140.0972500476837,59.339906982022924L140.19471384716033,69.41695300190217L140.29913934659956,74.38979733861612L140.45925844573972,90.86094440400156L140.52191374540328,100.46590678123921L140.6193775448799,102.31525992384509L141.4478198404312,80.01218965088935L141.55920703983307,88.06275170540644L141.6566708393097,84.27570068438676L141.75413463878633,102.77263252812689L141.81678993844986,57.35710992497138L142.15095153665544,61.80852350627246L142.26233873605727,71.272747279364L142.30410893583297,80.06742950039987L142.4085344352722,64.49078738783139L142.4503046350479,84.25523373747494L142.64523223400116,69.0028922265948L143.48063622951508,80.33778972814865L143.67556382846834,79.20886580683914L143.8844148273468,79.85992323810517L144.19072962570192,77.31619227120112L144.26034662532805,96.1899348621742L144.44831252431868,115.62231467758988L144.52489122390747,121.47966769085917L144.7546273226738,106.50764782328439L144.8103209223747,100.61754047532435L144.94259322166442,88.97176627572318L145.0191719212532,88.09237323802276L145.31156331968307,92.9705593028452L145.64572491788863,92.03126563617937L145.65268661785126,93.65652244783931L146.41847361373902,90.3705600446842L146.7247884120941,100.5758336611543L147.01021811056137,108.45232864808045L147.0659117102623,119.68388643646458L147.48361370801925,122.67064330288518L147.49057540798185,99.76429136315356L147.8386604061127,116.96969812256435L147.8595455060005,118.98706333163886L147.87346890592573,121.01803338846331L147.91523910570143,118.930738642628L148.3747113032341,109.28753803845835L148.6044474020004,116.26216871743178L148.92468560028078,116.4333373250486L149.05695789957045,118.1565697985391L149.0778429994583,129.98860720996112L149.1683450989723,124.15510966839264L150.39360429239272,136.26018938804236L150.40752769231796,144.9933021318757L150.47714469194415,145.5910051067833L151.28470188760755,135.711656659211L151.31254868745805,128.94462439597254L152.001756983757,114.14855362359644L152.2245313825607,118.01715966173867L152.32199518203737,124.77735613591898L152.3428802819252,103.69324212786566L152.509961081028,112.19924674756177L152.78842907953262,118.78746223719651L152.81627587938308,111.2243375376496L153.1713225774765,122.98910220887369L153.26878637695313,122.50205756096582L153.53333097553252,135.85817932414972L153.55421607542038,148.21748760896844L153.68648837471008,149.37866529481266L153.9928031730652,130.99459200713702L154.0345733728409,129.54889530944533L154.0415350728035,130.33865499184688L154.15292227220536,132.30797130794772L154.23646267175675,125.75775623157013L154.75162846899033,96.98700433068612L154.76555186891557,62.47622330921945L154.89782416820526,59.111578245048214L154.9883262677193,83.35595505915424L155.05794326734542,98.47204318331146L155.11363686704635,110.77308640956458L155.90030896282195,119.91454938649586L156.15789186143877,105.3647896583637L156.74267465829848,116.54092852378174L157.07683625650407,123.71114145361524L157.45276805448532,130.6267102805312L157.55719355392455,126.70200817210058L157.56415525388718,135.48828439065514L157.66858075332644,99.46954504729497L157.8286998524666,110.61110945752145L157.94704875183106,125.88780103483113L158.0097040514946,112.81820853336717L158.24640185022352,113.7181142255917L158.50398474884034,130.3448675939808L158.82422294712066,103.73587197503201L159.234963244915,63.122073266954104L159.2836951446533,87.44759840635737L159.29065684461594,97.0645090422518L159.3185036444664,112.72818547823502L159.6665886425972,114.2120821815339L159.78493754196165,129.35580060108074L159.86847794151308,138.76822689827492L160.1539076399803,105.18301455394977L160.17479273986817,111.19895050814647L160.3627586388588,127.44678919183991L160.56464793777465,137.4202922374488L160.73172873687744,150.50937935206463L160.8779244360924,160.21386299309756L160.96146483564377,162.8989209759316L161.0171584353447,153.14765300454775L161.04500523519516,146.3571626661479L161.07285203504563,145.4105371281333L161.56017103242874,141.71818699298944L162.04052832984922,135.7401457377897L162.43038352775574,137.8138099412842L162.52088562726973,135.940996561213L162.9385876250267,132.14770280660483L163.02212802457808,142.5226966037873L163.1056684241295,131.1617993687214L163.2100939235687,141.45398665245753L163.3771747226715,137.85713645348267L163.46767682218552,135.44978022824768L163.53033212184909,128.05344778343516L163.75310652065275,136.11116480077993L164.40750631713868,144.22883861012656L164.44231481695175,153.47392239753162L164.53281691646575,154.54495329854146L164.60939561605454,151.33616954850172L165.39606771183014,149.98449628170476L165.40302941179277,150.20302676270117L165.44479961156844,159.47916977303012L165.46568471145628,135.3317595648031L165.5492251110077,125.34367467251013L165.65365061044693,125.48982000048788L166.3707057065964,135.7330619489162L166.41247590637207,140.85881013364673L167.01814380311964,139.5025282232589L167.33142030143736,122.930531824727L167.35230540132522,134.7305144957265L167.77000739908217,135.85610650930718L167.83962439870834,143.5274737783181L167.86747119855883,150.12215115487803L167.87443289852143,149.07358889220495L168.53579439496994,150.6414541011393L168.54971779489517,157.26274848605257L169.01615169239045,160.4705266642626L169.3015813908577,152.91416007262748L169.6496663889885,138.3517489148573L169.70535998868942,147.04055279751594L169.80978548812865,153.60762118973403L169.90724928760528,141.34450444327877L170.0047130870819,149.14436058266477L170.38064488506316,129.64350182930949L170.54772568416598,135.49118067571735L170.5686107840538,147.6250584508334L170.88188728237154,141.41814259500438L171.37616797971725,126.50542124148669L171.48755517911908,127.65333753575153L171.63375087833404,128.98806686245808L171.68248277807234,124.0041878215565L172.3925761742592,134.7508460645487L172.40649957418444,139.07016065643532L172.93558877134325,139.37671493368205L173.07482277059555,122.40835220319488L173.3115205693245,118.83795243003404L173.42290776872633,131.8812340367224L173.49948646831513,135.06272547343877L173.91022676610947,123.4535458026355L173.9171884660721,125.16700421115928L173.94503526592257,121.76760732704352L174.03553736543654,123.03454910362586L174.13996286487577,124.44170104863045L174.56462656259535,129.0426059882855L174.9753668603897,135.60011146554862L176.20758775377274,136.3597371825052L176.35378345298767,145.19656148796224L176.56263445186616,144.0200125803041L176.78540885066988,123.85106135934639L176.84806415033339,140.45486638003476L176.98033644962308,138.31567900570798L177.1056470489502,149.3546014876777L177.47461714696885,157.83860589899476L177.61385114622115,141.01001003437932L177.7670085453987,148.11345642699936L177.92712764453887,150.97873106506128L178.04547654390336,149.65846393921677L178.0663616437912,159.21259024758913L178.08724674367906,164.60549010612982L178.34482964229582,146.7547572135779L178.53975724124908,144.95929449311484L178.66506784057617,135.11577869632265L178.67899124050143,125.85567594367573L179.3333910369873,133.85681816157864L179.52135693597793,133.63559333448342L179.70236113500596,136.53026337892828L179.87640363407135,144.8428657464258L179.8972887339592,143.1301030832611L180.6352289299965,141.50129513388626L180.66307572984695,144.63137616223202L180.76750122928618,151.91599755731247L180.78142462921141,148.68419502016576L180.8162331290245,150.88478917988473L180.8580033288002,144.54951327043148L180.94850542831423,110.0348125258823L181.00419902801514,110.47028224755483L181.25482022666932,109.79086055378075L181.36620742607116,119.43240096111512L181.90225832319257,99.91138024785319L182.05541572237016,103.56085009185675L182.15287952184676,58.03971892013894L182.20857312154772,40.48289795424528L182.2503433213234,57.836325551799604L182.4313475203514,74.38589994235568L182.45919432020185,96.86321656304831L182.62627511930467,62.30879602670511L182.70285381889343,84.88665248115194L182.8629729180336,90.1820381253657L182.946513317585,106.16291747950895L183.1692877163887,104.93744948275614L183.71926201343535,108.16451907248045L183.92115131235124,108.05701349836058L184.24138951063156,115.66945720947004L185.05590840625763,113.38253272200734L185.06983180618286,120.12447360169207L185.1324871058464,136.72485235425782L185.16033390569686,121.66624193174692L185.1672956056595,85.00588167791736L185.2160275053978,86.92207135964286L185.32741470479965,89.3422738831049L185.71030820274353,99.29299221588575L185.72423160266877,109.35523184222019L186.01662300109865,118.67654511629475L186.11408680057525,127.31299233573542L186.6570993976593,129.29556063878258L186.70583129739762,133.3594697661572L186.88683549642562,141.3701742528203L188.40448608827592,145.33741288218525L188.57156688737868,141.39720447896116L188.7595327863693,148.20286792530118L188.91269018554686,155.45500812136277L188.98230718517303,147.27438982803938L189.0936943845749,149.36554475100962L189.56012828207017,148.95502047862388L189.86644308042526,137.62937542359913L189.93606008005142,132.42780518375568L189.94998347997665,144.0748915636208L189.99871537971498,146.95601732104024L190.1031408791542,156.33355014972702L190.59742157649993,130.56537952531056L190.61134497642516,119.89354105409495L190.86892787504195,118.73002777491969L191.20308947324753,129.56405800741675L191.5442127714157,143.91741691175147L191.6695233707428,153.20991038044932L191.91318286943437,160.48842025719486L192.17076576805115,155.50072326085646L192.4561954665184,128.20324503198017L192.85301236438752,128.67526924491543L193.22894416236878,112.34189905258245L193.39602496147157,116.888643634051L193.40298666143417,126.06976234363017L194.37762465620042,120.60663501012746L194.56559055519105,130.50015479019643L194.80925005388258,133.78320722665666L194.8510202536583,138.6589281745648L194.87886705350877,134.17627079653604L195.29656905126572,117.53759450635219L195.3313775510788,131.81916218975323L195.4218796505928,136.2697986981209L195.58199874973297,147.8680950460566L195.66553914928437,155.44866748364504L196.75156434345246,162.240743355051L197.00218554210664,161.80146104108837L197.15534294128418,155.43013949763824L197.22495994091034,157.77023446438199L197.55912153911592,158.6205070774193L197.75404913806915,157.99334719523432L197.76101083803178,160.98157189090355L198.40844893455505,163.54224713177592L198.67299353313447,160.5264086193431L199.0280402312279,155.68936995998706L199.04196363115312,151.0390614159929L199.29258482980725,157.74807492344056L199.41789542913438,138.94464086652314L199.4387805290222,138.36285574484094L199.92609952640532,147.28078909535236L200.61530782270432,135.64087152239074L201.37413311862943,144.0010714360342L201.55513731765748,150.61727285343983L202.07030311489106,156.985976342322L202.37661791324615,164.5413634371863L202.41838811302185,165.781300141449L202.73166461133957,141.836870408544L203.42087290763857,144.30029633004946L203.84553660535812,150.79009949888348L204.0126174044609,147.4728089773351L204.36766410255433,153.02716138601295L204.5208215017319,159.8454488947789L204.61132360124586,158.1609729604512L204.91763839960097,131.8218253097736L205.15433619832993,133.31345284388706L205.18218299818037,135.5565423594097L205.30053189754486,135.522214263965L205.3144552974701,131.2445591620131L206.1080890932083,136.81412841514046L206.24732309246065,143.55650364953806L206.31694009208678,140.29795156405973L206.49098259115218,127.69743886081221L206.7903356895447,132.01346022340712L206.8877994890213,120.10731982445373L207.16626748752594,123.18474717265767L207.5839694852829,129.09273787455862L207.65358648490906,123.09213215293256L207.73016518449785,133.87610676860365L207.75801198434831,143.30603317523185L207.980786383152,153.83633522200523L208.0295182828903,154.11393899222455L208.17571398210526,148.72359875381943L208.4193734807968,151.2787426326312L208.55860748004915,159.6017767750055L208.57253087997435,146.29713124819014L208.69087977933884,157.85759360627205L208.78834357881544,143.00644256206385L209.21996897649765,144.9220780494509L209.2338923764229,149.15265930021206L209.630709274292,157.59878649792878L209.70032627391817,145.1184803864752L210.06233467197418,146.38554760118498L210.15283677148818,140.74778323037415L210.5844621691704,145.3688383186115L210.75154296827316,148.63382869183215L211.62175546360015,153.8625586543658L211.9419936618805,154.95143386698274L212.10211276102066,160.62094537742615L213.11155925559996,170.09683862905572L213.36914215421677,162.99183548906933L213.45268255376817,165.27239255167973L213.6336867527962,158.95390323014348L213.74507395219803,165.70006321555977L213.75899735212326,161.1154194797576L213.8146909518242,169.4964571512756L213.82861435174942,163.93739905498552L214.12100575017928,164.80592148265035L214.5178226480484,169.01303131536093L214.62224814748762,157.57475025968586L214.62920984745026,93.88339439753467L214.99817994546888,42.88420956403772L215.1652607445717,63.147254881765136L215.23487774419783,80.94923815974528L215.31841814374926,91.38644073119356L215.74308184146884,111.11411565158792L216.20255403900146,117.19385625359949L216.26520933866502,121.93353948112465L216.48798373746874,95.26123254909876L216.55063903713224,107.23225564905256L216.6063326368332,121.61462671754008L216.66202623653413,111.27277644069463L216.87783893537522,110.82753708121737L216.89176233530043,111.75150576571313L217.08668993425368,128.66714777951626L217.44173663234713,139.2264894897591L217.643625931263,125.00224532244383L217.6575493311882,127.50970584350003L217.83159183025361,126.68951646931139L217.9220939297676,141.5964230128265L217.93601732969285,148.2134213245623L217.9986726293564,154.16410000579583L218.4372597270012,160.55685710231106L218.7435745253563,150.98550131628966L218.77838302516935,137.49800625573457L219.2308935227394,142.60111856169348L219.64163382053374,149.33485669001558L219.89921671915056,152.8082736999578L219.9340252189636,143.78335394947152L219.9688337187767,142.12066018680133L220.03845071840286,138.65117155635355L220.19856981754302,146.44698812559594L220.30995701694488,156.04667313545858L220.55361651563643,153.4955054266089L220.6232335152626,153.96194252701397L220.63715691518783,103.54107487210716L220.66500371503832,106.5960958884906L220.69285051488876,121.92668167192822L220.91562491369245,131.86824738955082L221.05485891294478,145.25392125848165L221.47952261066436,147.815396016791L221.486484310627,147.3589942221299L221.4934460105896,133.76136633380347L222.17569260692596,134.92553326218726L222.56554780483248,118.8708749346163L222.87186260318757,125.92839243041024L222.9762881026268,124.26579386838176L223.10856040191652,133.52592763800422L223.18513910150529,117.61049122991923L223.498415599823,127.2759329197945L223.6306878991127,135.82778203941123L223.74903679847716,133.80935276651184L223.9370026974678,144.21179219344543L224.91860239219665,145.72276569680804L225.329342689991,153.41982341411867L225.52427028894425,155.2390909497141L225.8514701871872,137.15004456458243L225.87235528707504,137.16797117947428L225.9350105867386,142.36365777027677L226.40144448423385,152.13364280984683L226.5128316836357,157.0595943949073L226.5546018834114,158.11275329416054L227.13242298030852,160.35883152552566L227.16026978015898,153.49929628741378L227.3064654793739,164.44278484282248L227.6823972773552,153.75479627294393L228.19060137462617,157.72371530617866L228.28806517410277,166.48370436118284L228.51780127286912,163.02547503148267L228.57349487257005,155.5899170568861L228.60134167242052,158.2098783060435L228.62918847227095,160.24018227865042L228.99815857028963,160.46312531364634L229.01208197021484,163.40134268656163L229.1582776694298,160.5507531572957L229.54813286733628,151.31411553267932L229.7778689661026,157.25341394665887L230.04937526464462,145.99411919654582L230.44619216251374,155.66444642070334L230.51580916213987,165.3183990546711L231.14932385873794,173.59914808707762L231.28159615802764,159.46768478094816L232.2075022530556,160.46564534288257L232.2631958527565,160.89344933620006L232.43027665185926,146.42448398097517L232.67393615055084,158.10270510192674L232.86190204954147,160.44128267357664L232.88278714942933,164.53823291335436L232.93848074913026,168.99389099705132L233.05682964849473,170.2187306681954L233.07771474838256,152.3882939360342L233.32137424707415,150.1610519063179L233.45364654636384,160.72384789245288L233.80869324445723,145.7729327274687L233.9061570439339,141.86165963638257L234.01754424333572,147.70540225895786L234.10804634284972,133.89441569245477L235.24976513671874,142.2826052074058L235.26368853664397,130.08262610298652L235.68139053440095,137.5178251068914L235.87631813335418,147.08842116304615L236.50287112998964,159.14422991307677L236.51679452991488,159.75785128652106L236.586411529541,166.5982627415702L237.094615626812,150.3044581646376L237.52624102449417,157.2765464585081L237.57497292423247,152.25350466012273L237.81167072296142,154.6521701885057L238.5008790192604,159.00297933880267L238.8559257173538,159.551784420201L239.12743201589583,163.05139018090736L239.1552788157463,162.98576181383285L239.51032551383972,146.64660496233972L239.69829141283034,146.97800662881173L239.91410411167146,158.4357628335634L239.94891261148453,162.12717373161672L240.1090317106247,168.29782238818697L240.21345721006392,169.76434099509075L240.3248444094658,164.34460408910098L240.6311592078209,164.08433257022836L241.01405270576478,167.5356202334233L241.12543990516662,167.4730956381625L241.36909940385817,167.74649339971674L241.41086960363387,168.306710229564L241.49441000318527,168.53189373561085L241.6684525022507,133.819833234774L242.0861545000076,129.47645377839598L242.1557714996338,134.43420158164656L242.2045033993721,146.1271291449771L242.32285229873656,153.95841161791859L242.48297139787672,154.40046025727162L242.60132029724122,155.22617469553603L242.6848606967926,162.0339417125912L242.78232449626924,160.42429616367824L243.06079249477386,156.4707349763797L243.40191579294205,159.4361323079265L243.4784944925308,158.31904266207601L243.6525369915962,164.33407454771708L244.04239218950272,149.57750221437746L244.12593258905412,157.15700035557768L244.2164346885681,164.6759679241298L244.43920908737184,170.1276668543182" fill="none"></path></g></g></g></g><g opacity="0.2"><g><g><g><path style="fill: none;" stroke="rgb(0, 119, 187)" stroke-width="2px" d="M34.93381041240692,84.36460710133508L35.135699711322786,72.48775724357746L35.240125210762024,6.106007349096466L35.42809110975266,8.903309244302635L35.52555490922928,-37.29216414609758L35.55340170907974,28.30566300861819L35.69959740829468,-52.16819702206663L35.95021860694885,52.24584198567459L36.00591220664978,-2.6038017949085814L36.50715460395813,34.92400104067566L36.61158010339737,77.01706247794115L36.77169920253753,76.31640016775337L37.495715998649594,-163.12772589315537L37.607103198051455,-113.2791305474895L37.69760529756546,87.05332399035105L37.85076269674301,53.29652007054121L38.04569029569626,-336.90753131064355L38.11530729532242,16.341504554761375L38.157077495098115,39.21176253446176L38.35896679401398,8.407041686099896L38.51908589315415,126.33477373447303L38.55389439296722,-10.83547540099203L38.56781779289246,-105.95447218645457L38.67920499229431,47.00706261818275L38.95767299079895,-18.889519225837674L39.2431026892662,-70.11712720430583L39.2848728890419,25.10064484428724L39.38929838848114,67.16387223572153L39.507647287845614,60.50342385749718L40.12723858451844,-26.953862339461867L40.20381728410721,40.63434473624686L40.405706583023075,-40.253426199775106L40.837331980705265,66.91526773958276L40.976565979957584,62.151884336854806L41.874625275135045,-104.46388078710416L41.95120397472382,22.166496091964653L42.02778267431259,18.40115519497991L42.26448047304153,56.340251749173305L42.54294847154617,59.726420658181894L42.6404122710228,16.51683723685662L42.689144170761104,-160.4648231264711L42.82837817001342,-9.883685551344914L42.91191856956482,102.26048747345796L42.995458969116214,37.6256532338797L43.05115256881714,16.000385332089635L43.287850367546085,73.39111031007486L43.524548166275025,-7.22066981257167L43.53847156620025,28.615375990553808L43.62897366571427,-27.38462491473835L43.65682046556473,22.386151490302584L44.3877989616394,-93.67911328482391L44.67322866010666,72.52819183709116L44.951696658611304,46.852818059363585L44.95865835857391,18.491137463851597L45.209279557228086,81.09435696995956L45.32066675662995,121.91177523583846L45.34155185651779,-40.03853445785576L45.58521135520935,-215.58224841529724L45.6060964550972,88.23401412095086L45.70356025457382,79.46264460279305L46.135185652256006,117.9827471962641L46.190879251956936,47.066165849400214L46.4345387506485,41.66077147934602L46.65731314945221,23.89849001678143L46.719968449115754,75.49512132389911L47.66675964403152,60.67295730569149L47.757261743545534,124.01990973091047L48.02876804208755,76.64808622099537L48.09838504171371,107.28905402638235L48.3141977405548,99.01952535615021L48.45343173980712,98.34946906773497L48.460393439769746,117.7534232699777L49.21921873569488,89.72234607852168L49.28187403535843,59.32470132411374L49.35149103498458,3.446098342770129L49.42806973457336,-23.336213620135553L50.186895030498505,11.42915803837403L50.95268202638626,66.82239526810137L51.2311500248909,132.6704650142461L51.76720092201233,32.77668405940951L51.80200942182541,43.520103777123495L51.892511521339415,89.84347098658854L51.948205121040345,8.677026150077925L51.969090220928194,119.29566174267293L52.10832422018051,99.52511311169371L52.2336348195076,104.41083587244503L52.33109861898423,56.62821760398049L52.748800616741185,74.20574262936087L52.7557623167038,29.256925655183384L52.90195801591873,-234.93308690703844L53.09688561487198,-89.60146104785706L53.1525792145729,84.44975981340293L53.20827281427383,104.60439471822886L53.49370251274109,47.14953925106662L53.556357812404634,69.95173154715721L53.66078331184387,66.52115519283916L53.72343861150742,123.70867162577363L53.97405981016159,22.38974776846843L53.98102151012421,99.98097431940502L54.078485309600836,105.74703208352429L54.1968342089653,86.25496906621878L54.38480010795593,53.14186128072911L54.60757450675964,119.63416377861668L54.72592340612412,113.55209483860123L55.5056338019371,36.15861651508141L56.27142079782486,61.06796421480616L56.278382497787476,53.537884938644595L56.417616497039795,-143.8305491436792L56.529003696441656,-78.76468872728351L56.70304619550705,126.91043242820571L57.07897799348831,56.92420447710517L57.204288592815395,77.10328842485428L57.371369391918186,101.05820084518167L57.538450191020964,95.59777023911327L57.55933529090881,78.6354912103119L58.17196488761902,95.7847767037363L58.50612648582459,88.05289161929547L58.902943383693696,90.09420312373643L59.05610078287125,35.3823476343445L59.11179438257217,134.96918342342545L59.17444968223572,35.9398460647738L59.355453881263735,79.38928805968277L59.63392187976837,105.22907388423762L59.65480697965622,75.18184972116066L59.87061967849731,101.07174808151841L59.982006877899174,136.6940506922958L60.24655147647857,-283.9842499339653L60.26743657636643,-12.032489998449298L60.29528337621689,58.32046418215818L60.3440152759552,24.783871106790432L60.36490037584305,78.6068245427335L60.49717267513275,83.24785917309731L60.650330074310304,118.42095651507245L60.99145337247848,114.06763355231563L61.13764907169342,104.19317631434572L61.59712126922608,122.57910136543676L61.611044669151305,17.429519915035517L61.97305306720734,101.4731661566826L62.06355516672134,13.164767070038144L62.18886576604843,5.747716368899942L62.4812571644783,113.0438522389667L62.73884006309509,116.75829920986644L62.81541876268387,-32.21032183887892L63.24008246040344,129.1890041481838L63.41412495946884,76.53838090825612L63.49766535902023,90.85855344908606L63.51855045890808,-32.21418171858569L63.67170785808563,75.37081436865935L63.915367356777196,46.26284015335286L63.99194605636597,72.38368170660567L64.23560555505752,101.11292640795119L64.444456553936,39.748907160193355L64.86912025165557,130.21875415356706L64.93873725128174,102.36870532035898L65.81591144657135,83.99694885209405L66.37980914354324,113.53879237512396L66.4076559433937,121.54979383406864L66.58169844245911,147.58192876162116L66.91586004066468,89.47147272626258L67.17344293928146,60.02692641486573L67.45887263774871,95.93642290450897L67.47279603767394,88.26883776737861L67.51456623744964,-94.82111047494845L67.57722153711319,114.0551218934612L67.73734063625335,42.6169672404633L68.0645405344963,35.571575883384135L68.44743403244019,40.06376037217751L68.46831913232803,34.16853785299238L68.47528083229065,99.31112514648622L68.53097443199158,-101.05786644779825L68.79551903057099,101.92233376812192L68.99044662952423,120.461759645113L69.12271892881394,72.03755405465587L69.26195292806625,56.65687485721812L69.47776562690734,141.8528081634276L70.16697392320633,64.80312273535202L70.22962922286986,95.92168004689722L70.2435526227951,127.49180562677255L70.53594402122498,62.37348850372764L70.56379082107544,95.75039553132375L70.66821632051467,122.77612468861591L70.69606312036515,52.72478715690057L70.91883751916885,-20.86852662320676L71.00933961868286,38.0965209007437L71.18338211774825,65.65393436613351L71.27388421726228,93.26769266090155L71.37830971670151,113.2073510947414L71.44096501636506,157.81038874757675L71.67070111513138,113.97863037488175L71.83778191423417,-149.56207510593393L71.858667014122,10.134949787031937L72.13713501262664,81.13478214913252L72.19282861232757,13.6181617204734L72.4225647110939,139.14033418553345L72.71495610952377,25.516683390633464L72.77761140918733,132.31322844021335L73.1605049071312,58.123591488430996L74.26045350122452,113.80551006286235L74.69904059886932,160.0603973577247L74.89396819782257,102.14539715781073L75.05408729696275,112.94060516398078L75.40913399505615,38.36226891138502L75.64583179378509,90.9388671900093L75.7363338932991,62.800908988038515L76.27238479042053,85.7211288740898L76.44642728948594,86.4016727380986L76.55781448888779,98.66995205548656L76.64135488843918,107.6829688719702L76.94766968679427,107.45404976233598L77.351448284626,118.27103313865672L77.53941418361663,-14.168566256862032L77.56726098346711,103.9529129241099L78.14508208036423,120.84984701377772L78.27039267969133,113.91171324084327L78.52101387834549,118.28915574459708L78.88998397636414,53.825982594222246L78.90390737628937,84.53399933441818L79.07098817539215,86.5725336083384L79.07794987535476,102.67419126329864L79.11275837516786,114.07730208026405L79.14756687498092,4.831832814866628L80.25447716903687,90.390754857306L80.37978776836395,45.516697163010306L80.41459626817704,97.39547626235276L80.50509836769105,113.35698262659392L80.53990686750413,107.30378746965333L80.65129406690598,103.6531791433674L80.68610256671906,8.935430974935636L80.74875786638259,94.40068032693001L80.86014506578445,84.72145768739713L81.26392366361618,67.9380228897901L81.59112356185912,69.76496985539362L81.6607405614853,-9.870750247156856L81.79997456073761,92.21201556109759L82.16198295879363,145.69828863603172L82.44045095729827,138.1622547893469L82.49614455699921,-14.11456559833016L82.95561675453186,54.89872789380274L82.97650185441971,113.15227720136421L83.05308055400849,136.81869185663214L83.47774425172805,57.02256550924278L83.51255275154114,132.92879452437782L83.52647615146637,117.78395397702427L83.91633134937287,69.11469309689042L84.35491844701767,59.40834774166185L84.37580354690552,102.24720383866219L84.4175737466812,146.93400088113464L84.68211834526062,103.51532495179092L84.9814714436531,42.81455542408737L85.30170964193344,80.80278542264583L85.44790534114838,75.28927676343885L85.68460313987731,71.13593322685612L85.8934541387558,-6.742779047509469L85.99787963819504,86.21999479033906L86.09534343767166,72.30074136461366L86.57570073509217,52.69074490075492L86.77062833404541,-56.33743196583235L86.79847513389586,104.2177854010616L86.81239853382111,123.31804238510689L86.89593893337249,114.54369793527265L87.06301973247528,62.56667077588154L87.14656013202668,141.0428500643231L87.2440239315033,148.53330908744573L87.32060263109207,122.88682792147449L87.66868762922287,134.67668927071836L87.7313429288864,126.8964992038983L87.74526632881164,100.47230876305568L87.98196412754059,143.22241586982236L88.02373432731628,72.245535670466L88.13512152671814,-88.32532833075159L88.6015554242134,108.12259034189078L88.62244052410125,144.3055734302704L88.80344472312927,113.62979139279646L89.06798932170868,60.36910004370129L89.0749510216713,63.55657929121826L89.2559552206993,80.78282702025955L89.37430412006378,69.7046992459234L89.49265301942826,97.6945039675391L89.7711210179329,119.07330442854027L89.81289121770858,47.845070745546614L90.00781881666182,55.53703902521494L90.40463571453094,55.28522423888099L90.8223377122879,60.86285397292424L91.04511211109161,103.22545740015258L91.35142690944672,114.121728354255L91.50458430862427,-16.197752090419286L91.64381830787659,75.81495472213908L92.00582670593262,80.70222143477312L92.09632880544662,9.939338614965001L92.4304904036522,120.02400221466057L92.52795420312881,168.06816969779274L92.56276270294188,65.79362435415591L93.02919660043717,108.51530015186289L93.12666039991377,94.81879944258162L93.2658943991661,65.96487121236639L93.920294195652,109.24935512868468L94.31711109352112,41.83130284765965L94.3588812932968,49.846804361481986L94.42153659296036,143.56649119548905L94.80443009090423,94.32446182423226L95.08985978937149,151.5581085268331L95.11770658922195,111.81497009807666L95.33351928806304,136.33962429897642L95.50060008716582,169.93377665367893L95.54237028694153,12.650311005509785L95.73729788589478,28.417448890662794L95.90437868499755,115.8857686949788L95.91830208492279,38.85851764090627L96.23157858324052,132.45711722420947L96.30119558286667,16.281535204195084L96.52396998167039,151.12790139766076L96.55877848148346,173.79608526037052L96.60751038122177,47.64872525490133L96.88597837972641,87.5663584894264L96.91382517957686,15.117753229579101L97.3593739771843,72.22109604188356L97.50556967639923,125.02057883772243L97.69353557538986,70.44285887531142L97.86757807445525,140.36911276867528L98.30616517210007,41.96560783277405L98.52197787094116,124.46033141979464L98.93967986869812,151.69940836712343L99.21814786720276,111.46816461359298L99.48965416574478,-82.51176580321668L99.57319456529616,128.8947871711198L99.63584986495972,126.54626689938227L99.74027536439897,39.59854130976246L99.86558596372605,157.48925617031352L99.96304976320266,13.326825531678342L100.05355186271667,139.20898826543998L100.08836036252976,-39.58749339260755L100.15797736215592,163.31123041130698L100.63833465957642,45.98105010607653L101.20919405651092,109.13056497712338L101.27184935617447,98.86359563033712L101.40412165546417,60.02605088117615L102.13510015153885,88.04462582811853L102.14206185150147,58.91223081291108L102.4205298500061,57.260785987536245L102.70595954847336,84.10245536885958L102.71292124843598,116.99571946919635L102.83823184776307,152.3817080056818L103.12366154623032,116.06400099402447L103.20024024581909,40.824420275953834L103.2907423453331,16.86678711115021L103.38124444484711,122.74989633529131L103.49959334421158,132.9199168010522L103.68755924320222,168.84521526164139L103.84767834234238,151.80141274913063L104.06349104118347,165.77276513655676L104.07045274114608,49.043120920486196L104.07741444110871,-118.30243448393563L104.14703144073486,82.95067667869762L104.23753354024888,72.04195996612603L104.27930374002457,75.51087151597092L104.3767675395012,117.0233505592924L104.8640865368843,125.35837479811003L105.05205243587493,27.08130916562802L105.26786513471603,130.8322020110632L105.38621403408051,54.86958109484619L105.75518413209915,117.8700669518484L105.87353303146362,100.86471731412384L105.92226493120194,41.14228607697743L106.29819672918319,175.67756479475824L106.37477542877197,154.0871393680774L106.80640082645417,73.17713175920811L106.82728592634201,130.95864602165278L106.83424762630463,163.65256145664554L107.17537092447282,84.78009020157718L107.5234559226036,174.53280920279445L107.5652261223793,111.01625742899594L107.57218782234192,59.016315764223634L107.61395802211761,91.89781193862507L107.9133111205101,114.10229715495065L108.03166001987458,180.49027934300696L108.33101311826707,8.017269150441253L108.57467261695862,128.43391753413044L108.8322555155754,163.51988985965096L108.90187251520157,-92.20251159582541L108.91579591512681,138.895344796242L109.34742131280899,44.4317697065016L109.41703831243515,110.6793934883424L109.46577021217347,134.25941744573413L109.7929701104164,131.41486497431254L110.28725080776215,82.95699370133968L111.54731850099564,149.92692336274848L111.58212700080871,55.88384450969861L111.63782060050964,62.071749468405784L111.76313119983672,126.3600229963598L112.04159919834136,136.1545054096734L112.20867999744415,145.100812207615L112.25045019721985,82.33190971867876L112.25741189718246,47.892311907421295L112.4941096959114,159.7128293116404L112.57068839550018,104.3693751157898L112.86307979393005,141.67749901718423L112.90484999370574,94.45260041615654L112.96054359340668,114.52931282260931L113.68456038951874,131.69336000232698L113.69152208948135,136.69907795025537L114.13010918712615,86.22775220711561L114.19972618675233,188.4086342746482L114.2345346865654,-16.612096055430847L114.47123248529435,71.44182398644796L114.50604098510742,123.14383942390145L114.59654308462142,112.4296606485515L114.61046648454666,90.7577823457169L115.04905358219148,130.1397960777116L115.4110619802475,163.38731711323425L115.64079807901382,76.26743618152177L116.23254257583618,120.52963704190782L116.51101057434082,157.30566240421172L116.65024457359314,97.24328402981669L116.71289987325669,50.9161793270746L116.85909557247163,164.22975468792018L117.07490827131271,175.472035614713L117.08883167123794,106.79949889313306L117.2837592701912,46.99427794344664L117.42299326944352,141.03343572357488L117.48564856910706,180.2912295829817L117.52741876888274,-25.018876399431555L118.03562286615372,51.68135811441009L118.1539717655182,170.81982145471068L118.53686526346208,88.18463590372635L118.87798856163025,163.17772564515616L119.56719685792923,0.5512450487306965L119.5950436577797,136.4827363998608L119.9848988556862,146.1385455739528L120.23552005434037,133.69290949120875L120.45133275318146,135.19892158070476L120.46525615310668,136.5381586238457L120.54879655265809,158.45588302097985L120.8133411512375,40.570779107514745L121.09180914974213,125.27435180693199L121.1196559495926,85.40552251484579L121.13357934951782,108.92519113370052L121.27977504873276,131.14472988088252L121.28673674869538,13.959299771826634L121.39116224813462,26.11285593285655L121.474702647686,138.17126431344298L121.66266854667664,123.95112855740379L121.67659194660187,141.83751927405245L121.69051534652709,111.80066971448008L122.20568114376069,171.9211722286547L122.53288104200364,105.44132019640668L122.86008094024658,127.24438733756803L123.27778293800354,124.23404832556993L123.79294873523712,125.59485362336507L123.85560403490067,48.199633646806845L124.62139103078842,-63.45501248776905L124.64923783063888,78.61216247393776L124.9207441291809,39.5576830709151L125.11567172813415,137.2559738628768L125.14351852798463,116.34817286951011L125.28971422719955,39.060982453037944L125.38021632671355,52.63164166953747L125.47768012619018,26.242999779360215L125.64476092529297,139.20927540283282L125.95107572364806,127.11272778220388L126.6193989200592,151.17005881553138L127.0510243177414,84.28583731229456L127.12760301733017,159.24832573912224L127.42695611572266,151.78826091510535L127.74023261404038,157.09102955666296L128.0117389125824,93.45096163224754L128.22058991146088,143.71682880289768L128.47817281007767,111.20255781806287L128.94460670757294,194.1441825139876L129.13953430652617,81.91607828782898L129.1952279062271,148.6700335581324L129.64773840379715,141.10788903738234L129.78001070308684,160.72357647022338L129.79393410301208,148.19117782314353L129.81481920289994,53.148846721564304L129.90532130241394,138.58518463312086L130.43441049957275,155.4461935984934L130.89388269710543,131.88762492366692L131.09577199602128,105.14063556724865L131.22108259534835,163.62528340432752L131.5065122938156,92.97753326470003L131.68751649284363,6.062569580884096L132.0704099907875,148.64810755852977L132.13306529045104,143.56259836558965L132.31406948947907,100.16638034610087L132.59253748798372,-13.844863564574535L133.3722478837967,117.35201460915424L133.50452018308638,104.1290458251687L133.58109888267518,99.54172942311436L133.70640948200227,161.6402084643462L134.0684178800583,135.2733984303641L134.11714977979662,164.18312545819413L134.70193257665633,168.07084807773563L134.73674107646943,110.85338933405137L134.78547297620773,115.78020569216875L135.05001757478715,-19.985235516843886L135.09178777456282,174.95982016328276L135.18925157403945,175.5377524203061L135.2449451737404,18.260938003875616L135.251906873703,105.71459967964661L135.7253024711609,152.63003948593888L135.9968087697029,113.85134848796555L136.2892001681328,126.05031942876494L136.60943836641312,112.49416771135846L136.76259576559067,4.559344136249566L137.45876576185225,135.71769882763655L137.5631912612915,143.5609508559587L137.97393155908586,161.3369960846972L138.19670595788958,-15.855013601138834L138.28720805740355,120.87257323234398L138.315054857254,139.86818981897252L138.68402495527266,167.95512229408786L138.71187175512313,45.3745029603489L138.8162972545624,94.7840981825836L139.36627155160903,142.13136909182728L139.68650974988938,24.15107677905671L139.693471449852,105.37273672405577L139.72131824970245,145.5581702955053L139.9997862482071,140.4733860068028L140.0972500476837,-153.55432044363275L140.19471384716033,109.72513708141926L140.29913934659956,94.28117468547187L140.45925844573972,156.74553266554327L140.52191374540328,138.88575629018993L140.6193775448799,109.7126724942686L141.4478198404312,-9.200091440933695L141.55920703983307,120.26499992347478L141.6566708393097,69.12749660030802L141.75413463878633,176.76035990308748L141.81678993844986,-124.3049804876507L142.15095153665544,79.61417783147672L142.26233873605727,109.12964237173006L142.30410893583297,115.24615838454334L142.4085344352722,2.1842189375574868L142.4503046350479,163.31301913604912L142.64523223400116,7.993526183074175L143.48063622951508,125.67737973436417L143.67556382846834,74.693170121601L143.8844148273468,82.4641529631693L144.19072962570192,67.141268403585L144.26034662532805,171.6849052260665L144.44831252431868,193.3518339392527L144.52489122390747,144.90907974393636L144.7546273226738,46.619568352985176L144.8103209223747,77.05711108348416L144.94259322166442,42.38866947731846L145.0191719212532,84.57480108722105L145.31156331968307,112.48330356213498L145.64572491788863,88.27409096951614L145.65268661785126,100.15754969447902L146.41847361373902,77.22671043206371L146.7247884120941,141.3969281270348L147.01021811056137,139.95830859578507L147.0659117102623,164.61011759000095L147.48361370801925,134.61767076856765L147.49057540798185,8.138883604227008L147.8386604061127,185.79132516020763L147.8595455060005,127.05652416793687L147.87346890592573,129.1419136157611L147.91523910570143,110.58155965928668L148.3747113032341,70.71473562177987L148.6044474020004,144.16069143332535L148.92468560028078,117.11801175551597L149.05695789957045,125.04949969250102L149.0778429994583,177.31675685564923L149.1683450989723,100.82111950211873L150.39360429239272,184.68050826664125L150.40752769231796,179.9257531072091L150.47714469194415,147.9818170064138L151.28470188760755,96.1942628689218L151.31254868745805,101.87649534301873L152.001756983757,54.96427053409199L152.2245313825607,133.49158381430763L152.32199518203737,151.81814203264025L152.3428802819252,19.356786095652303L152.509961081028,146.22326522634623L152.78842907953262,145.1403241957354L152.81627587938308,80.97183873946197L153.1713225774765,170.04816089377005L153.26878637695313,120.55387896933455L153.53333097553252,189.2826663768852L153.55421607542038,197.65472074824345L153.68648837471008,154.02337603818958L153.9928031730652,57.45829885643434L154.0345733728409,123.76610851867864L154.0415350728035,133.49769372145323L154.15292227220536,140.18523657235102L154.23646267175675,99.5568959260598L154.75162846899033,-18.096003272849998L154.76555186891557,-75.56690077664722L154.89782416820526,45.652997988363346L154.9883262677193,180.33346231557834L155.05794326734542,158.93639567994043L155.11363686704635,159.977259314577L155.90030896282195,156.48040129422097L156.15789186143877,47.16575074583509L156.74267465829848,161.24548398545394L157.07683625650407,152.3919931729492L157.45276805448532,158.28898558819503L157.55719355392455,111.00319973837814L157.56415525388718,170.63338926487327L157.66858075332644,-44.60541232614566L157.8286998524666,155.17736709842737L157.94704875183106,186.99456734406988L158.0097040514946,60.53983852751137L158.24640185022352,117.31773699448989L158.50398474884034,196.85188106753722L159.2836951446533,184.74969896397045L159.29065684461594,135.5321515858295L159.3185036444664,175.38289122216793L159.6665886425972,120.14766899472947L159.78493754196165,189.93067427926806L159.86847794151308,176.41793208705172L160.1539076399803,-29.157834823350928L160.17479273986817,135.26269432493334L160.3627586388588,192.43814392661375L160.8779244360924,199.0317975572293L160.96146483564377,173.63915290726774L161.0171584353447,114.14258111901233L161.04500523519516,119.19520131254848L161.07285203504563,141.624034976075L161.56017103242874,126.94878645241404L162.04052832984922,111.82798071699072L162.43038352775574,146.10846675526219L162.52088562726973,128.44974304092824L162.9385876250267,116.97452778817204L163.02212802457808,184.02267179251723L163.1056684241295,85.71821042845785L163.2100939235687,182.622735787402L163.3771747226715,123.46973565758329L163.46767682218552,125.82035532730768L163.53033212184909,98.46811800418503L163.75310652065275,168.34203287015904L164.40750631713868,176.6995338475131L164.44231481695175,190.45425754715188L164.53281691646575,158.82907690258085L164.60939561605454,138.5010345483427L165.39606771183014,144.5778032145169L165.40302941179277,151.077148686687L165.44479961156844,196.5837418143458L165.46568471145628,38.742118731895026L165.5492251110077,85.39133510333818L165.65365061044693,126.07440131239895L166.3707057065964,176.70602974262937L166.41247590637207,161.36180287256883L167.01814380311964,134.07740058170765L167.33142030143736,56.642546230599315L167.35230540132522,181.93044517972456L167.77000739908217,140.35847456362978L167.83962439870834,174.21294285436184L167.86747119855883,176.5008606611178L167.87443289852143,144.87933984151266L168.53579439496994,156.91291493687663L168.54971779489517,183.74792602570577L169.01615169239045,173.30163937710256L169.3015813908577,122.68869370608702L169.6496663889885,80.10210428377653L169.70535998868942,181.79576832815061L169.80978548812865,179.87589475860642L169.90724928760528,92.29203745745765L170.0047130870819,180.34378514020875L170.38064488506316,51.64006681588831L170.54772568416598,158.88189606134887L170.5686107840538,196.1605695512976L170.88188728237154,116.59047917168832L171.37616797971725,66.85453582741584L171.48755517911908,132.24500271281087L171.63375087833404,134.32698416928423L171.68248277807234,104.06867165795025L172.3925761742592,177.7374790365177L172.40649957418444,156.3474190239817L172.93558877134325,140.60293204266895L173.07482277059555,54.534901281246235L173.3115205693245,104.55635333739059L173.42290776872633,184.05436046347577L173.49948646831513,147.78869122030437L173.91022676610947,77.01682711942244L173.9171884660721,132.0208378452545L173.94503526592257,108.17001979058043L174.03553736543654,128.10231620995518L174.13996286487577,130.07030882864882L174.56462656259535,147.44622574690564L174.9753668603897,161.8301333746012L176.20758775377274,139.39824005033148L176.35378345298767,180.54385870979036L176.56263445186616,139.31381694967166L176.78540885066988,43.17525647551544L176.84806415033339,206.8700864627883L176.98033644962308,129.75892950840077L177.1056470489502,193.5102914155567L177.47461714696885,191.77462354426294L177.61385114622115,73.69562657591746L177.7670085453987,176.52724199747956L177.92712764453887,162.4398296173091L178.04547654390336,144.37739543583874L178.0663616437912,197.4290954810785L178.08724674367906,186.1770895402927L178.34482964229582,75.35182564337015L178.53975724124908,137.77744361126258L178.66506784057617,95.74171550915386L178.67899124050143,88.81526493308799L179.3333910369873,165.8613870331903L179.52135693597793,132.75069402610262L179.70236113500596,148.10894355670766L179.87640363407135,178.09327521641595L179.8972887339592,136.27905243060226L180.6352289299965,134.98606333638705L180.66307572984695,157.15170027561499L180.76750122928618,181.05448313763418L180.78142462921141,135.75698487157894L180.8162331290245,159.68716581876072L180.8580033288002,119.20840963261824L180.94850542831423,-28.023990452314347L181.00419902801514,112.2121611342449L181.25482022666932,107.07317377868443L181.36620742607116,157.99856259045256L181.90225832319257,21.82729739480554L182.05541572237016,118.15872946787097L182.15287952184676,-124.04480576673232L182.20857312154772,-29.744385909329292L182.2503433213234,127.25003594201695L182.4313475203514,140.58419750457995L182.45919432020185,186.7724830458189L182.62627511930467,-75.9088861186678L182.70285381889343,175.19807829893924L182.8629729180336,111.36358070222077L182.946513317585,170.086434896082L183.1692877163887,100.0355774957448L183.71926201343535,121.07279743137752L183.92115131235124,107.62699120188118L184.24138951063156,146.1192320539078L185.05590840625763,104.2348347721567L185.06983180618286,147.09223712043107L185.1324871058464,203.12636736452077L185.16033390569686,61.43180024170341L185.1672956056595,-61.63555933740109L185.2160275053978,94.58683008654498L185.32741470479965,99.02308397695305L185.71030820274353,139.09586554700914L185.72423160266877,149.60419034755807L186.01662300109865,155.96179821259304L186.11408680057525,161.85878121349808L186.6570993976593,137.2258338509713L186.70583129739762,149.61510627565565L186.88683549642562,173.41299219947274L188.40448608827592,161.20636739964502L188.57156688737868,125.63637086606481L188.7595327863693,175.42552171066114L188.91269018554686,184.46356890560918L188.98230718517303,114.55191665474584L189.0936943845749,157.7301644428906L189.56012828207017,147.31292338908094L189.86644308042526,92.32679520350014L189.93606008005142,111.6215242243818L189.94998347997665,190.6632370830813L189.99871537971498,158.480520350718L190.1031408791542,193.84368146447414L190.59742157649993,27.492697027644645L190.61134497642516,77.20618716923256L190.86892787504195,114.07597465821856L191.20308947324753,172.90017893740497L191.5442127714157,201.33085252909046L191.91318286943437,189.60245976417698L192.17076576805115,135.5499352755029L192.4561954665184,19.013332116474995L192.85301236438752,130.56336609665644L193.22894416236878,47.00841828325049L193.39602496147157,135.07562195992506L193.40298666143417,162.79423718194698L194.37762465620042,98.75412567611657L194.56559055519105,170.0742339104723L194.80925005388258,146.9154169724976L194.8510202536583,158.16181196619743L194.87886705350877,116.24564128442104L195.29656905126572,50.98288934561665L195.3313775510788,188.9454329233573L195.4218796505928,154.07234473159156L195.58199874973297,194.2612804377994L196.75156434345246,189.40904684067476L197.00218554210664,160.04433178523783L197.15534294128418,129.9448533238378L197.22495994091034,167.13061433135698L197.55912153911592,162.0215975295685L197.75404913806915,155.48470766649444L197.76101083803178,172.93447067358045L198.40844893455505,173.78494809526535L198.67299353313447,148.46305456961196L199.0280402312279,136.34121532256287L199.04196363115312,132.43782724001633L199.29258482980725,184.58412895323116L199.41789542913438,63.73090463885343L199.4387805290222,136.0357152581121L199.92609952640532,182.95252249739804L200.61530782270432,89.08120123054427L201.37413311862943,177.44187109060815L202.37661791324615,194.76291181664348L202.41838811302185,170.74104695849977L202.73166461133957,46.05915147692392L203.42087290763857,154.1540000160714L203.84553660535812,176.74931217421943L204.0126174044609,134.20364689114152L204.36766410255433,175.2445710207244L204.5208215017319,187.11859892984276L204.61132360124586,151.42306922314035L204.91763839960097,26.465234707063175L205.15433619832993,139.27996298034097L205.18218299818037,144.52890042150017L205.30053189754486,135.38490188218626L205.3144552974701,114.13393875420547L206.1080890932083,159.09240542764988L206.24732309246065,170.52600458712848L206.31694009208678,127.26374322214639L206.49098259115218,77.29538804782213L206.7903356895447,149.27754567378673L206.8877994890213,72.48275822864014L207.16626748752594,135.49445656547354L207.5839694852829,152.72470068216242L207.65358648490906,99.08970926642834L207.73016518449785,177.01200523128796L207.980786383152,195.95754340909883L208.0295182828903,155.22435407310184L208.17571398210526,127.1622378001989L208.4193734807968,161.4993181478784L208.55860748004915,192.89391334450272L208.57253087997435,93.07854914092863L208.69087977933884,204.09944303859967L208.78834357881544,83.60183838523116L209.21996897649765,152.58461999899896L209.2338923764229,166.07498430325677L209.630709274292,191.38329528879564L209.70032627391817,95.1972559406609L210.06233467197418,151.45381646002411L210.15283677148818,118.19672574713086L210.5844621691704,163.85305867156083L210.75154296827316,161.69379018471477L211.62175546360015,174.77747850450046L211.9419936618805,159.30693471745042L212.10211276102066,183.2989914192L213.11155925559996,208.0004116355739L213.36914215421677,134.57182292912373L213.45268255376817,174.3946208021214L213.6336867527962,133.6799459439984L213.74507395219803,192.68470315722496L213.75899735212326,142.7768445365489L213.8146909518242,203.02060783734763L213.82861435174942,141.7011666698253L214.12100575017928,168.28001119330963L214.5178226480484,185.84147064620316L214.62224814748762,111.82162603698566L214.62920984745026,-160.88202905107013L214.99817994546888,-161.11252976995002L215.1652607445717,144.19943615267476L215.23487774419783,152.1571712716659L215.31841814374926,133.13525101698673L215.74308184146884,190.0248153331653L216.20255403900146,141.51281866164564L216.26520933866502,140.89227239122536L216.48798373746874,-11.427995179004771L216.55063903713224,155.11634804886768L216.6063326368332,179.1441109914901L216.66202623653413,69.90537533331288L216.87783893537522,109.04657964330833L216.89176233530043,115.44738050369622L217.08668993425368,196.32971583472866L217.44173663234713,181.46385633073066L217.643625931263,68.10526865318258L217.6575493311882,137.5395479277249L217.83159183025361,123.40875897255694L217.9220939297676,201.22404918688684L217.93601732969285,174.68141457150543L217.9986726293564,177.96681473073005L218.4372597270012,186.12788548837207L218.7435745253563,112.70007817220397L218.77838302516935,83.5480260135142L219.2308935227394,163.0135677855291L219.64163382053374,176.2698092033041L219.89921671915056,166.7019417397266L219.9340252189636,107.68367494752633L219.9688337187767,135.4698851361206L220.03845071840286,124.77321703456242L220.19856981754302,177.63025440256564L220.30995701694488,194.44541317490905L220.55361651563643,143.2908345912102L220.6232335152626,155.82769092863435L220.63715691518783,-98.14239574752018L220.66500371503832,118.81617995402432L220.69285051488876,183.2490248056787L220.91562491369245,171.63451026004117L221.05485891294478,198.79661673420495L221.47952261066436,158.0612950500285L221.486484310627,145.53338704348553L221.4934460105896,79.37085478049771L222.17569260692596,139.5822009757225L222.56554780483248,54.65224162433231L222.87186260318757,154.15846241358608L222.9762881026268,117.61539962026774L223.10856040191652,170.56646271649402L223.18513910150529,53.9487455975793L223.498415599823,165.93769967929555L223.6306878991127,170.03517851787822L223.74903679847716,125.73563567491428L223.9370026974678,185.82154990117985L224.91860239219665,151.7666597102585L225.329342689991,184.2080542833612L225.52427028894425,162.51616109209584L225.8514701871872,64.79385902405576L225.87235528707504,137.23967763904156L225.9350105867386,163.14640413348678L226.40144448423385,191.21358296812713L226.5128316836357,176.76340073514916L226.5546018834114,162.3253888911735L227.13242298030852,169.3431444509862L227.16026978015898,126.06115533496617L227.3064654793739,208.21673906445736L227.6823972773552,111.0028419934297L228.19060137462617,173.59939143911754L228.28806517410277,201.5236605811996L228.51780127286912,149.19255771268197L228.57349487257005,125.84768515849983L228.60134167242052,168.68972330267306L228.62918847227095,168.36139816907817L228.99815857028963,161.35489745363L229.01208197021484,175.1542121782228L229.1582776694298,149.148395040232L229.54813286733628,114.36756503421378L229.7778689661026,181.01060760257698L230.04937526464462,100.9569401960936L230.44619216251374,194.34575531733338L231.14932385873794,206.72214421670375L231.28159615802764,102.94183155643036L232.2075022530556,164.4574875906201L232.2631958527565,162.60466530947002L232.43027665185926,88.54862256007556L232.67393615055084,204.8155895857331L232.86190204954147,169.79559296017626L232.88278714942933,180.9260338724652L232.93848074913026,186.81652333183916L233.05682964849473,175.11808935277182L233.07771474838256,81.06654700738926L233.32137424707415,141.25208378745276L233.45364654636384,202.9750318369928L233.80869324445723,85.9692720675319L233.9061570439339,126.21656727203815L234.01754424333572,171.080372749259L234.10804634284972,78.65046942644236L235.24976513671874,175.83536326720989L235.26368853664397,81.28270968530961L235.68139053440095,167.2586211225108L235.87631813335418,185.37080538766526L236.50287112998964,207.3674649131993L236.51679452991488,162.21233678029824L236.586411529541,193.95990856176675L237.094615626812,85.12923985690716L237.52624102449417,185.1648996339901L237.57497292423247,132.16133746658124L237.81167072296142,164.2468323020375L238.5008790192604,176.40621593999055L238.8559257173538,161.74700474579421L239.12743201589583,177.04981322373285L239.1552788157463,162.72324834553487L239.51032551383972,81.28997755636726L239.69829141283034,148.30361329469977L239.91410411167146,204.26678765256997L239.94891261148453,176.89281732383003L240.1090317106247,192.98041701446797L240.21345721006392,175.63041542270588L240.3248444094658,142.6656564651418L240.6311592078209,163.04324649473793L241.01405270576478,181.340770886203L241.12543990516662,167.22299725711946L241.36909940385817,168.84008444593357L241.41086960363387,170.54757754895306L241.49441000318527,169.4326277597982L241.6684525022507,-5.028408768573404L242.0861545000076,112.10293595288383L242.1557714996338,154.2651927946489L242.2045033993721,192.89883939829923L242.32285229873656,185.28354150968462L242.48297139787672,156.16865481468372L242.60132029724122,158.52903244859368L242.6848606967926,189.26500978081188L242.78232449626924,153.98571396802623L243.06079249477386,140.65649022718569L243.40191579294205,171.2977216341136L243.4784944925308,153.85068407867422L243.6525369915962,188.39420209028114L244.04239218950272,90.55121288101903L244.12593258905412,187.47499292037853" fill="none"></path></g></g></g></g></g></g><g transform="translate(51, 176)" clip-path="url(#clip_1)"><clipPath id="clip_1"><rect width="278" height="23"></rect></clipPath><g><g><line x1="0" y1="0" x2="0" y2="5" style="visibility: inherit;" fill="rgb(0, 0, 0)" stroke="rgb(204, 204, 204)" stroke-width="1px"></line><line x1="34.808499813079834" y1="0" x2="34.808499813079834" y2="5" style="visibility: inherit;" fill="rgb(0, 0, 0)" stroke="rgb(204, 204, 204)" stroke-width="1px"></line><line x1="69.61699962615967" y1="0" x2="69.61699962615967" y2="5" style="visibility: inherit;" fill="rgb(0, 0, 0)" stroke="rgb(204, 204, 204)" stroke-width="1px"></line><line x1="104.4254994392395" y1="0" x2="104.4254994392395" y2="5" style="visibility: inherit;" fill="rgb(0, 0, 0)" stroke="rgb(204, 204, 204)" stroke-width="1px"></line><line x1="139.23399925231934" y1="0" x2="139.23399925231934" y2="5" style="visibility: inherit;" fill="rgb(0, 0, 0)" stroke="rgb(204, 204, 204)" stroke-width="1px"></line><line x1="174.04249906539917" y1="0" x2="174.04249906539917" y2="5" style="visibility: inherit;" fill="rgb(0, 0, 0)" stroke="rgb(204, 204, 204)" stroke-width="1px"></line><line x1="208.850998878479" y1="0" x2="208.850998878479" y2="5" style="visibility: inherit;" fill="rgb(0, 0, 0)" stroke="rgb(204, 204, 204)" stroke-width="1px"></line><line x1="243.65949869155884" y1="0" x2="243.65949869155884" y2="5" style="visibility: inherit;" fill="rgb(0, 0, 0)" stroke="rgb(204, 204, 204)" stroke-width="1px"></line><line x1="278.4679985046387" y1="0" x2="278.4679985046387" y2="5" style="visibility: inherit;" fill="rgb(0, 0, 0)" stroke="rgb(204, 204, 204)" stroke-width="1px"></line></g><g transform="translate(0, 8)"><text style="text-anchor: middle; visibility: hidden; font-family: Roboto, sans-serif; font-size: 12px; font-weight: 200;" x="0" y="0" dx="0em" dy="0.95em" fill="rgb(33, 33, 33)" stroke="none" stroke-width="1px">-5k</text><text style="text-anchor: middle; visibility: inherit; font-family: Roboto, sans-serif; font-size: 12px; font-weight: 200;" x="34.808499813079834" y="0" dx="0em" dy="0.95em" fill="rgb(33, 33, 33)" stroke="none" stroke-width="1px">0</text><text style="text-anchor: middle; visibility: inherit; font-family: Roboto, sans-serif; font-size: 12px; font-weight: 200;" x="69.61699962615967" y="0" dx="0em" dy="0.95em" fill="rgb(33, 33, 33)" stroke="none" stroke-width="1px">5k</text><text style="text-anchor: middle; visibility: inherit; font-family: Roboto, sans-serif; font-size: 12px; font-weight: 200;" x="104.4254994392395" y="0" dx="0em" dy="0.95em" fill="rgb(33, 33, 33)" stroke="none" stroke-width="1px">10k</text><text style="text-anchor: middle; visibility: inherit; font-family: Roboto, sans-serif; font-size: 12px; font-weight: 200;" x="139.23399925231934" y="0" dx="0em" dy="0.95em" fill="rgb(33, 33, 33)" stroke="none" stroke-width="1px">15k</text><text style="text-anchor: middle; visibility: inherit; font-family: Roboto, sans-serif; font-size: 12px; font-weight: 200;" x="174.04249906539917" y="0" dx="0em" dy="0.95em" fill="rgb(33, 33, 33)" stroke="none" stroke-width="1px">20k</text><text style="text-anchor: middle; visibility: inherit; font-family: Roboto, sans-serif; font-size: 12px; font-weight: 200;" x="208.850998878479" y="0" dx="0em" dy="0.95em" fill="rgb(33, 33, 33)" stroke="none" stroke-width="1px">25k</text><text style="text-anchor: middle; visibility: inherit; font-family: Roboto, sans-serif; font-size: 12px; font-weight: 200;" x="243.65949869155884" y="0" dx="0em" dy="0.95em" fill="rgb(33, 33, 33)" stroke="none" stroke-width="1px">30k</text><text style="text-anchor: middle; visibility: hidden; font-family: Roboto, sans-serif; font-size: 12px; font-weight: 200;" x="278.4679985046387" y="0" dx="0em" dy="0.95em" fill="rgb(33, 33, 33)" stroke="none" stroke-width="1px">35k</text></g><line x1="0" y1="0" x2="278.4679985046387" y2="0" fill="rgb(0, 0, 0)" stroke="rgb(204, 204, 204)" stroke-width="1px"></line></g></g></g></g></svg>