<svg viewBox="0 0 330 200" xmlns="http://www.w3.org/2000/svg"><g><g><g><g><g><line x1="51.53200149536133" y1="176.89999961853027" x2="46.53200149536133" y2="176.89999961853027" style="visibility: inherit;" fill="rgb(0, 0, 0)" stroke="rgb(204, 204, 204)" stroke-width="1px"></line><line x1="51.53200149536133" y1="159.20999965667724" x2="46.53200149536133" y2="159.20999965667724" style="visibility: inherit;" fill="rgb(0, 0, 0)" stroke="rgb(204, 204, 204)" stroke-width="1px"></line><line x1="51.53200149536133" y1="141.5199996948242" x2="46.53200149536133" y2="141.5199996948242" style="visibility: inherit;" fill="rgb(0, 0, 0)" stroke="rgb(204, 204, 204)" stroke-width="1px"></line><line x1="51.53200149536133" y1="123.82999973297119" x2="46.53200149536133" y2="123.82999973297119" style="visibility: inherit;" fill="rgb(0, 0, 0)" stroke="rgb(204, 204, 204)" stroke-width="1px"></line><line x1="51.53200149536133" y1="106.13999977111814" x2="46.53200149536133" y2="106.13999977111814" style="visibility: inherit;" fill="rgb(0, 0, 0)" stroke="rgb(204, 204, 204)" stroke-width="1px"></line><line x1="51.53200149536133" y1="88.44999980926514" x2="46.53200149536133" y2="88.44999980926514" style="visibility: inherit;" fill="rgb(0, 0, 0)" stroke="rgb(204, 204, 204)" stroke-width="1px"></line><line x1="51.53200149536133" y1="70.75999984741209" x2="46.53200149536133" y2="70.75999984741209" style="visibility: inherit;" fill="rgb(0, 0, 0)" stroke="rgb(204, 204, 204)" stroke-width="1px"></line><line x1="51.53200149536133" y1="53.06999988555905" x2="46.53200149536133" y2="53.06999988555905" style="visibility: inherit;" fill="rgb(0, 0, 0)" stroke="rgb(204, 204, 204)" stroke-width="1px"></line><line x1="51.53200149536133" y1="35.379999923706045" x2="46.53200149536133" y2="35.379999923706045" style="visibility: inherit;" fill="rgb(0, 0, 0)" stroke="rgb(204, 204, 204)" stroke-width="1px"></line><line x1="51.53200149536133" y1="17.689999961853005" x2="46.53200149536133" y2="17.689999961853005" style="visibility: inherit;" fill="rgb(0, 0, 0)" stroke="rgb(204, 204, 204)" stroke-width="1px"></line><line x1="51.53200149536133" y1="0" x2="46.53200149536133" y2="0" style="visibility: inherit;" fill="rgb(0, 0, 0)" stroke="rgb(204, 204, 204)" stroke-width="1px"></line></g><g transform="translate(41.53200149536133, 0)"><text style="text-anchor: end; visibility: hidden; font-family: Roboto, sans-serif; font-size: 12px; font-weight: 200;" x="0" y="176.89999961853027" dx="0em" dy="0.3em" fill="rgb(33, 33, 33)" stroke="none" stroke-width="1px">0.45</text><text style="text-anchor: end; visibility: inherit; font-family: Roboto, sans-serif; font-size: 12px; font-weight: 200;" x="0" y="159.20999965667724" dx="0em" dy="0.3em" fill="rgb(33, 33, 33)" stroke="none" stroke-width="1px">0.5</text><text style="text-anchor: end; visibility: hidden; font-family: Roboto, sans-serif; font-size: 12px; font-weight: 200;" x="0" y="141.5199996948242" dx="0em" dy="0.3em" fill="rgb(33, 33, 33)" stroke="none" stroke-width="1px">0.55</text><text style="text-anchor: end; visibility: inherit; font-family: Roboto, sans-serif; font-size: 12px; font-weight: 200;" x="0" y="123.82999973297119" dx="0em" dy="0.3em" fill="rgb(33, 33, 33)" stroke="none" stroke-width="1px">0.6</text><text style="text-anchor: end; visibility: hidden; font-family: Roboto, sans-serif; font-size: 12px; font-weight: 200;" x="0" y="106.13999977111814" dx="0em" dy="0.3em" fill="rgb(33, 33, 33)" stroke="none" stroke-width="1px">0.65</text><text style="text-anchor: end; visibility: inherit; font-family: Roboto, sans-serif; font-size: 12px; font-weight: 200;" x="0" y="88.44999980926514" dx="0em" dy="0.3em" fill="rgb(33, 33, 33)" stroke="none" stroke-width="1px">0.7</text><text style="text-anchor: end; visibility: hidden; font-family: Roboto, sans-serif; font-size: 12px; font-weight: 200;" x="0" y="70.75999984741209" dx="0em" dy="0.3em" fill="rgb(33, 33, 33)" stroke="none" stroke-width="1px">0.75</text><text style="text-anchor: end; visibility: inherit; font-family: Roboto, sans-serif; font-size: 12px; font-weight: 200;" x="0" y="53.06999988555905" dx="0em" dy="0.3em" fill="rgb(33, 33, 33)" stroke="none" stroke-width="1px">0.8</text><text style="text-anchor: end; visibility: hidden; font-family: Roboto, sans-serif; font-size: 12px; font-weight: 200;" x="0" y="35.379999923706045" dx="0em" dy="0.3em" fill="rgb(33, 33, 33)" stroke="none" stroke-width="1px">0.85</text><text style="text-anchor: end; visibility: inherit; font-family: Roboto, sans-serif; font-size: 12px; font-weight: 200;" x="0" y="17.689999961853005" dx="0em" dy="0.3em" fill="rgb(33, 33, 33)" stroke="none" stroke-width="1px">0.9</text><text style="text-anchor: end; visibility: hidden; font-family: Roboto, sans-serif; font-size: 12px; font-weight: 200;" x="0" y="0" dx="0em" dy="0.3em" fill="rgb(33, 33, 33)" stroke="none" stroke-width="1px">0.95</text></g><line x1="51.53200149536133" y1="0" x2="51.53200149536133" y2="176.89999961853027" fill="rgb(0, 0, 0)" stroke="rgb(204, 204, 204)" stroke-width="1px"></line></g></g><g transform="translate(51, 0)" clip-path="url(#clip_0)"><clipPath id="clip_0"><rect width="278" height="176"></rect></clipPath><g><g><g><line x1="0" y1="0" x2="0" y2="176.89999961853027" fill="rgb(0, 0, 0)" stroke="rgb(66, 66, 66)" stroke-width="1px" opacity="0.25"></line><line x1="34.808499813079834" y1="0" x2="34.808499813079834" y2="176.89999961853027" fill="rgb(0, 0, 0)" stroke="rgb(66, 66, 66)" stroke-width="1px" opacity="0.25"></line><line x1="69.61699962615967" y1="0" x2="69.61699962615967" y2="176.89999961853027" fill="rgb(0, 0, 0)" stroke="rgb(66, 66, 66)" stroke-width="1px" opacity="0.25"></line><line x1="104.4254994392395" y1="0" x2="104.4254994392395" y2="176.89999961853027" fill="rgb(0, 0, 0)" stroke="rgb(66, 66, 66)" stroke-width="1px" opacity="0.25"></line><line x1="139.23399925231934" y1="0" x2="139.23399925231934" y2="176.89999961853027" fill="rgb(0, 0, 0)" stroke="rgb(66, 66, 66)" stroke-width="1px" opacity="0.25"></line><line x1="174.04249906539917" y1="0" x2="174.04249906539917" y2="176.89999961853027" fill="rgb(0, 0, 0)" stroke="rgb(66, 66, 66)" stroke-width="1px" opacity="0.25"></line><line x1="208.850998878479" y1="0" x2="208.850998878479" y2="176.89999961853027" fill="rgb(0, 0, 0)" stroke="rgb(66, 66, 66)" stroke-width="1px" opacity="0.25"></line><line x1="243.65949869155884" y1="0" x2="243.65949869155884" y2="176.89999961853027" fill="rgb(0, 0, 0)" stroke="rgb(66, 66, 66)" stroke-width="1px" opacity="0.25"></line><line x1="278.4679985046387" y1="0" x2="278.4679985046387" y2="176.89999961853027" fill="rgb(0, 0, 0)" stroke="rgb(66, 66, 66)" stroke-width="1px" opacity="0.25"></line></g><g><line x1="0" y1="176.89999961853027" x2="278.4679985046387" y2="176.89999961853027" fill="rgb(0, 0, 0)" stroke="rgb(66, 66, 66)" stroke-width="1px" opacity="0.25"></line><line x1="0" y1="159.20999965667724" x2="278.4679985046387" y2="159.20999965667724" fill="rgb(0, 0, 0)" stroke="rgb(66, 66, 66)" stroke-width="1px" opacity="0.25"></line><line x1="0" y1="141.5199996948242" x2="278.4679985046387" y2="141.5199996948242" fill="rgb(0, 0, 0)" stroke="rgb(66, 66, 66)" stroke-width="1px" opacity="0.25"></line><line x1="0" y1="123.82999973297119" x2="278.4679985046387" y2="123.82999973297119" fill="rgb(0, 0, 0)" stroke="rgb(66, 66, 66)" stroke-width="1px" opacity="0.25"></line><line x1="0" y1="106.13999977111814" x2="278.4679985046387" y2="106.13999977111814" fill="rgb(0, 0, 0)" stroke="rgb(66, 66, 66)" stroke-width="1px" opacity="0.25"></line><line x1="0" y1="88.44999980926514" x2="278.4679985046387" y2="88.44999980926514" fill="rgb(0, 0, 0)" stroke="rgb(66, 66, 66)" stroke-width="1px" opacity="0.25"></line><line x1="0" y1="70.75999984741209" x2="278.4679985046387" y2="70.75999984741209" fill="rgb(0, 0, 0)" stroke="rgb(66, 66, 66)" stroke-width="1px" opacity="0.25"></line><line x1="0" y1="53.06999988555905" x2="278.4679985046387" y2="53.06999988555905" fill="rgb(0, 0, 0)" stroke="rgb(66, 66, 66)" stroke-width="1px" opacity="0.25"></line><line x1="0" y1="35.379999923706045" x2="278.4679985046387" y2="35.379999923706045" fill="rgb(0, 0, 0)" stroke="rgb(66, 66, 66)" stroke-width="1px" opacity="0.25"></line><line x1="0" y1="17.689999961853005" x2="278.4679985046387" y2="17.689999961853005" fill="rgb(0, 0, 0)" stroke="rgb(66, 66, 66)" stroke-width="1px" opacity="0.25"></line><line x1="0" y1="0" x2="278.4679985046387" y2="0" fill="rgb(0, 0, 0)" stroke="rgb(66, 66, 66)" stroke-width="1px" opacity="0.25"></line></g></g></g><g><g><line x1="0" y1="336.10999927520754" x2="278.4679985046387" y2="336.10999927520754" fill="rgb(0, 0, 0)" stroke="rgb(153, 153, 153)" stroke-width="1.5px"></line></g></g><g><g><line x1="34.808499813079834" y1="0" x2="34.808499813079834" y2="176.89999961853027" fill="rgb(0, 0, 0)" stroke="rgb(153, 153, 153)" stroke-width="1.5px"></line></g></g><g><g><g><g><g><path style="fill: none;" stroke="rgb(0, 119, 187)" stroke-width="2px" d="M35.52555490922928,183.4835221350317L35.55340170907974,173.57946526907898L35.69959740829468,189.01515101526923L35.95021860694885,182.0812625801467L36.00591220664978,171.63676433621737L36.50715460395813,155.0004083921283L36.61158010339737,141.02503029136474L36.77169920253753,131.32851737506354L37.495715998649594,161.16981494456743L37.607103198051455,120.63632079058473L37.69760529756546,107.86850844804499L37.85076269674301,118.0502991063644L38.04569029569626,129.88993674840924L38.11530729532242,153.05139239736118L38.157077495098115,149.85991714188995L38.35896679401398,160.04811756347365L38.51908589315415,161.2240227226187L38.55389439296722,193.22978570577772L40.12723858451844,181.91088233396374L40.20381728410721,163.2538483032379L40.405706583023075,179.9317550674307L41.874625275135045,202.211417045025L41.95120397472382,172.34331774193296L42.02778267431259,160.6981123109663L42.26448047304153,181.45754402262304L42.689144170761104,191.21403082340143L42.82837817001342,150.21482658122957L42.91191856956482,154.98820612269745L42.995458969116214,140.09198348070643L43.05115256881714,134.5106184466229L43.287850367546085,113.32915517245334L43.524548166275025,131.54267675298382L43.53847156620025,149.42352871874968L43.62897366571427,169.85530812549322L43.65682046556473,173.60048097566232L44.3877989616394,118.74560788395625L44.67322866010666,129.71051042311623L44.951696658611304,143.05181277518213L44.95865835857391,133.6578177352581L45.209279557228086,142.49235467569846L45.32066675662995,152.92892985415867L45.34155185651779,126.3944986784749L45.58521135520935,148.14325913463597L45.6060964550972,147.83272100374748L45.70356025457382,160.5265852638017L46.135185652256006,168.76137226479463L46.190879251956936,135.77114046233632L46.4345387506485,152.4809650406935L46.65731314945221,160.2308476284164L46.719968449115754,134.7024440872577L47.66675964403152,128.42042744206026L47.757261743545534,131.03282186391908L48.02876804208755,135.39529507067058L48.09838504171371,128.7746843238147L48.3141977405548,134.58879211466535L48.45343173980712,128.33539958613366L48.460393439769746,128.6259318881342L49.21921873569488,145.63024125290687L49.28187403535843,119.91587509017748L49.35149103498458,144.2055441958997L49.42806973457336,139.59686593995843L50.186895030498505,144.70482252792132L50.95268202638626,139.35785415982818L51.2311500248909,117.33752933321978L51.76720092201233,98.22367545797977L51.80200942182541,95.2802329056082L51.892511521339415,82.0709282436754L51.948205121040345,73.37790663987543L51.969090220928194,84.79342962110728L52.10832422018051,98.90679102337523L52.2336348195076,96.50630703148074L52.33109861898423,99.14973558103911L52.748800616741185,91.09617336477082L52.7557623167038,106.9742080045637L52.90195801591873,127.15025817080702L53.09688561487198,151.44239919612315L53.1525792145729,146.7942396370739L53.20827281427383,136.29955812073092L53.49370251274109,136.64922634568975L53.556357812404634,140.3088978443523L53.66078331184387,146.37476921279588L53.72343861150742,121.43058707567437L53.97405981016159,138.66726992977402L53.98102151012421,133.9849997169814L54.078485309600836,142.3869758747013L54.1968342089653,143.50610882959484L54.38480010795593,142.48482532687424L54.60757450675964,126.04373451662411L54.72592340612412,114.69773866535594L55.5056338019371,123.63129373723638L56.27142079782486,138.38113166739183L56.278382497787476,102.57769108217887L56.417616497039795,114.76441115435698L56.42457819700241,110.73480113655916L56.529003696441656,73.50896899652192L56.70304619550705,81.83716540782527L57.07897799348831,110.01966520468672L57.204288592815395,85.4518516319699L57.371369391918186,60.38920571448018L57.538450191020964,71.3137588640054L57.55933529090881,60.2607974375175L58.17196488761902,79.2685763944947L58.50612648582459,79.80560999306373L58.902943383693696,93.8717157363093L59.05610078287125,91.0140688905103L59.11179438257217,82.16102125557877L59.17444968223572,73.17462928478382L59.355453881263735,93.82004805091717L59.63392187976837,106.5449304006978L59.65480697965622,119.52890927085126L59.87061967849731,89.62477608167426L59.982006877899174,74.78257213946901L60.24655147647857,40.14558016057892L60.26743657636643,70.43670389802838L60.29528337621689,82.09764194254419L60.3440152759552,96.61142203578372L60.36490037584305,80.42863704249713L60.49717267513275,94.45157970790868L60.650330074310304,91.10080741825314L60.99145337247848,85.12494257291304L61.13764907169342,56.13395063469218L61.59712126922608,69.67736795670473L61.611044669151305,100.32963613961864L61.97305306720734,90.87052964811829L62.06355516672134,120.40633595220099L62.18886576604843,128.414776115534L62.4812571644783,137.40255215664072L62.73884006309509,121.78499339517309L62.81541876268387,137.06195919261066L63.24008246040344,127.06219607401638L63.41412495946884,132.0782072344804L63.49766535902023,130.9085466033904L63.51855045890808,153.40791664002566L63.67170785808563,147.00357635602032L63.915367356777196,139.51123728259455L63.99194605636597,157.52505561498955L64.23560555505752,174.09910643245698L64.444456553936,166.97397666034104L64.86912025165557,158.9771484661541L64.93873725128174,160.4802078969416L65.81591144657135,147.53400510959037L66.37980914354324,148.93144891791866L66.4076559433937,122.28983779128431L66.58169844245911,122.84626971426518L66.91586004066468,111.51713998468983L67.17344293928146,90.23045138928407L67.45887263774871,92.80997207607082L67.47279603767394,76.79716145748736L67.51456623744964,49.9256602487447L67.57722153711319,71.10681826669507L67.73734063625335,63.581385882867636L68.0645405344963,62.41874821919096L68.44743403244019,101.50306836931252L68.46831913232803,104.10171541209907L68.47528083229065,99.36160280952998L68.53097443199158,112.67586302785324L68.79551903057099,111.72926101295481L68.99044662952423,117.64365848525524L69.12271892881394,122.44944039802459L69.26195292806625,111.92820792651538L69.47776562690734,108.70118622778152L70.16697392320633,93.03219521117946L70.22962922286986,90.65607082214999L70.2435526227951,75.1226991899979L70.53594402122498,97.18515091068382L70.56379082107544,115.38404457135768L70.66821632051467,107.07041583297992L70.69606312036515,136.97961257976138L70.91883751916885,115.47003984550349L71.00933961868286,113.57752996434296L71.18338211774825,132.2484536684334L71.27388421726228,101.83738934423667L71.37830971670151,100.30102858985668L71.44096501636506,108.16378066785019L71.67070111513138,100.7890935462165L71.83778191423417,87.34696567799448L71.858667014122,94.03807595356382L72.13713501262664,83.04819162053124L72.19282861232757,110.44911946304988L72.4225647110939,110.58858239298394L72.71495610952377,116.54678008609787L72.77761140918733,121.60609200315655L73.1605049071312,105.47145260680226L74.26045350122452,112.31200514768501L74.69904059886932,105.9407498106064L74.89396819782257,109.4652873323876L75.05408729696275,113.11910024224363L75.40913399505615,85.56214057697615L75.64583179378509,92.28997163267893L75.7363338932991,108.56558070109172L76.27238479042053,115.01114961644262L76.44642728948594,138.637578473314L76.55781448888779,130.09707993202392L76.64135488843918,134.71589897123667L76.94766968679427,148.8995055737365L77.351448284626,147.9188159533208L77.53941418361663,161.4804681278196L77.56726098346711,151.87763377787024L78.14508208036423,135.7200664237615L78.27039267969133,119.83371662410185L78.52101387834549,110.8380739354279L78.88998397636414,93.41781408614888L78.90390737628937,72.06387149724605L79.07098817539215,70.21613575588742L79.07794987535476,71.51601638832L79.11275837516786,53.4124684294819L79.14756687498092,57.12917391173456L80.25447716903687,54.061689332997496L80.37978776836395,63.20485357294756L80.41459626817704,66.69353546391852L80.50509836769105,71.982289043876L80.53990686750413,81.66076747726409L80.65129406690598,65.07929416146801L80.68610256671906,57.95802634944511L80.74875786638259,66.11664295888723L80.86014506578445,65.88460294335471L81.26392366361618,87.54492544028486L81.59112356185912,93.6160479993431L81.6607405614853,101.88145737032094L81.79997456073761,98.74855820926967L82.16198295879363,104.25705849472195L82.44045095729827,108.13866323051819L82.49614455699921,81.10187420150169L82.95561675453186,55.811257979088204L82.97650185441971,61.99375665199753L83.05308055400849,62.08308488260495L83.47774425172805,93.27236563991525L83.51255275154114,75.26067200578537L83.52647615146637,68.88411644667987L83.91633134937287,98.08966569739802L84.35491844701767,81.37863418968091L84.37580354690552,85.88950504947775L84.4175737466812,79.43409313217506L84.68211834526062,96.50720646343524L84.9814714436531,92.8006271876525L85.30170964193344,66.90357757256119L85.44790534114838,80.60190268387848L85.68460313987731,59.11367195707137L85.8934541387558,90.40565284095474L85.99787963819504,111.26528006971752L86.09534343767166,91.31698806838592L86.57570073509217,81.85805147097426L86.77062833404541,98.01521801884627L86.79847513389586,108.5010553941039L86.81239853382111,122.63325702640468L86.89593893337249,122.09977899172112L87.06301973247528,134.03189787351644L87.14656013202668,121.03915933033119L87.2440239315033,111.54033646908722L87.32060263109207,88.36834865491976L87.66868762922287,75.05682133148322L87.7313429288864,89.61101517699477L87.74526632881164,90.30274689206773L87.98196412754059,96.8786640847877L88.02373432731628,83.26072363240908L88.13512152671814,71.55445743625465L88.6015554242134,90.30602414444243L88.62244052410125,100.9663210756133L88.80344472312927,100.29494919386256L89.06798932170868,79.12010324358562L89.0749510216713,86.39427179600526L89.2559552206993,98.9428014695833L89.37430412006378,93.60399701055772L89.49265301942826,102.31528294128952L89.7711210179329,107.16465584528059L89.81289121770858,119.60609881472703L90.00781881666182,104.35140687132315L90.40463571453094,114.03316070997285L90.8223377122879,122.55488086305414L91.04511211109161,100.92807332531424L91.35142690944672,81.25342894837989L91.50458430862427,73.50911511721307L91.64381830787659,56.956708896829525L92.00582670593262,66.71145827030826L92.09632880544662,78.22961857994443L92.4304904036522,61.61305578695474L92.52795420312881,61.67337037266695L92.56276270294188,84.24222146400363L93.02919660043717,66.96019354729812L93.12666039991377,66.56547461734037L93.2658943991661,74.39388207109207L93.920294195652,87.99604675947367L94.31711109352112,99.5762551117039L94.3588812932968,95.83212859815833L94.42153659296036,97.1239331911035L94.80443009090423,100.80806539114246L95.08985978937149,102.76255917783537L95.11770658922195,89.70174316122662L95.33351928806304,74.86304497919822L95.50060008716582,65.59997028663254L95.54237028694153,64.39742804496143L95.73729788589478,53.552959828507646L95.90437868499755,56.27576894353358L95.91830208492279,40.50517221336162L96.23157858324052,34.322305872155205L96.30119558286667,58.54529470774359L96.52396998167039,59.73083529721901L96.55877848148346,56.53950046472291L96.60751038122177,57.04845762178227L96.88597837972641,55.22161083193393L96.91382517957686,93.84996110267319L97.3593739771843,90.48991758128443L97.50556967639923,74.80114333460114L97.69353557538986,82.59094317115463L97.86757807445525,67.07104183058932L98.30616517210007,56.67510991050417L98.52197787094116,67.7546296963029L98.93967986869812,76.50442870599628L99.21814786720276,77.31915088025565L99.48965416574478,85.70573591547225L99.57319456529616,96.98985718952902L99.63584986495972,110.93724744724723L99.74027536439897,94.05577306356244L99.86558596372605,79.54165760421955L99.96304976320266,61.489149816560754L100.05355186271667,68.60277368502382L100.08836036252976,100.62461771531765L100.15797736215592,108.99805406468016L100.63833465957642,117.69355318468703L101.20919405651092,106.43099490508148L101.27184935617447,88.6808617137689L101.40412165546417,70.17480079235307L102.13510015153885,69.9524652178586L102.14206185150147,85.994299024312L102.4205298500061,74.48965510997581L102.70595954847336,68.27952982390772L102.71292124843598,57.42050453413287L102.83823184776307,60.30780443135284L103.12366154623032,51.604954000409684L103.20024024581909,37.338861205737466L103.2907423453331,42.46177489820889L103.38124444484711,33.47565500845706L103.49959334421158,51.94653444148428L103.68755924320222,59.22919801316434L103.84767834234238,48.80699736829983L104.06349104118347,36.185091821134534L104.07045274114608,74.36566873188372L104.07741444110871,53.1562085163979L104.14703144073486,59.312353766034434L104.23753354024888,54.59068089572154L104.27930374002457,82.6704681981077L104.3767675395012,65.52330148212951L104.8640865368843,51.37627718381626L105.05205243587493,45.29632757611425L105.26786513471603,44.745344603369375L105.38621403408051,84.54859915568456L105.75518413209915,89.52977346813007L105.87353303146362,75.3441314972707L105.92226493120194,66.74688414141879L106.29819672918319,62.010348988440356L106.37477542877197,55.955691264505134L106.80640082645417,98.31289985858356L106.82728592634201,91.13387393661873L106.83424762630463,81.41463938983364L107.17537092447282,90.94131038084754L107.5234559226036,100.14738167923258L107.5652261223793,99.30232443997122L107.57218782234192,78.61143118901403L107.61395802211761,71.20205024916115L107.9133111205101,91.296176167026L108.03166001987458,70.86954242545434L108.33101311826707,52.28720900689961L108.57467261695862,54.11679259921266L108.8322555155754,53.90824299689081L108.90187251520157,97.6652616560653L108.91579591512681,77.10670316871176L109.34742131280899,114.83426869491544L109.41703831243515,96.28484620508499L109.46577021217347,78.87513414220581L109.7929701104164,65.43452966295202L110.28725080776215,56.682828169236195L111.54731850099564,52.3603376678925L111.58212700080871,39.84925612065217L111.63782060050964,30.917057669593024L111.76313119983672,41.914550121795735L112.04159919834136,56.168598301528704L112.20867999744415,46.87155789730057L112.25045019721985,38.27196998140724L112.25741189718246,67.11052987281103L112.4941096959114,60.704025810877525L112.57068839550018,68.50609518703389L112.86307979393005,50.22082089027091L112.90484999370574,43.91179438564644L112.96054359340668,48.308981978872055L113.68456038951874,43.94207677126841L113.69152208948135,49.4154588091463L114.13010918712615,40.66894181817771L114.19972618675233,47.65112527997048L114.2345346865654,51.13121872266558L114.47123248529435,41.933899097293555L114.50604098510742,33.09481783571021L114.59654308462142,55.6147532526305L114.61046648454666,78.18411031949076L115.04905358219148,73.4452684924642L115.4110619802475,56.99593515852317L115.64079807901382,51.57529096585122L116.23254257583618,39.54325127194322L116.51101057434082,45.6515652984511L116.65024457359314,49.304029887301404L116.71289987325669,75.94914488452879L116.85909557247163,79.29524990772144L117.07490827131271,67.952344680385L117.08883167123794,60.381907357073985L117.2837592701912,99.34410031871732L117.42299326944352,96.37185729258874L117.48564856910706,91.47714474719244L117.52741876888274,74.44534229372826L118.03562286615372,87.35619930213024L118.1539717655182,72.1910899647044L118.53686526346208,79.2868369760247L118.87798856163025,78.95761721092795L119.56719685792923,72.42507554122611L119.5950436577797,58.517850548521885L119.9848988556862,60.696744669459314L120.23552005434037,65.37804287651453L120.45133275318146,52.88442095328453L120.46525615310668,57.64943408796166L120.54879655265809,46.98277778732575L120.8133411512375,33.87183273915971L121.09180914974213,28.30510793762876L121.1196559495926,49.29878754174702L121.13357934951782,40.98678103189488L121.27977504873276,53.784761202684614L121.28673674869538,38.51355539083522L121.39116224813462,28.922298276205673L121.474702647686,35.68007248254436L121.66266854667664,49.090234207922805L121.67659194660187,45.29603592941723L121.69051534652709,44.37848160998347L122.20568114376069,63.852237724335886L122.53288104200364,49.99048064345758L122.86008094024658,41.26216874273697L123.27778293800354,53.82648870820733L123.79294873523712,51.090587535192455L123.85560403490067,45.852275131207875L124.62139103078842,42.15586755324119L124.64923783063888,51.9723955737542L124.9207441291809,82.08733328515761L125.11567172813415,91.84767678238067L125.14351852798463,97.0355076408789L125.28971422719955,93.14423827881807L125.38021632671355,111.24386932436066L125.47768012619018,86.31734327991816L125.64476092529297,84.09677610221128L125.95107572364806,89.00373487605577L126.6193989200592,84.65977149266055L127.0510243177414,62.63930028501168L127.12760301733017,45.044197017653445L127.42695611572266,42.78484849913088L127.74023261404038,29.408311379201486L128.0117389125824,27.793620810563787L128.22058991146088,44.17342886251408L128.47817281007767,69.6754426991565L128.94460670757294,60.315246207355464L129.13953430652617,46.865054801307416L129.1952279062271,43.03626834595887L129.64773840379715,48.32042027167796L129.78001070308684,51.60603901448685L129.79393410301208,40.76061505146884L129.81481920289994,44.28569108597097L129.90532130241394,50.340463360511926L130.43441049957275,55.770653318334155L130.89388269710543,54.42052697322079L131.09577199602128,65.6716595889341L131.22108259534835,61.32949852916753L131.5065122938156,56.49979491945442L131.68751649284363,59.74114374884529L132.0704099907875,50.6781000814891L132.13306529045104,71.03930235374418L132.31406948947907,68.25974624401327L132.59253748798372,61.83973774690376L133.3722478837967,57.416357681459345L133.50452018308638,76.2655560361561L133.58109888267518,61.76392516301683L133.70640948200227,51.65630488902256L134.0684178800583,48.52757938381505L134.11714977979662,32.63571577068229L134.70193257665633,31.152523572980822L134.73674107646943,30.238318709305304L134.78547297620773,22.4069717327843L135.05001757478715,15.200381146910576L135.09178777456282,27.217706589369836L135.18925157403945,24.507705659430535L135.2449451737404,42.88063778639509L135.251906873703,53.534138044380406L135.7253024711609,43.99226560266995L135.9968087697029,41.916740767065555L136.2892001681328,30.290706482015104L136.60943836641312,29.926042991823646L136.76259576559067,63.189757153470296L137.45876576185225,56.6796904332253L137.5631912612915,60.66668301383977L137.97393155908586,56.58775349390383L138.19670595788958,61.32674287728544L138.28720805740355,46.4207319134759L138.315054857254,50.82702131087073L138.68402495527266,64.44325967233644L138.71187175512313,81.34515925453427L138.8162972545624,74.53401657247558L139.36627155160903,63.58401663041414L139.68650974988938,72.14233003062816L139.693471449852,80.51372376327755L139.72131824970245,75.67492675645101L139.9997862482071,74.97883263894L140.0972500476837,58.713258264483024L140.19471384716033,48.39531262839252L140.29913934659956,46.30541100982962L140.45925844573972,67.47740591737775L140.52191374540328,69.23027092675896L140.6193775448799,73.11072108817596L141.4478198404312,87.40726101848053L141.55920703983307,119.02740222072087L141.6566708393097,112.14462278130597L141.75413463878633,103.51981586009136L141.81678993844986,100.02022353777602L142.15095153665544,89.02144939157031L142.26233873605727,87.99753255637074L142.30410893583297,97.79864789801206L142.4085344352722,78.83362954406739L142.4503046350479,73.66541986873153L142.64523223400116,81.1729006458573L143.48063622951508,72.44658316528984L143.67556382846834,74.84174320471095L143.8844148273468,92.26424242673623L144.19072962570192,86.06734809424701L144.26034662532805,110.11631633393036L144.44831252431868,100.39991816721539L144.52489122390747,90.90133142877441L144.7546273226738,67.52981533255108L144.8103209223747,67.37846811820894L144.94259322166442,61.71923162960143L145.0191719212532,49.16691317812361L145.31156331968307,71.04586382143448L145.64572491788863,54.28228331061889L145.65268661785126,66.44621332761716L146.41847361373902,72.54065143551435L146.7247884120941,54.07825847307008L147.01021811056137,51.02331535079775L147.0659117102623,37.29707571867499L147.48361370801925,32.511104029162574L147.49057540798185,52.813280566861515L147.8386604061127,55.85995109383485L147.8595455060005,53.60963811575107L147.87346890592573,53.37161699369774L147.91523910570143,47.418047974064315L148.3747113032341,54.98306922093599L148.6044474020004,37.998749326390225L148.92468560028078,49.286628528334745L149.05695789957045,64.50666300475852L149.0778429994583,59.68382855866941L149.1683450989723,58.393444902625106L150.39360429239272,61.478024668111644L150.40752769231796,65.90862582415691L150.47714469194415,54.900597768152096L151.28470188760755,45.24814090563604L151.31254868745805,42.82667941868513L152.001756983757,51.49777676727992L152.2245313825607,47.10822785220941L152.32199518203737,51.2471658339729L152.3428802819252,79.44659944465631L152.509961081028,81.05771500334983L152.78842907953262,66.40734770045465L152.81627587938308,73.48438695559275L153.1713225774765,57.441388017293825L153.26878637695313,42.82012048185512L153.53333097553252,48.17301439193433L153.55421607542038,57.937448658337686L153.68648837471008,67.13985480688352L153.9928031730652,71.02859956315062L154.0345733728409,76.27410568279434L154.0415350728035,58.23818369211383L154.15292227220536,79.38465667162957L154.23646267175675,75.41674190364864L154.75162846899033,120.4748282362924L154.76555186891557,101.8039354027692L154.89782416820526,84.84599200193489L154.9883262677193,70.11224938820072L155.05794326734542,69.95632533763032L155.11363686704635,51.52058308108765L155.90030896282195,53.8434577115211L156.15789186143877,40.91960720779985L156.74267465829848,37.163855087764645L157.07683625650407,37.50520047133232L157.45276805448532,38.521734346659265L157.55719355392455,34.87257959771786L157.56415525388718,47.266118152247365L157.66858075332644,39.33324361291022L157.8286998524666,54.58902699798311L157.94704875183106,67.87797969914843L158.0097040514946,62.28852858710614L158.24640185022352,72.61525875509582L158.50398474884034,73.45785799146883L158.82422294712066,101.15710966077543L159.234963244915,94.81676013118344L159.2836951446533,89.46815861059902L159.29065684461594,75.50059221242572L159.3185036444664,63.446029812243175L159.6665886425972,70.04340646840288L159.78493754196165,53.74338333081312L159.86847794151308,45.11832791594571L160.1539076399803,39.789521690729L160.17479273986817,36.248150247684286L160.3627586388588,28.359896751629492L160.56464793777465,32.3451272937324L160.73172873687744,34.86230029764451L160.8779244360924,40.887240152485894L160.96146483564377,27.23776660297355L161.0171584353447,45.04989111393903L161.04500523519516,39.695544122205554L161.07285203504563,50.609526236685504L161.56017103242874,46.571005542060334L162.04052832984922,40.52198484462169L162.43038352775574,38.352832580019594L162.52088562726973,28.637220847096888L162.9385876250267,33.36951618950003L163.02212802457808,26.94880202080196L163.1056684241295,27.049073862359695L163.2100939235687,29.61636976566367L163.3771747226715,33.01439298929543L163.46767682218552,64.09482535606061L163.53033212184909,59.54345142350284L163.75310652065275,47.90809358335751L164.40750631713868,36.70092725084855L164.44231481695175,28.752999801886368L164.53281691646575,27.655963242233074L164.60939561605454,35.297724916805294L165.39606771183014,29.598605132880266L165.40302941179277,33.174921690158754L165.44479961156844,27.79254319487725L165.46568471145628,19.00244077710768L165.5492251110077,20.704781140608162L165.65365061044693,41.24414634478492L166.3707057065964,33.79982560470985L166.41247590637207,34.92218426304261L167.01814380311964,30.80728088775144L167.33142030143736,60.374703171286576L167.35230540132522,52.98436343759092L167.77000739908217,50.61630926527172L167.83962439870834,46.22188578353823L167.86747119855883,45.162531327609855L167.87443289852143,62.0548789600215L168.53579439496994,48.90498038957371L168.54971779489517,69.39585115397684L169.01615169239045,65.07774162634543L169.3015813908577,52.40906846674449L169.6496663889885,69.92987084622337L169.70535998868942,59.199039141272706L169.80978548812865,44.791259685598334L169.90724928760528,42.873805750797594L170.0047130870819,42.30380180602892L170.38064488506316,34.77653337091075L170.54772568416598,29.357505756163672L170.5686107840538,27.97020085237557L170.88188728237154,39.66129904375069L171.37616797971725,42.840410191302574L171.48755517911908,74.53317083489212L171.63375087833404,63.20159439755484L171.68248277807234,69.20947003359007L172.3925761742592,63.9755758690732L172.40649957418444,68.85276012995858L172.93558877134325,66.31505930321293L173.07482277059555,90.37743179964237L173.3115205693245,113.26223688557195L173.42290776872633,89.98844145252735L173.49948646831513,77.81535270113933L173.91022676610947,66.57969664704791L173.9171884660721,68.2987929259331L173.94503526592257,54.699157423731435L174.03553736543654,71.69247351611695L174.13996286487577,72.74932609548308L174.56462656259535,56.90586140903747L174.9753668603897,58.58970178244799L176.20758775377274,53.16140891243346L176.35378345298767,46.49917384379781L176.56263445186616,47.24147891687427L176.78540885066988,43.59549674393873L176.84806415033339,34.3125946100165L176.98033644962308,50.165515451689515L177.1056470489502,55.16719069454242L177.47461714696885,47.913609703282845L177.61385114622115,36.43943578277637L177.7670085453987,29.648474224247728L177.92712764453887,25.773864230046232L178.04547654390336,26.246095208057753L178.0663616437912,24.32718091972079L178.08724674367906,16.621424213871148L178.34482964229582,27.27609441860065L178.53975724124908,17.47648257893209L178.66506784057617,15.728046903990856L178.67899124050143,18.603941086963317L179.3333910369873,21.575102701407733L179.52135693597793,14.52064300334872L179.70236113500596,44.83941525762658L179.87640363407135,40.94899640804657L179.8972887339592,43.7715087324623L180.6352289299965,78.70319108556664L180.66307572984695,73.63276450344483L180.76750122928618,59.75617347254699L180.78142462921141,66.97383701589156L180.8162331290245,67.7592137915199L180.8580033288002,60.28549620798278L180.94850542831423,74.82433399370917L181.00419902801514,67.88109489897906L181.25482022666932,80.7940943898554L181.36620742607116,72.83252510653904L181.90225832319257,81.38845641051083L182.05541572237016,65.21417369323004L182.15287952184676,53.33691411257396L182.20857312154772,79.5299752492023L182.2503433213234,65.92726382571976L182.4313475203514,59.9727859762229L182.45919432020185,62.89415866900992L182.62627511930467,74.7776730900757L182.70285381889343,70.54890001842921L182.8629729180336,62.617093235597736L182.946513317585,57.41600747178183L183.1692877163887,53.619971828654215L183.71926201343535,46.34658995948787L183.92115131235124,62.72032105656128L184.24138951063156,50.993397159973284L185.05590840625763,51.79319130750998L185.06983180618286,69.8692436766389L185.1324871058464,60.42591336034392L185.16033390569686,80.37022301484568L185.1672956056595,74.87581233977276L185.2160275053978,59.073954106675124L185.32741470479965,66.31606671809956L185.71030820274353,71.38419040255371L185.72423160266877,55.25675225460342L186.01662300109865,59.60553609025593L186.11408680057525,46.44085886851585L186.6570993976593,43.291318312883234L186.70583129739762,38.72200885606202L186.88683549642562,56.6271724039129L188.40448608827592,47.02384974249873L188.57156688737868,55.504993482236166L188.7595327863693,40.886618977982316L188.91269018554686,44.14341143017863L188.98230718517303,32.62684201252607L189.0936943845749,45.11327376471752L189.56012828207017,38.14014503312651L189.86644308042526,26.748152575602962L189.93606008005142,28.68089716780253L189.94998347997665,45.97572017462128L189.99871537971498,36.343766032930986L190.1031408791542,33.60367549052931L190.59742157649993,45.12523492877675L190.61134497642516,54.839090912027245L190.86892787504195,63.43382296466997L191.20308947324753,62.47441340893168L191.5442127714157,60.91328063871779L191.6695233707428,54.748378606426414L191.91318286943437,66.96735172376789L192.17076576805115,58.36787059263354L192.4561954665184,50.16971282126859L192.85301236438752,63.64490793405688L193.22894416236878,70.18525888101405L193.39602496147157,65.70301307061152L193.40298666143417,48.93783950044576L194.37762465620042,34.668569656133066L194.56559055519105,30.396106026250823L194.80925005388258,24.735619875544312L194.8510202536583,16.521777743512747L194.87886705350877,31.32223482027754L195.29656905126572,47.48778300085825L195.3313775510788,48.791361540225225L195.4218796505928,44.03919966020861L195.58199874973297,27.990437123007982L195.66553914928437,30.389548920415073L196.75156434345246,26.330511461690435L197.00218554210664,37.14895427922535L197.15534294128418,45.44683422305253L197.22495994091034,43.908268989318486L197.55912153911592,42.54207744477017L197.75404913806915,53.359375695975544L197.76101083803178,49.14972902652209L198.40844893455505,56.87279557779436L198.67299353313447,42.19264867649031L199.0280402312279,58.489197794389256L199.04196363115312,48.953250212928L199.29258482980725,37.57743631057859L199.41789542913438,35.57080033539252L199.4387805290222,37.004998680265786L199.92609952640532,31.671686057330415L200.61530782270432,48.22949442972006L201.37413311862943,50.3671673000011L201.55513731765748,44.93472871925232L202.07030311489106,43.457677844747415L202.37661791324615,32.860219625755974L202.41838811302185,53.18240001404291L202.73166461133957,51.52889620865638L203.42087290763857,52.77881889827832L203.84553660535812,76.86907321116877L204.0126174044609,61.47795449849961L204.36766410255433,53.10256642447544L204.5208215017319,48.54768149249384L204.61132360124586,52.10254605478816L204.91763839960097,44.71293242283162L205.15433619832993,47.852398991339626L205.18218299818037,36.40613568881589L205.30053189754486,28.767107206952783L205.3144552974701,50.62965109812345L206.1080890932083,40.30814203151222L206.24732309246065,33.97662206092445L206.31694009208678,27.15602648533046L206.49098259115218,19.896076851788134L206.7903356895447,14.38925976296102L206.8877994890213,33.766843905775154L207.16626748752594,28.09746455127962L207.5839694852829,20.647902970405685L207.65358648490906,19.092326894051215L207.73016518449785,13.552287021253676L207.75801198434831,15.391411699477285L207.980786383152,15.327356885945534L208.0295182828903,38.02476574943132L208.17571398210526,29.20681615698182L208.4193734807968,28.667724956902834L208.55860748004915,19.847575469500377L208.57253087997435,17.96778879516623L208.69087977933884,13.931107145258062L208.78834357881544,9.414897061032006L209.21996897649765,23.171305129214964L209.2338923764229,20.70333506330394L209.630709274292,16.029725625110874L209.70032627391817,49.08682745019369L210.06233467197418,45.27032446886303L210.15283677148818,42.20021362655572L210.5844621691704,63.78010215240806L210.75154296827316,59.487290509714164L211.62175546360015,51.670267011723205L211.9419936618805,46.20197835938017L212.10211276102066,39.90339781616249L213.11155925559996,36.58056676030363L213.36914215421677,54.37868828269413L213.45268255376817,37.189770481154056L213.6336867527962,42.41517620897613L213.74507395219803,48.14083846490333L213.75899735212326,35.586660769897215L213.8146909518242,37.660364455206064L213.82861435174942,38.69543105870632L214.12100575017928,32.029701641868805L214.5178226480484,40.2869500440631L214.62224814748762,24.96375344462586L214.62920984745026,29.333991152181945L214.99817994546888,26.16975907421236L215.1652607445717,18.153297718613402L215.23487774419783,28.944587210429997L215.31841814374926,29.07441934263973L215.74308184146884,25.994455025308717L216.20255403900146,26.1163176828035L216.26520933866502,25.361101108882607L216.48798373746874,57.546568150837295L216.55063903713224,47.19709370912865L216.6063326368332,56.228100821256625L216.66202623653413,40.34082108010821L216.87783893537522,24.737673032716998L216.89176233530043,30.58380837007249L217.08668993425368,59.5131866220194L217.44173663234713,50.87854708185861L217.643625931263,47.694192453972796L217.6575493311882,51.409497560809896L217.83159183025361,45.352878536133716L217.9220939297676,47.00125755203879L217.93601732969285,36.791155469360824L217.9986726293564,29.2637056825972L218.4372597270012,31.44007853385245L218.7435745253563,35.30257875205832L218.77838302516935,46.447411146020244L219.2308935227394,36.945985686167454L219.64163382053374,27.27899793304199L219.89921671915056,24.757206651855153L219.9340252189636,22.198184227305283L219.9688337187767,42.909441849798576L220.03845071840286,49.130771566584585L220.19856981754302,36.95310677602726L220.30995701694488,41.18306707224614L220.55361651563643,51.347731555528355L220.6232335152626,41.98600027160934L220.63715691518783,86.95305934653476L220.66500371503832,79.34567999435438L220.69285051488876,60.939820749134114L220.91562491369245,55.650056712033525L221.05485891294478,58.99010484960803L221.47952261066436,67.82578003079402L221.486484310627,72.94840094757058L221.4934460105896,56.68725164497309L222.17569260692596,54.9883313488094L222.56554780483248,61.78330178041006L222.87186260318757,48.20823376933213L222.9762881026268,46.005039540776636L223.10856040191652,48.799872220118445L223.18513910150529,49.51868408086021L223.498415599823,36.429658786983595L223.6306878991127,73.28847692461731L223.74903679847716,69.87397435459452L223.9370026974678,58.08848602135109L224.91860239219665,60.393894078900296L225.329342689991,56.100847002541286L225.52427028894425,55.97284993090452L225.8514701871872,71.88578953697582L225.87235528707504,61.76477669429329L225.9350105867386,58.85461986326646L226.40144448423385,50.56397515900237L226.5128316836357,50.64409161521245L226.5546018834114,42.27101645053899L227.13242298030852,49.67275036111775L227.16026978015898,46.20956835126368L227.3064654793739,53.75831029303481L227.6823972773552,56.33687778083951L228.19060137462617,57.54724860527324L228.28806517410277,54.060434600522896L228.51780127286912,41.40800487614023L228.57349487257005,55.46245567397824L228.60134167242052,54.2437452400319L228.62918847227095,57.052909868399176L228.99815857028963,83.64336939511931L229.01208197021484,64.2617387518731L229.1582776694298,52.707087469437546L229.54813286733628,65.25646568066622L229.7778689661026,61.1761032059397L230.04937526464462,49.7821223867559L230.44619216251374,54.20162000708161L230.51580916213987,47.09272216939842L231.14932385873794,38.574607701934106L231.28159615802764,42.79287393479125L232.2075022530556,34.965222779355436L232.2631958527565,26.091633020992774L232.43027665185926,24.85188960294744L232.67393615055084,24.24303831670575L232.86190204954147,23.39428753827865L232.88278714942933,11.282866996380525L232.93848074913026,10.72253028921306L233.05682964849473,12.485055415247938L233.07771474838256,6.0381173750025265L233.32137424707415,8.52895089180536L233.45364654636384,15.738840491867752L233.80869324445723,26.78899807784723L233.9061570439339,39.06920017328163L234.01754424333572,37.71747895012593L234.10804634284972,40.02304858047051L235.24976513671874,43.79036154130375L235.26368853664397,35.4405561431924L235.68139053440095,47.877226320814664L235.87631813335418,37.64762831615336L236.50287112998964,32.71310250618297L236.51679452991488,25.258560698395367L236.586411529541,17.579572911019504L237.094615626812,47.56587770299159L237.52624102449417,42.044381073100894L237.57497292423247,30.17903576832002L237.81167072296142,28.995513836259565L238.5008790192604,20.106816277105192L238.8559257173538,18.43838652548324L239.12743201589583,33.57251803723992L239.1552788157463,28.20219755668078L239.51032551383972,22.697347086285298L239.69829141283034,24.506141702961404L239.91410411167146,19.113295223208596L239.94891261148453,13.96018732460526L240.1090317106247,11.471035200198507L240.21345721006392,10.942714705823636L240.3248444094658,12.790700895950035L240.6311592078209,7.647410704119469L241.01405270576478,4.075122905068688L241.12543990516662,3.965045605325926L241.36909940385817,8.323697139140528L241.41086960363387,21.317654671622687L241.49441000318527,23.497225279228438L241.6684525022507,24.28640800009066L242.0861545000076,27.911445245173L242.1557714996338,23.85983003240675L242.2045033993721,17.250891103746874L242.32285229873656,10.85723347965017L242.48297139787672,2.308245686480291L242.60132029724122,5.4037462445393665L242.6848606967926,6.3529954148303265L242.78232449626924,4.736345290053741L243.06079249477386,10.011756274242614L243.40191579294205,20.839639380555045L243.4784944925308,28.23919326145928L243.6525369915962,28.523916904208967L244.04239218950272,25.787768527208012L244.12593258905412,17.538895021379936L244.2164346885681,25.24249528923037L244.43920908737184,23.504840864499688" fill="none"></path></g></g></g></g><g opacity="0.2"><g><g><g><path style="fill: none;" stroke="rgb(0, 119, 187)" stroke-width="2px" d="M35.240125210762024,241.62110958805556L35.42809110975266,127.2167860721034L35.52555490922928,128.20012526046602L35.55340170907974,146.94468322060956L35.69959740829468,234.57240438303302L35.95021860694885,160.1622760394542L36.00591220664978,136.86795548250106L36.50715460395813,97.38656020383162L36.61158010339737,91.1258970775121L36.77169920253753,95.87416217871926L37.495715998649594,272.3322918061847L37.607103198051455,-32.584246198007314L37.69760529756546,59.04339637898746L37.85076269674301,157.34450209543056L38.04569029569626,175.91546262476558L38.11530729532242,243.61101653256935L38.157077495098115,137.32398614834582L38.35896679401398,200.21360948184406L38.51908589315415,165.87341430538456L38.55389439296722,320.07203340114546L38.56781779289246,156.6437648470904L38.67920499229431,185.14334068070457L39.2848728890419,273.17108245355155L39.38929838848114,39.64755281958613L39.507647287845614,236.8333358878907L40.12723858451844,134.322787708067L40.20381728410721,88.7180973380983L40.405706583023075,246.5773141288263L40.837331980705265,243.76156464463713L40.976565979957584,119.93944343452183L41.874625275135045,298.4276476093111L41.95120397472382,52.919384291496804L42.02778267431259,114.13240692799361L42.26448047304153,264.4737130428376L42.54294847154617,186.94812553503948L42.6404122710228,162.8773086468769L42.689144170761104,241.58500672100695L42.82837817001342,-13.76455125463118L42.91191856956482,174.08009999168038L42.995458969116214,80.51114805026153L43.05115256881714,112.18637382395566L43.287850367546085,28.606992407145373L43.524548166275025,204.39422448070627L44.3877989616394,-100.6707528232259L44.67322866010666,173.56961979153684L44.951696658611304,196.41653472506516L44.95865835857391,96.08211216234447L45.209279557228086,177.83029585041663L45.32066675662995,194.6750353286817L45.34155185651779,20.2571710841133L45.58521135520935,235.1380405696051L45.6060964550972,146.590571454558L45.70356025457382,211.30194503756672L46.135185652256006,201.7004697896691L46.190879251956936,3.810375036129092L46.4345387506485,219.32019779832933L46.65731314945221,191.23035365590738L46.719968449115754,32.58889402037729L47.66675964403152,103.2923734797849L47.757261743545534,141.48239535339835L48.02876804208755,152.84518228949727L48.09838504171371,102.29224814529455L48.3141977405548,157.8452184944973L48.45343173980712,103.32183358800155L48.460393439769746,129.78806094315323L49.21921873569488,213.64747154894633L49.28187403535843,17.05841910498437L49.35149103498458,241.36421407030662L49.42806973457336,121.16215391019098L50.186895030498505,165.13664799842726L50.95268202638626,117.96998142552418L51.2311500248909,29.256232458445385L51.76720092201233,21.768261645582545L51.80200942182541,83.50646290414632L51.892511521339415,29.233710342786555L51.948205121040345,38.60582061787212L51.969090220928194,130.45552113296375L52.10832422018051,155.3602362238931L52.2336348195076,86.90437111949434L52.33109861898423,109.72344973029824L52.748800616741185,58.88192461906268L52.7557623167038,170.4863463754676L52.90195801591873,207.8544586443967L53.09688561487198,248.61096311304544L53.1525792145729,128.20160142909535L53.20827281427383,94.32083210632807L53.49370251274109,138.04789924416636L53.556357812404634,154.9475838276272L53.66078331184387,170.6382546714867L53.72343861150742,21.653858576809927L53.97405981016159,207.61400131874143L53.98102151012421,115.25591887177218L54.078485309600836,175.99488049702322L54.1968342089653,147.98264064825716L54.38480010795593,138.39969131665757L54.60757450675964,60.279371284197246L54.72592340612412,69.31375526501672L55.5056338019371,159.36551402177653L56.27142079782486,197.38048338407543L56.278382497787476,-40.636071251025406L56.417616497039795,163.5112914409867L56.42457819700241,94.61636106591875L56.529003696441656,-75.39435955955601L56.70304619550705,115.14995105230999L57.07897799348831,222.74966439015998L57.371369391918186,-39.86137795435612L57.538450191020964,115.01197146171474L57.55933529090881,16.048951731882728L58.17196488761902,155.29969222196755L58.50612648582459,81.95374438733013L58.902943383693696,150.13613870908497L59.05610078287125,79.58348150734771L59.11179438257217,46.74883071593589L59.17444968223572,37.229061401671366L59.355453881263735,176.40172311532658L59.63392187976837,157.44445979975907L59.65480697965622,171.46482475141508L59.87061967849731,-29.99175667494179L59.982006877899174,15.41375637068457L60.24655147647857,-98.40238775491339L60.26743657636643,191.6011988477785L60.29528337621689,128.74139412059262L60.3440152759552,154.66654240872717L60.36490037584305,15.697497069363937L60.49717267513275,150.54335036954566L60.650330074310304,77.69771825963274L60.99145337247848,61.22148319155516L61.13764907169342,-59.83001711818175L61.59712126922608,123.85103724475137L61.611044669151305,222.9387088712682L61.97305306720734,53.03410368211856L62.06355516672134,238.54956116852782L62.18886576604843,160.44853676886507L62.4812571644783,173.35365632106672L62.73884006309509,59.31475834930378L62.81541876268387,198.16982238235994L63.24008246040344,87.06314359963979L63.41412495946884,152.14225187633642L63.49766535902023,126.22990407903042L63.51855045890808,243.40539678656614L63.67170785808563,121.3862152199991L63.915367356777196,109.54188098889138L63.99194605636597,229.58032894456971L64.23560555505752,240.39530970232647L64.444456553936,138.47345757187722L64.86912025165557,126.98983568940646L64.93873725128174,166.49244562009162L65.81591144657135,95.74919396018534L66.37980914354324,154.52122415123185L66.4076559433937,15.723393284746937L66.58169844245911,125.0719974061886L66.91586004066468,66.20062106638859L67.17344293928146,5.083697007660779L67.45887263774871,103.12805482321785L67.47279603767394,12.74591898315369L67.51456623744964,-57.56034458622613L67.57722153711319,155.83145033849664L67.73734063625335,33.479656347558L68.0645405344963,57.768197564484204L68.44743403244019,257.84034896979864L68.46831913232803,114.49630358324528L68.47528083229065,80.4011523992536L68.53097443199158,165.93290390114632L68.79551903057099,107.94285295336097L68.99044662952423,141.301248374457L69.12271892881394,141.67256804910184L69.26195292806625,69.84327804047855L69.47776562690734,95.79309943284609L70.16697392320633,30.356231144771147L70.22962922286986,81.15157326603214L70.2435526227951,12.989212661389576L70.53594402122498,185.43495779342754L70.56379082107544,188.1796192140531L70.66821632051467,73.815900879469L70.69606312036515,256.616399566887L70.91883751916885,29.43174890847202L71.00933961868286,106.0074904397007L71.18338211774825,206.932148484795L71.27388421726228,-19.806867952550384L71.37830971670151,94.15558557233688L71.44096501636506,139.61478897982406L71.67070111513138,71.29034505968168L71.83778191423417,33.57845420510633L71.858667014122,120.80251705584108L72.13713501262664,39.088654288400754L72.19282861232757,220.05283083312452L72.4225647110939,111.14643411272012L72.71495610952377,140.3795708585536L72.77761140918733,141.84333967139136L73.1605049071312,40.93289502138517L74.26045350122452,139.674215311216L74.69904059886932,80.45572846229204L74.89396819782257,123.56343741951248L75.05408729696275,127.7343518816677L75.40913399505615,-24.66569808409391L75.64583179378509,119.20129585548996L75.7363338932991,173.66801697474293L76.27238479042053,140.79342527784624L76.44642728948594,233.14329390079945L76.55781448888779,95.93508576686379L76.64135488843918,153.19117512808756L76.94766968679427,205.63393198373592L77.351448284626,143.99605747165796L77.53941418361663,215.72707682581483L77.56726098346711,113.46629637807276L78.14508208036423,71.08979700732637L78.27039267969133,56.288317425463525L78.52101387834549,74.85550318073213L78.88998397636414,23.736774689032774L78.90390737628937,-13.351898858365267L79.07098817539215,62.82519279045285L79.07794987535476,76.71553891805031L79.11275837516786,-19.00172340587047L79.14756687498092,71.99599584074515L80.25447716903687,41.791751018049204L80.37978776836395,99.77751053274785L80.41459626817704,80.64826302780246L80.50509836769105,93.13730336370584L80.53990686750413,120.3746812108164L80.65129406690598,-1.24659910171632L80.68610256671906,29.47295510135344L80.74875786638259,98.75110939665554L80.86014506578445,64.95644288122442L81.26392366361618,174.1862154280055L81.59112356185912,117.90053823557612L81.6607405614853,134.94309485423227L81.79997456073761,86.21696156506466L82.16198295879363,126.29105963653099L82.44045095729827,123.66508217370308L82.49614455699921,-27.04528191456435L82.95561675453186,-45.35120691056587L82.97650185441971,86.7237513436349L83.05308055400849,62.440397805034614L83.47774425172805,218.02948866915654L83.51255275154114,3.213897469265778L83.52647615146637,43.37789421025794L83.91633134937287,214.9118627002706L84.35491844701767,14.534508158812589L84.37580354690552,103.932988488665L84.4175737466812,53.612445462964466L84.68211834526062,164.79965978847585L84.9814714436531,77.97431008452152L85.30170964193344,-36.68462088780412L85.44790534114838,135.3952031291477L85.68460313987731,-26.839250950157258L85.99787963819504,194.7037889847686L86.09534343767166,11.52382006305955L86.57570073509217,44.02230508132774L86.77062833404541,162.64388421033422L86.79847513389586,150.4444048951344L86.81239853382111,179.16206355560792L86.89593893337249,119.96586685298674L87.06301973247528,181.76037340069763L87.14656013202668,69.0682051575903L87.2440239315033,73.5450450241113L87.32060263109207,-4.319602601750113L87.66868762922287,21.81071203773725L87.7313429288864,147.82779055904106L87.74526632881164,93.06967375235952L87.98196412754059,123.18233285566755L88.02373432731628,28.788961822894482L88.13512152671814,24.729392651636847L88.6015554242134,165.31229097719356L88.62244052410125,143.60750880029659L88.80344472312927,97.60946166685956L89.06798932170868,-5.579280557522189L89.0749510216713,115.49094600568385L89.2559552206993,149.1369201638955L89.37430412006378,72.24877917445527L89.49265301942826,137.16042666421671L89.7711210179329,126.56214746124472L89.81289121770858,169.37187069251283L90.00781881666182,43.33263909770752L90.40463571453094,152.76017606457148L90.8223377122879,156.64176147537918L91.04511211109161,14.420843174354633L91.35142690944672,2.5548514406423988L91.50458430862427,42.53185979254575L91.64381830787659,-9.252915984704678L92.00582670593262,105.73045576422312L92.09632880544662,124.30225981848919L92.4304904036522,-4.85319538500422L92.52795420312881,61.914628715515924L92.56276270294188,174.5176258293504L93.02919660043717,-2.1679181195240385L93.12666039991377,64.98659889750918L93.2658943991661,105.70751188609877L93.920294195652,142.40470551300004L94.31711109352112,145.8970885206248L94.3588812932968,80.85562254397594L94.42153659296036,102.2911515628842L94.80443009090423,115.54459419129815L95.08985978937149,110.58053432460709L95.11770658922195,37.458479094791606L95.33351928806304,15.508252251084588L95.50060008716582,28.54767151636982L95.54237028694153,59.58725907827701L95.73729788589478,10.175086962692678L95.90437868499755,67.16700540363725L95.91830208492279,-22.577214707326185L96.23157858324052,9.590840507329478L96.30119558286667,155.43725005009728L96.52396998167039,64.47299765512078L96.55877848148346,43.77416113473836L96.60751038122177,59.08428625001974L96.88597837972641,47.91422367254071L96.91382517957686,248.36336218563042L97.3593739771843,77.04974349572929L97.50556967639923,12.046046347867861L97.69353557538986,113.7501425173685L97.86757807445525,4.991436468328023L98.30616517210007,15.091382230163465L98.52197787094116,112.07270883949771L98.93967986869812,111.50362474477L99.21814786720276,80.57803957729318L99.48965416574478,119.25207605633871L99.57319456529616,142.12634228575607L99.63584986495972,166.7268084781201L99.74027536439897,26.529875528823442L99.86558596372605,21.485195766848012L99.96304976320266,-10.720881334074384L100.05355186271667,97.05726915887597L100.08836036252976,228.7119938364931L100.15797736215592,142.49179946213016L100.63833465957642,152.47554966471452L101.20919405651092,61.38076178665923L101.27184935617447,17.68032894851861L101.40412165546417,-3.8494428933103886L102.13510015153885,69.06312291988077L102.14206185150147,150.16163425012573L102.4205298500061,28.471079452631177L102.70595954847336,43.439028679635236L102.71292124843598,13.984403375033327L102.83823184776307,71.85700402023265L103.12366154623032,16.793552276637076L103.20024024581909,-19.72550997295135L103.2907423453331,62.953429668094564L103.38124444484711,-2.4688245505501167L103.49959334421158,125.83005217359307L103.68755924320222,88.35985229988462L103.84767834234238,7.118194788841795L104.06349104118347,-14.302530367526707L104.07741444110871,-31.68163234554546L104.14703144073486,83.9369347645805L104.23753354024888,35.703989414470094L104.27930374002457,194.9896174076523L104.8640865368843,-5.21182000943687L105.05205243587493,20.976529145306205L105.26786513471603,42.54141271238981L105.38621403408051,243.76161736494532L105.75518413209915,109.45447071791212L105.87353303146362,18.601563613833225L105.92226493120194,32.357894718011345L106.29819672918319,43.06420837652657L106.37477542877197,31.73706036876418L106.80640082645417,267.74173423489754L106.82728592634201,62.4177702487594L106.83424762630463,42.53770120269322L107.17537092447282,129.04799434490323L107.5234559226036,136.97166687277272L107.5652261223793,95.92209548292574L107.57218782234192,-4.152141814814932L107.61395802211761,41.564526489749674L107.9133111205101,171.67267983848555L108.03166001987458,-10.836992540832362L108.33101311826707,-22.042124667319477L108.57467261695862,61.43512696846491L108.8322555155754,53.07404458760342L108.90187251520157,272.69333629276326L109.34742131280899,265.7445307997302L109.41703831243515,22.0871562457631L109.46577021217347,9.236285890689107L109.7929701104164,11.672111745936792L110.28725080776215,21.676022194373065L111.54731850099564,35.07037566251764L111.58212700080871,-10.195070068309143L111.63782060050964,-4.811736134643489L111.76313119983672,85.90451993060658L112.04159919834136,113.18479102046065L112.20867999744415,9.683396280388099L112.25045019721985,3.873618317833991L112.25741189718246,182.46476943842617L112.4941096959114,35.078009563143574L112.57068839550018,99.71437269165934L112.86307979393005,-22.920276296781104L112.90484999370574,18.67568836714857L112.96054359340668,65.89773235177456L113.68456038951874,26.47445594085396L113.69152208948135,71.30898696065772L114.13010918712615,5.682873854303428L114.19972618675233,75.57985912714146L114.2345346865654,65.051592493446L114.47123248529435,5.1446205958053115L114.50604098510742,-2.261507210623186L114.59654308462142,145.6944949203117L114.61046648454666,168.46153858693194L115.04905358219148,54.48990118435798L115.4110619802475,-8.80139817724099L115.64079807901382,29.892714195163382L116.23254257583618,-8.584907503688974L116.51101057434082,70.08482140448253L116.65024457359314,63.91388824270265L116.71289987325669,182.52960487343842L116.85909557247163,92.6796700004921L117.07490827131271,22.58072377103925L117.08883167123794,30.10015806382997L117.2837592701912,255.1928721652908L117.42299326944352,84.48288518807438L117.48564856910706,71.89829456560717L117.52741876888274,6.318132479871413L118.03562286615372,138.99962733573815L118.1539717655182,11.530652615000992L118.53686526346208,107.66982502130584L118.87798856163025,77.64073815054083L119.56719685792923,46.29490886241873L119.5950436577797,2.888950577704993L119.9848988556862,69.41232115320902L120.23552005434037,84.1032357047355L120.45133275318146,2.9099332603646713L120.46525615310668,76.70948662667008L120.54879655265809,4.3161525847820785L120.8133411512375,-18.5719474535044L121.09180914974213,6.038208731505013L121.1196559495926,133.27350595822017L121.13357934951782,7.738754992486368L121.27977504873276,104.97668188584369L121.28673674869538,-22.571267856562336L121.39116224813462,-9.44273018231248L121.474702647686,62.711169307899205L121.66266854667664,102.73088110943657L121.67659194660187,30.119242815394802L121.69051534652709,40.708264332248596L122.20568114376069,141.74726218174564L122.53288104200364,-5.456547680055529L122.86008094024658,6.3489211398544585L123.27778293800354,104.08376857008882L123.79294873523712,40.146982843133024L123.85560403490067,24.89902551526946L124.62139103078842,27.370237241374372L124.64923783063888,91.23850765580626L124.9207441291809,202.5470841307714L125.11567172813415,130.88905077127296L125.14351852798463,117.78683107487161L125.28971422719955,77.57916083057474L125.38021632671355,183.6423935065311L125.47768012619018,-13.388760897851817L125.64476092529297,75.21450739138375L125.95107572364806,108.63156997143376L126.6193989200592,67.28391795907972L127.0510243177414,-25.442584545583905L127.12760301733017,-25.336216051779466L127.42695611572266,33.747454425040665L127.74023261404038,-24.09783710051621L128.0117389125824,21.33485853601299L128.22058991146088,109.6926610703152L128.47817281007767,171.68349804572617L128.94460670757294,22.874460240151468L129.13953430652617,-6.935710822884822L129.1952279062271,27.72112252456471L129.64773840379715,69.45702797455426L129.78001070308684,64.74851398572248L129.79393410301208,-2.621080800603259L129.81481920289994,58.38599522397961L129.90532130241394,74.55955245867592L130.43441049957275,77.49141314962306L130.89388269710543,49.020021592767385L131.09577199602128,110.67619005178729L131.22108259534835,43.9608542901013L131.5065122938156,37.18098048060195L131.68751649284363,72.70653906640867L132.0704099907875,14.425925412064164L132.13306529045104,152.4841114427646L132.31406948947907,57.141521805089575L132.59253748798372,36.15970375846572L133.3722478837967,39.72283741968166L133.50452018308638,151.66234945494315L133.58109888267518,3.757401670459633L133.70640948200227,11.225823793045567L134.0684178800583,36.01267736298504L134.11714977979662,-30.93173868184882L134.70193257665633,25.219754782175034L134.73674107646943,26.581499254603234L134.78547297620773,-8.918416173299839L135.05001757478715,-13.625981196584199L135.09178777456282,75.28700835920684L135.18925157403945,13.667701939673481L135.2449451737404,116.37236629425327L135.251906873703,96.14813907632181L135.7253024711609,5.824775835828025L135.9968087697029,33.61464142464805L136.2892001681328,-16.213430658186745L136.60943836641312,28.467389031057866L136.76259576559067,196.2446138000571L137.45876576185225,30.639423552245336L137.5631912612915,76.61465333629765L137.97393155908586,40.27203541416005L138.19670595788958,80.28270041081198L138.28720805740355,-13.20331194176216L138.315054857254,68.45217890045008L138.68402495527266,118.9082131181993L138.71187175512313,148.95275758332568L138.8162972545624,47.28944584424092L139.36627155160903,19.784016862168375L139.68650974988938,106.3755836314843L139.693471449852,113.99929869387513L139.72131824970245,56.31973872914485L139.9997862482071,72.19445616889614L140.0972500476837,-6.349039233344875L140.19471384716033,7.123530084030638L140.29913934659956,37.94580453557804L140.45925844573972,152.16538554757025L140.52191374540328,76.24173096428383L140.6193775448799,88.63252173384406L141.4478198404312,144.59342073969887L141.55920703983307,245.50796702968228L141.6566708393097,84.61350502364628L141.75413463878633,69.02058817523296L141.81678993844986,86.02185424851457L142.15095153665544,45.02635280674743L142.26233873605727,83.90186521557241L142.30410893583297,137.00310926457732L142.4085344352722,2.9735561282885397L142.4503046350479,52.992581167388L142.64523223400116,111.2028237543603L143.48063622951508,37.541313243019964L143.67556382846834,84.42238336239537L143.8844148273468,161.95423931483728L144.19072962570192,61.279770764290184L144.26034662532805,206.3121892926638L144.44831252431868,61.534325500355486L144.52489122390747,52.90698447501048L144.7546273226738,-25.956249052342137L144.8103209223747,66.77307926084048L144.94259322166442,39.082285675171384L145.0191719212532,-1.0423606277876938L145.31156331968307,158.5616663946781L145.64572491788863,-12.772038732643487L145.65268661785126,115.1019333956104L146.41847361373902,96.91840386710312L146.7247884120941,-19.77131337670695L147.01021811056137,38.80354286170844L147.0659117102623,-17.60788280981611L147.48361370801925,13.367217271112924L147.49057540798185,134.0219867176573L147.8386604061127,68.0466332017282L147.8595455060005,44.608386203415954L147.87346890592573,52.41953250548439L147.91523910570143,23.603771895530674L148.3747113032341,85.24315420842284L148.6044474020004,-29.93853025179302L148.92468560028078,94.43814533611278L149.05695789957045,125.3868009104536L149.0778429994583,40.3924907743129L149.1683450989723,53.23191027844799L150.39360429239272,73.8163437300578L150.40752769231796,83.631030448338L150.47714469194415,10.868485544132756L151.28470188760755,6.638313455571809L151.31254868745805,33.14083347088157L152.001756983757,86.18216616165917L152.2245313825607,29.550032191927432L152.32199518203737,67.80291776102679L152.3428802819252,192.2443338873901L152.509961081028,87.50217723812405L152.78842907953262,7.805878488874062L152.81627587938308,101.79254397614507L153.1713225774765,-6.730607735901877L153.26878637695313,-15.66494965989974L153.53333097553252,69.58459003225114L153.55421607542038,96.99518572395125L153.68648837471008,103.94947940106688L153.9928031730652,86.58357858821894L154.0345733728409,97.2561301613692L154.0415350728035,-13.905504270608354L154.15292227220536,163.9705485896927L154.23646267175675,59.54508283172489L154.75162846899033,300.7071735668675L154.76555186891557,27.120364068676356L154.89782416820526,17.01421839859775L154.9883262677193,11.17727893326408L155.05794326734542,69.3326291353488L155.11363686704635,-22.222385945083225L155.90030896282195,63.134956233254876L156.15789186143877,-10.77579480708524L156.74267465829848,22.140846607623946L157.07683625650407,38.87058200560303L157.45276805448532,42.587869847966964L157.55719355392455,20.275960601952267L157.56415525388718,96.84027237036533L157.66858075332644,7.601745455561816L157.8286998524666,115.61216053827464L157.94704875183106,121.03379050380961L158.0097040514946,39.930724138937045L158.24640185022352,113.92217942705459L158.50398474884034,76.82825493696085L158.82422294712066,211.9541163380021L159.234963244915,69.45536201281546L159.2836951446533,68.07375252826121L159.29065684461594,19.63032661973246L159.3185036444664,15.22778021151301L159.6665886425972,96.4329130930417L159.78493754196165,-11.456709219545893L159.86847794151308,10.618106256476114L160.1539076399803,18.474296789862212L160.17479273986817,22.0826644755053L160.3627586388588,-3.193117232589621L160.56464793777465,48.28604946214417L160.73172873687744,44.930992313293096L160.8779244360924,64.98699957185143L160.96146483564377,-27.3601275950759L161.0171584353447,116.29838915780086L161.04500523519516,18.278156155271592L161.07285203504563,94.26545469460514L161.56017103242874,30.416922763559644L162.04052832984922,16.325902054867203L162.43038352775574,29.676223521611366L162.52088562726973,-10.225226084593906L162.9385876250267,52.298697559112576L163.02212802457808,1.2659453460097054L163.1056684241295,27.450161228590634L163.2100939235687,39.88555337887973L163.3771747226715,46.606485883822494L163.46767682218552,188.41655482312126L163.53033212184909,41.3379556932717L163.75310652065275,1.3666622227761607L164.40750631713868,-8.127738079187303L164.44231481695175,-3.0387099939623208L164.53281691646575,23.267817003619786L164.60939561605454,65.86477161509409L165.39606771183014,6.802125997180231L165.40302941179277,47.48018791927287L165.44479961156844,6.263029213751072L165.46568471145628,-16.15796889397071L165.5492251110077,27.514142594610195L165.65365061044693,123.40160716149201L166.3707057065964,4.0225426444095165L166.41247590637207,39.41161889637359L167.01814380311964,14.34766738658671L167.33142030143736,178.64439230542723L167.35230540132522,23.4230045028083L167.77000739908217,41.1440925759949L167.83962439870834,28.64419185660434L167.86747119855883,40.925113503896306L167.87443289852143,129.62426948966808L168.53579439496994,-3.6946138922175673L168.54971779489517,151.35933421158947L169.01615169239045,47.805303515819865L169.3015813908577,1.7343758283407922L169.6496663889885,140.01308036413897L169.70535998868942,16.275712321470184L169.80978548812865,-12.839858137099291L169.90724928760528,35.20399001159475L170.0047130870819,40.02378602695429L170.38064488506316,4.6674596304379365L170.54772568416598,7.681395297175489L170.5686107840538,22.420981237223106L170.88188728237154,86.42569180925109L171.37616797971725,55.55685478151016L171.48755517911908,201.30421340925034L171.63375087833404,17.87528864820577L171.68248277807234,93.24097257773094L172.3925761742592,43.03999921100566L172.40649957418444,88.36149717350015L172.93558877134325,56.16425599623047L173.07482277059555,186.6269217853602L173.42290776872633,-3.1067402796508854L173.49948646831513,29.122997695587248L173.91022676610947,21.637072430682185L173.9171884660721,75.1751780414739L173.94503526592257,0.30061541492485294L174.03553736543654,139.665737885659L174.13996286487577,76.97673641294757L174.56462656259535,-6.467997336745121L174.9753668603897,65.32506327608992L176.20758775377274,31.448237432375283L176.35378345298767,19.8502335692552L176.56263445186616,50.2106992091802L176.78540885066988,29.011568052196555L176.84806415033339,-2.8190139256723437L176.98033644962308,113.57719881838155L177.1056470489502,75.17389166595406L177.47461714696885,18.899285738244618L177.61385114622115,-9.457259899249685L177.7670085453987,2.484627990133124L177.92712764453887,10.275424253240164L178.04547654390336,28.13501912010391L178.0663616437912,16.651523766372822L178.08724674367906,-14.201602609527491L178.34482964229582,69.89477523751869L178.53975724124908,-21.721964779742358L178.66506784057617,8.734304204225811L178.67899124050143,30.107517818853314L179.3333910369873,33.4597491591854L179.52135693597793,-13.697195788887448L179.70236113500596,166.1145042747381L179.87640363407135,25.387321009726595L179.8972887339592,55.061558030125376L180.6352289299965,218.42992049798397L180.66307572984695,53.35105817495772L180.76750122928618,4.249809348955599L180.78142462921141,95.84449118926985L180.8162331290245,70.90072089403323L180.8580033288002,30.3906258738344L180.94850542831423,132.97968513661485L181.00419902801514,40.108138520058525L181.25482022666932,132.44609235336074L181.36620742607116,40.9862479732736L181.90225832319257,115.61218162639791L182.05541572237016,0.517042824107041L182.15287952184676,5.827875789949606L182.20857312154772,184.3022197957157L182.2503433213234,11.516418131789653L182.4313475203514,36.1548745782355L182.45919432020185,74.57964944015801L182.62627511930467,122.31173077433876L182.70285381889343,53.63380773184311L182.8629729180336,30.889866104271807L182.946513317585,36.6116644165182L183.1692877163887,38.43582925614381L183.71926201343535,17.25306248282239L183.92115131235124,128.21524544485496L184.24138951063156,4.085701573621312L185.05590840625763,54.99236789765663L185.06983180618286,142.17345315315478L185.1324871058464,22.652592095164056L185.16033390569686,160.14746163285278L185.1672956056595,52.89816963948109L185.2160275053978,-4.1334788257156205L185.32741470479965,95.28451716379739L185.71030820274353,91.6566851403705L185.72423160266877,-9.253000337197783L186.01662300109865,77.0006714328659L186.11408680057525,-6.217850018444516L186.6570993976593,30.693156090352733L186.70583129739762,20.444771028777115L186.88683549642562,128.24782659531647L188.40448608827592,8.6105590968419L188.57156688737868,89.42956844118596L188.7595327863693,-17.586879039033157L188.91269018554686,57.17058123896398L188.98230718517303,-13.439435658084186L189.0936943845749,95.05900077348322L189.56012828207017,10.247630106762319L189.86644308042526,-18.81981725449119L189.93606008005142,36.411875536600824L189.94998347997665,115.15501220189624L189.99871537971498,-2.184050533830223L190.1031408791542,22.64331332092259L190.59742157649993,91.21147268176635L190.61134497642516,93.69451484502913L190.86892787504195,97.81275117524076L191.20308947324753,58.6367751859785L191.5442127714157,54.668749557862235L191.6695233707428,30.088770477260898L191.91318286943437,115.84324419313369L192.17076576805115,23.969946068096153L192.4561954665184,17.37708173580889L192.85301236438752,117.54568838520989L193.22894416236878,96.34666266884263L193.39602496147157,47.77402982900147L193.40298666143417,-18.12285478021746L194.37762465620042,-22.408509721117717L194.56559055519105,13.30625150672184L194.80925005388258,2.093675272718276L194.8510202536583,-16.333590784613726L194.87886705350877,90.52406312733667L195.29656905126572,112.14997572318119L195.3313775510788,54.00567569769313L195.4218796505928,25.030552140142238L195.58199874973297,-36.20461302579448L195.66553914928437,39.985996110043594L196.75156434345246,10.094361626791926L197.00218554210664,80.42272554936501L197.15534294128418,78.63835399836132L197.22495994091034,37.75400805438229L197.55912153911592,37.07731126657685L197.75404913806915,96.62856870079698L197.76101083803178,32.31114234870832L198.40844893455505,87.7650617828834L198.67299353313447,-16.52793892872588L199.0280402312279,123.67539426598508L199.04196363115312,10.809459887083069L199.29258482980725,-7.925819298819043L199.41789542913438,27.544256434648407L199.4387805290222,42.741792059758914L199.92609952640532,10.338435565589027L200.61530782270432,114.46072791927857L201.37413311862943,58.917858781125084L201.55513731765748,23.204974396257132L202.07030311489106,37.5494743467278L202.37661791324615,-9.529613250209842L202.41838811302185,134.4711215671908L202.73166461133957,44.91488098711019L203.42087290763857,57.7785096567662L203.84553660535812,173.23009046273066L204.0126174044609,-0.08652035217706767L204.36766410255433,19.60101412837874L204.5208215017319,30.328141764567437L204.61132360124586,66.32200430396558L204.91763839960097,15.154477895005432L205.15433619832993,60.41026526537174L205.18218299818037,-9.378917521279128L205.30053189754486,-1.78900672049982L205.3144552974701,138.0798266628063L206.1080890932083,-0.977894234932783L206.24732309246065,8.650542178573307L206.31694009208678,-0.1263558170455421L206.7903356895447,-7.638008592347397L206.8877994890213,111.27718047703168L207.16626748752594,5.419947133297531L207.5839694852829,-9.15034335308993L207.65358648490906,12.870022588633294L207.73016518449785,-8.607872469936602L207.75801198434831,22.74791041237184L207.980786383152,15.071137631818448L208.0295182828903,128.81440120337433L208.17571398210526,-6.064982212816368L208.4193734807968,26.511360156587063L208.55860748004915,-15.43302248010965L208.57253087997435,10.448642097829708L208.69087977933884,-2.2156194543744827L208.78834357881544,-8.649943275872339L209.21996897649765,78.19693740194687L209.2338923764229,10.831454799659998L209.630709274292,-2.664712127661424L209.70032627391817,181.31523475052495L210.06233467197418,30.004312543540284L210.15283677148818,29.919770257326565L210.5844621691704,150.0996562558174L210.75154296827316,42.31604393893857L211.62175546360015,20.402173019759477L211.9419936618805,24.328823750008116L212.10211276102066,14.7090756432918L213.11155925559996,23.28924253686826L213.36914215421677,125.57117437225618L213.45268255376817,-31.56590072500645L213.6336867527962,63.31679912026433L213.74507395219803,71.04348748861214L213.75899735212326,-14.63005001012717L213.8146909518242,45.95517919644143L213.82861435174942,42.8356974727072L214.12100575017928,5.3667839745185875L214.5178226480484,73.3159436528402L214.62224814748762,-36.329032953123225L214.62920984745026,46.81494198240633L214.99817994546888,13.512830762334108L215.1652607445717,-13.912547703782558L215.23487774419783,72.10974517769621L215.31841814374926,29.5937478714787L215.74308184146884,13.674597755984752L216.20255403900146,26.60376831278275L216.26520933866502,22.34023481319908L216.48798373746874,186.28843631865618L216.55063903713224,5.799195942294166L216.6063326368332,92.35212926976835L216.66202623653413,-23.20829788448551L216.87783893537522,-37.67491915684783L216.89176233530043,53.968349719494505L217.08668993425368,175.23069962980705L217.44173663234713,16.33998892121561L217.643625931263,34.956773942429514L217.6575493311882,66.27071798815821L217.83159183025361,21.126402437429153L217.9220939297676,53.59477361565913L217.93601732969285,-4.049252861351043L217.9986726293564,-0.8460934644574176L218.4372597270012,40.14556993887353L218.7435745253563,50.7525796248818L218.77838302516935,91.02674072186808L219.2308935227394,-1.05971615324389L219.64163382053374,-11.388953079459917L219.89921671915056,14.670041527107816L219.9340252189636,11.962094529105872L219.9688337187767,125.75447233977168L220.03845071840286,74.01609043372862L220.19856981754302,-11.757552386202143L220.30995701694488,58.102908257121804L220.55361651563643,92.00638948865738L220.6232335152626,4.539075135933293L220.63715691518783,266.8212956462366L220.66500371503832,48.9161625856328L220.69285051488876,-12.683616231746974L220.91562491369245,34.49100056363121L221.05485891294478,72.35029739990621L221.47952261066436,103.16848075553806L221.486484310627,93.43888461467675L221.4934460105896,-8.357345565417027L222.17569260692596,48.19265016415451L222.56554780483248,88.96318350681265L222.87186260318757,-6.092038274979551L222.9762881026268,37.192262626554644L223.10856040191652,59.97920293748583L223.18513910150529,52.393931523827256L223.498415599823,-15.926442388522865L223.6306878991127,220.72374947515232L223.74903679847716,56.21596407450337L223.9370026974678,10.946532688377449L224.91860239219665,69.61552630909712L225.329342689991,38.9286586971053L225.52427028894425,55.46086164435754L225.8514701871872,135.53754796126108L225.87235528707504,21.28072532356335L225.9350105867386,47.213992539159186L226.40144448423385,17.401396341946185L226.5128316836357,50.96455744005274L226.5546018834114,8.77871579184519L227.13242298030852,79.27968600343281L227.16026978015898,32.35684031184754L227.3064654793739,83.95327806011944L227.6823972773552,66.6511477320583L228.19060137462617,62.38873190300827L228.28806517410277,40.1131785815215L228.51780127286912,-9.201714021390409L228.57349487257005,111.68025886533026L228.60134167242052,49.3689035042465L228.62918847227095,68.28956838186839L228.99815857028963,190.00520750199985L229.01208197021484,-13.26478382111187L229.1582776694298,6.488482339695413L229.54813286733628,115.45397852558092L229.7778689661026,44.854653307033765L230.04937526464462,4.20619911002071L230.44619216251374,71.87961048838459L230.51580916213987,18.65713081866564L231.14932385873794,4.502149832076914L231.28159615802764,59.66593886621998L232.2075022530556,3.654618157612124L232.2631958527565,-9.402726012457798L232.43027665185926,19.89291593076594L232.67393615055084,21.807633171738946L232.86190204954147,19.99928442457038L232.88278714942933,-37.162815171212024L232.93848074913026,8.481183460543281L233.05682964849473,19.53515591938761L233.07771474838256,-19.74963478597916L233.32137424707415,18.49228495901669L233.45364654636384,44.5783988921174L233.80869324445723,70.98962842176509L233.9061570439339,88.19000855501925L234.01754424333572,32.310594057503145L234.10804634284972,49.245327101848794L235.24976513671874,58.85961338463661L235.26368853664397,2.041334550747099L235.68139053440095,97.62390703130366L235.87631813335418,-3.270763702492068L236.50287112998964,12.974999266301513L236.51679452991488,-4.559606532754934L236.586411529541,-13.13637823848395L237.094615626812,167.51109687087998L237.52624102449417,19.958394553538103L237.57497292423247,-17.282345450803597L237.81167072296142,24.261426108017833L238.5008790192604,-15.447973959512375L238.8559257173538,11.764667518995413L239.12743201589583,94.10904408426661L239.1552788157463,6.72091563444413L239.51032551383972,0.6779452047033672L239.69829141283034,31.741320169665943L239.91410411167146,-2.458090695802603L239.94891261148453,-6.652244269808044L240.1090317106247,1.5144267025715024L240.21345721006392,8.829432728324111L240.3248444094658,20.18264565645571L240.6311592078209,-12.925750063202678L241.01405270576478,-10.21402829113432L241.12543990516662,3.52473640635488L241.36909940385817,25.758303274399015L241.41086960363387,73.2934848015512L241.49441000318527,32.2155077096514L241.6684525022507,27.443138883539707L242.0861545000076,42.41159422550239L242.1557714996338,7.653369181341607L242.2045033993721,-9.184864610892838L242.48297139787672,-31.887705486199103L242.60132029724122,17.785748476775627L242.6848606967926,10.149992095994168L242.78232449626924,-1.730255209052721L243.06079249477386,31.113400210998027L243.40191579294205,64.15117180580485L243.4784944925308,57.83740878507623L243.6525369915962,29.662811475207793L244.04239218950272,14.843175019204256L244.12593258905412,-15.456599001932283L244.2164346885681,56.05689636063206L244.43920908737184,16.55422316557709" fill="none"></path></g></g></g></g></g></g><g transform="translate(51, 176)" clip-path="url(#clip_1)"><clipPath id="clip_1"><rect width="278" height="23"></rect></clipPath><g><g><line x1="0" y1="0" x2="0" y2="5" style="visibility: inherit;" fill="rgb(0, 0, 0)" stroke="rgb(204, 204, 204)" stroke-width="1px"></line><line x1="34.808499813079834" y1="0" x2="34.808499813079834" y2="5" style="visibility: inherit;" fill="rgb(0, 0, 0)" stroke="rgb(204, 204, 204)" stroke-width="1px"></line><line x1="69.61699962615967" y1="0" x2="69.61699962615967" y2="5" style="visibility: inherit;" fill="rgb(0, 0, 0)" stroke="rgb(204, 204, 204)" stroke-width="1px"></line><line x1="104.4254994392395" y1="0" x2="104.4254994392395" y2="5" style="visibility: inherit;" fill="rgb(0, 0, 0)" stroke="rgb(204, 204, 204)" stroke-width="1px"></line><line x1="139.23399925231934" y1="0" x2="139.23399925231934" y2="5" style="visibility: inherit;" fill="rgb(0, 0, 0)" stroke="rgb(204, 204, 204)" stroke-width="1px"></line><line x1="174.04249906539917" y1="0" x2="174.04249906539917" y2="5" style="visibility: inherit;" fill="rgb(0, 0, 0)" stroke="rgb(204, 204, 204)" stroke-width="1px"></line><line x1="208.850998878479" y1="0" x2="208.850998878479" y2="5" style="visibility: inherit;" fill="rgb(0, 0, 0)" stroke="rgb(204, 204, 204)" stroke-width="1px"></line><line x1="243.65949869155884" y1="0" x2="243.65949869155884" y2="5" style="visibility: inherit;" fill="rgb(0, 0, 0)" stroke="rgb(204, 204, 204)" stroke-width="1px"></line><line x1="278.4679985046387" y1="0" x2="278.4679985046387" y2="5" style="visibility: inherit;" fill="rgb(0, 0, 0)" stroke="rgb(204, 204, 204)" stroke-width="1px"></line></g><g transform="translate(0, 8)"><text style="text-anchor: middle; visibility: hidden; font-family: Roboto, sans-serif; font-size: 12px; font-weight: 200;" x="0" y="0" dx="0em" dy="0.95em" fill="rgb(33, 33, 33)" stroke="none" stroke-width="1px">-5k</text><text style="text-anchor: middle; visibility: inherit; font-family: Roboto, sans-serif; font-size: 12px; font-weight: 200;" x="34.808499813079834" y="0" dx="0em" dy="0.95em" fill="rgb(33, 33, 33)" stroke="none" stroke-width="1px">0</text><text style="text-anchor: middle; visibility: inherit; font-family: Roboto, sans-serif; font-size: 12px; font-weight: 200;" x="69.61699962615967" y="0" dx="0em" dy="0.95em" fill="rgb(33, 33, 33)" stroke="none" stroke-width="1px">5k</text><text style="text-anchor: middle; visibility: inherit; font-family: Roboto, sans-serif; font-size: 12px; font-weight: 200;" x="104.4254994392395" y="0" dx="0em" dy="0.95em" fill="rgb(33, 33, 33)" stroke="none" stroke-width="1px">10k</text><text style="text-anchor: middle; visibility: inherit; font-family: Roboto, sans-serif; font-size: 12px; font-weight: 200;" x="139.23399925231934" y="0" dx="0em" dy="0.95em" fill="rgb(33, 33, 33)" stroke="none" stroke-width="1px">15k</text><text style="text-anchor: middle; visibility: inherit; font-family: Roboto, sans-serif; font-size: 12px; font-weight: 200;" x="174.04249906539917" y="0" dx="0em" dy="0.95em" fill="rgb(33, 33, 33)" stroke="none" stroke-width="1px">20k</text><text style="text-anchor: middle; visibility: inherit; font-family: Roboto, sans-serif; font-size: 12px; font-weight: 200;" x="208.850998878479" y="0" dx="0em" dy="0.95em" fill="rgb(33, 33, 33)" stroke="none" stroke-width="1px">25k</text><text style="text-anchor: middle; visibility: inherit; font-family: Roboto, sans-serif; font-size: 12px; font-weight: 200;" x="243.65949869155884" y="0" dx="0em" dy="0.95em" fill="rgb(33, 33, 33)" stroke="none" stroke-width="1px">30k</text><text style="text-anchor: middle; visibility: hidden; font-family: Roboto, sans-serif; font-size: 12px; font-weight: 200;" x="278.4679985046387" y="0" dx="0em" dy="0.95em" fill="rgb(33, 33, 33)" stroke="none" stroke-width="1px">35k</text></g><line x1="0" y1="0" x2="278.4679985046387" y2="0" fill="rgb(0, 0, 0)" stroke="rgb(204, 204, 204)" stroke-width="1px"></line></g></g></g></g></svg>