<svg viewBox="0 0 330 200" xmlns="http://www.w3.org/2000/svg"><g><g><g><g><g><line x1="41.0620002746582" y1="176.95999908447266" x2="36.0620002746582" y2="176.95999908447266" style="visibility: inherit;" fill="rgb(0, 0, 0)" stroke="rgb(204, 204, 204)" stroke-width="1px"></line><line x1="41.0620002746582" y1="157.29777696397568" x2="36.0620002746582" y2="157.29777696397568" style="visibility: inherit;" fill="rgb(0, 0, 0)" stroke="rgb(204, 204, 204)" stroke-width="1px"></line><line x1="41.0620002746582" y1="137.63555484347873" x2="36.0620002746582" y2="137.63555484347873" style="visibility: inherit;" fill="rgb(0, 0, 0)" stroke="rgb(204, 204, 204)" stroke-width="1px"></line><line x1="41.0620002746582" y1="117.97333272298177" x2="36.0620002746582" y2="117.97333272298177" style="visibility: inherit;" fill="rgb(0, 0, 0)" stroke="rgb(204, 204, 204)" stroke-width="1px"></line><line x1="41.0620002746582" y1="98.31111060248482" x2="36.0620002746582" y2="98.31111060248482" style="visibility: inherit;" fill="rgb(0, 0, 0)" stroke="rgb(204, 204, 204)" stroke-width="1px"></line><line x1="41.0620002746582" y1="78.64888848198784" x2="36.0620002746582" y2="78.64888848198784" style="visibility: inherit;" fill="rgb(0, 0, 0)" stroke="rgb(204, 204, 204)" stroke-width="1px"></line><line x1="41.0620002746582" y1="58.98666636149089" x2="36.0620002746582" y2="58.98666636149089" style="visibility: inherit;" fill="rgb(0, 0, 0)" stroke="rgb(204, 204, 204)" stroke-width="1px"></line><line x1="41.0620002746582" y1="39.32444424099392" x2="36.0620002746582" y2="39.32444424099392" style="visibility: inherit;" fill="rgb(0, 0, 0)" stroke="rgb(204, 204, 204)" stroke-width="1px"></line><line x1="41.0620002746582" y1="19.66222212049695" x2="36.0620002746582" y2="19.66222212049695" style="visibility: inherit;" fill="rgb(0, 0, 0)" stroke="rgb(204, 204, 204)" stroke-width="1px"></line><line x1="41.0620002746582" y1="0" x2="36.0620002746582" y2="0" style="visibility: inherit;" fill="rgb(0, 0, 0)" stroke="rgb(204, 204, 204)" stroke-width="1px"></line></g><g transform="translate(31.062000274658203, 0)"><text style="text-anchor: end; visibility: hidden; font-family: Roboto, sans-serif; font-size: 12px; font-weight: 200;" x="0" y="176.95999908447266" dx="0em" dy="0.3em" fill="rgb(33, 33, 33)" stroke="none" stroke-width="1px">0.1</text><text style="text-anchor: end; visibility: inherit; font-family: Roboto, sans-serif; font-size: 12px; font-weight: 200;" x="0" y="157.29777696397568" dx="0em" dy="0.3em" fill="rgb(33, 33, 33)" stroke="none" stroke-width="1px">0.2</text><text style="text-anchor: end; visibility: hidden; font-family: Roboto, sans-serif; font-size: 12px; font-weight: 200;" x="0" y="137.63555484347873" dx="0em" dy="0.3em" fill="rgb(33, 33, 33)" stroke="none" stroke-width="1px">0.3</text><text style="text-anchor: end; visibility: inherit; font-family: Roboto, sans-serif; font-size: 12px; font-weight: 200;" x="0" y="117.97333272298177" dx="0em" dy="0.3em" fill="rgb(33, 33, 33)" stroke="none" stroke-width="1px">0.4</text><text style="text-anchor: end; visibility: hidden; font-family: Roboto, sans-serif; font-size: 12px; font-weight: 200;" x="0" y="98.31111060248482" dx="0em" dy="0.3em" fill="rgb(33, 33, 33)" stroke="none" stroke-width="1px">0.5</text><text style="text-anchor: end; visibility: inherit; font-family: Roboto, sans-serif; font-size: 12px; font-weight: 200;" x="0" y="78.64888848198784" dx="0em" dy="0.3em" fill="rgb(33, 33, 33)" stroke="none" stroke-width="1px">0.6</text><text style="text-anchor: end; visibility: hidden; font-family: Roboto, sans-serif; font-size: 12px; font-weight: 200;" x="0" y="58.98666636149089" dx="0em" dy="0.3em" fill="rgb(33, 33, 33)" stroke="none" stroke-width="1px">0.7</text><text style="text-anchor: end; visibility: inherit; font-family: Roboto, sans-serif; font-size: 12px; font-weight: 200;" x="0" y="39.32444424099392" dx="0em" dy="0.3em" fill="rgb(33, 33, 33)" stroke="none" stroke-width="1px">0.8</text><text style="text-anchor: end; visibility: hidden; font-family: Roboto, sans-serif; font-size: 12px; font-weight: 200;" x="0" y="19.66222212049695" dx="0em" dy="0.3em" fill="rgb(33, 33, 33)" stroke="none" stroke-width="1px">0.9</text><text style="text-anchor: end; visibility: hidden; font-family: Roboto, sans-serif; font-size: 12px; font-weight: 200;" x="0" y="0" dx="0em" dy="0.3em" fill="rgb(33, 33, 33)" stroke="none" stroke-width="1px">1</text></g><line x1="41.0620002746582" y1="0" x2="41.0620002746582" y2="176.95999908447266" fill="rgb(0, 0, 0)" stroke="rgb(204, 204, 204)" stroke-width="1px"></line></g></g><g transform="translate(41, 0)" clip-path="url(#clip_0)"><clipPath id="clip_0"><rect width="288" height="176"></rect></clipPath><g><g><g><line x1="0" y1="0" x2="0" y2="176.95999908447266" fill="rgb(0, 0, 0)" stroke="rgb(66, 66, 66)" stroke-width="1px" opacity="0.25"></line><line x1="32.10422219170464" y1="0" x2="32.10422219170464" y2="176.95999908447266" fill="rgb(0, 0, 0)" stroke="rgb(66, 66, 66)" stroke-width="1px" opacity="0.25"></line><line x1="64.20844438340929" y1="0" x2="64.20844438340929" y2="176.95999908447266" fill="rgb(0, 0, 0)" stroke="rgb(66, 66, 66)" stroke-width="1px" opacity="0.25"></line><line x1="96.31266657511392" y1="0" x2="96.31266657511392" y2="176.95999908447266" fill="rgb(0, 0, 0)" stroke="rgb(66, 66, 66)" stroke-width="1px" opacity="0.25"></line><line x1="128.41688876681857" y1="0" x2="128.41688876681857" y2="176.95999908447266" fill="rgb(0, 0, 0)" stroke="rgb(66, 66, 66)" stroke-width="1px" opacity="0.25"></line><line x1="160.52111095852322" y1="0" x2="160.52111095852322" y2="176.95999908447266" fill="rgb(0, 0, 0)" stroke="rgb(66, 66, 66)" stroke-width="1px" opacity="0.25"></line><line x1="192.62533315022785" y1="0" x2="192.62533315022785" y2="176.95999908447266" fill="rgb(0, 0, 0)" stroke="rgb(66, 66, 66)" stroke-width="1px" opacity="0.25"></line><line x1="224.72955534193252" y1="0" x2="224.72955534193252" y2="176.95999908447266" fill="rgb(0, 0, 0)" stroke="rgb(66, 66, 66)" stroke-width="1px" opacity="0.25"></line><line x1="256.83377753363715" y1="0" x2="256.83377753363715" y2="176.95999908447266" fill="rgb(0, 0, 0)" stroke="rgb(66, 66, 66)" stroke-width="1px" opacity="0.25"></line><line x1="288.9379997253418" y1="0" x2="288.9379997253418" y2="176.95999908447266" fill="rgb(0, 0, 0)" stroke="rgb(66, 66, 66)" stroke-width="1px" opacity="0.25"></line></g><g><line x1="0" y1="176.95999908447266" x2="288.9379997253418" y2="176.95999908447266" fill="rgb(0, 0, 0)" stroke="rgb(66, 66, 66)" stroke-width="1px" opacity="0.25"></line><line x1="0" y1="157.29777696397568" x2="288.9379997253418" y2="157.29777696397568" fill="rgb(0, 0, 0)" stroke="rgb(66, 66, 66)" stroke-width="1px" opacity="0.25"></line><line x1="0" y1="137.63555484347873" x2="288.9379997253418" y2="137.63555484347873" fill="rgb(0, 0, 0)" stroke="rgb(66, 66, 66)" stroke-width="1px" opacity="0.25"></line><line x1="0" y1="117.97333272298177" x2="288.9379997253418" y2="117.97333272298177" fill="rgb(0, 0, 0)" stroke="rgb(66, 66, 66)" stroke-width="1px" opacity="0.25"></line><line x1="0" y1="98.31111060248482" x2="288.9379997253418" y2="98.31111060248482" fill="rgb(0, 0, 0)" stroke="rgb(66, 66, 66)" stroke-width="1px" opacity="0.25"></line><line x1="0" y1="78.64888848198784" x2="288.9379997253418" y2="78.64888848198784" fill="rgb(0, 0, 0)" stroke="rgb(66, 66, 66)" stroke-width="1px" opacity="0.25"></line><line x1="0" y1="58.98666636149089" x2="288.9379997253418" y2="58.98666636149089" fill="rgb(0, 0, 0)" stroke="rgb(66, 66, 66)" stroke-width="1px" opacity="0.25"></line><line x1="0" y1="39.32444424099392" x2="288.9379997253418" y2="39.32444424099392" fill="rgb(0, 0, 0)" stroke="rgb(66, 66, 66)" stroke-width="1px" opacity="0.25"></line><line x1="0" y1="19.66222212049695" x2="288.9379997253418" y2="19.66222212049695" fill="rgb(0, 0, 0)" stroke="rgb(66, 66, 66)" stroke-width="1px" opacity="0.25"></line><line x1="0" y1="0" x2="288.9379997253418" y2="0" fill="rgb(0, 0, 0)" stroke="rgb(66, 66, 66)" stroke-width="1px" opacity="0.25"></line></g></g></g><g><g><line x1="0" y1="196.62222120496963" x2="288.9379997253418" y2="196.62222120496963" fill="rgb(0, 0, 0)" stroke="rgb(153, 153, 153)" stroke-width="1.5px"></line></g></g><g><g><line x1="32.10422219170464" y1="0" x2="32.10422219170464" y2="176.95999908447266" fill="rgb(0, 0, 0)" stroke="rgb(153, 153, 153)" stroke-width="1.5px"></line></g></g><g><g><g><g><g><path style="fill: none;" stroke="rgb(255, 112, 67)" stroke-width="2px" d="M32.21979739159478,39.32444189707437L32.502314546881784,77.55653981361858L32.791252546607126,106.2082308341549L33.20860743509928,83.55112076061815L33.670908234659834,79.1682821210901L33.76722090123494,57.709275994938096L33.914900323316786,75.44849328983021L34.685401655917694,57.31680154305324L34.76887263361613,50.88944123550773L34.91013121125963,39.487252270744435L35.08991485553317,30.847667101540825L35.378852855258515,24.222881909335918L35.52653227734036,21.17708367984301L35.558636499532064,29.086877077518505L35.6742116994222,23.057356776216626L35.93104547695584,24.381831776541606L36.19430009892781,21.404647880646028L36.23282516555786,33.06352268015712L36.32913783213298,28.349098816785393L37.009747342597116,34.54808220708415L37.26658112013075,35.51224699563181L37.664673475307886,28.3570012013246L37.79309036407471,38.47510445951027L38.62137929662068,38.64577792969823L38.69200858544244,30.887311687004207L38.762637874264186,24.691122516926033L39.237780362701415,21.711917418443452L39.327672184838185,23.27121575496725L39.372618095906574,28.456106894648688L39.501034984673396,26.69514857265233L39.57808511793348,37.096196315712916L39.65513525119358,47.3811050364294L39.706502006700305,53.63862696368679L39.9248107176039,48.807117403132914L40.14311942850748,39.04173261182085L40.15596111738417,41.065153787418524L40.239432095082606,36.783454454982845L40.265115472835966,43.19164857182968L40.939304138861765,40.451529275635L41.20255876083374,32.36014789144195L41.46581338280572,25.887430015728828L41.69696378258599,28.575061030358714L41.79969729359944,30.725083526650632L41.818959826914465,26.546061974578887L42.0436893822564,25.169232628034923L42.062951915571425,39.798117965181824L42.1528437377082,35.770825125353795L42.55093609288533,32.54903126962687L42.60230284839206,33.90413757102064L42.827032403733995,29.08946402033294L43.0324994257609,44.90019537227587L43.090287025705976,49.68375407068479L43.96352186932034,39.746930643129296L44.29740578011407,31.797498042068398L44.36161422449747,35.26912573002976L44.56066040208605,43.945109803563774L44.689077290852865,35.156061535864175L44.6954981352912,49.75332781157068L45.45315777901544,53.56622363131L46.28786755599976,52.68408861342851L46.99416044421726,63.77572811842406L47.250994221750894,54.95301685919688L47.745399243503144,49.86107519060933L47.777503465694856,41.855077807875084L47.86097444339329,37.416503035136905L47.912341198900016,53.52787521080812L47.93160373221503,68.38319393399986L48.17559582087199,68.47010924754282L48.65073830930921,54.776084581336775L48.65715915374756,47.75330952721626L48.79199688695272,42.13508989993616L49.02314728673299,49.437849447849025L49.07451404223972,55.280056809313976L49.337768664211694,52.08893361178479L49.39555626415677,61.333369508383775L49.491868930731876,58.89780656189528L49.54965653067695,68.74668921875946L49.78080693045722,56.96357373054489L49.78722777489556,47.537081457079864L49.87711959703234,39.995887713256145L49.986273952484126,35.92915313087017L50.15963675231934,48.4055447662739L50.365103774346245,46.589324176003984L50.474258129798045,37.27145927336976L51.193392706892226,35.715833108270616L51.89968559510972,38.40377755931469L51.90610643954807,30.72302201899192L52.03452332831488,24.57841759697923L52.04094417275323,29.493845149488397L52.297777950286864,33.42618718729938L52.64450354995728,26.740949739693246L52.760078749847416,37.12253656318933L52.9141790163676,39.529140313137546L53.06827928288778,33.58953492672816L53.0875418162028,48.5000715800225L53.6525761267768,38.800057259193956L53.96077665981717,56.60093480547538L54.4680233704461,47.24697052223669L54.57717772589789,37.79757641538324L54.74411968129476,36.13672683054956L55.0009534588284,32.84182448165036L55.21926216973199,26.273459584463982L55.321995680745445,32.81610140933563L55.5659877694024,28.219103807918525L55.61093368047079,22.57528304595809L55.65587959153917,20.026449117463955L55.67514212485419,23.88604767355092L55.79713816918267,28.93994919926195L55.93839674682617,25.118182040138656L56.38785585751004,20.09454563200105L56.81163159044054,16.075636505530515L57.24182816780937,18.759174903043267L57.35740336769952,15.007339922392601L57.62707883410984,13.9720946187384L57.86465007832845,13.143898375818377L57.9352793671502,20.34622976094447L58.326950877889,18.243206489579507L58.487471988847524,38.18923150194119L58.56452212210761,44.31493927956711L58.58378465542263,47.24928516474265L58.72504323306614,45.66431651120602L58.94977278840807,40.4638962267047L59.020402077229825,34.33733966218995L59.24513163257175,33.36853742833233L59.43775696572198,26.694829942660718L59.82942847646078,21.355863954125304L59.89363692084418,17.084691163298128L60.70266332007514,15.633975611471543L61.22275171958075,28.23695724801096L61.24843509733412,28.488231496990117L61.40895620829264,28.68925089617341L61.717156741333014,42.61362283743791L61.95472798555162,49.820675028781025L62.217982607523595,41.82276270385761L62.26934936303032,33.458210163085404L62.327136962975395,34.63145650988328L62.47481638505724,29.671387888739957L62.77659607365926,23.737110310991707L63.129742517768015,20.955910929626885L63.155425895521375,18.730951424535036L63.2067926510281,24.815872199876672L63.450784739685055,27.717586139316246L63.63056838395861,22.17406891145292L64.71569109403822,19.705477809995916L64.7734786939833,17.73060492883032L64.78632038285997,14.184483943064235L65.05599584927029,17.246252853032676L65.08167922702366,13.797002282426137L65.20367527135213,16.936267524522204L65.40914229337905,13.549014019617749L65.49261327107747,12.805433896527774L65.653134382036,27.940346556885594L65.73660535973443,24.3184999263421L65.83291802630954,29.285911001322148L65.89070562625461,23.428728801057698L66.10259349271986,18.742983040846166L66.25669375924004,20.89305213125823L66.27595629255507,22.613107403587865L66.53279007008871,22.02292894061794L66.79604469206069,19.584565833327957L67.065720158471,15.667652666662383L67.12350775841607,12.534122133329891L67.47665420252483,15.925963405245223L68.4911476237827,12.740770724196183L68.89566082339816,12.158839260190542L69.07544446767172,9.727071408152424L69.55058695610894,11.714100144269603L69.76889566701253,11.3375027962493L69.85236664471097,9.070002236999452L70.34677166646321,9.222224470433172L70.50729277742174,7.3777795763465255L70.6100262884352,15.73333472132571L70.96959357698228,22.41777883730904L71.34200255440606,23.832888768428514L71.51536535424127,19.066311014742812L71.54104873199462,21.151714510375527L72.07397882037692,18.887594289134036L72.18955402026707,42.63718593121907L72.42070442004734,40.00841444355655L72.76100917527941,33.97295423567886L72.77385086415609,27.178363388543087L72.92795113067628,47.30357970187247L72.9343719751146,39.80908644233158L72.96647619730632,33.813491834698866L72.99858041949803,27.050793467759085L74.01949468519423,21.640634774207268L74.16717410727607,17.31250781936583L74.25064508497451,15.816228936326235L74.2827493071662,26.41653722705715L74.38548281817965,30.96434084189418L74.41758704037136,26.737695354348933L74.47537464031643,21.390156283479143L74.57810815132989,19.07834770761691L74.95051712875367,27.060011907175607L75.3165052617391,21.64800952574049L75.44492215050592,23.21707331917368L75.77880606129963,20.539881336172552L76.03563983883328,20.364348086685713L76.08700659434,16.291478469348583L76.5107823272705,14.999405456312461L76.53004486058552,11.999524365049972L76.60067414940728,17.464507871454853L76.99234566014609,17.904049314911543L77.02444988233779,16.28946213276284L77.03729157121445,16.964012723957932L77.39685885976155,17.503653196914023L77.80137205937703,33.665144678028184L77.82063459269204,26.932115742422535L77.8591596593221,23.511915274771646L78.10315174797906,18.80953221981731L78.37924805882771,15.047625775853843L78.67460690299141,17.936766319264372L78.80944463619656,18.281856073159148L79.02775334710014,44.11881803927275L79.22037868025039,37.261277112251825L79.3166913468255,35.70768738838276L79.40658316896227,48.228372031203165L79.8496214352078,38.58269762496253L80.02940507948134,32.83238078080362L80.0550884572347,30.198347642390562L80.06793014611138,37.922232191908584L80.14498027937147,30.337785753526884L80.29908054589166,24.270228602821508L80.37613067915176,23.34862590000488L80.46602250128852,28.510011780252377L80.53665179011027,30.672897803616788L80.85769401202732,32.403206622308296L80.92832330084907,29.855008315594308L81.14663201175266,47.47867296267982L81.1851570783827,37.98293837014388L81.28789058939616,44.14990477411126L81.71808716676499,53.01592325895236L81.73734970008003,48.31140430574318L81.90429165547688,40.61534612542813L82.14828374413385,32.4922769003425L82.15470458857219,37.791155261356074L82.32164654396905,30.23292420908486L82.53995525487264,32.05122774668275L82.79678903240628,29.573425215093874L83.3810858762953,31.523628551489978L83.76633654259577,29.15134585893963L84.25432071990967,25.287299367985334L84.39557929755317,20.229839494388273L84.85788009711372,16.18387159551061L85.24955160785251,12.947097276408504L85.33944342998927,10.357677821126796L85.371547652181,10.252364937735031L85.8916360516866,12.134334967935695L86.02005294045343,9.707467974348551L86.62361231765748,7.765974379478854L86.9896004506429,8.179002184416698L87.02812551727295,8.509424428366948L87.43905956132677,6.807539542693547L87.70231418329874,7.412254314988436L87.72799756105212,17.72713719307284L87.92704373864068,14.18170975445828L88.11966907179091,11.345367803566633L88.29945271606445,18.907405303101775L88.45355298258463,22.99081262189629L88.46639467146132,28.223761157765498L88.75533267118665,22.579008926212406L88.81954111557008,18.063207140969926L89.05711235978869,16.41678839360955L89.10205827085706,13.133430714887648L89.35889204839071,12.472967252743738L89.79550947019789,9.978373802194985L89.93034720340304,7.982699041755997L90.10371000323825,16.217270293653268L90.26423111419678,16.90625925267027L90.66874431381227,19.423673100717508L90.86779049140083,15.538938480574004L91.25304115770128,12.431150784459199L91.50987493523492,9.944920627567374L91.76028786833022,19.753270243135976L91.8373380015903,19.73505921225644L91.89512560153538,15.788047369805145L91.99143826811049,14.596660576677712L92.10701346800062,11.677328461342173L92.1969052901374,9.341862769073726L92.28037626783582,27.135712335755937L92.37668893441095,25.64101288635242L92.81972720065647,20.51281030908192L93.34623644460042,32.14002500609529L93.40402404454548,27.678242685709808L93.52602008887398,22.142594148567856L94.20020875489976,17.71407531885427L94.20662959933811,20.0699259536647L94.46346337687174,16.055940762931765L94.72671799884372,12.844752610345408L94.73313884328205,10.275802088276311L94.8487140431722,18.05175273086953L95.11196866514419,16.407624865529243L95.26606893166436,19.024765591004677L95.3495399093628,23.084700852218628L95.45869426481458,20.433983362608515L95.63205706464979,20.279629707834463L95.77973648673164,26.05481482651608L95.9787826643202,28.708740240627726L95.98520350875854,22.966992192502175L95.99162435319688,32.13714783199789L96.0558327975803,25.709718265598323L96.13930377527872,22.533997293312275L96.17782884190876,19.99342051548341L96.26772066404556,15.994736412386736L96.7171797747294,28.525565888739138L96.8905425745646,24.786675391824907L97.08958875215319,19.829340313459927L97.19874310760497,15.863472250767941L97.53904786283704,16.623220818362014L97.64820221828884,15.26479933552323L97.69314812935723,18.11050516699989L98.03987372902765,26.285737874681985L98.1105030178494,21.028590299745595L98.50859537302652,16.82287223979647L98.52785790634157,13.458297791837165L98.53427875077989,12.732860914303343L98.84890012825859,18.051177110857555L99.16994235017565,14.440941688686033L99.2084674168057,13.518976031782426L99.21488826124403,12.781403506259531L99.25341332787407,20.056233865256083L99.52950963872273,16.04498709220487L99.63866399417454,12.83598967376388L99.9147603050232,14.201234756758765L100.13948986036512,13.327210486240604L100.37706110458373,10.661768388992474L100.44126954896716,10.495637392027582L100.45411123784383,10.362732594455688L100.85220359302096,12.222629093312209L100.91641203740438,17.64299165406465L100.96135794847277,20.013059021832998L101.26313763707478,17.976669898299996L101.71901759219699,14.38133591864L102.8811904355367,11.505068734911983L102.9132946577284,22.967609065925735L102.96466141323513,24.27275295132187L103.08023661312527,23.350645378805158L103.33707039065891,18.68051630304413L103.49117065717908,14.944413042435313L103.52969572380914,17.854196132529513L103.82505456797281,16.249579586857234L104.09473003438315,16.93210668723346L104.13325510101318,13.545685349786769L104.18462185651991,26.566325038659155L104.85881052254571,31.084171091175786L105.26332372216118,28.799779890688292L105.3596363887363,23.039823912550624L105.57794509963989,20.398081810874114L105.69352029953004,26.14957650894776L106.44475909881592,22.885883887991824L106.65664696528117,20.274929791227063L107.20241874254015,22.118609531562935L107.45925252007379,21.627330642998015L107.5876694088406,17.301864514398414L107.64545700878567,19.74015731010003L107.78029474199083,19.724568865827678L107.99218260845609,17.74587777349576L108.17196625272962,24.027813279045105L108.30038314149645,25.120916321817372L108.35817074144151,20.09673305745389L108.86541745207045,25.90849750621157L108.97457180752225,40.38902012546621L109.32771825163098,32.311216100372974L109.6423396291097,29.781415898046035L110.27800322850545,23.82513271843684L110.30368660625882,19.06010617474946L110.6632538948059,19.180527957547245L110.89440429458618,17.31064504687138L111.09345047217475,23.67962709774557L111.18334229431152,18.94370167819645L111.42733438296848,17.121184023390782L111.68416816050211,19.59561291729391L111.70985153825548,15.676490333835117L111.72269322713215,14.507414947901692L111.85753096033731,11.605931958321369L111.86395180477565,21.082079307739168L111.96026447135077,18.831886127024944L112.03731460461087,17.031731582453546L112.21067740444607,15.591607946796437L112.22351909332276,12.473286357437164L112.23636078219943,13.911072103697402L112.71150327063665,15.061300700705583L113.0132829592387,17.94770625914576L113.31506264784072,20.256830705897872L113.70031331414116,16.20546456471831L114.23324340252347,12.964371651774654L114.93953629074096,24.135051399415875L114.96521966849433,19.308041119532707L115.21563260158962,15.446432895626149L115.39541624586317,22.1882573767494L115.42109962361654,23.64927159998081L115.7293001566569,28.75052834023313L115.8834004231771,23.000422672186513L116.16591757846408,20.366560818582784L116.78231864454482,20.225691672613884L117.2510402885437,24.04544171750598L117.52713659939235,19.236353374004796L117.8160745991177,17.35530538003744L118.066487532213,13.884244304029968L118.25911286536322,11.10739544322396L118.49668410958184,14.78458205316046L118.9268806869507,17.726331341109656L119.10666433122422,24.01217613313621L119.15803108673096,19.209740906508973L119.57538597522313,23.23268110462207L119.6973820195516,18.586144883697653L119.7294862417433,16.83513858779172L120.72471712968614,25.265444611315463L121.02649681828817,26.111021387633652L121.456693395657,22.855039790940527L121.80983983976576,22.21647485050008L121.86762743971082,21.705622898147723L122.0345693951077,21.296941336265842L122.29140317264132,17.037553069012663L123.13253379406399,13.630042455210122L123.20316308288574,10.904033964168114L123.31873828277588,14.621892869915754L123.6526221935696,31.359736416429552L123.697568104638,27.054011813977244L124.26902325965034,21.64320945118181L124.31396917071872,21.2470105786931L124.55796125937569,28.794942204036577L124.59648632600573,28.934619461810538L124.6863781481425,23.147695569448434L124.74416574808757,20.484379136392345L125.43119610299004,16.38750330911388L125.70087156940036,26.87355672528725L125.99623041356405,25.43128839797746L126.13748899120753,20.345030718381974L126.77957343504164,16.27602457470558L127.25471592347887,18.919485358345753L127.46018294550578,15.135588286676601L127.5436539232042,12.108470629341282L127.56933730095759,11.652999184306632L127.90964205618965,15.22106504602657L127.935325433943,23.974185777903344L128.03163810051814,19.17934862232267L128.53888481114706,17.30970157869175L128.83424365531073,19.746426961534674L128.84066449974907,15.797141569227746L128.86634787750245,24.435046996464273L129.1231816550361,25.446703295752705L129.21307347717286,30.188473696850625L129.30296529930962,24.150778957480497L129.39927796588475,19.3206231659844L129.5469573879666,15.456498532787514L129.60474498791163,12.365198826230019L129.69463681004842,15.790824759565291L130.56145080922445,18.531325506233514L130.65134263136122,18.75750342273447L130.74123445349798,15.006002738187567L130.79902205344305,12.004802190550054L131.10722258648343,11.570064433273641L131.24848116412693,9.256051546618913L131.34479383070206,7.404841237295127L131.3833188973321,13.788761369250972L131.56310254160562,18.895897474815655L132.33360387420655,15.11671797985251L132.51338751848007,16.025817401629673L132.9885300069173,16.753096939051396L133.05273845130074,15.368700232074719L133.22610125113593,14.261182866493394L133.29673053995768,11.408946293194711L133.50861840642293,20.924490775637864L133.68198120625814,16.73959262051028L133.7526104950799,17.324117114155907L134.0222859614902,13.859293691324728L134.3369073389689,16.986100651641063L135.04320022718642,17.521323539060507L135.3257173824734,19.915724529829678L135.5889720044454,25.763690684112223L136.0255894262526,22.577175228123377L136.0320102706909,18.061740182498703L136.37231502592297,32.14539158566232L136.38515671479968,29.648756286277518L136.84745751436023,27.651448046769662L137.05934538082545,22.121158437415747L137.35470422498915,17.69692674993259L137.47670026931763,22.02242977936094L137.57943378033107,23.516609522070038L138.72234409035576,20.779510298489612L139.53137048958672,20.556051256539355L139.55705386734007,16.444841005231478L140.19271746673584,13.155872804185174L140.39818448876275,16.423363941929413L140.48807631089952,19.03735685212482L140.50733884421453,15.229885481699853L140.66143911073473,12.183908385359898L140.91827288826835,9.747126708287922L140.94395626602173,7.797701366630346L141.27141933237712,16.069272153552753L141.36131115451388,30.551417162505583L141.60530324317085,24.44113373000446L141.74656182081435,21.519129664837166L142.02907897610135,17.215303731869728L142.0676040427314,23.60335404574428L142.07402488716974,18.88268323659542L142.17675839818318,24.937257649524827L142.25380853144327,19.949806119619865L142.7289510198805,25.79095595594435L142.8637887530857,30.463875825003964L142.9472597307841,26.337323340836754L143.0114681751675,26.968524371250673L143.06283493067423,23.541042177834154L143.78839035220676,18.832833742267326L144.02596159642536,20.96493269239513L144.565312529246,20.704389171663774L144.87351306228638,16.56351133733101L145.31655132853192,13.250809069864825L145.32297217297025,10.600647255891852L145.5669642616272,8.480517804713473L145.67611861707897,6.784414243770787L145.73390621702407,13.292419774431492L145.95221492792766,14.566378837292852L146.18978617214628,11.65310306983427L146.48514501630993,13.254925473615094L146.86397483817206,10.603940378892059L146.9153415936788,10.44937498394727L146.94102497143214,8.359499987157823L147.26206719334922,8.653822670559856L147.71152630403307,6.923058136447882L147.7307888373481,5.53844650915831L147.90415163718328,4.430757207326652L148.24445639241537,7.477048783608975L148.3792941256205,5.981639026887176L148.45634425888062,4.785311221509756L148.50771101438733,5.794471658041396L148.5333943921407,20.365354085262883L148.5590777698941,18.258505949043897L149.00853688057794,26.404138500317202L149.45157514682344,27.021976498835038L149.81114243537056,25.55002421681571L149.89461341306898,20.440019373452554L150.27986407936942,16.35201549876205L150.43396434588962,18.98027809759092L150.53027701246472,17.150445158906336L150.68437727898493,29.450132885954822L150.76784825668335,23.560106308763853L150.82563585662842,18.84808504701107L151.03110287865533,17.04469071844244L151.63466225585938,21.50064095416883L151.66676647805107,21.132955781082714L151.7502374557495,16.90636462486617L151.82086674457128,15.491314380726509L152.54642216610378,14.359274185414826L152.55284301054212,13.453642029165463L152.59136807717218,12.72913630416597L152.6106306104872,14.11575206108044L152.6876807437473,17.191267347445642L152.7839934103224,17.685456895704185L153.48386545410156,20.047031215144607L154.04247892023722,18.003847652949286L154.3506794532776,14.403078122359421L154.73593011957803,17.421128196468825L154.80013856396144,17.869345574922725L154.82582194171482,16.261699140771803L154.83224278615316,13.00935931261745L155.44222300779555,10.40748745009396L155.88526127404108,10.292212640908751L156.14851589601307,21.99732419072315L156.52092487343683,19.564082033412117L156.70712936214872,15.651265626729698L156.79702118428548,12.521012501383765L157.29784705047607,11.983032681940612L157.31710958379108,9.586426145552473L157.60604758351644,7.669140916441979L158.06192753863866,8.101535413987206L158.1646610496521,8.447451012023363L158.29949878285726,10.690403827366351L158.34444469392562,8.552323061893086L159.50019669282702,24.537857889177822L159.62861358159384,21.596508992175867L159.8469222924974,17.277207193740697L159.94965580351086,13.821765754992542L160.0202850923326,11.05741260399403L160.39911491419474,12.778373100942893L160.40553575863308,14.155141498501992L160.43121913638643,19.18900157821647L160.51469011408489,29.114755340569335L160.61100278066,27.224247290203117L161.0026742913988,21.779397832162502L161.38150411326092,25.28840664514487L162.51799357884724,20.23072531611591L162.84545664520263,16.184580252892722L163.05092366722954,16.880107220061845L163.1087112671746,13.504085776049482L163.23070731150307,14.73571163858726L163.34628251139324,11.788569310869816L163.68658726662528,11.39707812952944L163.8150041553921,11.083885184457174L163.9562627330356,14.765773846147024L164.10394215511747,11.812619076917626L164.21309651056927,11.416317942367673L164.2323590438843,9.13305435389413L164.2516215771993,9.272666163948927L164.4891928214179,9.384355611992754L164.66897646569146,17.338595549842694L164.7845516655816,17.803319457621807L164.79739335445825,14.242655566097438L165.40095273166233,11.394124452877968L165.57431553149755,13.04774258005003L165.7412574868944,14.370637081787706L165.9017785978529,11.496509665430166L165.92104113116795,11.163430413177723L166.6016506416321,22.694298408538337L166.62733401938544,24.054104425411953L166.72364668596055,21.209506221163167L166.73648837483722,20.90004799467821L166.76859259702894,24.584926775157424L166.807117663659,21.63416410095954L166.94195539686413,21.239774298515293L167.17310579664442,16.99181943881222L167.27583930765786,15.559678231883378L167.7702443294101,12.447742585506699L168.0013947291904,13.89063708615302L168.05276148469713,13.078732349756015L168.0912865513272,16.361651578386102L168.25822850672404,20.954209642123747L168.2839118844774,18.72959039453263L168.4380121509976,26.78100605670818L168.50864143981934,31.255915905615037L168.65632086190118,32.86962110390691L168.93883801718817,28.261919563959143L169.44608472781712,34.40686939224939L169.632289216529,27.525495513799513L169.9276480606927,29.885284790454477L170.67888685997855,25.874450513197182L170.69172854885525,28.564448789972623L170.74951614880032,22.851559031978102L170.7751995265537,20.247469906416075L170.78162037099202,24.062864304547748L170.8265662820604,25.148957142219473L170.92929979307385,20.119165713775583L171.28244623718263,20.027775588768147L171.29528792605927,16.022220471014524L171.5649633924696,14.783999057645193L171.65485521460639,13.793421926949769L172.155681080797,11.034737541559831L172.2006269918654,8.827790033247865L172.3675689472622,7.062232026598283L173.76731303482057,7.616008302112229L173.92141330134075,8.059029322523406L174.09477610117597,6.447223458018737L174.23603467881944,5.157778766414977L174.30024312320288,4.126223013131974L174.40297663421632,5.267201091339162L174.83317321158515,4.213760873071346L175.11569036687214,5.337231379290667L175.19274050013223,14.10089616368101L175.23768641120063,13.246939611778412L175.33399907777576,12.563774370256333L175.78987903289797,10.051019496205061L175.80272072177465,11.97325861471171L176.04029196599322,13.51104990951703L176.3484924990336,10.808839927613608L176.6631138765123,10.61329462292449L176.77868907640246,10.456858379173191L177.00341863174438,16.230375082753426L177.24098987596298,22.81541112645121L177.50424449793496,20.218551581994546L177.8702326309204,37.803284894966424L178.21695823059082,38.10751629538802L178.37747934154933,30.486013036310407L179.27639756291708,26.35503310988194L179.44976036275227,26.982692186486826L179.6744899180942,21.586153749189467L180.12394902877807,17.268922999351563L180.1560532509698,21.680026778896142L180.23952422866822,19.310244103950527L180.38720365075005,15.448195283160425L180.46425378401014,14.324778907361962L181.46590551639133,17.358488824470836L181.6970559161716,13.886791059576684L181.9025229381985,32.73787647703215L182.39050711551243,26.190301181625713L182.39692795995074,26.850906643881842L182.99406649271646,21.48072531510547L183.56552164772881,17.184580252084366L183.5783633366055,13.74766420166751L183.9250889362759,16.89679705991528L183.9443514695909,13.517437647932224L184.3938105802748,14.746393136093452L185.02947417967056,17.69578020745604L185.8962881788466,20.055289864546108L186.37143066728382,18.010454572470515L186.6539478225708,18.340806675724064L186.69247288920084,14.672645340579265L186.98141088892618,13.704338953297004L187.61707448832195,12.929693843471217L188.49030933193632,10.343755074776974L188.63156790957981,8.275004059821583L188.71503888727824,12.518668946438554L188.99755604256524,10.014935157150836L189.21586475346885,13.910613824301933L189.24154813122217,13.09471374027516L189.36354417555066,22.273104733302237L190.09552044152153,17.818483786641774L190.2881457746718,14.254787029313427L190.72476319647893,23.20116336453282L190.81465501861572,24.45959639020754L191.07148879614937,19.567677112166027L191.4567394624498,17.620364370566417L191.52094790683324,16.062514177286747L191.59157719565496,14.816234022663025L191.61726057340834,17.75165291671168L191.82272759543525,14.201322333369356L191.86767350650362,13.327280547529096L192.0025112397088,12.628047118856852L192.22724079505073,14.034880712833136L192.35565768381753,28.923904009929885L192.36849937269423,25.1053458887775L192.477653728146,25.982942409603297L192.5675455502828,24.71879694543029L192.96563790545994,21.74126023717785L192.97847959433662,19.3592308705759L193.34446772732204,21.38605039504201L193.8260310601976,30.87239439402975L194.22412341537475,24.697915515223816L195.18082923668754,19.75833241217905L195.47618808085124,17.77288861057684L195.62386750293308,20.116976587042764L196.55488994649252,16.093581269634207L196.79246119071112,20.73975339512223L196.86951132397124,18.5580253969314L197.03645327936806,18.77886333529277L197.13918679038153,20.921756366815487L197.15202847925823,24.602293472867267L197.20339523476494,21.648057459127404L197.21623692364165,27.149557027550422L197.48591239005196,25.652088639787998L197.8519005230374,22.48789359266403L197.9482131896125,29.7876486152133L197.95463403405083,29.72878459075192L198.2949387892829,25.749250353435134L198.4490390558031,20.599400282748125L198.5132475001865,16.4795202261985L198.5902976334466,15.149838861792398L198.98196914418537,19.984759468848782L199.4057448771159,15.987807575079025L199.46353247706097,26.55380013805939L199.66899949908787,23.209262791281127L199.72678709903292,20.533632913858494L199.77815385453968,20.359349348834467L199.8295206100464,18.253702159901188L200.02856678763493,16.569184408754563L200.04140847651163,13.255347527003654L200.73485967585245,18.469166401017805L200.74770136472915,14.77533312081426L200.90822247568767,11.820266496651412L200.9916934533861,9.456213197321125L201.00453514226277,7.564970557856904L201.06232274220784,6.051976446285535L201.46683594182332,4.841581157028436L201.74935309711032,3.873264925622753L201.781457319302,3.0986119404981984L202.1988122077942,2.4788895523985546L202.57764202965632,3.949334322752419L202.81521327387492,5.12569013903555L202.84731749606664,19.830328870058178L202.87942171825833,21.762928794627825L203.09130958472358,21.342786053449913L203.19404309573704,22.972894541341216L203.41877265107897,24.27698133165424L203.48298109546238,21.387807746156984L203.49582278433905,17.110246196925594L203.5215061620924,27.451751035536617L203.5471895398458,29.826289207844173L203.88107345063952,37.62458544427148L204.27274496137832,30.099668355417187L204.27916580581663,26.045957365167354L204.285586650255,24.76920890988154L204.91482940521243,23.747810145652913L205.27439669375948,24.896913815103616L205.55691384904648,23.849974069830562L205.6532265156216,36.775978695527805L205.7752225599501,29.420782956422254L205.84585184877182,51.06373686504962L206.13478984849718,40.850989492039695L206.25678589282563,34.64701427446538L206.36594024827744,27.717611419572293L207.44464211391872,22.174089135657834L207.82347193578087,19.70549398935989L208.3050352686564,17.730617872321528L208.32429780197143,22.049382677272096L208.3820854019165,27.470617202066137L208.81228197928536,27.875159460234183L208.91501549029883,24.26635024902096L208.95354055692886,19.413080199216754L209.48647064531116,15.530464159373402L209.5121540230645,22.255482387747207L209.64699175626967,23.703051608779067L209.99371735594008,18.96244128702324L210.46243899993897,21.068618728199887L210.55233082207573,18.82111766339353L210.76421868854098,18.989337148462504L210.8155854440477,15.191469718769987L210.84126882180107,14.119398455849593L211.2072569547865,15.227961782427355L211.2200986436632,14.148592106775455L211.35493637686835,13.285096366253963L211.71450366541546,10.628077093003155L211.9263915318807,16.36735005381741L212.176804464976,13.093880043053913L212.54279259796144,14.407547052190804L213.19129788623385,11.526037641752636L213.31329393056234,11.187052794235711L214.2186329963684,12.882085253136246L214.79008815138076,29.967890323005953L214.84145490688746,23.974312258404755L215.19460135099624,19.179449806723795L215.3165973953247,19.276002863126703L215.64406046168008,15.420802290501356L215.83668579483032,16.269084850148765L215.92015677252874,14.981490560952606L216.97317526041667,11.985192448762088L216.98601694929334,13.520596976757329L217.3712676155938,28.512477021069216L217.55105125986736,30.674869996270242L218.12892725931803,28.47233901476386L218.1417689481947,22.77787121181108L218.20597739257812,18.222296969448863L218.674699036577,16.544060256392697L219.07279139175415,21.10013658452903L219.11773730282255,22.7787749662045L219.3360460137261,20.189242653797216L219.9717096131219,20.083837140785423L220.29917267947727,16.067069712628346L220.54958561257257,12.853655770102677L220.57526899032592,16.1815903146634L220.9027320566813,12.945272251730735L221.07609485651653,10.356217801384588L221.27514103410508,14.183639939688957L221.3072452562968,11.346911951751167L221.45492467837866,9.077529561400933L221.6539708559672,9.228246329954326L221.9364880112542,7.382597063963464L222.28963445536294,5.906077651170763L222.3923679663764,6.691084801770225L222.61709752171834,7.319090522249806L222.65562258834836,5.855272417799833L222.73267272160848,4.684217934239859L222.893193832567,5.7135970282254895L223.34265294325087,4.5708776225803875L223.38759885431926,9.555367796645598L223.49675320977107,9.610516918150097L223.64443263185288,7.688413534520073L223.7535869873047,6.150730827616071L223.92052894270154,12.785473041507723L224.1773627202352,16.127044131787475L224.49198409771387,16.83407832317763L224.56261338653565,13.467262658542111L224.72313449749416,12.740032807667284L225.08270178604127,18.056914625548693L225.15975191930136,14.445531700438947L225.24322289699978,11.556425360351154L226.0137242296007,13.177583306028573L226.28982054044934,22.339400385904945L226.36044982927112,25.736408688138848L226.37329151814777,22.555349631344694L226.39897489590115,27.87539076532424L226.6558086734348,26.23275563000705L226.86769653990004,24.9186475217533L226.97043005091348,19.934918017402644L227.09242609524196,19.880377431669793L227.4455725393507,19.836744963083504L228.1326028942532,21.768061669048087L228.62058707156712,21.346892352986153L228.67195382707385,17.077513882388907L228.67837467151216,17.59445412365879L229.15993800438775,14.075563298927031L229.24340898208618,11.260450639141625L229.33330080422297,9.008360511313311L229.55160951512653,9.172911089884265L230.19369395896064,9.304551552741037L230.45694858093262,9.409863923026425L230.63031138076784,9.49411381925473L230.79083249172635,9.561513736237364L230.8486200916714,7.6492109889898945L230.88714515830145,6.119368791191912L230.93851191380818,6.861717713787144L230.98345782487658,5.4893741710297155L231.1889248469035,6.357722017657359L231.37512933561538,7.052400294959486L231.90805942399768,13.506808615382452L232.50519795676337,16.704112590887227L232.71708582322864,13.363290072709788L233.1665449339125,12.65685473900143L233.31422435599433,19.956594851449612L233.56463728908963,21.863941579740956L233.78294599999322,19.457375944626378L234.16177582185534,17.532123436534725L234.21956342180042,19.924364447809065L234.46997635489572,29.7030456362434L234.80386026568942,23.762436508994735L235.0478523543464,19.009949207195792L235.1891109319899,15.207959365756649L235.38815710957846,23.963701233687395L235.61930750935872,34.90073774577967L235.6449908871121,27.92059019662373L235.6963576426188,22.336472157298978L236.10087084223431,19.835400406672782L236.12013337554933,19.800763343085904L236.65948430836997,15.84061067446874L236.79432204157513,16.60493155732266L236.8713721748352,19.182610944439418L236.94200146365696,15.346088755551518L237.0447349746704,18.1755367030225L237.13462679680717,26.33776310350008L237.26946453001236,23.036433163633674L237.4171439520942,18.42914653090693L237.5327191519843,14.743317224725548L237.66113604075113,15.7270967975281L238.68205030644734,14.547900118856074L238.69489199532404,13.604542775918453L238.9067798617893,12.849856901568375L239.20213870595296,16.178551219835995L239.74791048321194,12.942840975868789L240.15242368282742,10.35427278069503L240.8266123488532,8.283418224556016L240.91650417098998,6.626734579644829L241.22470470403036,7.267610344549454L241.5264843926324,11.712753974220847L241.83468492567275,9.370203179376666L242.0144685699463,7.496162543501325L242.3611941696167,5.996930034801056L242.77854905810887,8.729987045588523L242.7849699025472,6.983989636470802L242.8620200358073,5.587191709176658L242.86844088024563,4.46975336734133L243.3628459019979,3.57580269387306L243.40137096862793,2.8606421550984598L243.77377994605172,4.254736404912363L243.9021968348185,3.403789123929878L244.0691387902154,2.7230312991439067L244.2938683455573,2.178425039315121L244.89742772276136,1.7427400314520891L245.17994487804836,3.3604147059952663L245.436778655582,20.384331204459563L245.72571665530734,16.307464963567647L245.7835042552524,16.97841498860179L246.24580505481296,17.51517500862911L246.51548052122328,14.012140006903277L246.61179318779838,11.209712005522613L246.64389740999007,8.967769604418079L246.72736838768853,11.106658701282122L246.82368105426366,10.851549641859311L247.3630319870843,10.64746239432104L248.49310060823228,10.48419259629043L248.54446736373902,8.387354077032345L248.807721985711,6.709883261625868L248.81414283014934,5.36790660930069L249.02603069661458,8.22676830518823L249.14802674094307,6.581414644150588L249.32138954077828,5.265131715320474L249.50759402949018,4.212105372256364L249.53969825168187,5.335906978638693L249.55253994055852,6.2349482637445375L249.68095682932534,6.954181291829217L250.40651225085787,9.495788051211054L250.47714153967965,9.562853121802435L250.54777082850137,7.65028249744194L250.9715465614319,6.12022599795356L250.98438825030857,4.896180798362848L251.0999634501987,5.883167319523869L251.32469300554064,6.67275653645269L251.67783944964938,13.203093608577019L252.18508616027833,16.461140585442898L252.21719038247002,13.168912468354304L252.7501204708523,18.400018354098336L253.3922049146864,24.551125743527166L253.46283420350818,19.640900594821748L253.61693447002833,15.712720475857383L254.20123131391736,12.570176380685908L254.21407300279404,12.022363785382309L254.40669833594427,11.58411370913945L254.41311918038264,9.267290967311576L254.70205718010797,11.34627579159693L255.17077882410686,11.04324331411114L255.6202379347907,8.834594651288915L255.90275509007773,7.067675721031128L255.99906775665283,15.485251637073395L256.04401366772123,16.32064432740638L256.2494806897481,13.056515461925118L256.3907392673916,10.445212369540101L256.43568517846,10.32239257646566L256.4934727784051,8.257914061172531L256.50631446728175,6.606331248938034L256.51915615615843,5.2850649991504195L256.6218896671719,12.092940378735202L256.96219442240397,9.674352302988174L257.1291363778008,11.67192486013822L257.3153408665127,9.33753988811056L257.56575379960805,7.470031910488456L257.7326957550049,5.976025528390749L257.94458362147014,6.747043103546214L258.2206799323188,13.262522862251865L258.22710077675714,24.373572367797635L258.3490968210856,29.329968954486574L259.25443588689166,25.430197844422878L259.26727757576833,20.344158275538295" fill="none"></path></g></g></g></g><g opacity="0.2"><g><g><g><path style="fill: none;" stroke="rgb(255, 112, 67)" stroke-width="2px" d="M32.21979739159478,39.324441897074394L32.502314546881784,108.14221814685399L32.791252546607126,147.46666590372723L33.20860743509928,39.324441897074394L33.670908234659834,68.81777038998078L33.76722090123494,0L33.914900323316786,127.80444495519002L34.685401655917694,0L34.76887263361613,29.49332849290638L34.91013121125963,0L35.08991485553317,0L35.378852855258515,0L35.52653227734036,9.831113404168013L35.558636499532064,58.98666870541042L35.6742116994222,0L35.93104547695584,29.49332849290638L36.19430009892781,9.831113404168013L36.23282516555786,78.64888379414879L36.32913783213298,9.831113404168013L37.009747342597116,58.98666870541042L37.26658112013075,39.324441897074394L37.664673475307886,0L37.79309036407471,78.64888379414879L38.62137929662068,39.324441897074394L38.69200858544244,0L38.762637874264186,0L39.237780362701415,9.831113404168013L39.327672184838185,29.49332849290638L39.372618095906574,49.15555530124241L39.501034984673396,19.662215088738368L39.57808511793348,78.64888379414879L39.65513525119358,88.4799971983168L39.706502006700305,78.64888379414879L39.9248107176039,29.49332849290638L40.14311942850748,0L40.15596111738417,49.15555530124241L40.239432095082606,19.662215088738368L40.265115472835966,68.81777038998078L40.939304138861765,29.49332849290638L41.20255876083374,0L41.46581338280572,0L41.69696378258599,39.324441897074394L41.79969729359944,39.324441897074394L41.818959826914465,9.831113404168013L42.0436893822564,19.662215088738368L42.062951915571425,98.31111060248482L42.1528437377082,19.662215088738368L42.55093609288533,19.662215088738368L42.60230284839206,39.324441897074394L42.827032403733995,9.831113404168013L43.0324994257609,108.14221814685399L43.090287025705976,68.81777038998078L43.96352186932034,0L44.29740578011407,0L44.36161422449747,49.15555530124241L44.56066040208605,78.64888379414879L44.689077290852865,0L44.6954981352912,108.14221814685399L45.45315777901544,68.81777038998078L46.28786755599976,49.15555530124241L46.99416044421726,108.14221814685399L47.250994221750894,19.662215088738368L47.745399243503144,29.49332849290638L47.777503465694856,9.831113404168013L47.86097444339329,19.662215088738368L47.912341198900016,117.97333155102201L47.93160373221503,127.80444495519002L48.17559582087199,68.81777038998078L48.65073830930921,0L48.65715915374756,19.662215088738368L48.79199688695272,19.662215088738368L49.02314728673299,78.64888379414879L49.07451404223972,78.64888379414879L49.337768664211694,39.324441897074394L49.39555626415677,98.31111060248482L49.491868930731876,49.15555530124241L49.54965653067695,108.14221814685399L49.78080693045722,9.831113404168013L49.78722777489556,9.831113404168013L49.87711959703234,9.831113404168013L49.986273952484126,19.662215088738368L50.15963675231934,98.31111060248482L50.365103774346245,39.324441897074394L50.474258129798045,0L51.193392706892226,29.49332849290638L51.89968559510972,49.15555530124241L51.90610643954807,0L52.03452332831488,0L52.04094417275323,49.15555530124241L52.297777950286864,49.15555530124241L52.64450354995728,0L52.760078749847416,78.64888379414879L52.9141790163676,49.15555530124241L53.06827928288778,9.831113404168013L53.0875418162028,108.14221814685399L53.6525761267768,0L53.96077665981717,127.80444495519002L54.4680233704461,9.831113404168013L54.57717772589789,0L54.74411968129476,29.49332849290638L55.0009534588284,19.662215088738368L55.21926216973199,0L55.321995680745445,58.98666870541042L55.5659877694024,9.831113404168013L55.61093368047079,0L55.65587959153917,9.831113404168013L55.67514212485419,39.324441897074394L55.79713816918267,49.15555530124241L55.93839674682617,9.831113404168013L56.38785585751004,0L56.81163159044054,0L57.24182816780937,29.49332849290638L57.35740336769952,0L57.62707883410984,9.831113404168013L57.86465007832845,9.831113404168013L57.9352793671502,49.15555530124241L58.326950877889,9.831113404168013L58.487471988847524,117.97333155102201L58.56452212210761,68.81777038998078L58.58378465542263,58.98666870541042L58.72504323306614,39.324441897074394L58.94977278840807,19.662215088738368L59.020402077229825,9.831113404168013L59.24513163257175,29.49332849290638L59.43775696572198,0L59.82942847646078,0L59.89363692084418,0L60.70266332007514,9.831113404168013L61.22275171958075,78.64888379414879L61.24843509733412,29.49332849290638L61.40895620829264,29.49332849290638L61.717156741333014,98.31111060248482L61.95472798555162,78.64888379414879L62.217982607523595,9.831113404168013L62.26934936303032,0L62.327136962975395,39.324441897074394L62.47481638505724,9.831113404168013L62.77659607365926,0L63.129742517768015,9.831113404168013L63.155425895521375,9.831113404168013L63.2067926510281,49.15555530124241L63.450784739685055,39.324441897074394L63.63056838395861,0L64.71569109403822,9.831113404168013L64.7734786939833,9.831113404168013L64.78632038285997,0L65.05599584927029,29.49332849290638L65.08167922702366,0L65.20367527135213,29.49332849290638L65.40914229337905,0L65.49261327107747,9.831113404168013L65.653134382036,88.4799971983168L65.73660535973443,9.831113404168013L65.83291802630954,49.15555530124241L65.89070562625461,0L66.10259349271986,0L66.25669375924004,29.49332849290638L66.27595629255507,29.49332849290638L66.53279007008871,19.662215088738368L66.79604469206069,9.831113404168013L67.065720158471,0L67.12350775841607,0L67.47665420252483,29.49332849290638L68.4911476237827,0L68.89566082339816,9.831113404168013L69.07544446767172,0L69.55058695610894,19.662215088738368L69.76889566701253,9.831113404168013L69.85236664471097,0L70.34677166646321,9.831113404168013L70.50729277742174,0L70.6100262884352,49.15555530124241L70.96959357698228,49.15555530124241L71.34200255440606,29.49332849290638L71.51536535424127,0L71.54104873199462,29.49332849290638L72.07397882037692,9.831113404168013L72.18955402026707,137.6355524995592L72.42070442004734,29.49332849290638L72.76100917527941,9.831113404168013L72.77385086415609,0L72.92795113067628,127.80444495519002L72.9343719751146,9.831113404168013L72.96647619730632,9.831113404168013L72.99858041949803,0L74.01949468519423,0L74.16717410727607,0L74.25064508497451,9.831113404168013L74.2827493071662,68.81777038998078L74.38548281817965,49.15555530124241L74.41758704037136,9.831113404168013L74.47537464031643,0L74.57810815132989,9.831113404168013L74.95051712875367,58.98666870541042L75.3165052617391,0L75.44492215050592,29.49332849290638L75.77880606129963,9.831113404168013L76.03563983883328,19.662215088738368L76.08700659434,0L76.5107823272705,9.831113404168013L76.53004486058552,0L76.60067414940728,39.324441897074394L76.99234566014609,19.662215088738368L77.02444988233779,9.831113404168013L77.03729157121445,19.662215088738368L77.39685885976155,19.662215088738368L77.80137205937703,98.31111060248482L77.82063459269204,0L77.8591596593221,9.831113404168013L78.10315174797906,0L78.37924805882771,0L78.67460690299141,29.49332849290638L78.80944463619656,19.662215088738368L79.02775334710014,147.46666590372723L79.22037868025039,9.831113404168013L79.3166913468255,29.49332849290638L79.40658316896227,98.31111060248482L79.8496214352078,0L80.02940507948134,9.831113404168013L80.0550884572347,19.662215088738368L80.06793014611138,68.81777038998078L80.14498027937147,0L80.29908054589166,0L80.37613067915176,19.662215088738368L80.46602250128852,49.15555530124241L80.53665179011027,39.324441897074394L80.85769401202732,39.324441897074394L80.92832330084907,19.662215088738368L81.14663201175266,117.97333155102201L81.1851570783827,0L81.28789058939616,68.81777038998078L81.71808716676499,88.4799971983168L81.73734970008003,29.49332849290638L81.90429165547688,9.831113404168013L82.14828374413385,0L82.15470458857219,58.98666870541042L82.32164654396905,0L82.53995525487264,39.324441897074394L82.79678903240628,19.662215088738368L83.3810858762953,39.324441897074394L83.76633654259577,19.662215088738368L84.25432071990967,9.831113404168013L84.39557929755317,0L84.85788009711372,0L85.24955160785251,0L85.33944342998927,0L85.371547652181,9.831113404168013L85.8916360516866,19.662215088738368L86.02005294045343,0L86.62361231765748,0L86.9896004506429,9.831113404168013L87.02812551727295,9.831113404168013L87.43905956132677,0L87.70231418329874,9.831113404168013L87.72799756105212,58.98666870541042L87.92704373864068,0L88.11966907179091,0L88.29945271606445,49.15555530124241L88.45355298258463,39.324441897074394L88.46639467146132,49.15555530124241L88.75533267118665,0L88.81954111557008,0L89.05711235978869,9.831113404168013L89.10205827085706,0L89.35889204839071,9.831113404168013L89.79550947019789,0L89.93034720340304,0L90.10371000323825,49.15555530124241L90.26423111419678,19.662215088738368L90.66874431381227,29.49332849290638L90.86779049140083,0L91.25304115770128,0L91.50987493523492,0L91.76028786833022,58.98666870541042L91.8373380015903,19.662215088738368L91.89512560153538,0L91.99143826811049,9.831113404168013L92.10701346800062,0L92.1969052901374,0L92.28037626783582,98.31111060248482L92.37668893441095,19.662215088738368L92.81972720065647,0L93.34623644460042,78.64888379414879L93.40402404454548,9.831113404168013L93.52602008887398,0L94.20020875489976,0L94.20662959933811,29.49332849290638L94.46346337687174,0L94.72671799884372,0L94.73313884328205,0L94.8487140431722,49.15555530124241L95.11196866514419,9.831113404168013L95.26606893166436,29.49332849290638L95.3495399093628,39.324441897074394L95.45869426481458,9.831113404168013L95.63205706464979,19.662215088738368L95.77973648673164,49.15555530124241L95.9787826643202,39.324441897074394L95.98520350875854,0L95.99162435319688,68.81777038998078L96.0558327975803,0L96.13930377527872,9.831113404168013L96.17782884190876,9.831113404168013L96.26772066404556,0L96.7171797747294,78.64888379414879L96.8905425745646,9.831113404168013L97.08958875215319,0L97.19874310760497,0L97.53904786283704,19.662215088738368L97.64820221828884,9.831113404168013L97.69314812935723,29.49332849290638L98.03987372902765,58.98666870541042L98.1105030178494,0L98.50859537302652,0L98.52785790634157,0L98.53427875077989,9.831113404168013L98.84890012825859,39.324441897074394L99.16994235017565,0L99.2084674168057,9.831113404168013L99.21488826124403,9.831113404168013L99.25341332787407,49.15555530124241L99.52950963872273,0L99.63866399417454,0L99.9147603050232,19.662215088738368L100.13948986036512,9.831113404168013L100.37706110458373,0L100.44126954896716,9.831113404168013L100.45411123784383,9.831113404168013L100.85220359302096,19.662215088738368L100.91641203740438,39.324441897074394L100.96135794847277,29.49332849290638L101.26313763707478,9.831113404168013L101.71901759219699,0L102.8811904355367,0L102.9132946577284,68.81777038998078L102.96466141323513,29.49332849290638L103.08023661312527,19.662215088738368L103.33707039065891,0L103.49117065717908,0L103.52969572380914,29.49332849290638L103.82505456797281,9.831113404168013L104.09473003438315,19.662215088738368L104.13325510101318,0L104.18462185651991,78.64888379414879L104.85881052254571,49.15555530124241L105.26332372216118,19.662215088738368L105.3596363887363,0L105.57794509963989,9.831113404168013L105.69352029953004,49.15555530124241L106.44475909881592,9.831113404168013L106.65664696528117,9.831113404168013L107.20241874254015,29.49332849290638L107.45925252007379,19.662215088738368L107.5876694088406,0L107.64545700878567,29.49332849290638L107.78029474199083,19.662215088738368L107.99218260845609,9.831113404168013L108.17196625272962,49.15555530124241L108.30038314149645,29.49332849290638L108.35817074144151,0L108.86541745207045,49.15555530124241L108.97457180752225,98.31111060248482L109.32771825163098,0L109.6423396291097,19.662215088738368L110.27800322850545,0L110.30368660625882,0L110.6632538948059,19.662215088738368L110.89440429458618,9.831113404168013L111.09345047217475,49.15555530124241L111.18334229431152,0L111.42733438296848,9.831113404168013L111.68416816050211,29.49332849290638L111.70985153825548,0L111.72269322713215,9.831113404168013L111.85753096033731,0L111.86395180477565,58.98666870541042L111.96026447135077,9.831113404168013L112.03731460461087,9.831113404168013L112.21067740444607,9.831113404168013L112.22351909332276,0L112.23636078219943,19.662215088738368L112.71150327063665,19.662215088738368L113.0132829592387,29.49332849290638L113.31506264784072,29.49332849290638L113.70031331414116,0L114.23324340252347,0L114.93953629074096,68.81777038998078L114.96521966849433,0L115.21563260158962,0L115.39541624586317,49.15555530124241L115.42109962361654,29.49332849290638L115.7293001566569,49.15555530124241L115.8834004231771,0L116.16591757846408,9.831113404168013L116.78231864454482,19.662215088738368L117.2510402885437,39.324441897074394L117.52713659939235,0L117.8160745991177,9.831113404168013L118.066487532213,0L118.25911286536322,0L118.49668410958184,29.49332849290638L118.9268806869507,29.49332849290638L119.10666433122422,49.15555530124241L119.15803108673096,0L119.57538597522313,39.324441897074394L119.6973820195516,0L119.7294862417433,9.831113404168013L120.72471712968614,58.98666870541042L121.02649681828817,29.49332849290638L121.456693395657,9.831113404168013L121.80983983976576,19.662215088738368L121.86762743971082,19.662215088738368L122.0345693951077,19.662215088738368L122.29140317264132,0L123.13253379406399,0L123.20316308288574,0L123.31873828277588,29.49332849290638L123.6526221935696,98.31111060248482L123.697568104638,9.831113404168013L124.26902325965034,0L124.31396917071872,19.662215088738368L124.55796125937569,58.98666870541042L124.59648632600573,29.49332849290638L124.6863781481425,0L124.74416574808757,9.831113404168013L125.43119610299004,0L125.70087156940036,68.81777038998078L125.99623041356405,19.662215088738368L126.13748899120753,0L126.77957343504164,0L127.25471592347887,29.49332849290638L127.46018294550578,0L127.5436539232042,0L127.56933730095759,9.831113404168013L127.90964205618965,29.49332849290638L127.935325433943,58.98666870541042L128.03163810051814,0L128.53888481114706,9.831113404168013L128.83424365531073,29.49332849290638L128.84066449974907,0L128.86634787750245,58.98666870541042L129.1231816550361,29.49332849290638L129.21307347717286,49.15555530124241L129.30296529930962,0L129.39927796588475,0L129.5469573879666,0L129.60474498791163,0L129.69463681004842,29.49332849290638L130.56145080922445,29.49332849290638L130.65134263136122,19.662215088738368L130.74123445349798,0L130.79902205344305,0L131.10722258648343,9.831113404168013L131.24848116412693,0L131.34479383070206,0L131.3833188973321,39.324441897074394L131.56310254160562,39.324441897074394L132.33360387420655,0L132.51338751848007,19.662215088738368L132.9885300069173,19.662215088738368L133.05273845130074,9.831113404168013L133.22610125113593,9.831113404168013L133.29673053995768,0L133.50861840642293,58.98666870541042L133.68198120625814,0L133.7526104950799,19.662215088738368L134.0222859614902,0L134.3369073389689,29.49332849290638L135.04320022718642,19.662215088738368L135.3257173824734,29.49332849290638L135.5889720044454,49.15555530124241L136.0255894262526,9.831113404168013L136.0320102706909,0L136.37231502592297,88.4799971983168L136.38515671479968,19.662215088738368L136.84745751436023,19.662215088738368L137.05934538082545,0L137.35470422498915,0L137.47670026931763,39.324441897074394L137.57943378033107,29.49332849290638L138.72234409035576,9.831113404168013L139.53137048958672,19.662215088738368L139.55705386734007,0L140.19271746673584,0L140.39818448876275,29.49332849290638L140.48807631089952,29.49332849290638L140.50733884421453,0L140.66143911073473,0L140.91827288826835,0L140.94395626602173,0L141.27141933237712,49.15555530124241L141.36131115451388,88.4799971983168L141.60530324317085,0L141.74656182081435,9.831113404168013L142.02907897610135,0L142.0676040427314,49.15555530124241L142.07402488716974,0L142.17675839818318,49.15555530124241L142.25380853144327,0L142.7289510198805,49.15555530124241L142.8637887530857,49.15555530124241L142.9472597307841,9.831113404168013L143.0114681751675,29.49332849290638L143.06283493067423,9.831113404168013L143.78839035220676,0L144.02596159642536,29.49332849290638L144.565312529246,19.662215088738368L144.87351306228638,0L145.31655132853192,0L145.32297217297025,0L145.5669642616272,0L145.67611861707897,0L145.73390621702407,39.324441897074394L145.95221492792766,19.662215088738368L146.18978617214628,0L146.48514501630993,19.662215088738368L146.86397483817206,0L146.9153415936788,9.831113404168013L146.94102497143214,0L147.26206719334922,9.831113404168013L147.71152630403307,0L147.7307888373481,0L147.90415163718328,0L148.24445639241537,19.662215088738368L148.3792941256205,0L148.45634425888062,0L148.50771101438733,9.831113404168013L148.5333943921407,78.64888379414879L148.5590777698941,9.831113404168013L149.00853688057794,58.98666870541042L149.45157514682344,29.49332849290638L149.81114243537056,19.662215088738368L149.89461341306898,0L150.27986407936942,0L150.43396434588962,29.49332849290638L150.53027701246472,9.831113404168013L150.68437727898493,78.64888379414879L150.76784825668335,0L150.82563585662842,0L151.03110287865533,9.831113404168013L151.63466225585938,39.324441897074394L151.66676647805107,19.662215088738368L151.7502374557495,0L151.82086674457128,9.831113404168013L152.54642216610378,9.831113404168013L152.55284301054212,9.831113404168013L152.59136807717218,9.831113404168013L152.6106306104872,19.662215088738368L152.6876807437473,29.49332849290638L152.7839934103224,19.662215088738368L153.48386545410156,29.49332849290638L154.04247892023722,9.831113404168013L154.3506794532776,0L154.73593011957803,29.49332849290638L154.80013856396144,19.662215088738368L154.82582194171482,9.831113404168013L154.83224278615316,0L155.44222300779555,0L155.88526127404108,9.831113404168013L156.14851589601307,68.81777038998078L156.52092487343683,9.831113404168013L156.70712936214872,0L156.79702118428548,0L157.29784705047607,9.831113404168013L157.31710958379108,0L157.60604758351644,0L158.06192753863866,9.831113404168013L158.1646610496521,9.831113404168013L158.29949878285726,19.662215088738368L158.34444469392562,0L159.50019669282702,88.4799971983168L159.62861358159384,9.831113404168013L159.8469222924974,0L159.94965580351086,0L160.0202850923326,0L160.39911491419474,19.662215088738368L160.40553575863308,19.662215088738368L160.43121913638643,39.324441897074394L160.51469011408489,68.81777038998078L160.61100278066,19.662215088738368L161.0026742913988,0L161.38150411326092,39.324441897074394L162.51799357884724,0L162.84545664520263,0L163.05092366722954,19.662215088738368L163.1087112671746,0L163.23070731150307,19.662215088738368L163.34628251139324,0L163.68658726662528,9.831113404168013L163.8150041553921,9.831113404168013L163.9562627330356,29.49332849290638L164.10394215511747,0L164.21309651056927,9.831113404168013L164.2323590438843,0L164.2516215771993,9.831113404168013L164.4891928214179,9.831113404168013L164.66897646569146,49.15555530124241L164.7845516655816,19.662215088738368L164.79739335445825,0L165.40095273166233,0L165.57431553149755,19.662215088738368L165.7412574868944,19.662215088738368L165.9017785978529,0L165.92104113116795,9.831113404168013L166.6016506416321,68.81777038998078L166.62733401938544,29.49332849290638L166.72364668596055,9.831113404168013L166.73648837483722,19.662215088738368L166.76859259702894,39.324441897074394L166.807117663659,9.831113404168013L166.94195539686413,19.662215088738368L167.17310579664442,0L167.27583930765786,9.831113404168013L167.7702443294101,0L168.0013947291904,19.662215088738368L168.05276148469713,9.831113404168013L168.0912865513272,29.49332849290638L168.25822850672404,39.324441897074394L168.2839118844774,9.831113404168013L168.4380121509976,58.98666870541042L168.50864143981934,49.15555530124241L168.65632086190118,39.324441897074394L168.93883801718817,9.831113404168013L169.44608472781712,58.98666870541042L169.632289216529,0L169.9276480606927,39.324441897074394L170.67888685997855,9.831113404168013L170.69172854885525,39.324441897074394L170.74951614880032,0L170.7751995265537,9.831113404168013L170.78162037099202,39.324441897074394L170.8265662820604,29.49332849290638L170.92929979307385,0L171.28244623718263,19.662215088738368L171.29528792605927,0L171.5649633924696,9.831113404168013L171.65485521460639,9.831113404168013L172.155681080797,0L172.2006269918654,0L172.3675689472622,0L173.76731303482057,9.831113404168013L173.92141330134075,9.831113404168013L174.09477610117597,0L174.23603467881944,0L174.30024312320288,0L174.40297663421632,9.831113404168013L174.83317321158515,0L175.11569036687214,9.831113404168013L175.19274050013223,49.15555530124241L175.23768641120063,9.831113404168013L175.33399907777576,9.831113404168013L175.78987903289797,0L175.80272072177465,19.662215088738368L176.04029196599322,19.662215088738368L176.3484924990336,0L176.6631138765123,9.831113404168013L176.77868907640246,9.831113404168013L177.00341863174438,39.324441897074394L177.24098987596298,49.15555530124241L177.50424449793496,9.831113404168013L177.8702326309204,108.14221814685399L178.21695823059082,39.324441897074394L178.37747934154933,0L179.27639756291708,9.831113404168013L179.44976036275227,29.49332849290638L179.6744899180942,0L180.12394902877807,0L180.1560532509698,39.324441897074394L180.23952422866822,9.831113404168013L180.38720365075005,0L180.46425378401014,9.831113404168013L181.46590551639133,29.49332849290638L181.6970559161716,0L181.9025229381985,108.14221814685399L182.39050711551243,0L182.39692795995074,29.49332849290638L182.99406649271646,0L183.56552164772881,0L183.5783633366055,0L183.9250889362759,29.49332849290638L183.9443514695909,0L184.3938105802748,19.662215088738368L185.02947417967056,29.49332849290638L185.8962881788466,29.49332849290638L186.37143066728382,9.831113404168013L186.6539478225708,19.662215088738368L186.69247288920084,0L186.98141088892618,9.831113404168013L187.61707448832195,9.831113404168013L188.49030933193632,0L188.63156790957981,0L188.71503888727824,29.49332849290638L188.99755604256524,0L189.21586475346885,29.49332849290638L189.24154813122217,9.831113404168013L189.36354417555066,58.98666870541042L190.09552044152153,0L190.2881457746718,0L190.72476319647893,58.98666870541042L190.81465501861572,29.49332849290638L191.07148879614937,0L191.4567394624498,9.831113404168013L191.52094790683324,9.831113404168013L191.59157719565496,9.831113404168013L191.61726057340834,29.49332849290638L191.82272759543525,0L191.86767350650362,9.831113404168013L192.0025112397088,9.831113404168013L192.22724079505073,19.662215088738368L192.35565768381753,88.4799971983168L192.36849937269423,9.831113404168013L192.477653728146,29.49332849290638L192.5675455502828,19.662215088738368L192.96563790545994,9.831113404168013L192.97847959433662,9.831113404168013L193.34446772732204,29.49332849290638L193.8260310601976,68.81777038998078L194.22412341537475,0L195.18082923668754,0L195.47618808085124,9.831113404168013L195.62386750293308,29.49332849290638L196.55488994649252,0L196.79246119071112,39.324441897074394L196.86951132397124,9.831113404168013L197.03645327936806,19.662215088738368L197.13918679038153,29.49332849290638L197.15202847925823,39.324441897074394L197.20339523476494,9.831113404168013L197.21623692364165,49.15555530124241L197.48591239005196,19.662215088738368L197.8519005230374,9.831113404168013L197.9482131896125,58.98666870541042L197.95463403405083,29.49332849290638L198.2949387892829,9.831113404168013L198.4490390558031,0L198.5132475001865,0L198.5902976334466,9.831113404168013L198.98196914418537,39.324441897074394L199.4057448771159,0L199.46353247706097,68.81777038998078L199.66899949908787,9.831113404168013L199.72678709903292,9.831113404168013L199.77815385453968,19.662215088738368L199.8295206100464,9.831113404168013L200.02856678763493,9.831113404168013L200.04140847651163,0L200.73485967585245,39.324441897074394L200.74770136472915,0L200.90822247568767,0L200.9916934533861,0L201.00453514226277,0L201.06232274220784,0L201.46683594182332,0L201.74935309711032,0L201.781457319302,0L202.1988122077942,0L202.57764202965632,9.831113404168013L202.81521327387492,9.831113404168013L202.84731749606664,78.64888379414879L202.87942171825833,29.49332849290638L203.09130958472358,19.662215088738368L203.19404309573704,29.49332849290638L203.41877265107897,29.49332849290638L203.48298109546238,9.831113404168013L203.49582278433905,0L203.5215061620924,68.81777038998078L203.5471895398458,39.324441897074394L203.88107345063952,68.81777038998078L204.27274496137832,0L204.27916580581663,9.831113404168013L204.285586650255,19.662215088738368L204.91482940521243,19.662215088738368L205.27439669375948,29.49332849290638L205.55691384904648,19.662215088738368L205.6532265156216,88.4799971983168L205.7752225599501,0L205.84585184877182,137.6355524995592L206.13478984849718,0L206.25678589282563,9.831113404168013L206.36594024827744,0L207.44464211391872,0L207.82347193578087,9.831113404168013L208.3050352686564,9.831113404168013L208.32429780197143,39.324441897074394L208.3820854019165,49.15555530124241L208.81228197928536,29.49332849290638L208.91501549029883,9.831113404168013L208.95354055692886,0L209.48647064531116,0L209.5121540230645,49.15555530124241L209.64699175626967,29.49332849290638L209.99371735594008,0L210.46243899993897,29.49332849290638L210.55233082207573,9.831113404168013L210.76421868854098,19.662215088738368L210.8155854440477,0L210.84126882180107,9.831113404168013L211.2072569547865,19.662215088738368L211.2200986436632,9.831113404168013L211.35493637686835,9.831113404168013L211.71450366541546,0L211.9263915318807,39.324441897074394L212.176804464976,0L212.54279259796144,19.662215088738368L213.19129788623385,0L213.31329393056234,9.831113404168013L214.2186329963684,19.662215088738368L214.79008815138076,98.31111060248482L214.84145490688746,0L215.19460135099624,0L215.3165973953247,19.662215088738368L215.64406046168008,0L215.83668579483032,19.662215088738368L215.92015677252874,9.831113404168013L216.97317526041667,0L216.98601694929334,19.662215088738368L217.3712676155938,88.4799971983168L217.55105125986736,39.324441897074394L218.12892725931803,19.662215088738368L218.1417689481947,0L218.20597739257812,0L218.674699036577,9.831113404168013L219.07279139175415,39.324441897074394L219.11773730282255,29.49332849290638L219.3360460137261,9.831113404168013L219.9717096131219,19.662215088738368L220.29917267947727,0L220.54958561257257,0L220.57526899032592,29.49332849290638L220.9027320566813,0L221.07609485651653,0L221.27514103410508,29.49332849290638L221.3072452562968,0L221.45492467837866,0L221.6539708559672,9.831113404168013L221.9364880112542,0L222.28963445536294,0L222.3923679663764,9.831113404168013L222.61709752171834,9.831113404168013L222.65562258834836,0L222.73267272160848,0L222.893193832567,9.831113404168013L223.34265294325087,0L223.38759885431926,29.49332849290638L223.49675320977107,9.831113404168013L223.64443263185288,0L223.7535869873047,0L223.92052894270154,39.324441897074394L224.1773627202352,29.49332849290638L224.49198409771387,19.662215088738368L224.56261338653565,0L224.72313449749416,9.831113404168013L225.08270178604127,39.324441897074394L225.15975191930136,0L225.24322289699978,0L226.0137242296007,19.662215088738368L226.28982054044934,58.98666870541042L226.36044982927112,39.324441897074394L226.37329151814777,9.831113404168013L226.39897489590115,49.15555530124241L226.6558086734348,19.662215088738368L226.86769653990004,19.662215088738368L226.97043005091348,0L227.09242609524196,19.662215088738368L227.4455725393507,19.662215088738368L228.1326028942532,29.49332849290638L228.62058707156712,19.662215088738368L228.67195382707385,0L228.67837467151216,19.662215088738368L229.15993800438775,0L229.24340898208618,0L229.33330080422297,0L229.55160951512653,9.831113404168013L230.19369395896064,9.831113404168013L230.45694858093262,9.831113404168013L230.63031138076784,9.831113404168013L230.79083249172635,9.831113404168013L230.8486200916714,0L230.88714515830145,0L230.93851191380818,9.831113404168013L230.98345782487658,0L231.1889248469035,9.831113404168013L231.37512933561538,9.831113404168013L231.90805942399768,39.324441897074394L232.50519795676337,29.49332849290638L232.71708582322864,0L233.1665449339125,9.831113404168013L233.31422435599433,49.15555530124241L233.56463728908963,29.49332849290638L233.78294599999322,9.831113404168013L234.16177582185534,9.831113404168013L234.21956342180042,29.49332849290638L234.46997635489572,68.81777038998078L234.80386026568942,0L235.0478523543464,0L235.1891109319899,0L235.38815710957846,58.98666870541042L235.61930750935872,78.64888379414879L235.6449908871121,0L235.6963576426188,0L236.10087084223431,9.831113404168013L236.12013337554933,19.662215088738368L236.65948430836997,0L236.79432204157513,19.662215088738368L236.8713721748352,29.49332849290638L236.94200146365696,0L237.0447349746704,29.49332849290638L237.13462679680717,58.98666870541042L237.26946453001236,9.831113404168013L237.4171439520942,0L237.5327191519843,0L237.66113604075113,19.662215088738368L238.68205030644734,9.831113404168013L238.69489199532404,9.831113404168013L238.9067798617893,9.831113404168013L239.20213870595296,29.49332849290638L239.74791048321194,0L240.15242368282742,0L240.8266123488532,0L240.91650417098998,0L241.22470470403036,9.831113404168013L241.5264843926324,29.49332849290638L241.83468492567275,0L242.0144685699463,0L242.3611941696167,0L242.77854905810887,19.662215088738368L242.7849699025472,0L242.8620200358073,0L242.86844088024563,0L243.3628459019979,0L243.40137096862793,0L243.77377994605172,9.831113404168013L243.9021968348185,0L244.0691387902154,0L244.2938683455573,0L244.89742772276136,0L245.17994487804836,9.831113404168013L245.436778655582,88.4799971983168L245.72571665530734,0L245.7835042552524,19.662215088738368L246.24580505481296,19.662215088738368L246.51548052122328,0L246.61179318779838,0L246.64389740999007,0L246.72736838768853,19.662215088738368L246.82368105426366,9.831113404168013L247.3630319870843,9.831113404168013L248.49310060823228,9.831113404168013L248.54446736373902,0L248.807721985711,0L248.81414283014934,0L249.02603069661458,19.662215088738368L249.14802674094307,0L249.32138954077828,0L249.50759402949018,0L249.53969825168187,9.831113404168013L249.55253994055852,9.831113404168013L249.68095682932534,9.831113404168013L250.40651225085787,19.662215088738368L250.47714153967965,9.831113404168013L250.54777082850137,0L250.9715465614319,0L250.98438825030857,0L251.0999634501987,9.831113404168013L251.32469300554064,9.831113404168013L251.67783944964938,39.324441897074394L252.18508616027833,29.49332849290638L252.21719038247002,0L252.7501204708523,39.324441897074394L253.3922049146864,49.15555530124241L253.46283420350818,0L253.61693447002833,0L254.20123131391736,0L254.21407300279404,9.831113404168013L254.40669833594427,9.831113404168013L254.41311918038264,0L254.70205718010797,19.662215088738368L255.17077882410686,9.831113404168013L255.6202379347907,0L255.90275509007773,0L255.99906775665283,49.15555530124241L256.04401366772123,19.662215088738368L256.2494806897481,0L256.3907392673916,0L256.43568517846,9.831113404168013L256.4934727784051,0L256.50631446728175,0L256.51915615615843,0L256.6218896671719,39.324441897074394L256.96219442240397,0L257.1291363778008,19.662215088738368L257.3153408665127,0L257.56575379960805,0L257.7326957550049,0L257.94458362147014,9.831113404168013L258.2206799323188,39.324441897074394L258.22710077675714,68.81777038998078L258.3490968210856,49.15555530124241L259.25443588689166,9.831113404168013L259.26727757576833,0" fill="none"></path></g></g></g></g></g></g><g transform="translate(41, 176)" clip-path="url(#clip_1)"><clipPath id="clip_1"><rect width="288" height="23"></rect></clipPath><g><g><line x1="0" y1="0" x2="0" y2="5" style="visibility: inherit;" fill="rgb(0, 0, 0)" stroke="rgb(204, 204, 204)" stroke-width="1px"></line><line x1="32.10422219170464" y1="0" x2="32.10422219170464" y2="5" style="visibility: inherit;" fill="rgb(0, 0, 0)" stroke="rgb(204, 204, 204)" stroke-width="1px"></line><line x1="64.20844438340929" y1="0" x2="64.20844438340929" y2="5" style="visibility: inherit;" fill="rgb(0, 0, 0)" stroke="rgb(204, 204, 204)" stroke-width="1px"></line><line x1="96.31266657511392" y1="0" x2="96.31266657511392" y2="5" style="visibility: inherit;" fill="rgb(0, 0, 0)" stroke="rgb(204, 204, 204)" stroke-width="1px"></line><line x1="128.41688876681857" y1="0" x2="128.41688876681857" y2="5" style="visibility: inherit;" fill="rgb(0, 0, 0)" stroke="rgb(204, 204, 204)" stroke-width="1px"></line><line x1="160.52111095852322" y1="0" x2="160.52111095852322" y2="5" style="visibility: inherit;" fill="rgb(0, 0, 0)" stroke="rgb(204, 204, 204)" stroke-width="1px"></line><line x1="192.62533315022785" y1="0" x2="192.62533315022785" y2="5" style="visibility: inherit;" fill="rgb(0, 0, 0)" stroke="rgb(204, 204, 204)" stroke-width="1px"></line><line x1="224.72955534193252" y1="0" x2="224.72955534193252" y2="5" style="visibility: inherit;" fill="rgb(0, 0, 0)" stroke="rgb(204, 204, 204)" stroke-width="1px"></line><line x1="256.83377753363715" y1="0" x2="256.83377753363715" y2="5" style="visibility: inherit;" fill="rgb(0, 0, 0)" stroke="rgb(204, 204, 204)" stroke-width="1px"></line><line x1="288.9379997253418" y1="0" x2="288.9379997253418" y2="5" style="visibility: inherit;" fill="rgb(0, 0, 0)" stroke="rgb(204, 204, 204)" stroke-width="1px"></line></g><g transform="translate(0, 8)"><text style="text-anchor: middle; visibility: hidden; font-family: Roboto, sans-serif; font-size: 12px; font-weight: 200;" x="0" y="0" dx="0em" dy="0.95em" fill="rgb(33, 33, 33)" stroke="none" stroke-width="1px">-5k</text><text style="text-anchor: middle; visibility: inherit; font-family: Roboto, sans-serif; font-size: 12px; font-weight: 200;" x="32.10422219170464" y="0" dx="0em" dy="0.95em" fill="rgb(33, 33, 33)" stroke="none" stroke-width="1px">0</text><text style="text-anchor: middle; visibility: inherit; font-family: Roboto, sans-serif; font-size: 12px; font-weight: 200;" x="64.20844438340929" y="0" dx="0em" dy="0.95em" fill="rgb(33, 33, 33)" stroke="none" stroke-width="1px">5k</text><text style="text-anchor: middle; visibility: inherit; font-family: Roboto, sans-serif; font-size: 12px; font-weight: 200;" x="96.31266657511392" y="0" dx="0em" dy="0.95em" fill="rgb(33, 33, 33)" stroke="none" stroke-width="1px">10k</text><text style="text-anchor: middle; visibility: inherit; font-family: Roboto, sans-serif; font-size: 12px; font-weight: 200;" x="128.41688876681857" y="0" dx="0em" dy="0.95em" fill="rgb(33, 33, 33)" stroke="none" stroke-width="1px">15k</text><text style="text-anchor: middle; visibility: inherit; font-family: Roboto, sans-serif; font-size: 12px; font-weight: 200;" x="160.52111095852322" y="0" dx="0em" dy="0.95em" fill="rgb(33, 33, 33)" stroke="none" stroke-width="1px">20k</text><text style="text-anchor: middle; visibility: inherit; font-family: Roboto, sans-serif; font-size: 12px; font-weight: 200;" x="192.62533315022785" y="0" dx="0em" dy="0.95em" fill="rgb(33, 33, 33)" stroke="none" stroke-width="1px">25k</text><text style="text-anchor: middle; visibility: inherit; font-family: Roboto, sans-serif; font-size: 12px; font-weight: 200;" x="224.72955534193252" y="0" dx="0em" dy="0.95em" fill="rgb(33, 33, 33)" stroke="none" stroke-width="1px">30k</text><text style="text-anchor: middle; visibility: inherit; font-family: Roboto, sans-serif; font-size: 12px; font-weight: 200;" x="256.83377753363715" y="0" dx="0em" dy="0.95em" fill="rgb(33, 33, 33)" stroke="none" stroke-width="1px">35k</text><text style="text-anchor: middle; visibility: hidden; font-family: Roboto, sans-serif; font-size: 12px; font-weight: 200;" x="288.9379997253418" y="0" dx="0em" dy="0.95em" fill="rgb(33, 33, 33)" stroke="none" stroke-width="1px">40k</text></g><line x1="0" y1="0" x2="288.9379997253418" y2="0" fill="rgb(0, 0, 0)" stroke="rgb(204, 204, 204)" stroke-width="1px"></line></g></g></g></g></svg>