<svg viewBox="0 0 330 200" xmlns="http://www.w3.org/2000/svg"><g><g><g><g><g><line x1="51.41600036621094" y1="176.95999908447266" x2="46.41600036621094" y2="176.95999908447266" style="visibility: inherit;" fill="rgb(0, 0, 0)" stroke="rgb(204, 204, 204)" stroke-width="1px"></line><line x1="51.41600036621094" y1="157.29777696397574" x2="46.41600036621094" y2="157.29777696397574" style="visibility: inherit;" fill="rgb(0, 0, 0)" stroke="rgb(204, 204, 204)" stroke-width="1px"></line><line x1="51.41600036621094" y1="137.63555484347873" x2="46.41600036621094" y2="137.63555484347873" style="visibility: inherit;" fill="rgb(0, 0, 0)" stroke="rgb(204, 204, 204)" stroke-width="1px"></line><line x1="51.41600036621094" y1="117.97333272298181" x2="46.41600036621094" y2="117.97333272298181" style="visibility: inherit;" fill="rgb(0, 0, 0)" stroke="rgb(204, 204, 204)" stroke-width="1px"></line><line x1="51.41600036621094" y1="98.31111060248482" x2="46.41600036621094" y2="98.31111060248482" style="visibility: inherit;" fill="rgb(0, 0, 0)" stroke="rgb(204, 204, 204)" stroke-width="1px"></line><line x1="51.41600036621094" y1="78.64888848198784" x2="46.41600036621094" y2="78.64888848198784" style="visibility: inherit;" fill="rgb(0, 0, 0)" stroke="rgb(204, 204, 204)" stroke-width="1px"></line><line x1="51.41600036621094" y1="58.98666636149089" x2="46.41600036621094" y2="58.98666636149089" style="visibility: inherit;" fill="rgb(0, 0, 0)" stroke="rgb(204, 204, 204)" stroke-width="1px"></line><line x1="51.41600036621094" y1="39.32444424099392" x2="46.41600036621094" y2="39.32444424099392" style="visibility: inherit;" fill="rgb(0, 0, 0)" stroke="rgb(204, 204, 204)" stroke-width="1px"></line><line x1="51.41600036621094" y1="19.662222120496992" x2="46.41600036621094" y2="19.662222120496992" style="visibility: inherit;" fill="rgb(0, 0, 0)" stroke="rgb(204, 204, 204)" stroke-width="1px"></line><line x1="51.41600036621094" y1="0" x2="46.41600036621094" y2="0" style="visibility: inherit;" fill="rgb(0, 0, 0)" stroke="rgb(204, 204, 204)" stroke-width="1px"></line></g><g transform="translate(41.41600036621094, 0)"><text style="text-anchor: end; visibility: hidden; font-family: Roboto, sans-serif; font-size: 12px; font-weight: 200;" x="0" y="176.95999908447266" dx="0em" dy="0.3em" fill="rgb(33, 33, 33)" stroke="none" stroke-width="1px">0.55</text><text style="text-anchor: end; visibility: inherit; font-family: Roboto, sans-serif; font-size: 12px; font-weight: 200;" x="0" y="157.29777696397574" dx="0em" dy="0.3em" fill="rgb(33, 33, 33)" stroke="none" stroke-width="1px">0.6</text><text style="text-anchor: end; visibility: hidden; font-family: Roboto, sans-serif; font-size: 12px; font-weight: 200;" x="0" y="137.63555484347873" dx="0em" dy="0.3em" fill="rgb(33, 33, 33)" stroke="none" stroke-width="1px">0.65</text><text style="text-anchor: end; visibility: inherit; font-family: Roboto, sans-serif; font-size: 12px; font-weight: 200;" x="0" y="117.97333272298181" dx="0em" dy="0.3em" fill="rgb(33, 33, 33)" stroke="none" stroke-width="1px">0.7</text><text style="text-anchor: end; visibility: hidden; font-family: Roboto, sans-serif; font-size: 12px; font-weight: 200;" x="0" y="98.31111060248482" dx="0em" dy="0.3em" fill="rgb(33, 33, 33)" stroke="none" stroke-width="1px">0.75</text><text style="text-anchor: end; visibility: inherit; font-family: Roboto, sans-serif; font-size: 12px; font-weight: 200;" x="0" y="78.64888848198784" dx="0em" dy="0.3em" fill="rgb(33, 33, 33)" stroke="none" stroke-width="1px">0.8</text><text style="text-anchor: end; visibility: hidden; font-family: Roboto, sans-serif; font-size: 12px; font-weight: 200;" x="0" y="58.98666636149089" dx="0em" dy="0.3em" fill="rgb(33, 33, 33)" stroke="none" stroke-width="1px">0.85</text><text style="text-anchor: end; visibility: inherit; font-family: Roboto, sans-serif; font-size: 12px; font-weight: 200;" x="0" y="39.32444424099392" dx="0em" dy="0.3em" fill="rgb(33, 33, 33)" stroke="none" stroke-width="1px">0.9</text><text style="text-anchor: end; visibility: hidden; font-family: Roboto, sans-serif; font-size: 12px; font-weight: 200;" x="0" y="19.662222120496992" dx="0em" dy="0.3em" fill="rgb(33, 33, 33)" stroke="none" stroke-width="1px">0.95</text><text style="text-anchor: end; visibility: hidden; font-family: Roboto, sans-serif; font-size: 12px; font-weight: 200;" x="0" y="0" dx="0em" dy="0.3em" fill="rgb(33, 33, 33)" stroke="none" stroke-width="1px">1</text></g><line x1="51.41600036621094" y1="0" x2="51.41600036621094" y2="176.95999908447266" fill="rgb(0, 0, 0)" stroke="rgb(204, 204, 204)" stroke-width="1px"></line></g></g><g transform="translate(51, 0)" clip-path="url(#clip_0)"><clipPath id="clip_0"><rect width="278" height="176"></rect></clipPath><g><g><g><line x1="0" y1="0" x2="0" y2="176.95999908447266" fill="rgb(0, 0, 0)" stroke="rgb(66, 66, 66)" stroke-width="1px" opacity="0.25"></line><line x1="30.953777737087673" y1="0" x2="30.953777737087673" y2="176.95999908447266" fill="rgb(0, 0, 0)" stroke="rgb(66, 66, 66)" stroke-width="1px" opacity="0.25"></line><line x1="61.907555474175346" y1="0" x2="61.907555474175346" y2="176.95999908447266" fill="rgb(0, 0, 0)" stroke="rgb(66, 66, 66)" stroke-width="1px" opacity="0.25"></line><line x1="92.86133321126302" y1="0" x2="92.86133321126302" y2="176.95999908447266" fill="rgb(0, 0, 0)" stroke="rgb(66, 66, 66)" stroke-width="1px" opacity="0.25"></line><line x1="123.81511094835069" y1="0" x2="123.81511094835069" y2="176.95999908447266" fill="rgb(0, 0, 0)" stroke="rgb(66, 66, 66)" stroke-width="1px" opacity="0.25"></line><line x1="154.76888868543838" y1="0" x2="154.76888868543838" y2="176.95999908447266" fill="rgb(0, 0, 0)" stroke="rgb(66, 66, 66)" stroke-width="1px" opacity="0.25"></line><line x1="185.72266642252603" y1="0" x2="185.72266642252603" y2="176.95999908447266" fill="rgb(0, 0, 0)" stroke="rgb(66, 66, 66)" stroke-width="1px" opacity="0.25"></line><line x1="216.6764441596137" y1="0" x2="216.6764441596137" y2="176.95999908447266" fill="rgb(0, 0, 0)" stroke="rgb(66, 66, 66)" stroke-width="1px" opacity="0.25"></line><line x1="247.63022189670139" y1="0" x2="247.63022189670139" y2="176.95999908447266" fill="rgb(0, 0, 0)" stroke="rgb(66, 66, 66)" stroke-width="1px" opacity="0.25"></line><line x1="278.58399963378906" y1="0" x2="278.58399963378906" y2="176.95999908447266" fill="rgb(0, 0, 0)" stroke="rgb(66, 66, 66)" stroke-width="1px" opacity="0.25"></line></g><g><line x1="0" y1="176.95999908447266" x2="278.58399963378906" y2="176.95999908447266" fill="rgb(0, 0, 0)" stroke="rgb(66, 66, 66)" stroke-width="1px" opacity="0.25"></line><line x1="0" y1="157.29777696397574" x2="278.58399963378906" y2="157.29777696397574" fill="rgb(0, 0, 0)" stroke="rgb(66, 66, 66)" stroke-width="1px" opacity="0.25"></line><line x1="0" y1="137.63555484347873" x2="278.58399963378906" y2="137.63555484347873" fill="rgb(0, 0, 0)" stroke="rgb(66, 66, 66)" stroke-width="1px" opacity="0.25"></line><line x1="0" y1="117.97333272298181" x2="278.58399963378906" y2="117.97333272298181" fill="rgb(0, 0, 0)" stroke="rgb(66, 66, 66)" stroke-width="1px" opacity="0.25"></line><line x1="0" y1="98.31111060248482" x2="278.58399963378906" y2="98.31111060248482" fill="rgb(0, 0, 0)" stroke="rgb(66, 66, 66)" stroke-width="1px" opacity="0.25"></line><line x1="0" y1="78.64888848198784" x2="278.58399963378906" y2="78.64888848198784" fill="rgb(0, 0, 0)" stroke="rgb(66, 66, 66)" stroke-width="1px" opacity="0.25"></line><line x1="0" y1="58.98666636149089" x2="278.58399963378906" y2="58.98666636149089" fill="rgb(0, 0, 0)" stroke="rgb(66, 66, 66)" stroke-width="1px" opacity="0.25"></line><line x1="0" y1="39.32444424099392" x2="278.58399963378906" y2="39.32444424099392" fill="rgb(0, 0, 0)" stroke="rgb(66, 66, 66)" stroke-width="1px" opacity="0.25"></line><line x1="0" y1="19.662222120496992" x2="278.58399963378906" y2="19.662222120496992" fill="rgb(0, 0, 0)" stroke="rgb(66, 66, 66)" stroke-width="1px" opacity="0.25"></line><line x1="0" y1="0" x2="278.58399963378906" y2="0" fill="rgb(0, 0, 0)" stroke="rgb(66, 66, 66)" stroke-width="1px" opacity="0.25"></line></g></g></g><g><g><line x1="0" y1="393.24444240993927" x2="278.58399963378906" y2="393.24444240993927" fill="rgb(0, 0, 0)" stroke="rgb(153, 153, 153)" stroke-width="1.5px"></line></g></g><g><g><line x1="30.953777737087673" y1="0" x2="30.953777737087673" y2="176.95999908447266" fill="rgb(0, 0, 0)" stroke="rgb(153, 153, 153)" stroke-width="1.5px"></line></g></g><g><g><g><g><g><path style="fill: none;" stroke="rgb(255, 112, 67)" stroke-width="2px" d="M31.06521133694119,176.95999439663362L31.33760458102756,78.64888639850376L31.61618858066135,46.41573623518252L32.01858769124349,30.692248350635605L32.464322090657554,21.561998365320378L32.557183423868814,116.97905037306502L32.699570801459416,87.37477344073243L33.44246146714952,71.10217515024594L33.52294128926595,86.47171268443923L33.65913791130914,119.96277858694641L33.83247906663683,166.84929905077L34.11106306627062,131.01706700408488L34.25345044386122,119.93414000694001L34.28440422159831,94.84382843273771L34.39583782145182,128.16937931041159L34.64346804334853,126.07110989706807L34.89728902079264,112.34513790302879L34.93443355407715,93.46850448722044L35.02729488728841,82.48134801310307L35.68351497531467,65.79267106511473L35.93114519721137,60.44974307496791L36.31497204115126,99.77171740079494L36.43878715209961,79.69888483095583L37.23739461771647,63.68347724075122L37.30549292873807,58.793192856040264L37.373591239759655,121.94185339963572L37.83170715026856,109.3202970662007L37.918377727932395,87.41386444975151L37.96171301676433,77.78107157030205L38.08552812771268,62.205575726304616L38.159817194281686,53.68847101075401L38.234106260850695,42.94226278528618L38.283632305230036,34.348363197243444L38.49411799384223,51.081842922205816L38.704603682454426,48.729406111520774L38.71698519354926,50.78152223613584L38.79746501566569,64.22337497556043L38.82222803785536,51.37603169164144L39.472257370334205,56.831508558715626L39.72607834777832,76.92743157097894L39.97989932522244,77.27175863074629L40.20276652492947,93.27832211008328L40.30181861368815,82.48680929125707L40.3203908803304,93.51715613820322L40.53706732449002,102.3412174086291L40.55563959113227,81.8722606878591L40.64231016879612,108.75544520283889L41.026137012736,98.80146557827038L41.07566305711534,79.04081992091726L41.29233950127496,75.0299300885638L41.49044367879232,60.02377273082334L41.54616047871908,48.018908527604395L42.388103233167854,97.40215405204532L42.710022521633576,132.97615220728613L42.77193007710775,106.38079738453416L42.9638434990777,92.96947376540379L43.08765861002605,109.76762817113556L43.093849365573455,87.81404996853236L43.82435852016873,70.25120633110144L44.62915674133301,67.9982930094641L45.31013985154894,54.398617734417904L45.55777007344564,47.45133273532424L46.034458250596785,41.893507189047114L46.065412028333874,61.04192592688725L46.145891850450305,48.833534610844644L46.195417894829646,39.06682376505093L46.2139901614719,31.253456500921317L46.44923887227377,25.002763593620884L46.907354782782654,20.002209846342463L46.91354553833008,39.596438583477386L47.04355140482585,31.67714982428382L47.26641860453287,25.341719192228325L47.315944648912215,20.273374926775514L47.569765626356336,16.218699668135844L47.62548242628309,12.974959559606534L47.71834375949435,10.379967535747877L47.774060559421116,8.303973956958409L47.99692775912814,14.50806537233831L48.00311851467556,15.53889768230433L48.089789092339416,32.09334055883214L48.195031936645506,49.269340172008775L48.36218233642578,39.41547202618123L48.56028651394314,35.46482294687365L48.665529358249245,59.83141205149957L49.35889397956,47.86512957191959L50.03987708977593,38.29210361319643L50.04606784532335,69.95812724888468L50.1698829562717,75.6287239364139L50.17607371181912,60.50297911326159L50.42370393371582,48.40238326765278L50.758004733276366,46.58679264686199L50.869438333129885,41.20187947261858L51.01801646626791,32.96150357009073L51.166594599405926,30.301648215672913L51.18516686604818,24.241318568770904L51.72995335422092,23.32550021622851L52.027109620496965,18.66040017112673L52.51617930874294,14.928320135713541L52.621422153049046,55.19954337756663L52.7823817972819,48.09208006227273L53.0300120191786,46.33855008502775L53.2404977077908,44.93572610333466L53.339549796549484,35.948580881730415L53.57479850735134,36.623750740935975L53.61813379618327,60.75855411201927L53.66146908501519,80.06639680830595L53.680041351657444,64.05311744596067L53.79766570705838,55.17493931813231L53.93386232910156,63.802173575238704L54.36721521742079,54.97418422166511L54.775805083550345,102.96601373966277L55.19058570522732,82.37281099144197L55.30201930508084,77.69558019026373L55.56203103807238,113.2782421346058L55.791088993326824,90.62259370752224L55.85918730434842,72.49807496591386L56.23682339274089,65.86334600819599L56.39159228142633,52.69067680650844L56.465881347995335,42.152541445175814L56.48445361463759,33.72203315612086L56.620650236680774,26.977626524884023L56.837326680840384,56.974100099279035L56.905424991861985,49.51172544108144L57.122101436021595,43.5418257145266L57.30782410244412,42.69834660711601L57.685460190836594,34.15867728568759L57.747367746310765,66.65138606955996L58.527402945285374,72.9833309761474L59.02885414462619,62.31911014258179L59.05361716681586,81.31484163172976L59.2083860555013,65.05187330538051L59.50554232177735,52.041498644302244L59.73460027703179,45.565644277108234L59.98842125447591,40.384960783353314L60.03794729885525,79.49730124709467L60.09366409878201,63.59784099767473L60.236051476372616,50.87827279813914L60.527016987101234,56.432394997341305L60.8675085422092,76.60546951553316L60.892271564398875,84.87904309459098L60.94179760877822,71.83567983733975L61.17704631958008,57.468543869871525L61.35038747490777,65.63705721639425L62.39662516242133,52.50964577311523L62.45234196234809,42.00771661849213L62.46472347344292,61.133281450786164L62.72473520643446,48.906625160628856L62.749498228624134,46.99018616399844L62.86712258402506,53.32192569002851L63.06522676154243,50.52242658751812L63.14570658365885,52.21527266717706L63.30047547234429,45.70466349540884L63.38095529446072,36.56373079632707L63.47381662767198,29.250984637061638L63.52953342759874,54.86034122730879L63.733828360663516,75.34782649950655L63.88240649380154,72.07559259676782L63.9009787604438,57.66047407741426L64.14860898234049,50.06082462359862L64.40242995978461,43.98110506054607L64.66244169277614,78.44177130717847L64.71815849270291,78.48319380457251L65.05865004781087,62.78655504365802L66.03678942430284,73.82391151709056L66.42680702379015,62.991574575339634L66.60014817911784,81.85281317793121L67.05826408962673,65.48225054234496L67.26874977823893,60.250686469371345L67.34922960035536,52.13299453716428L67.8259177775065,45.63884099139862L67.98068666619194,44.37595882861421L68.07973875495063,35.50076706289135L68.42642106560601,28.400613650313062L68.78548488735623,22.72049092025047L68.9526352871365,37.838614856697305L68.97739830932616,30.270891885357855L69.49123101976183,28.149158869953485L69.60266461961534,22.519327095962808L69.82553181932238,18.015461676770247L70.15364186333551,26.209700738578746L70.16602337443034,24.90020595253022L70.31460150756837,19.920164762024182L70.32079226311578,19.86857717128659L70.35174604085286,19.827307098696465L70.38269981858996,15.86184567895716L71.36702995062934,32.351698663662695L71.50941732821995,49.47602641309431L71.58989715033638,51.37815252763803L71.62085092807345,41.102522022110435L71.71990301683213,36.814462979355525L71.75085679456922,41.248901780646975L71.80657359449599,64.45867494217707L71.90562568325467,51.56693995374165L72.26468950500488,41.253551962993306L72.61756257120769,33.00284157039463L72.74137768215604,30.33471861798292L73.06329697062174,28.20022025605352L73.31092719251843,26.492621566510042L73.36045323689778,29.058983288703388L73.76904310302734,23.247186630962723L73.7876153696696,22.530194666437378L73.8557136806912,25.88904176864523L74.23334976908366,32.50856481207873L74.26430354682076,37.804183246825545L74.27668505791557,42.040677994623L74.62336736857095,45.42987379286094L75.01338496805826,44.20878506978407L75.03195723470051,47.16435945298984L75.06910176798503,41.66393292405906L75.30435047878689,64.79069985690677L75.57055296732584,63.62989128268798L75.85532772250706,54.8363583878176L75.98533358900282,47.80153207192131L76.19581927761502,38.24122565753703L76.38154194403755,34.525425887696784L76.4744032772488,27.620340710157414L76.56107385491266,22.096272568125908L76.98823598768446,57.00146229549463L77.16157714301215,45.60116983639569L77.18634016520183,36.480935869116536L77.19872167629666,29.18474869529325L77.27301074286567,70.53713157664342L77.42158887600368,64.29459129681005L77.4958779425727,55.36811839911521L77.58254852023654,44.29449471929218L77.65064683125814,35.43559577543375L77.96018460862902,32.280921982014206L78.02828291965061,25.824737585611356L78.2387686082628,20.659790068489077L78.2759131415473,51.919830934118L78.37496523030599,49.40075078278974L78.78974585198296,39.52060062623179L78.80831811862522,35.54892586265263L78.96927776285807,28.439140690122088L79.20452647365994,38.48108931092741L79.21071722920736,30.784871448741928L79.37167687344021,91.47945189989933L79.58216256205242,81.04844755541478L79.82979278394912,72.70364407982713L80.3931515387641,66.02780129935704L80.76459687160916,72.48446315998257L81.2350942932129,61.92001588965327L81.37129091525608,61.3333441088852L81.81702531467013,72.66134276927234L82.19466140306261,105.31840683582669L82.28133198072645,103.91694758915834L82.31228575846355,94.93088946848923L82.81373695780437,75.9447115747914L82.93755206875271,72.5531006569957L83.51948309020996,61.97492588726373L83.87235615641275,61.37727210697355L83.90950068969727,68.76403980607577L84.305709044732,58.943677206527866L84.5595300221761,51.0873871268895L84.58429304436578,40.869909701511624L84.77620646633571,60.2230359172016L84.96192913275826,56.043314769256604L85.13527028808593,44.834651815405294L85.28384842122395,35.86772145232422L85.2962299323188,28.694177161859358L85.57481393195258,30.82022776498282L85.63672148742675,28.588627573653504L85.86577944268122,22.870902058922823L85.90911473151313,34.026498405968L86.15674495340984,27.221198724774407L86.57771633063422,25.709404341486746L86.70772219712998,36.29730023201916L86.87487259691027,29.037840185615305L87.0296414855957,23.230272148492233L87.41965908508301,18.5842177187938L87.61157250705294,18.799819536702216L87.98301783989801,74.02652199085263L88.23064806179471,59.22121759268213L88.47208752814399,47.37697407414568L88.546376594713,41.83402462098371L88.60209339463977,33.46721969678695L88.69495472785101,38.57110715459213L88.80638832770454,81.9786637057497L88.89305890536838,81.31270772342953L88.97353872748481,65.0501661787436L89.06640006069607,59.9050189784902L89.49356219346788,47.924015182792175L90.00120414835612,38.33921214623374L90.05692094828287,34.60381507865417L90.17454530368381,59.14260558058286L90.82457463616265,51.24652982613351L90.83076539171007,48.862109896402146L91.07839561360677,62.68435539928588L91.3322165910509,65.87726107825847L91.3384073465983,52.70180886260675L91.44984094645181,42.161447090085396L91.70366192389595,37.66160303373548L91.85224005703397,34.06172778865556L91.9327198791504,27.249382230924457L92.03796272345649,29.664391820234908L92.20511312323676,23.731513456187933L92.34750050082737,22.917656126617587L92.53941392279731,18.334124901294075L92.54560467834473,30.39707667986503L92.55179543389214,24.317661343892027L92.61370298936632,35.18390583394337L92.69418281148275,32.079570028821884L92.73132734476725,29.59610138472471L92.8179979224311,47.27154858994393L93.25135081075032,37.817238871955155L93.4185012105306,34.18623645923133L93.61041463250054,47.01121128788203L93.71565747680664,96.59563539179648L94.04376752081977,77.27650831343718L94.14901036512587,61.82120665074974L94.19234565395779,53.389410682266984L94.52664645351834,42.71152854581357L94.59474476453993,65.62877635431038L94.97857160847981,64.30035248061087L94.99714387512208,51.44028198448869L95.00333463066949,41.15222558759094L95.30668165249294,36.854225831739946L95.61621942986382,29.483380665391945L95.65336396314834,23.586704532313533L95.65955471869574,18.869363625850813L95.69669925198025,15.095490900680643L95.9629017405192,12.076392720544542L96.0681445848253,21.458445573598187L96.33434707336426,17.16675645887856L96.55102351752387,13.733405167102836L96.78008147277832,26.71650089251204L96.8419890282525,25.305646075676812L96.85437053934733,20.244516860541474L97.23819738328721,16.19561348843317L97.3001049387614,20.82137682624184L97.34344022759332,16.657101460993463L97.63440573832193,13.325681168794778L98.07394938218859,10.660544935035812L99.19447613627115,8.528435948028646L99.22542991400825,6.822748758422905L99.27495595838758,5.458199006738339L99.3863895582411,4.366559205390656L99.6340197801378,3.493247364312505L99.78259791327582,10.65948392694532L99.81974244656034,12.460032503223488L100.10451720174154,9.96802600257879L100.36452893473307,27.636642922559965L100.40167346801758,45.70398182021215L100.45119951239691,36.563185456169705L101.10122884487576,29.25054836493578L101.49124644436306,23.400438691948604L101.58410777757433,46.24745910955119L101.79459346618653,36.997967287640954L101.90602706604004,29.59837383011278L102.6303454650879,27.611144425757438L102.83464039815266,45.683583022770094L103.36085461968315,36.546866418216084L103.60848484157987,33.169938496240086L103.73229995252821,57.995504314651555L103.78801675245496,50.328848813388475L103.91802261895073,44.19552441237801L104.12231755201552,39.2888648915696L104.29565870734321,31.431091913255653L104.41947381829156,25.144873530604535L104.4751906182183,35.845675583313394L104.9642603064643,28.676540466650685L105.0695031507704,22.941232373320542L105.40999470587836,18.352985898656407L105.71334172770183,14.682388718925136L106.32622652689615,11.745910975140117L106.35098954908584,17.2616148156074L106.6976718597412,13.80929185248591L106.92053905944823,14.979878843655928L107.11245248141819,11.983903074924736L107.19912305908203,13.519567821607009L107.4343717698839,14.74809961895279L107.6820019917806,11.798479695162216L107.70676501397027,29.10100587662676L107.7191465250651,35.07813609846399L107.84915239156088,35.9273949142665L107.85534314710829,28.741915931413228L107.94820448031955,62.31797698612451L108.02249354688857,81.31393510655913L108.18964394666884,72.91603412074264L108.20202545776368,66.19771333208944L108.2144069688585,76.5528381478357L108.6725228793674,61.24227051826858L108.96348839009603,52.92626177628204L109.25445390082466,42.34100942102561L109.6258992336697,49.60258429565023L110.13973194410536,55.41184419534994L110.82071505432128,44.32947535627996L110.84547807651096,39.39602564669114L111.08691754286023,39.38170655284827L111.26025869818794,35.43781060394584L111.28502172037761,32.28269384482391L111.58217798665365,29.75860043752631L111.73075611979166,47.40154783218523L112.00314936387804,45.786124301243504L112.59746189643013,36.6288994409948L113.0493870513916,29.30311955279582L113.31558953993056,27.374941003903874L113.59417353956434,25.832398164790273L113.83561300591363,48.19302668782455L114.02133567233615,42.48686671192687L114.2503936275906,33.98949336954151L114.66517424926758,27.191594695633196L114.83851540459527,21.75327575650656L114.8880414489746,21.335065966872477L115.29044055955676,17.068052773497985L115.40806491495768,21.519328254293722L115.43901869269477,17.21546260343498L116.39858580254449,13.772370082748L116.68955131327311,11.017896066198384L117.10433193495008,16.679202888454075L117.44482349005806,17.275807672430453L117.5005402899848,29.550422896774123L117.66149993421766,27.572783679086523L117.90913015611436,29.923112978764554L118.72011913282607,35.735821780174184L118.78821744384766,28.588657424139335L118.89965104370117,22.87092593931147L119.22157033216688,18.296740751449178L119.2649056209988,18.56983796282653L119.81588286471897,26.653201767423788L119.85921815355088,25.255006775606276L120.09446686435277,20.204005420485043L120.13161139763726,16.163204336388013L120.21828197530111,12.9305634691104L120.27399877522787,18.209336810783647L120.93640961880155,22.432355484122237L121.19642135179308,17.94588438729781L121.48119610697428,18.2891528715054L121.61739272901747,18.563767658871544L122.23646828375922,22.715900162592572L122.69458419426812,18.17272013007405L122.89268837178548,18.470621465726424L122.97316819390191,34.438719293078144L122.99793121609159,31.48342079612975L123.32604126010472,29.119181998571047L123.35080428229438,27.22779096052405L123.44366561550565,21.78223276841924L123.93273530375163,25.290672250230706L124.21751005893283,24.16498316185178L124.22370081448025,62.58887378822299L124.24846383666993,54.00354439224564L124.49609405856663,43.202835513796494L124.58276463623046,34.5622684110372L124.66943521389432,35.51470076432507L124.76229654710558,28.41176061146006L124.90468392469619,38.459185247997816L124.96040072462293,58.29445635439057L125.0470713022868,46.63556508351244L125.88282330118815,45.17333810230526L125.969493878852,40.07111584351144L126.05616445651584,43.85422407197173L126.11188125644259,42.948265293072716L126.40903752271865,42.22349826995349L126.54523414476184,61.305906771955094L126.6380954779731,52.97717077923129L126.6752400112576,42.38173662338501L126.84858116658528,33.905389298708016L127.5914718322754,34.98919747446174L127.76481298760308,27.991357979569397L128.22292889811197,22.39308638365549L128.28483645358617,21.8469144685916L128.45198685336644,33.20730833370305L128.520085164388,34.430732702457746L128.7243800974528,27.544586161966205L128.89153049723308,37.76544568840271L128.95962880825468,34.14480191238936L129.2196405412462,50.91050901207566L129.52298756306965,44.660852571327744L130.2039706732856,35.72868205706219L130.47636391737197,32.51539100731697L130.7301848948161,26.012312805853565L131.15115627204048,20.809850244682885L131.1573470275879,20.580325557413484L131.48545707160102,16.46426044593081L131.49783858269586,24.968739753907226L131.9435729821099,19.974991803125782L132.1478679151747,59.23688070124221L132.4326426703559,59.18683595815631L132.55026702575682,51.28191412819222L132.64931911451552,44.95797666422098L133.75127360195583,55.628603451873765L134.53130880093045,48.43532812316626L134.5560718231201,38.74826249853301L135.16895662231445,34.931055360493616L135.36706079983182,31.877289650062092L135.45373137749567,29.43427708171691L135.47230364413792,31.412307700868833L135.62088177727594,25.12984616069506L135.86851199917263,31.90120832571858L135.8932750213623,33.3858526960702L136.2090035542806,30.641127518523387L136.29567413194445,24.512902014818696L136.53092284274632,27.47520764735028L136.6671194647895,21.98016611788023L136.93951270887587,21.516578255971407L136.97665724216037,17.213262604777114L136.98284799770778,49.162608963148394L137.08190008646648,43.262532532185915L137.15618915303548,38.542471387415965L137.61430506354438,30.83397710993279L137.74431093004014,36.4645130851088L137.8247907521566,37.03649650358234L137.88669830763075,29.629197202865864L137.93622435201007,27.63580312395992L138.63577972886827,41.77086461966487L138.86483768412273,33.41669169573188L139.3848611501058,26.733353356585503L139.68201741638183,41.04890480576534L140.10917954915365,99.69067858551804L140.1153703047011,87.6174289039098L140.35061901550293,81.8912745202904L140.455861859809,81.24279637506208L140.5115786597358,64.99423710004967L140.72206434834797,51.99538968003973L140.95112230360243,57.326088502861545L141.23589705878362,49.79331616395646L141.60115163608128,63.42932041332932L141.6506776804606,54.67590169233069L141.67544070265026,43.74072135386458L141.98497848002117,34.99257708309165L142.4183313683404,27.994061666473304L142.43690363498266,30.260135368673982L142.6040540347629,32.072994330434526L142.93216407877605,41.38817222317737L143.0621699452718,56.70520526070609L143.13645901184083,53.22905024406019L143.18598505622015,42.58324019524815L143.21074807840984,34.06659215619853L143.23551110059952,27.25327372495882L143.66886398891873,25.73506434163427L144.09602612169053,20.58805147330743L144.4427084323459,16.47044117864593L144.52318825446235,21.04123897841207L144.8946335873074,24.697877218225L145.0432117204454,19.758301774580005L145.13607305365667,15.806641419663977L145.28465118679472,12.645313135731193L145.36513100891113,21.913581905747506L145.4208478088379,52.92286440392475L145.61895198635526,46.270736884807015L146.2008830078125,44.88147554334094L146.23183678554958,39.83762579633994L146.31231660766602,35.80254599873917L146.38041491868762,32.574482160658505L147.0799702955458,29.992031090194L147.0861610510932,23.993624872155223L147.1233055843777,19.194899897724152L147.14187785101996,15.355919918179334L147.216166917589,12.28473593454345L147.30902825080025,13.760234109301953L147.98382060546876,11.008187287441531L148.52241633809408,12.738995191620473L148.8195726043701,14.123641514963568L149.19101793721515,11.298913211970866L149.25292549268934,9.0391305695767L149.27768851487903,7.231304455661333L149.28387927042644,9.717488926196252L149.8720010474311,11.706436502624227L150.29916318020292,9.365149202099385L150.55298415764705,7.4921193616795L150.91204797939724,13.858581524838943L151.09157989027236,11.086865219871143L151.17825046793618,24.599268934726684L151.66112940063476,27.544301183276666L151.67970166727702,49.56254910261364L151.9582856669108,43.58248464375816L152.39782931077744,34.86598771500655L152.49688139953614,51.487457654169425L152.62688726603187,52.9872975204981L152.6702225548638,73.84939153405797L153.78455855339897,63.011958588913565L153.90837366434732,54.34201223279808L154.1188593529595,47.40605514790566L154.2179114417182,61.519511600488684L154.2860097527398,49.21560928039093L154.65126433003744,39.37248742431275L154.65745508558484,31.49798993945019L154.68221810777453,29.13083731322732L154.76269792989095,23.30466985058187L154.8555592631022,18.6437358804655L155.23319535149466,38.50965618653656L155.59844992879232,34.740170310896445L156.69421366068522,27.79213624871716L157.0099421936035,34.03104039613631L157.20804637112087,27.224832316909044L157.26376317104763,29.64475188902257L157.38138752644855,23.715801511218054L157.4928211263021,26.83752724446976L157.8209311703152,25.40246715724298L157.94474628126355,28.186859761289707L158.08094290330675,22.549487809031742L158.22333028089736,18.03959024722538L158.32857312520346,18.36411755944749L158.34714539184571,18.623739409225177L158.36571765848797,18.831436889047385L158.5947756137424,15.065149511237909L158.7681167690701,12.052119608990331L158.87955036892362,9.641695687192277L158.89193188001843,23.443133308583562L159.47386290147568,38.41672876736384L159.64101330125598,30.733383013891068L159.80197294548884,24.586706411112843L159.95674183417427,27.534251164385623L159.97531410081652,41.68962305200545L160.63153418884278,33.351698441604384L160.65629721103244,26.68135875328348L160.7491585442437,25.277532364294025L160.76154005533851,24.154471253102457L160.79249383307564,19.323577002481972L160.82963836636014,15.458861601985587L160.95964423285588,12.367089281588461L161.18251143256293,33.488338907434944L161.2815635213216,30.723116487615176L161.75825169847275,24.578493190092168L161.9811188981798,43.25746203423791L162.03064494255915,34.605969627390344L162.06778947584365,27.684775701912276L162.22874912007651,22.14782056152984L162.25351214226615,41.31292393138805L162.4020902754042,33.05033914511043L162.4701885864258,26.440271316088374L162.61257596401637,29.017103088366017L162.88496920810277,31.078568506188162L163.37403889634874,24.86285480495055L163.55357080722385,31.687615241123005L163.83834556240507,25.350092192898416L164.5626639614529,28.14495978981407L164.57504547254774,22.515967831851246L164.6307622724745,61.26966152422258L164.6555252946642,52.94817458104531L164.66171605021157,42.35853966483625L164.7050513390435,33.886831731869016L164.80410342780218,58.56901890315473L165.14459498291015,54.72010115801912L165.15697649400497,71.30318908240761L165.41698822699652,76.70477338642304L165.50365880466038,69.22870474463376L165.98653773735896,75.045185916204L166.02987302619087,75.76592549179294L166.1908326704237,76.34251715226412L167.54041737976075,68.93889975730661L167.68899551289877,55.15111980584527L167.85614591267904,51.98578188017156L167.99234253472224,53.3859569012998L168.0542500901964,58.438542279869594L168.15330217895507,54.615719859391L168.56808280063206,51.55746192300814L168.84047604471843,41.2459695384065L168.9147651112874,36.92922099239243L168.95810040011935,29.543376793913925L169.05096173333064,23.634701435131127L169.49050537719728,38.56998326860183L169.5028868882921,34.78843197654869L169.73194484354653,27.830745581238958L170.0291011098226,22.264596464991193L170.33244813164603,17.811677171992944L170.44388173149957,22.114227773089706L170.6605581756592,17.691382218471745L170.88961613091362,14.153105774777403L171.14343710835774,19.187370655317263L171.49631017456056,15.349896524253838L171.8306109741211,12.279917219403059L171.98537986280652,13.756379137189631L172.852085639445,22.80243470691428L173.01923603922526,18.241947765531425L173.23591248338488,18.52600357409237L173.66926537170409,26.618134256436463L173.70021914944118,21.294507405149165L173.78069897155763,24.900491959614673L173.92308634914824,19.920393567691747L173.99737541571724,23.80120088964874L174.96313328111435,19.040960711718995L175.1860004808214,27.030099966537737L175.38410465833874,21.624079973230174L175.8546020799425,36.96148609908111L175.8607928354899,33.50163424093213L176.43653310139973,30.733752754412865L176.98751034511992,28.519447565197467L176.99989185621473,46.41022553432213L177.33419265577527,37.1281804274577L177.35276492241752,41.49987573912871L177.78611781073676,33.19990059130295L178.3990026099311,26.559920473042347L179.23475460883247,21.24793637843391L179.69287051934137,36.66057122324406L179.96526376342774,33.260902340262426L180.00240829671225,26.60872187220995L180.28099229634603,21.28697749776797L180.89387709554035,56.35402623920831L181.73581984998916,68.67788847353081L181.87201647203233,62.807196814319994L181.95249629414877,50.245757451456L182.22488953823512,40.196605961164806L182.43537522684736,32.15728476893186L182.460138249037,25.725827815145475L182.5777626044379,20.580662252116383L183.28350873684354,47.92408331935262L183.46923140326606,77.66371089647603L183.89020278049043,66.06341407884803L183.9768733581543,52.85073126307841L184.22450358005102,61.94280713095969L184.59594891289606,53.48669106643499L184.65785646837023,70.31646100914031L184.7259547793918,60.18561416897944L184.7507178015815,48.148491335183564L184.94882197909885,38.51879306814683L184.99215726793076,34.747479816184665L185.12216313442656,35.66286988844304L185.33883957858617,28.530295910754436L185.4626546895345,22.82423672860353L185.47503620062935,37.921611503379786L185.58027904493542,34.269734564371014L185.66694962259928,31.348233013164016L186.05077646653916,25.078586410531226L186.063157977634,20.06286912842499L186.4160310438368,16.050295302739965L186.88033770989313,12.840236242191963L187.264164553833,18.137075029248912L188.1865871303982,42.03676817939144L188.47136188557943,41.494300579008474L188.61374926317004,33.19544046320677L189.51140881754557,38.35368376772799L189.7404667728,30.682947014182382L189.81475583936904,24.546357611345886L189.97571548360187,27.501972124572045L190.07476757236054,25.93402306132484L190.08714908345542,20.747218449059883L190.13667512783474,20.53022012091509L190.14905663892958,20.356621458399243L190.40906837192114,16.28529716671939L190.76194143812393,16.960683095042697L190.85480277133516,13.568546476034152L190.8609935268826,14.78728254249454L191.1891035708957,15.762271395662875L191.33768170403374,20.47470315202565L191.39958925950793,16.37976252162052L191.4738783260769,13.103810017296418L191.8515144144694,14.415493375504328L192.26010428059897,15.464840062070623L192.31582108052572,12.371872049656503L192.5139252580431,9.897497639725183L192.56964205796984,7.91799811178017L192.6191681023492,6.334398489424128L192.6686941467285,8.999964153206507L192.86060756869844,11.13241668423239L192.8729890797933,24.635710106215686L193.5415906789144,23.641013446639768L193.55397219000923,30.710142154474394L193.70874107869466,28.500559085246667L193.7892209008111,22.800447268197328L193.80160241190592,18.240357814557875L193.85731921183267,22.457172287141653L194.24733681132,21.898183191380507L194.51973005540637,45.0456547090967L194.55068383314344,47.83385516443994L194.95308294372558,53.99686089038171L195.31833752102324,43.197488712305365L195.54739547627767,38.490436331511525L195.57834925401477,30.792349065209212L195.60930303175184,24.63387925216736L195.81359796481664,23.639548763401113L195.9126500535753,18.911639010720897L196.12932649773492,15.129311208576707L196.1912340532091,16.035894328528556L196.20361556430393,16.76116082449003L196.2283785864936,13.40892865959204L196.25314160868328,18.592028963168982L196.575060897149,18.8060685322024L196.95269698554145,15.04485482576194L196.95888774108886,15.968329222276765L196.9650784966363,16.707108739488625L197.5717725402832,13.365686991590904L197.9184548509386,14.624994954939877L198.19084809502493,15.632441325619087L198.28370942823622,12.505953060495262L198.40133378363717,33.59942993056036L198.46943209465874,26.87954394444827L198.74801609429252,21.5036351555586L198.86564044969344,17.20290812444688L198.97088329399955,25.559657896720047L200.01093022596572,24.38017167904325L200.37618480326336,31.30146874039715L200.84049146931966,28.973620353984924L200.8590637359619,27.11134164485514L200.91478053588867,21.689073315884144L201.32956115756565,25.216144688202633L201.42861324632435,28.037801786057422L201.46575777960885,22.43024142884594L201.9795904900445,21.876638504743966L202.00435351223416,17.50131080379517L202.13435937872993,14.001048643036142L202.46866017829046,58.39017153483771L202.92058533325198,46.712137227870166L203.0072559109158,57.03193190279315L203.21155084398058,49.557990883901724L203.2610768883599,43.5788380687886L203.28583991054958,34.86307045503086L203.63871297675237,27.890456364024697L203.65109448784722,30.177251126715092L203.78110035434298,55.60135441903159L204.12778266499836,56.27841493238784L204.33207759806317,45.02273194591026L204.5735170644124,43.88307159222355L204.92639013061523,35.10645727377885L205.5516564409044,39.88249721618564L205.66928079630532,31.90599777294851L206.5421773284912,29.45724358002601L207.09315457221138,23.565794864020784L207.1426806165907,18.852635891216615L207.48317217169867,19.01455407464046L207.6007965270996,15.211643259712366L207.9165250600179,23.966646004932464L208.10224772644042,19.173316803945994L208.18272754855687,19.271098804824L209.19801145833333,27.214210441021756L209.21039296942817,21.771368352817408L209.58183830227324,17.417094682253907L209.75517945760092,13.93367574580313L210.31234745686848,11.146940596642516L210.32472896796332,12.84999783898121L210.3866365234375,33.87466575334911L210.83856167839897,27.099732602679296L211.22238852233886,21.679786082143437L211.2657238111708,17.343828865714755L211.47620949978298,25.672394489734398L212.08909429897733,32.33524698895006L212.40482283189561,33.733083626655365L212.64626229824492,26.986466901324295L212.67102532043455,21.58917352105945L212.98675385335284,17.27133881684758L213.15390425313313,29.546847812307817L213.34581767510306,23.637478249846257L213.3767714528402,66.09931522028579L213.5191588304308,56.81189753789582L213.71107225240073,45.449518030316646L213.98346549648707,36.35961442425333L214.32395705159504,33.02013690106988L214.4230091403537,26.416109520855905L214.63968558451333,68.32222023709355L214.67683011779783,70.38755294850458L214.75111918436687,56.310042358803685L214.9058880730523,72.57514204303526L215.33924096137153,65.92499966992357L215.38257625020344,52.73999973593885L215.48781909450955,46.12444515041833L215.63020647210013,36.89955612033466L215.73544931640623,45.24942165509751L215.8964089606391,40.13198268574518L216.1440391825358,36.03803151026336L216.44738620435925,28.830425208210706L216.51548451538085,23.064340166568584L216.6702534040663,18.451472133254846L217.01693571472168,14.761177706603865L217.0912247812907,11.808942165283105L217.1717046034071,9.447153732226468L217.91459526909722,7.557722985781174L218.18079775763616,6.046178388624924L218.24889606865779,12.70182874639527L218.2612775797526,21.958794394278783L218.2860406019423,17.567035515423054L218.533670823839,14.053628412338432L218.73796575690375,11.242902729870737L218.83701784566242,12.926767545563811L218.95464220106336,10.341414036451058L219.29513375617134,8.273131229160857L219.957544599745,6.618504983328694L220.42804202134874,13.159690022158294L220.4775680657281,18.392638053221994L220.48375882127547,26.51144183974017L220.9480654873318,25.14159883345935L221.02854530944825,24.045724428434674L221.1152158871121,23.169024904414957L221.32570157572428,18.535219923531997L221.94477713046604,14.82817593882558L222.19859810791016,15.794986112727642L222.36574850769043,12.635988890182118L222.52051739637588,10.108791112145726L222.5762341963026,12.019478251383738L222.6133787295871,17.480468636602332L222.6629047739665,21.849260944777182L222.7062400627984,25.344294791317093L222.90434424031577,20.275435833053677L223.08387615119088,16.22034866644292L223.59770886162653,12.976278933154324L224.17344912753634,10.381023146523471L224.37774406060115,12.237263878885997L224.81109694892035,9.789811103108791L224.95348432651096,7.83184888248702L225.19492379286027,6.265479105989632L225.40540948147245,5.012383284791725L225.77066405877008,7.942351989500609L225.82638085869684,6.353881591600503L226.0678203250461,12.94799130877573L226.3897396135118,10.358393047020568L226.6249883243137,12.219159799283688L226.76118494635688,49.09977208042085L226.9530983683268,43.21226302600387L227.17596556803386,34.56981042080312L227.20072859022352,47.31807045713948L227.25025463460287,37.85445636571159L227.6402722340902,30.283565092569262L227.65884450073244,24.226852074055408L228.1788679667155,19.381481659244333L228.30887383321127,15.505185327395475L228.38316289978027,16.33659362358356L228.45126121080187,17.001720260534064L228.55031329956054,13.60137620842723L228.63698387722437,10.88110096674179L228.76698974372016,8.704880773393421L228.90937712131077,6.963904618714753L229.02081072116428,33.098231850964126L229.14462583211264,26.478585480771294L230.128955964152,21.182868384617045L230.14133747524687,20.878740069360838L230.34563240831164,24.567878090984014L230.63040716349283,19.654302472787197L231.15662138502333,15.72344197822977L231.54663898451062,12.578753582583824L232.19666831698947,10.063002866067047L232.28333889465333,27.712624413350582L232.58049516092936,22.170099530680456L232.871460671658,17.73607962454439L233.16861693793405,45.648417217295034L233.34195809326172,36.518733773836004L233.67625889282226,29.21498701906881L234.0786580034044,23.37198961525506L234.08484875895184,46.22469984819636L234.15913782552084,40.91220524022425L234.16532858106822,32.7297641921794L234.64201675821943,26.183811353743543L234.67916129150393,20.94704908299485L235.03822511325413,16.757639266395884L235.16204022420246,13.406111413116726L235.32299986843532,10.72488913049338L235.53967631259493,12.512356666061914L236.1216073340522,13.942330694516748L236.39400057813856,15.086309917280552L236.64163080003527,12.069047933824473L236.92021479966905,13.587683708726797L236.9759315995958,14.802592328648625L237.4216659990099,23.63940526008144L237.68167773200142,26.776410243560488L237.77453906521268,21.421128194848404L237.80549284294975,17.13690255587871L237.88597266506616,13.70952204470298L237.97883399827745,10.967617635762393L238.49885746426054,8.774094108609907L239.588430440606,7.019275286887936L239.63795648498535,13.480306265005689L239.89177746242947,22.581576409167102L239.89796821797688,18.06526112733367L240.10226315104165,18.384654263534184L240.2198875064426,26.505054807989893L240.38703790622287,29.06892988188725L240.56656981709799,23.2551439055098L240.59752359483508,18.60411512440784L240.6099051059299,14.88329209952629L240.73372021687825,15.839079041288226L241.43327559373643,12.671263233030585L241.50137390475805,10.137010586424449L241.56947221577963,27.771830589636533L241.9780620819092,34.0147958688718L241.99044359300402,46.87405881559444L242.10187719285753,37.49924705247554L242.31855363701715,45.72917440081018L242.6590451921251,36.58333952064814L243.1481148803711,29.266671616518522L243.17906865810818,27.345782654881994L243.69290136854383,25.80907148557278L244.31197692328558,20.647257188458223L244.38007523430718,16.51780575076658L244.5286533674452,13.214244600613284L245.0920121222602,14.503841042157802L245.10439363335502,11.60307283372625L245.29011629977757,9.282458266981012L245.29630705532497,23.155743372414573L245.57489105495878,26.389480733427003L246.02681620992024,21.11158458674161L246.46016909823948,20.821713031060455L246.73256234232585,16.657370424848363L246.8254236755371,13.32589633987871L246.86875896436905,10.660717071902948L247.0668631418864,20.325905054684927L247.2030597639296,16.260724043747913L247.2463950527615,16.941024596665557L247.30211185268826,13.552819677332469L247.31449336378307,34.43692322403013L247.32687487487794,35.41442461471944L247.4259269636366,28.331539691775554L247.75403700764974,73.78700973549643L247.9149966518826,59.029607788397165L248.0945285627577,47.223686230717746L248.335968029107,37.77894898457418L248.49692767333985,38.088045223154694L248.70122260640463,34.40288154019095L248.96742509494356,27.52230523215278L248.973615850491,22.0178441857222L249.09124020589192,17.614275348577753L249.9641367380778,29.821197037691967L249.9765182491726,23.856957630153584" fill="none"></path></g></g></g></g><g opacity="0.2"><g><g><g><path style="fill: none;" stroke="rgb(255, 112, 67)" stroke-width="2px" d="M31.06521133694119,176.95999439663362L31.33760458102756,0L31.61618858066135,0L32.01858769124349,0L32.464322090657554,0L32.557183423868814,373.58221999645235L32.699570801459416,0L33.44246146714952,19.662226808336026L33.52294128926595,137.63554077996156L33.65913791130914,235.94666310204403L33.83247906663683,334.25777370452886L34.11106306627062,0L34.25345044386122,78.64888379414879L34.28440422159831,0L34.39583782145182,255.60888991038004L34.64346804334853,117.97333741082085L34.89728902079264,58.98665698581278L34.93443355407715,19.662226808336026L35.02729488728841,39.324430177476756L35.68351497531467,0L35.93114519721137,39.324430177476756L36.31497204115126,255.60888991038004L36.43878715209961,0L37.23739461771647,0L37.30549292873807,39.324430177476756L37.373591239759655,373.58221999645235L37.83170715026856,58.98665698581278L37.918377727932395,0L37.96171301676433,39.324430177476756L38.08552812771268,0L38.159817194281686,19.662226808336026L38.234106260850695,0L38.283632305230036,0L38.49411799384223,117.97333741082085L38.704603682454426,39.324430177476756L38.71698519354926,58.98665698581278L38.79746501566569,117.97333741082085L38.82222803785536,0L39.472257370334205,78.64888379414879L39.72607834777832,157.2977675882976L39.97989932522244,78.64888379414879L40.20276652492947,157.2977675882976L40.30181861368815,39.324430177476756L40.3203908803304,137.63554077996156L40.53706732449002,137.63554077996156L40.55563959113227,0L40.64231016879612,216.28443629370798L41.026137012736,58.98665698581278L41.07566305711534,0L41.29233950127496,58.98665698581278L41.49044367879232,0L41.54616047871908,0L42.388103233167854,294.93333180745446L42.710022521633576,275.2711049991184L42.77193007710775,0L42.9638434990777,39.324430177476756L43.08765861002605,176.95999439663362L43.093849365573455,0L43.82435852016873,0L44.62915674133301,58.98665698581278L45.31013985154894,0L45.55777007344564,19.662226808336026L46.034458250596785,19.662226808336026L46.065412028333874,137.63554077996156L46.145891850450305,0L46.195417894829646,0L46.2139901614719,0L46.44923887227377,0L46.907354782782654,0L46.91354553833008,117.97333741082085L47.04355140482585,0L47.26641860453287,0L47.315944648912215,0L47.569765626356336,0L47.62548242628309,0L47.71834375949435,0L47.774060559421116,0L47.99692775912814,39.324430177476756L48.00311851467556,19.662226808336026L48.089789092339416,98.31111060248482L48.195031936645506,117.97333741082085L48.36218233642578,0L48.56028651394314,19.662226808336026L48.665529358249245,157.2977675882976L49.35889397956,0L50.03987708977593,0L50.04606784532335,196.62222120496963L50.1698829562717,98.31111060248482L50.17607371181912,0L50.42370393371582,0L50.758004733276366,39.324430177476756L50.869438333129885,19.662226808336026L51.01801646626791,0L51.166594599405926,19.662226808336026L51.18516686604818,0L51.72995335422092,19.662226808336026L52.027109620496965,0L52.51617930874294,0L52.621422153049046,216.28443629370798L52.7823817972819,19.662226808336026L53.0300120191786,39.324430177476756L53.2404977077908,39.324430177476756L53.339549796549484,0L53.57479850735134,39.324430177476756L53.61813379618327,157.2977675882976L53.66146908501519,157.2977675882976L53.680041351657444,0L53.79766570705838,19.662226808336026L53.93386232910156,98.31111060248482L54.36721521742079,19.662226808336026L54.775805083550345,294.93333180745446L55.19058570522732,0L55.30201930508084,58.98665698581278L55.56203103807238,255.60888991038004L55.791088993326824,0L55.85918730434842,0L56.23682339274089,39.324430177476756L56.39159228142633,0L56.465881347995335,0L56.48445361463759,0L56.620650236680774,0L56.837326680840384,176.95999439663362L56.905424991861985,19.662226808336026L57.122101436021595,19.662226808336026L57.30782410244412,39.324430177476756L57.685460190836594,0L57.747367746310765,196.62222120496963L58.527402945285374,98.31111060248482L59.02885414462619,19.662226808336026L59.05361716681586,157.2977675882976L59.2083860555013,0L59.50554232177735,0L59.73460027703179,19.662226808336026L59.98842125447591,19.662226808336026L60.03794729885525,235.94666310204403L60.09366409878201,0L60.236051476372616,0L60.527016987101234,78.64888379414879L60.8675085422092,157.2977675882976L60.892271564398875,117.97333741082085L60.94179760877822,19.662226808336026L61.17704631958008,0L61.35038747490777,98.31111060248482L62.39662516242133,0L62.45234196234809,0L62.46472347344292,137.63554077996156L62.72473520643446,0L62.749498228624134,39.324430177476756L62.86712258402506,78.64888379414879L63.06522676154243,39.324430177476756L63.14570658365885,58.98665698581278L63.30047547234429,19.662226808336026L63.38095529446072,0L63.47381662767198,0L63.52953342759874,157.2977675882976L63.733828360663516,157.2977675882976L63.88240649380154,58.98665698581278L63.9009787604438,0L64.14860898234049,19.662226808336026L64.40242995978461,19.662226808336026L64.66244169277614,216.28443629370798L64.71815849270291,78.64888379414879L65.05865004781087,0L66.03678942430284,117.97333741082085L66.42680702379015,19.662226808336026L66.60014817911784,157.2977675882976L67.05826408962673,0L67.26874977823893,39.324430177476756L67.34922960035536,19.662226808336026L67.8259177775065,19.662226808336026L67.98068666619194,39.324430177476756L68.07973875495063,0L68.42642106560601,0L68.78548488735623,0L68.9526352871365,98.31111060248482L68.97739830932616,0L69.49123101976183,19.662226808336026L69.60266461961534,0L69.82553181932238,0L70.15364186333551,58.98665698581278L70.16602337443034,19.662226808336026L70.31460150756837,0L70.32079226311578,19.662226808336026L70.35174604085286,19.662226808336026L70.38269981858996,0L71.36702995062934,98.31111060248482L71.50941732821995,117.97333741082085L71.58989715033638,58.98665698581278L71.62085092807345,0L71.71990301683213,19.662226808336026L71.75085679456922,58.98665698581278L71.80657359449599,157.2977675882976L71.90562568325467,0L72.26468950500488,0L72.61756257120769,0L72.74137768215604,19.662226808336026L73.06329697062174,19.662226808336026L73.31092719251843,19.662226808336026L73.36045323689778,39.324430177476756L73.76904310302734,0L73.7876153696696,19.662226808336026L73.8557136806912,39.324430177476756L74.23334976908366,58.98665698581278L74.26430354682076,58.98665698581278L74.27668505791557,58.98665698581278L74.62336736857095,58.98665698581278L75.01338496805826,39.324430177476756L75.03195723470051,58.98665698581278L75.06910176798503,19.662226808336026L75.30435047878689,157.2977675882976L75.57055296732584,58.98665698581278L75.85532772250706,19.662226808336026L75.98533358900282,19.662226808336026L76.19581927761502,0L76.38154194403755,19.662226808336026L76.4744032772488,0L76.56107385491266,0L76.98823598768446,196.62222120496963L77.16157714301215,0L77.18634016520183,0L77.19872167629666,0L77.27301074286567,235.94666310204403L77.42158887600368,39.324430177476756L77.4958779425727,19.662226808336026L77.58254852023654,0L77.65064683125814,0L77.96018460862902,19.662226808336026L78.02828291965061,0L78.2387686082628,0L78.2759131415473,176.95999439663362L78.37496523030599,39.324430177476756L78.78974585198296,0L78.80831811862522,19.662226808336026L78.96927776285807,0L79.20452647365994,78.64888379414879L79.21071722920736,0L79.37167687344021,334.25777370452886L79.58216256205242,39.324430177476756L79.82979278394912,39.324430177476756L80.3931515387641,39.324430177476756L80.76459687160916,98.31111060248482L81.2350942932129,19.662226808336026L81.37129091525608,58.98665698581278L81.81702531467013,117.97333741082085L82.19466140306261,235.94666310204403L82.28133198072645,98.31111060248482L82.31228575846355,58.98665698581278L82.81373695780437,0L82.93755206875271,58.98665698581278L83.51948309020996,19.662226808336026L83.87235615641275,58.98665698581278L83.90950068969727,98.31111060248482L84.305709044732,19.662226808336026L84.5595300221761,19.662226808336026L84.58429304436578,0L84.77620646633571,137.63554077996156L84.96192913275826,39.324430177476756L85.13527028808593,0L85.28384842122395,0L85.2962299323188,0L85.57481393195258,39.324430177476756L85.63672148742675,19.662226808336026L85.86577944268122,0L85.90911473151313,78.64888379414879L86.15674495340984,0L86.57771633063422,19.662226808336026L86.70772219712998,78.64888379414879L86.87487259691027,0L87.0296414855957,0L87.41965908508301,0L87.61157250705294,19.662226808336026L87.98301783989801,294.93333180745446L88.23064806179471,0L88.47208752814399,0L88.546376594713,19.662226808336026L88.60209339463977,0L88.69495472785101,58.98665698581278L88.80638832770454,255.60888991038004L88.89305890536838,78.64888379414879L88.97353872748481,0L89.06640006069607,39.324430177476756L89.49356219346788,0L90.00120414835612,0L90.05692094828287,19.662226808336026L90.17454530368381,157.2977675882976L90.82457463616265,19.662226808336026L90.83076539171007,39.324430177476756L91.07839561360677,117.97333741082085L91.3322165910509,78.64888379414879L91.3384073465983,0L91.44984094645181,0L91.70366192389595,19.662226808336026L91.85224005703397,19.662226808336026L91.9327198791504,0L92.03796272345649,39.324430177476756L92.20511312323676,0L92.34750050082737,19.662226808336026L92.53941392279731,0L92.54560467834473,78.64888379414879L92.55179543389214,0L92.61370298936632,78.64888379414879L92.69418281148275,19.662226808336026L92.73132734476725,19.662226808336026L92.8179979224311,117.97333741082085L93.25135081075032,0L93.4185012105306,19.662226808336026L93.61041463250054,98.31111060248482L93.71565747680664,294.93333180745446L94.04376752081977,0L94.14901036512587,0L94.19234565395779,19.662226808336026L94.52664645351834,0L94.59474476453993,157.2977675882976L94.97857160847981,58.98665698581278L94.99714387512208,0L95.00333463066949,0L95.30668165249294,19.662226808336026L95.61621942986382,0L95.65336396314834,0L95.65955471869574,0L95.69669925198025,0L95.9629017405192,0L96.0681445848253,58.98665698581278L96.33434707336426,0L96.55102351752387,0L96.78008147277832,78.64888379414879L96.8419890282525,19.662226808336026L96.85437053934733,0L97.23819738328721,0L97.3001049387614,39.324430177476756L97.34344022759332,0L97.63440573832193,0L98.07394938218859,0L99.19447613627115,0L99.22542991400825,0L99.27495595838758,0L99.3863895582411,0L99.6340197801378,0L99.78259791327582,39.324430177476756L99.81974244656034,19.662226808336026L100.10451720174154,0L100.36452893473307,98.31111060248482L100.40167346801758,117.97333741082085L100.45119951239691,0L101.10122884487576,0L101.49124644436306,0L101.58410777757433,137.63554077996156L101.79459346618653,0L101.90602706604004,0L102.6303454650879,19.662226808336026L102.83464039815266,117.97333741082085L103.36085461968315,0L103.60848484157987,19.662226808336026L103.73229995252821,157.2977675882976L103.78801675245496,19.662226808336026L103.91802261895073,19.662226808336026L104.12231755201552,19.662226808336026L104.29565870734321,0L104.41947381829156,0L104.4751906182183,78.64888379414879L104.9642603064643,0L105.0695031507704,0L105.40999470587836,0L105.71334172770183,0L106.32622652689615,0L106.35098954908584,39.324430177476756L106.6976718597412,0L106.92053905944823,19.662226808336026L107.11245248141819,0L107.19912305908203,19.662226808336026L107.4343717698839,19.662226808336026L107.6820019917806,0L107.70676501397027,98.31111060248482L107.7191465250651,58.98665698581278L107.84915239156088,39.324430177476756L107.85534314710829,0L107.94820448031955,196.62222120496963L108.02249354688857,157.2977675882976L108.18964394666884,39.324430177476756L108.20202545776368,39.324430177476756L108.2144069688585,117.97333741082085L108.6725228793674,0L108.96348839009603,19.662226808336026L109.25445390082466,0L109.6258992336697,78.64888379414879L110.13973194410536,78.64888379414879L110.82071505432128,0L110.84547807651096,19.662226808336026L111.08691754286023,39.324430177476756L111.26025869818794,19.662226808336026L111.28502172037761,19.662226808336026L111.58217798665365,19.662226808336026L111.73075611979166,117.97333741082085L112.00314936387804,39.324430177476756L112.59746189643013,0L113.0493870513916,0L113.31558953993056,19.662226808336026L113.59417353956434,19.662226808336026L113.83561300591363,137.63554077996156L114.02133567233615,19.662226808336026L114.2503936275906,0L114.66517424926758,0L114.83851540459527,0L114.8880414489746,19.662226808336026L115.29044055955676,0L115.40806491495768,39.324430177476756L115.43901869269477,0L116.39858580254449,0L116.68955131327311,0L117.10433193495008,39.324430177476756L117.44482349005806,19.662226808336026L117.5005402899848,78.64888379414879L117.66149993421766,19.662226808336026L117.90913015611436,39.324430177476756L118.72011913282607,58.98665698581278L118.78821744384766,0L118.89965104370117,0L119.22157033216688,0L119.2649056209988,19.662226808336026L119.81588286471897,58.98665698581278L119.85921815355088,19.662226808336026L120.09446686435277,0L120.13161139763726,0L120.21828197530111,0L120.27399877522787,39.324430177476756L120.93640961880155,39.324430177476756L121.19642135179308,0L121.48119610697428,19.662226808336026L121.61739272901747,19.662226808336026L122.23646828375922,39.324430177476756L122.69458419426812,0L122.89268837178548,19.662226808336026L122.97316819390191,98.31111060248482L122.99793121609159,19.662226808336026L123.32604126010472,19.662226808336026L123.35080428229438,19.662226808336026L123.44366561550565,0L123.93273530375163,39.324430177476756L124.21751005893283,19.662226808336026L124.22370081448025,216.28443629370798L124.24846383666993,19.662226808336026L124.49609405856663,0L124.58276463623046,0L124.66943521389432,39.324430177476756L124.76229654710558,0L124.90468392469619,78.64888379414879L124.96040072462293,137.63554077996156L125.0470713022868,0L125.88282330118815,39.324430177476756L125.969493878852,19.662226808336026L126.05616445651584,58.98665698581278L126.11188125644259,39.324430177476756L126.40903752271865,39.324430177476756L126.54523414476184,137.63554077996156L126.6380954779731,19.662226808336026L126.6752400112576,0L126.84858116658528,0L127.5914718322754,39.324430177476756L127.76481298760308,0L128.22292889811197,0L128.28483645358617,19.662226808336026L128.45198685336644,78.64888379414879L128.520085164388,39.324430177476756L128.7243800974528,0L128.89153049723308,78.64888379414879L128.95962880825468,19.662226808336026L129.2196405412462,117.97333741082085L129.52298756306965,19.662226808336026L130.2039706732856,0L130.47636391737197,19.662226808336026L130.7301848948161,0L131.15115627204048,0L131.1573470275879,19.662226808336026L131.48545707160102,0L131.49783858269586,58.98665698581278L131.9435729821099,0L132.1478679151747,216.28443629370798L132.4326426703559,58.98665698581278L132.55026702575682,19.662226808336026L132.64931911451552,19.662226808336026L133.75127360195583,98.31111060248482L134.53130880093045,19.662226808336026L134.5560718231201,0L135.16895662231445,19.662226808336026L135.36706079983182,19.662226808336026L135.45373137749567,19.662226808336026L135.47230364413792,39.324430177476756L135.62088177727594,0L135.86851199917263,58.98665698581278L135.8932750213623,39.324430177476756L136.2090035542806,19.662226808336026L136.29567413194445,0L136.53092284274632,39.324430177476756L136.6671194647895,0L136.93951270887587,19.662226808336026L136.97665724216037,0L136.98284799770778,176.95999439663362L137.08190008646648,19.662226808336026L137.15618915303548,19.662226808336026L137.61430506354438,0L137.74431093004014,58.98665698581278L137.8247907521566,39.324430177476756L137.88669830763075,0L137.93622435201007,19.662226808336026L138.63577972886827,98.31111060248482L138.86483768412273,0L139.3848611501058,0L139.68201741638183,98.31111060248482L140.10917954915365,334.25777370452886L140.1153703047011,39.324430177476756L140.35061901550293,58.98665698581278L140.455861859809,78.64888379414879L140.5115786597358,0L140.72206434834797,0L140.95112230360243,78.64888379414879L141.23589705878362,19.662226808336026L141.60115163608128,117.97333741082085L141.6506776804606,19.662226808336026L141.67544070265026,0L141.98497848002117,0L142.4183313683404,0L142.43690363498266,39.324430177476756L142.6040540347629,39.324430177476756L142.93216407877605,78.64888379414879L143.0621699452718,117.97333741082085L143.13645901184083,39.324430177476756L143.18598505622015,0L143.21074807840984,0L143.23551110059952,0L143.66886398891873,19.662226808336026L144.09602612169053,0L144.4427084323459,0L144.52318825446235,39.324430177476756L144.8946335873074,39.324430177476756L145.0432117204454,0L145.13607305365667,0L145.28465118679472,0L145.36513100891113,58.98665698581278L145.4208478088379,176.95999439663362L145.61895198635526,19.662226808336026L146.2008830078125,39.324430177476756L146.23183678554958,19.662226808336026L146.31231660766602,19.662226808336026L146.38041491868762,19.662226808336026L147.0799702955458,19.662226808336026L147.0861610510932,0L147.1233055843777,0L147.14187785101996,0L147.216166917589,0L147.30902825080025,19.662226808336026L147.98382060546876,0L148.52241633809408,19.662226808336026L148.8195726043701,19.662226808336026L149.19101793721515,0L149.25292549268934,0L149.27768851487903,0L149.28387927042644,19.662226808336026L149.8720010474311,19.662226808336026L150.29916318020292,0L150.55298415764705,0L150.91204797939724,39.324430177476756L151.09157989027236,0L151.17825046793618,78.64888379414879L151.66112940063476,39.324430177476756L151.67970166727702,137.63554077996156L151.9582856669108,19.662226808336026L152.39782931077744,0L152.49688139953614,117.97333741082085L152.62688726603187,58.98665698581278L152.6702225548638,157.2977675882976L153.78455855339897,19.662226808336026L153.90837366434732,19.662226808336026L154.1188593529595,19.662226808336026L154.2179114417182,117.97333741082085L154.2860097527398,0L154.65126433003744,0L154.65745508558484,0L154.68221810777453,19.662226808336026L154.76269792989095,0L154.8555592631022,0L155.23319535149466,117.97333741082085L155.59844992879232,19.662226808336026L156.69421366068522,0L157.0099421936035,58.98665698581278L157.20804637112087,0L157.26376317104763,39.324430177476756L157.38138752644855,0L157.4928211263021,39.324430177476756L157.8209311703152,19.662226808336026L157.94474628126355,39.324430177476756L158.08094290330675,0L158.22333028089736,0L158.32857312520346,19.662226808336026L158.34714539184571,19.662226808336026L158.36571765848797,19.662226808336026L158.5947756137424,0L158.7681167690701,0L158.87955036892362,0L158.89193188001843,78.64888379414879L159.47386290147568,98.31111060248482L159.64101330125598,0L159.80197294548884,0L159.95674183417427,39.324430177476756L159.97531410081652,98.31111060248482L160.63153418884278,0L160.65629721103244,0L160.7491585442437,19.662226808336026L160.76154005533851,19.662226808336026L160.79249383307564,0L160.82963836636014,0L160.95964423285588,0L161.18251143256293,117.97333741082085L161.2815635213216,19.662226808336026L161.75825169847275,0L161.9811188981798,117.97333741082085L162.03064494255915,0L162.06778947584365,0L162.22874912007651,0L162.25351214226615,117.97333741082085L162.4020902754042,0L162.4701885864258,0L162.61257596401637,39.324430177476756L162.88496920810277,39.324430177476756L163.37403889634874,0L163.55357080722385,58.98665698581278L163.83834556240507,0L164.5626639614529,39.324430177476756L164.57504547254774,0L164.6307622724745,216.28443629370798L164.6555252946642,19.662226808336026L164.66171605021157,0L164.7050513390435,0L164.80410342780218,157.2977675882976L165.14459498291015,39.324430177476756L165.15697649400497,137.63554077996156L165.41698822699652,98.31111060248482L165.50365880466038,39.324430177476756L165.98653773735896,98.31111060248482L166.02987302619087,78.64888379414879L166.1908326704237,78.64888379414879L167.54041737976075,39.324430177476756L167.68899551289877,0L167.85614591267904,39.324430177476756L167.99234253472224,58.98665698581278L168.0542500901964,78.64888379414879L168.15330217895507,39.324430177476756L168.56808280063206,39.324430177476756L168.84047604471843,0L168.9147651112874,19.662226808336026L168.95810040011935,0L169.05096173333064,0L169.49050537719728,98.31111060248482L169.5028868882921,19.662226808336026L169.73194484354653,0L170.0291011098226,0L170.33244813164603,0L170.44388173149957,39.324430177476756L170.6605581756592,0L170.88961613091362,0L171.14343710835774,39.324430177476756L171.49631017456056,0L171.8306109741211,0L171.98537986280652,19.662226808336026L172.852085639445,58.98665698581278L173.01923603922526,0L173.23591248338488,19.662226808336026L173.66926537170409,58.98665698581278L173.70021914944118,0L173.78069897155763,39.324430177476756L173.92308634914824,0L173.99737541571724,39.324430177476756L174.96313328111435,0L175.1860004808214,58.98665698581278L175.38410465833874,0L175.8546020799425,98.31111060248482L175.8607928354899,19.662226808336026L176.43653310139973,19.662226808336026L176.98751034511992,19.662226808336026L176.99989185621473,117.97333741082085L177.33419265577527,0L177.35276492241752,58.98665698581278L177.78611781073676,0L178.3990026099311,0L179.23475460883247,0L179.69287051934137,98.31111060248482L179.96526376342774,19.662226808336026L180.00240829671225,0L180.28099229634603,0L180.89387709554035,196.62222120496963L181.73581984998916,117.97333741082085L181.87201647203233,39.324430177476756L181.95249629414877,0L182.22488953823512,0L182.43537522684736,0L182.460138249037,0L182.5777626044379,0L183.28350873684354,157.2977675882976L183.46923140326606,196.62222120496963L183.89020278049043,19.662226808336026L183.9768733581543,0L184.22450358005102,98.31111060248482L184.59594891289606,19.662226808336026L184.65785646837023,137.63554077996156L184.7259547793918,19.662226808336026L184.7507178015815,0L184.94882197909885,0L184.99215726793076,19.662226808336026L185.12216313442656,39.324430177476756L185.33883957858617,0L185.4626546895345,0L185.47503620062935,98.31111060248482L185.58027904493542,19.662226808336026L185.66694962259928,19.662226808336026L186.05077646653916,0L186.063157977634,0L186.4160310438368,0L186.88033770989313,0L187.264164553833,39.324430177476756L188.1865871303982,137.63554077996156L188.47136188557943,39.324430177476756L188.61374926317004,0L189.51140881754557,58.98665698581278L189.7404667728,0L189.81475583936904,0L189.97571548360187,39.324430177476756L190.07476757236054,19.662226808336026L190.08714908345542,0L190.13667512783474,19.662226808336026L190.14905663892958,19.662226808336026L190.40906837192114,0L190.76194143812393,19.662226808336026L190.85480277133516,0L190.8609935268826,19.662226808336026L191.1891035708957,19.662226808336026L191.33768170403374,39.324430177476756L191.39958925950793,0L191.4738783260769,0L191.8515144144694,19.662226808336026L192.26010428059897,19.662226808336026L192.31582108052572,0L192.5139252580431,0L192.56964205796984,0L192.6191681023492,0L192.6686941467285,19.662226808336026L192.86060756869844,19.662226808336026L192.8729890797933,78.64888379414879L193.5415906789144,19.662226808336026L193.55397219000923,58.98665698581278L193.70874107869466,19.662226808336026L193.7892209008111,0L193.80160241190592,0L193.85731921183267,39.324430177476756L194.24733681132,19.662226808336026L194.51973005540637,137.63554077996156L194.55068383314344,58.98665698581278L194.95308294372558,78.64888379414879L195.31833752102324,0L195.54739547627767,19.662226808336026L195.57834925401477,0L195.60930303175184,0L195.81359796481664,19.662226808336026L195.9126500535753,0L196.12932649773492,0L196.1912340532091,19.662226808336026L196.20361556430393,19.662226808336026L196.2283785864936,0L196.25314160868328,39.324430177476756L196.575060897149,19.662226808336026L196.95269698554145,0L196.95888774108886,19.662226808336026L196.9650784966363,19.662226808336026L197.5717725402832,0L197.9184548509386,19.662226808336026L198.19084809502493,19.662226808336026L198.28370942823622,0L198.40133378363717,117.97333741082085L198.46943209465874,0L198.74801609429252,0L198.86564044969344,0L198.97088329399955,58.98665698581278L200.01093022596572,19.662226808336026L200.37618480326336,58.98665698581278L200.84049146931966,19.662226808336026L200.8590637359619,19.662226808336026L200.91478053588867,0L201.32956115756565,39.324430177476756L201.42861324632435,39.324430177476756L201.46575777960885,0L201.9795904900445,19.662226808336026L202.00435351223416,0L202.13435937872993,0L202.46866017829046,235.94666310204403L202.92058533325198,0L203.0072559109158,98.31111060248482L203.21155084398058,19.662226808336026L203.2610768883599,19.662226808336026L203.28583991054958,0L203.63871297675237,0L203.65109448784722,39.324430177476756L203.78110035434298,157.2977675882976L204.12778266499836,58.98665698581278L204.33207759806317,0L204.5735170644124,39.324430177476756L204.92639013061523,0L205.5516564409044,58.98665698581278L205.66928079630532,0L206.5421773284912,19.662226808336026L207.09315457221138,0L207.1426806165907,0L207.48317217169867,19.662226808336026L207.6007965270996,0L207.9165250600179,58.98665698581278L208.10224772644042,0L208.18272754855687,19.662226808336026L209.19801145833333,58.98665698581278L209.21039296942817,0L209.58183830227324,0L209.75517945760092,0L210.31234745686848,0L210.32472896796332,19.662226808336026L210.3866365234375,117.97333741082085L210.83856167839897,0L211.22238852233886,0L211.2657238111708,0L211.47620949978298,58.98665698581278L212.08909429897733,58.98665698581278L212.40482283189561,39.324430177476756L212.64626229824492,0L212.67102532043455,0L212.98675385335284,0L213.15390425313313,78.64888379414879L213.34581767510306,0L213.3767714528402,235.94666310204403L213.5191588304308,19.662226808336026L213.71107225240073,0L213.98346549648707,0L214.32395705159504,19.662226808336026L214.4230091403537,0L214.63968558451333,235.94666310204403L214.67683011779783,78.64888379414879L214.75111918436687,0L214.9058880730523,137.63554077996156L215.33924096137153,39.324430177476756L215.38257625020344,0L215.48781909450955,19.662226808336026L215.63020647210013,0L215.73544931640623,78.64888379414879L215.8964089606391,19.662226808336026L216.1440391825358,19.662226808336026L216.44738620435925,0L216.51548451538085,0L216.6702534040663,0L217.01693571472168,0L217.0912247812907,0L217.1717046034071,0L217.91459526909722,0L218.18079775763616,0L218.24889606865779,39.324430177476756L218.2612775797526,58.98665698581278L218.2860406019423,0L218.533670823839,0L218.73796575690375,0L218.83701784566242,19.662226808336026L218.95464220106336,0L219.29513375617134,0L219.957544599745,0L220.42804202134874,39.324430177476756L220.4775680657281,39.324430177476756L220.48375882127547,58.98665698581278L220.9480654873318,19.662226808336026L221.02854530944825,19.662226808336026L221.1152158871121,19.662226808336026L221.32570157572428,0L221.94477713046604,0L222.19859810791016,19.662226808336026L222.36574850769043,0L222.52051739637588,0L222.5762341963026,19.662226808336026L222.6133787295871,39.324430177476756L222.6629047739665,39.324430177476756L222.7062400627984,39.324430177476756L222.90434424031577,0L223.08387615119088,0L223.59770886162653,0L224.17344912753634,0L224.37774406060115,19.662226808336026L224.81109694892035,0L224.95348432651096,0L225.19492379286027,0L225.40540948147245,0L225.77066405877008,19.662226808336026L225.82638085869684,0L226.0678203250461,39.324430177476756L226.3897396135118,0L226.6249883243137,19.662226808336026L226.76118494635688,196.62222120496963L226.9530983683268,19.662226808336026L227.17596556803386,0L227.20072859022352,98.31111060248482L227.25025463460287,0L227.6402722340902,0L227.65884450073244,0L228.1788679667155,0L228.30887383321127,0L228.38316289978027,19.662226808336026L228.45126121080187,19.662226808336026L228.55031329956054,0L228.63698387722437,0L228.76698974372016,0L228.90937712131077,0L229.02081072116428,137.63554077996156L229.14462583211264,0L230.128955964152,0L230.14133747524687,19.662226808336026L230.34563240831164,39.324430177476756L230.63040716349283,0L231.15662138502333,0L231.54663898451062,0L232.19666831698947,0L232.28333889465333,98.31111060248482L232.58049516092936,0L232.871460671658,0L233.16861693793405,157.2977675882976L233.34195809326172,0L233.67625889282226,0L234.0786580034044,0L234.08484875895184,137.63554077996156L234.15913782552084,19.662226808336026L234.16532858106822,0L234.64201675821943,0L234.67916129150393,0L235.03822511325413,0L235.16204022420246,0L235.32299986843532,0L235.53967631259493,19.662226808336026L236.1216073340522,19.662226808336026L236.39400057813856,19.662226808336026L236.64163080003527,0L236.92021479966905,19.662226808336026L236.9759315995958,19.662226808336026L237.4216659990099,58.98665698581278L237.68167773200142,39.324430177476756L237.77453906521268,0L237.80549284294975,0L237.88597266506616,0L237.97883399827745,0L238.49885746426054,0L239.588430440606,0L239.63795648498535,39.324430177476756L239.89177746242947,58.98665698581278L239.89796821797688,0L240.10226315104165,19.662226808336026L240.2198875064426,58.98665698581278L240.38703790622287,39.324430177476756L240.56656981709799,0L240.59752359483508,0L240.6099051059299,0L240.73372021687825,19.662226808336026L241.43327559373643,0L241.50137390475805,0L241.56947221577963,98.31111060248482L241.9780620819092,58.98665698581278L241.99044359300402,98.31111060248482L242.10187719285753,0L242.31855363701715,78.64888379414879L242.6590451921251,0L243.1481148803711,0L243.17906865810818,19.662226808336026L243.69290136854383,19.662226808336026L244.31197692328558,0L244.38007523430718,0L244.5286533674452,0L245.0920121222602,19.662226808336026L245.10439363335502,0L245.29011629977757,0L245.29630705532497,78.64888379414879L245.57489105495878,39.324430177476756L246.02681620992024,0L246.46016909823948,19.662226808336026L246.73256234232585,0L246.8254236755371,0L246.86875896436905,0L247.0668631418864,58.98665698581278L247.2030597639296,0L247.2463950527615,19.662226808336026L247.30211185268826,0L247.31449336378307,117.97333741082085L247.32687487487794,39.324430177476756L247.4259269636366,0L247.75403700764974,255.60888991038004L247.9149966518826,0L248.0945285627577,0L248.335968029107,0L248.49692767333985,39.324430177476756L248.70122260640463,19.662226808336026L248.96742509494356,0L248.973615850491,0L249.09124020589192,0L249.9641367380778,78.64888379414879L249.9765182491726,0" fill="none"></path></g></g></g></g></g></g><g transform="translate(51, 176)" clip-path="url(#clip_1)"><clipPath id="clip_1"><rect width="278" height="23"></rect></clipPath><g><g><line x1="0" y1="0" x2="0" y2="5" style="visibility: inherit;" fill="rgb(0, 0, 0)" stroke="rgb(204, 204, 204)" stroke-width="1px"></line><line x1="30.953777737087673" y1="0" x2="30.953777737087673" y2="5" style="visibility: inherit;" fill="rgb(0, 0, 0)" stroke="rgb(204, 204, 204)" stroke-width="1px"></line><line x1="61.907555474175346" y1="0" x2="61.907555474175346" y2="5" style="visibility: inherit;" fill="rgb(0, 0, 0)" stroke="rgb(204, 204, 204)" stroke-width="1px"></line><line x1="92.86133321126302" y1="0" x2="92.86133321126302" y2="5" style="visibility: inherit;" fill="rgb(0, 0, 0)" stroke="rgb(204, 204, 204)" stroke-width="1px"></line><line x1="123.81511094835069" y1="0" x2="123.81511094835069" y2="5" style="visibility: inherit;" fill="rgb(0, 0, 0)" stroke="rgb(204, 204, 204)" stroke-width="1px"></line><line x1="154.76888868543838" y1="0" x2="154.76888868543838" y2="5" style="visibility: inherit;" fill="rgb(0, 0, 0)" stroke="rgb(204, 204, 204)" stroke-width="1px"></line><line x1="185.72266642252603" y1="0" x2="185.72266642252603" y2="5" style="visibility: inherit;" fill="rgb(0, 0, 0)" stroke="rgb(204, 204, 204)" stroke-width="1px"></line><line x1="216.6764441596137" y1="0" x2="216.6764441596137" y2="5" style="visibility: inherit;" fill="rgb(0, 0, 0)" stroke="rgb(204, 204, 204)" stroke-width="1px"></line><line x1="247.63022189670139" y1="0" x2="247.63022189670139" y2="5" style="visibility: inherit;" fill="rgb(0, 0, 0)" stroke="rgb(204, 204, 204)" stroke-width="1px"></line><line x1="278.58399963378906" y1="0" x2="278.58399963378906" y2="5" style="visibility: inherit;" fill="rgb(0, 0, 0)" stroke="rgb(204, 204, 204)" stroke-width="1px"></line></g><g transform="translate(0, 8)"><text style="text-anchor: middle; visibility: hidden; font-family: Roboto, sans-serif; font-size: 12px; font-weight: 200;" x="0" y="0" dx="0em" dy="0.95em" fill="rgb(33, 33, 33)" stroke="none" stroke-width="1px">-5k</text><text style="text-anchor: middle; visibility: inherit; font-family: Roboto, sans-serif; font-size: 12px; font-weight: 200;" x="30.953777737087673" y="0" dx="0em" dy="0.95em" fill="rgb(33, 33, 33)" stroke="none" stroke-width="1px">0</text><text style="text-anchor: middle; visibility: inherit; font-family: Roboto, sans-serif; font-size: 12px; font-weight: 200;" x="61.907555474175346" y="0" dx="0em" dy="0.95em" fill="rgb(33, 33, 33)" stroke="none" stroke-width="1px">5k</text><text style="text-anchor: middle; visibility: inherit; font-family: Roboto, sans-serif; font-size: 12px; font-weight: 200;" x="92.86133321126302" y="0" dx="0em" dy="0.95em" fill="rgb(33, 33, 33)" stroke="none" stroke-width="1px">10k</text><text style="text-anchor: middle; visibility: inherit; font-family: Roboto, sans-serif; font-size: 12px; font-weight: 200;" x="123.81511094835069" y="0" dx="0em" dy="0.95em" fill="rgb(33, 33, 33)" stroke="none" stroke-width="1px">15k</text><text style="text-anchor: middle; visibility: inherit; font-family: Roboto, sans-serif; font-size: 12px; font-weight: 200;" x="154.76888868543838" y="0" dx="0em" dy="0.95em" fill="rgb(33, 33, 33)" stroke="none" stroke-width="1px">20k</text><text style="text-anchor: middle; visibility: inherit; font-family: Roboto, sans-serif; font-size: 12px; font-weight: 200;" x="185.72266642252603" y="0" dx="0em" dy="0.95em" fill="rgb(33, 33, 33)" stroke="none" stroke-width="1px">25k</text><text style="text-anchor: middle; visibility: inherit; font-family: Roboto, sans-serif; font-size: 12px; font-weight: 200;" x="216.6764441596137" y="0" dx="0em" dy="0.95em" fill="rgb(33, 33, 33)" stroke="none" stroke-width="1px">30k</text><text style="text-anchor: middle; visibility: inherit; font-family: Roboto, sans-serif; font-size: 12px; font-weight: 200;" x="247.63022189670139" y="0" dx="0em" dy="0.95em" fill="rgb(33, 33, 33)" stroke="none" stroke-width="1px">35k</text><text style="text-anchor: middle; visibility: hidden; font-family: Roboto, sans-serif; font-size: 12px; font-weight: 200;" x="278.58399963378906" y="0" dx="0em" dy="0.95em" fill="rgb(33, 33, 33)" stroke="none" stroke-width="1px">40k</text></g><line x1="0" y1="0" x2="278.58399963378906" y2="0" fill="rgb(0, 0, 0)" stroke="rgb(204, 204, 204)" stroke-width="1px"></line></g></g></g></g></svg>