<svg viewBox="0 0 330 200" xmlns="http://www.w3.org/2000/svg"><g><g><g><g><g><line x1="41.149001121520996" y1="161.81076531333713" x2="36.149001121520996" y2="161.81076531333713" style="visibility: inherit;" fill="rgb(0, 0, 0)" stroke="rgb(204, 204, 204)" stroke-width="1px"></line><line x1="41.149001121520996" y1="102.1793073972996" x2="36.149001121520996" y2="102.1793073972996" style="visibility: inherit;" fill="rgb(0, 0, 0)" stroke="rgb(204, 204, 204)" stroke-width="1px"></line><line x1="41.149001121520996" y1="50.52418898535293" x2="36.149001121520996" y2="50.52418898535293" style="visibility: inherit;" fill="rgb(0, 0, 0)" stroke="rgb(204, 204, 204)" stroke-width="1px"></line><line x1="41.149001121520996" y1="4.961145463018706" x2="36.149001121520996" y2="4.961145463018706" style="visibility: inherit;" fill="rgb(0, 0, 0)" stroke="rgb(204, 204, 204)" stroke-width="1px"></line></g><g transform="translate(31.149001121520996, 0)"><text style="text-anchor: end; visibility: inherit; font-family: Roboto, sans-serif; font-size: 12px; font-weight: 200;" x="0" y="161.81076531333713" dx="0em" dy="0.3em" fill="rgb(33, 33, 33)" stroke="none" stroke-width="1px">0.6</text><text style="text-anchor: end; visibility: inherit; font-family: Roboto, sans-serif; font-size: 12px; font-weight: 200;" x="0" y="102.1793073972996" dx="0em" dy="0.3em" fill="rgb(33, 33, 33)" stroke="none" stroke-width="1px">0.7</text><text style="text-anchor: end; visibility: inherit; font-family: Roboto, sans-serif; font-size: 12px; font-weight: 200;" x="0" y="50.52418898535293" dx="0em" dy="0.3em" fill="rgb(33, 33, 33)" stroke="none" stroke-width="1px">0.8</text><text style="text-anchor: end; visibility: hidden; font-family: Roboto, sans-serif; font-size: 12px; font-weight: 200;" x="0" y="4.961145463018706" dx="0em" dy="0.3em" fill="rgb(33, 33, 33)" stroke="none" stroke-width="1px">0.9</text></g><line x1="41.149001121520996" y1="0" x2="41.149001121520996" y2="176.89999961853027" fill="rgb(0, 0, 0)" stroke="rgb(204, 204, 204)" stroke-width="1px"></line></g></g><g transform="translate(41, 0)" clip-path="url(#clip_0)"><clipPath id="clip_0"><rect width="288" height="176"></rect></clipPath><g><g><g><line x1="0" y1="0" x2="0" y2="176.89999961853027" fill="rgb(0, 0, 0)" stroke="rgb(66, 66, 66)" stroke-width="1px" opacity="0.25"></line><line x1="19.256733258565266" y1="0" x2="19.256733258565266" y2="176.89999961853027" fill="rgb(0, 0, 0)" stroke="rgb(66, 66, 66)" stroke-width="1px" opacity="0.25"></line><line x1="38.51346651713053" y1="0" x2="38.51346651713053" y2="176.89999961853027" fill="rgb(0, 0, 0)" stroke="rgb(66, 66, 66)" stroke-width="1px" opacity="0.25"></line><line x1="57.7701997756958" y1="0" x2="57.7701997756958" y2="176.89999961853027" fill="rgb(0, 0, 0)" stroke="rgb(66, 66, 66)" stroke-width="1px" opacity="0.25"></line><line x1="77.02693303426106" y1="0" x2="77.02693303426106" y2="176.89999961853027" fill="rgb(0, 0, 0)" stroke="rgb(66, 66, 66)" stroke-width="1px" opacity="0.25"></line><line x1="96.28366629282633" y1="0" x2="96.28366629282633" y2="176.89999961853027" fill="rgb(0, 0, 0)" stroke="rgb(66, 66, 66)" stroke-width="1px" opacity="0.25"></line><line x1="115.5403995513916" y1="0" x2="115.5403995513916" y2="176.89999961853027" fill="rgb(0, 0, 0)" stroke="rgb(66, 66, 66)" stroke-width="1px" opacity="0.25"></line><line x1="134.79713280995688" y1="0" x2="134.79713280995688" y2="176.89999961853027" fill="rgb(0, 0, 0)" stroke="rgb(66, 66, 66)" stroke-width="1px" opacity="0.25"></line><line x1="154.05386606852213" y1="0" x2="154.05386606852213" y2="176.89999961853027" fill="rgb(0, 0, 0)" stroke="rgb(66, 66, 66)" stroke-width="1px" opacity="0.25"></line><line x1="173.3105993270874" y1="0" x2="173.3105993270874" y2="176.89999961853027" fill="rgb(0, 0, 0)" stroke="rgb(66, 66, 66)" stroke-width="1px" opacity="0.25"></line><line x1="192.56733258565265" y1="0" x2="192.56733258565265" y2="176.89999961853027" fill="rgb(0, 0, 0)" stroke="rgb(66, 66, 66)" stroke-width="1px" opacity="0.25"></line><line x1="211.82406584421793" y1="0" x2="211.82406584421793" y2="176.89999961853027" fill="rgb(0, 0, 0)" stroke="rgb(66, 66, 66)" stroke-width="1px" opacity="0.25"></line><line x1="231.0807991027832" y1="0" x2="231.0807991027832" y2="176.89999961853027" fill="rgb(0, 0, 0)" stroke="rgb(66, 66, 66)" stroke-width="1px" opacity="0.25"></line><line x1="250.33753236134848" y1="0" x2="250.33753236134848" y2="176.89999961853027" fill="rgb(0, 0, 0)" stroke="rgb(66, 66, 66)" stroke-width="1px" opacity="0.25"></line><line x1="269.59426561991376" y1="0" x2="269.59426561991376" y2="176.89999961853027" fill="rgb(0, 0, 0)" stroke="rgb(66, 66, 66)" stroke-width="1px" opacity="0.25"></line><line x1="288.850998878479" y1="0" x2="288.850998878479" y2="176.89999961853027" fill="rgb(0, 0, 0)" stroke="rgb(66, 66, 66)" stroke-width="1px" opacity="0.25"></line></g><g><line x1="0" y1="161.81076531333713" x2="288.850998878479" y2="161.81076531333713" fill="rgb(0, 0, 0)" stroke="rgb(66, 66, 66)" stroke-width="1px" opacity="0.25"></line><line x1="0" y1="102.1793073972996" x2="288.850998878479" y2="102.1793073972996" fill="rgb(0, 0, 0)" stroke="rgb(66, 66, 66)" stroke-width="1px" opacity="0.25"></line><line x1="0" y1="50.52418898535293" x2="288.850998878479" y2="50.52418898535293" fill="rgb(0, 0, 0)" stroke="rgb(66, 66, 66)" stroke-width="1px" opacity="0.25"></line><line x1="0" y1="4.961145463018706" x2="288.850998878479" y2="4.961145463018706" fill="rgb(0, 0, 0)" stroke="rgb(66, 66, 66)" stroke-width="1px" opacity="0.25"></line></g></g></g><g><g><line x1="19.256733258565266" y1="0" x2="19.256733258565266" y2="176.89999961853027" fill="rgb(0, 0, 0)" stroke="rgb(153, 153, 153)" stroke-width="1.5px"></line></g></g><g><g><g><g><g><path style="fill: none;" stroke="rgb(255, 112, 67)" stroke-width="2px" d="M23.46432947556178,231.59573187027777L23.73392374118169,106.26118337344043L24.16720023949941,126.27341403242717L24.38865267197291,92.35122101080039L24.436794505119323,106.17863572948883L24.61010510444641,75.59758622095983L24.99523976961772,75.30290654549809L25.390002801418305,59.14836808492479L25.447773001194,101.70830729961727L25.592198500633238,113.05852178918475L26.6128053633372,155.74375857674252L26.997940028508506,181.35997129086846L27.59489875952403,115.84770742117293L27.78746609210968,141.63765941956098L29.02952538728714,142.54583660106115L29.135437420209247,135.0359958267205L29.241349453131356,41.335312286014556L29.953848583698274,44.27133744238334L30.088645716508232,76.80498555893764L30.15604428291321,112.16164888660086L30.34861161549886,124.47414417683733L30.464152015050253,137.35185289640722L30.57969241460164,147.19674118737595L30.656719347635903,170.23754004123208L30.984083813031514,170.9195273381569L31.31144827842712,141.74234495838365L31.33070501168569,170.45696803368705L31.455873777866362,146.31595735921638L31.494387244383493,152.98160436039032L32.50536574045817,151.0589257465012L32.90012877225876,109.19595526457736L33.29489180405935,97.78055567234465L33.64151300271352,78.5943077034904L33.795566868782046,98.09062878422904L33.82445196866989,92.41076661972082L34.16144480069479,80.29440330361544L34.19032990058263,90.28814926253123L34.32512703339259,86.81212359769647L34.92208576440811,68.36537378881847L34.99911269744238,71.01256426027477L35.33610552946727,93.36075985813662L35.64421326160431,135.69021176943411L35.730868561267854,159.3474984877335L37.04032642285029,80.86138174576946L37.54100148757299,48.791231628675966L37.63728515386581,87.69205965745452L37.93576451937358,123.20468596373942L38.12833185195923,84.39303859204537L38.13796021858851,109.89348494169009L39.27410748084387,124.51835674907552L40.52579514265061,164.62936490106085L41.58491547187169,162.81005391470316L41.970050137043,139.50745589290628L42.711434367497766,134.56543985843814L42.75957620064417,107.00797809699564L42.88474496682485,107.47191150093542L42.96177189985911,91.53515593457055L42.99065699974696,83.94138080688451L43.3565349316597,110.81395824285094L44.06903406222661,129.24724102096886L44.0786624288559,105.35858879555926L44.28085812807083,154.54038909986224L44.62747932672501,136.7602288885569L44.70450625975926,169.83918725060295L45.09926929155986,173.50574972179237L45.185924591223404,151.934723068311L45.33035009066264,159.97462314831554L45.41700539032618,213.29490987956493L45.76362658898036,198.56332579103892L45.773254955609644,128.4399478146647L45.9080520884196,100.17487708817457L46.071734321117404,69.04280541174535L46.331700220108026,72.97453950352718L46.63980795224508,99.29340427818241L46.80349018494288,86.33195131219028L47.88186724742254,72.15829001301871L48.94098757664362,114.52195623827377L48.95061594327291,65.01129391380277L49.14318327585856,53.417280315488235L49.15281164248784,64.33208242958246L49.537946307659155,91.68872997054436L50.05787810564041,126.36160785199301L50.2311887049675,149.8369177664795L50.46226950407028,151.07042672912834L50.69335030317306,112.34370063830039L50.722235403060914,97.61302105450565L51.56953166643778,58.78604488397376L52.03169326464335,108.25802369612524L52.79233422835668,100.11272597467658L52.95601646105448,49.467805897405L53.20635399341583,62.629371828981526L53.59148865858714,64.25479617216224L53.91885312398275,68.70454531717914L54.07290699005127,95.48912909851721L54.43878492196401,108.28726928272113L54.50618348836899,105.87846779683561L54.57358205477397,94.55276133983496L54.60246715466182,98.85504194876104L54.78540612061819,151.35224437088567L54.9972301864624,122.54780079985595L55.67121585051219,116.66744818174604L56.30668804804483,96.2645784604902L56.95178861220678,91.12359680728424L57.125099211533865,85.24971551118496L57.52949060996373,76.81897743579931L57.88574017524719,73.62182316709998L57.991652208169306,100.92069747138918L58.578982572555546,133.169349122676L58.81969173828761,178.80618832302585L58.935232137839,168.796911350229L58.964117237726846,147.74125860868187L59.175941303571065,130.41734152972703L59.51293413559596,93.21795144822057L59.61884616851807,94.51061781549005L59.95583900054296,114.5959940536297L60.24468999942144,77.34709768900173L60.83202036380768,86.50027096085955L60.928304030100506,34.50372774845876L62.14147822539012,31.255930512162408L62.92137592236201,44.98734699907906L62.95988938887914,52.84648357516695L63.200598554611204,66.83380263555334L63.66276015281677,105.85340076986527L64.01900971810022,118.19791314704388L64.41377274990082,125.22697547014863L64.49079968293508,99.32991600511531L64.57745498259862,132.1214873548926L64.79890741507212,118.06700704069118L65.2514406466484,79.64511567202192L65.78100081125895,84.82454386593056L65.81951427777608,70.73053899864217L65.89654121081034,104.8076777053719L66.26241914272308,126.47032433139401L66.53201340834299,74.55395470119078L68.15920736869175,78.47523048617737L68.24586266835531,82.72415132357393L68.26511940161387,58.243306598467406L68.66951080004374,85.94537719795669L68.70802426656087,62.629563608886706L68.89096323251724,72.55018295835256L69.1990709646543,62.37773833237322L69.32423973083496,60.10020903307185L69.56494889656703,105.99733960372815L69.6901176627477,98.21523105431775L69.83454316218693,109.68305300610623L69.9211984618505,57.38140773419392L70.23893456061681,44.979774328994836L70.4700153597196,50.5173244908549L70.49890045960744,51.390970618209494L70.88403512477875,65.99855230048816L71.27879815657933,68.00356108388344L71.6831895550092,46.50673392549229L71.76984485467275,40.105939710335846L72.2994050192833,69.14928724603477L73.82068694670996,69.5060369659391L74.42727404435475,54.46761648549492L74.69686830997468,47.58303249067202L75.40936744054159,72.82191169502593L75.73673190593719,65.9267201448719L75.86190067211787,61.1372505787102L76.60328490257263,101.53233805811321L76.8439940683047,67.21017442737778L76.99804793437322,104.80893481623455L77.53723646561305,129.453840120288L78.09568173011144,133.36085956105498L78.35564762910207,98.77874399684913L78.3941610956192,126.43163333645522L79.19331552584966,101.60880515402837L79.36662612517675,113.70465752478461L79.71324732383093,137.09431726964092L80.2235507551829,110.60429293956896L80.24280748844147,105.31921889929012L80.47388828754426,91.67074168878409L80.48351665417354,135.7922955654216L80.53165848731994,109.9571578071456L80.57980032046635,116.69264259366028L82.1107106145223,104.66488207811805L82.3321630469958,77.18765673438038L82.45733181317647,97.25263018261192L82.5054736463229,75.40319448527048L82.6595275123914,72.52469115522027L82.70766934553782,61.98270607337271L82.79432464520137,20.040041648529566L82.9483785112699,13.43463853860077L83.50682377576828,65.93056002121854L84.05564067363738,61.38054188171712L84.24820800622305,77.1287992653849L84.74888307094574,59.51525282899564L85.13401773611704,72.70375538790312L85.2110446691513,80.72996108145372L85.84651686668397,92.01536197610795L85.87540196657181,91.22787696017794L85.98131399949392,125.19337753443487L86.56864436388017,133.41688218060338L86.61678619702657,122.25484523976388L86.63604293028513,122.42595029342574L87.17523146152497,110.34395977262587L87.78181855916976,131.2362576447734L87.81070365905761,106.3228664055545L87.86847385883333,94.6767579213832L88.23435179074605,72.42710422269843L88.64837155580521,61.75678897151751L89.09127642075221,102.35050542722912L89.29347211996713,97.36216450656616L89.62083658536275,129.59346536163898L89.90968758424124,116.73040154511985L90.05411308368048,135.4541112456594L90.18891021649041,118.60121178267468L90.85326751391094,104.12178594236939L91.12286177953085,73.99461362392884L91.16137524604797,71.30223675293992L91.18063197930654,88.34061715265858L91.29617237885793,68.62263400560776L91.52725317796072,77.17932219558429L91.6427935775121,82.33782924088113L91.77759071032206,87.55954426095214L91.88350274324416,74.47910208493705L92.36492107470829,107.81983953345389L92.47083310763041,95.28608674337467L92.79819757302602,132.25156074954347L92.85596777280172,81.59453540359874L93.01002163887024,109.89659253541039L93.65512220303218,112.46410144572039L93.68400730292002,83.32367093804277L93.93434483528137,103.23540606423688L94.30022276719411,79.48950066961596L94.3098511338234,128.4999477716949L94.56018866618473,104.53721917841705L94.88755313158036,112.3317783067823L95.27268779675165,121.95231074231765L96.14886916001637,118.20229473509423L96.72657115777334,111.92925283804708L97.4583270215988,100.74084365505472L97.67015108744303,77.07282094394402L98.36339348475138,76.06169555513563L98.95072384913763,52.89071806384833L99.08552098194758,34.29944495159103L99.133662815094,47.88104721045091L99.91356051206589,76.31681982291465L100.10612784465155,56.83852204129588L101.01119430780412,60.8793392130357L101.56001120567322,53.68676707100083L101.61778140544891,40.596351923838775L102.233996869723,48.52632599588108L102.6287599015236,45.85301725267578L102.66727336804072,41.41436891211597L102.96575273354848,41.82971410632881L103.25460373242696,51.45490115394818L103.52419799804687,69.31705275215346L103.75527879714966,85.83192011127812L103.77453553040823,95.02834263520798L104.20781202872594,111.38016772401554L104.30409569501876,93.05939784780603L104.66034526030222,76.29720804160662L104.7277438267072,79.1397309477401L105.1128784918785,66.39338199712307L105.76760742266973,80.3104060119157L105.96980312188467,57.3238853662181L106.2297690208753,68.69158096444023L106.47047818660735,101.42478666626414L107.07706528425216,106.8360918369616L107.37554464975993,84.5043435305132L107.95324664751688,68.56238748900212L108.33838131268818,54.229281577258995L108.71388761123022,72.61017064625813L108.82942801078161,55.469346758876874L108.91608331044515,44.44440095053852L109.06050880988438,36.59257339602594L109.23381940921148,40.9466534932773L109.36861654202143,64.49435941639989L109.4937853082021,88.16024138410897L109.63821080764134,123.32393745418393L110.30256810506185,91.8614161379297L111.09209416866302,81.8034392738949L111.17874946832657,60.12512450306032L111.36168843428294,46.838232269826015L112.37266693035762,45.76502376966253L112.3822952969869,60.577183523915465L112.7674299621582,43.72103976788772L113.16219299395878,43.934937488933066L113.17182136058807,28.70558765288398L113.34513195991516,45.626047048923255L113.73989499171574,34.35003892341392L113.97097579081853,57.59851075344412L114.0961445569992,53.83739769567905L114.25982678969702,51.6589154975633L114.51979268868764,50.41478628632443L114.74124512116114,76.16580384522669L115.0397244866689,95.74143760302188L115.04935285329819,76.29801455700351L115.05898121992746,86.5435373930822L115.1552648862203,53.33864393059638L115.28043365240097,46.676845771667736L115.33820385217666,61.753264725124275L115.47300098498663,49.32331913288923L116.1469866490364,47.9974385294011L116.40695254802705,66.61896745503465L116.70543191353481,62.48575305581109L116.8691141462326,99.82594107404124L117.37941757758458,80.89769350278645L117.54309981028238,79.59192474647905L117.61049837668737,78.29137630245512L118.13043017466862,117.24707390553696L118.23634220759074,74.64819731515352L118.83330093860626,57.92300906474327L118.8621860384941,48.15472392227764L118.87181440512339,43.23984942022964L119.34360436995824,90.11715949969253L119.82502270142237,100.63138042850025L119.88279290119806,80.53332424301277L119.89242126782734,88.70813458080814L119.95019146760305,91.7848470468896L120.3642112326622,74.25433855730489L120.52789346536001,83.41634690916229L120.94191323041916,71.89585885175924L121.27890606244405,70.36571589096164L121.6351556277275,40.83685492983725L121.73143929402033,57.72072795935536L121.75069602727889,36.91546114742312L122.34765475829441,68.17875667780125L122.44393842458724,77.61470744455272L122.51133699099222,65.30487528448894L122.96387022256852,65.82715841390845L123.64748425324757,55.385341161883396L125.39021861314774,50.64091418554454L125.43836044629415,82.108021136506L125.5153873793284,81.16582567590966L125.6886979786555,71.19818175810371L126.0738326438268,71.94771968482874L126.30491344292959,72.88104141712908L126.36268364270528,79.57278219250455L126.80558850765229,85.1604434674252L127.20997990608215,68.19594147640967L127.26775010585784,46.55144177610116L127.34477703889212,49.27772004015308L128.3557555349668,35.85771219086182L128.9623426326116,39.7959528906629L129.10676813205083,32.86611274854915L129.43413259744645,42.380168673911975L129.60744319677352,105.33225664288014L130.7339620923996,96.14243981119162L131.0516981911659,103.99839999939104L131.87010935465494,89.33289408722052L132.25524401982625,99.4165926448086L132.44781135241192,78.24653959108667L132.53446665207545,95.39463692452757L132.7366623512904,110.45677759973314L133.0543984500567,88.55645324281086L133.32399271567664,131.71861908656697L133.51656004826228,142.63145717578675L133.60321534792584,104.6892683713544L134.36385631163915,112.68694827005005L134.52753854433695,95.491334292989L135.0570987089475,72.4449054921826L135.52888867378235,65.20627108874072L136.48209697008133,52.79931234571357L136.52061043659847,39.26047339420435L137.05979896783828,43.49957958834595L137.40642016649247,76.64040776880216L137.70489953200024,58.78957417206568L137.8396966648102,39.382337249916894L138.20557459672293,40.22825376096472L138.59070926189423,80.26874823156339L138.62922272841135,66.22417212460601L138.64847946166992,53.47599431035408L138.85067516088486,42.20953343732125L138.86030352751413,81.28305021992668L139.00472902695338,102.25487409963347L139.1202694265048,68.66413183274989L139.3802353254954,53.70221017760486L139.39949205875396,51.355996008976184L139.41874879201254,74.9889674552789L140.13124792257946,56.13579479931184L140.58378115415573,38.46554385202823L141.03631438573203,56.11701577063816L141.61401638348897,42.553811296197026L142.41317081371943,32.730435154723715L143.47229114294052,42.51842803382339L143.51080460945767,35.29571483925505L143.88631090799967,23.393814364256485L144.15590517361957,27.705607294523467L144.19441864013672,38.452228201528925L144.6565802383423,36.173182088137295L144.88766103744507,25.094900685367623L145.3113091691335,17.062184864818946L146.23563236554463,26.857358947223556L146.93850312948229,25.18394058541882L147.3525228945414,22.837743281624295L147.78579939285916,29.338829153675018L148.16130569140117,22.77821891642981L148.45015669027964,28.347909803305228L148.8064062555631,27.57602481248478L149.45150681972504,35.16015670084835L149.72110108534494,44.26369021748635L149.7981280183792,21.22333804297282L150.4239718492826,46.16035872004174L150.60691081523893,33.80846801322343L150.65505264838535,43.36915834941666L152.1474494759242,79.56817052013015L152.59998270750046,71.76298795102656L153.2450832716624,72.82334768392035L153.77464343627292,87.53440487030953L153.86129873593646,81.35874176773385L154.11163626829781,70.11444124516095L154.49677093346915,51.63179541533575L155.75808696190518,39.39880270412269L155.86399899482726,41.304915936578965L156.03730959415435,32.85576458829492L156.53798465887706,63.03892745100288L156.60538322528203,53.11366208175732L157.4623078552882,30.91012435587684L157.52970642169316,31.299404611616445L157.8955843536059,60.78373148024426L157.9533545533816,78.69277070357592L158.08815168619157,73.85207060414787L158.1748069858551,68.07503196258617L159.20504221518834,50.60854470695083L159.60943361361822,73.77006438660814L160.05233847856522,93.73898675879114L160.26416254440943,73.68804131010003L161.2269992073377,61.870087393089705L161.9394983379046,79.18248869110265L162.24760607004166,90.31746318364385L162.37277483622233,77.44261267043692L162.41128830273948,49.86175258978609L162.92159173409146,45.071648098648645L162.96010520060858,41.20797643529315L163.1045307000478,56.57829311427157L163.86517166376115,41.59264294182012L164.30807652870814,75.54907221683682L164.3177048953374,57.06385959759772L164.35621836185453,59.75099057785907L164.74135302702587,60.870304468693334L164.87615015983582,61.91168383205083L165.0109472926458,51.247661296432746L165.15537279208502,44.49886937994894L165.3768252245585,30.728110371986336L165.46348052422204,10.147468179650017L165.598277657032,8.076665959249151L166.89810715198516,16.1775239967016L167.03290428479514,22.028179619547167L167.1677014176051,18.03957818448187L167.25435671726862,21.74767675735576L167.7165183154742,22.495772915694033L167.92834238131843,22.191627849717214L168.07276788075765,31.701651860450077L168.13053808053334,93.29580354235688L168.40013234615324,94.43520037974963L169.55553634166716,100.53905220582435L169.8251306072871,86.50605017178864L170.53762973785402,73.142518121148L170.63391340414682,69.1856929199942L170.89387930313745,46.24773564808798L170.99979133605956,33.129172170328516L171.31752743482588,69.21827722596392L171.57749333381653,53.64260766104293L171.68340536673864,47.43706335322824L172.08779676516852,33.33743148555034L172.55958673000336,26.633281118237946L173.61870705922445,52.73547775135537L174.0423551909129,39.59674529737882L174.43711822271348,64.27986513929143L175.0918471535047,73.04778992214878L175.10147552013396,74.28380863450602L175.61177895148595,53.22138978744083L175.63103568474452,56.0988163204596L176.32427808205287,51.88722618697056L176.64201418081922,70.41262401156163L177.08491904576618,56.59927827294215L177.26785801172258,53.01241150450978L177.42191187779108,40.46211596149385L179.1357611378034,27.18657546825467L180.34893533309298,21.877827023507486L180.38744879961015,47.90467433431617L181.34065709590914,37.370733183734075L181.64876482804615,31.291405524542235L181.7835619608561,47.242596388705245L181.81244706074395,37.02366173765718L182.04352785984673,41.65665280951429L182.42866252501807,37.178751289331L182.46717599153519,23.83983373845494L182.9582226896286,43.58799192599527L183.09301982243858,36.43891037242958L183.45889775435128,33.559004210535925L183.67072182019552,39.62952473488236L184.09436995188395,37.74939525072318L184.15214015165964,72.11569729403745L184.1617685182889,48.99546879732508L184.31582238435746,81.78042726236521L184.43136278390884,67.95967974935931L185.14386191447576,72.77968846931088L185.3460576136907,62.9741613332838L185.47122637987138,72.97155777819619L185.5675100461642,81.42640461555625L185.64453697919848,62.6586622013673L186.73254240830738,42.84645272893626L187.08879197359087,51.65213428549036L187.89757477045057,42.48112850096168L188.35973636865617,27.612840465589223L189.02409366607665,37.90795897156075L189.03372203270592,27.455459062208092L189.39959996461866,12.563542858308306L189.56328219731648,5.1679417579269264L189.64993749698002,38.007997824269275L189.97730196237563,30.649041879696476L190.3335515276591,20.265591382372612L190.7764563926061,23.09515253146143L191.34453002373377,21.250748950356563L191.42155695676803,21.95117253896724L191.46007042328517,19.187854983472356L191.9414887547493,54.909445749077456L192.61547441879907,42.44537918552686L192.64435951868694,26.663729339519413L192.90432541767754,11.361210554628205L193.41462884902953,52.74632085049377L193.61682454824447,44.31556203633459L193.73236494779584,34.143476920207625L193.80939188083013,21.601871193398342L193.84790534734728,19.444777387925992L193.8864188138644,9.94452691728727L194.56040447791418,46.62043500886998L195.22476177533466,77.35049148183143L195.7639503065745,97.39328371905188L195.8891190727552,85.0400463199932L196.46682107051214,62.310464548479914L196.69790186961492,65.65056638853912L196.84232736905415,62.09293862152065L197.07340816815696,88.74184649170822L197.1985769343376,66.63052483852087L197.28523223400117,44.34027512911702L197.59333996613822,43.10700882972491L198.49840642929078,31.26166549814654L198.5465482624372,28.1054790662552L198.67171702861785,24.76781606780566L198.77762906153998,41.632869110205824L199.8656344906489,48.273173529563856L199.8752628572782,39.585810416581154L199.9330330570539,56.68609905508988L199.96191815694175,55.55356175544699L200.07745855649313,55.19784298211493L200.22188405593238,46.41197116482266L201.27137601852417,69.37933939873739L202.10904391527177,61.75008804830817L202.57120551347734,50.200696049017L203.14890751123428,44.021720576033665L203.24519117752712,26.99446586367345L203.28370464404424,23.809765005624055L203.2933330106735,16.44440831777206L204.20802784045537,23.87029568053151L204.87238513787588,28.034038744601567L205.26714816967646,30.140731349373617L205.82559343417486,26.634661474757404L206.10481606642406,29.56857848452302L206.239613199234,25.098902320643926L206.99062579631806,9.950522179289056L207.0195108962059,13.096809356078824L207.4527873945236,17.166971496427472L208.1364014252027,25.049896490328724L208.2904552912712,17.88421333850656L208.49265099048614,20.935596623549475L208.5600495568911,18.469553461462073L210.293155550162,19.562748575411312L210.48572288274767,10.843021466432852L210.81308734814326,5.6985826898862L210.9671412142118,-4.811736141815135L211.07305324713388,7.260492464372296L211.64112687826156,15.97473058127615L211.65075524489086,32.29644973853851L211.68926871140798,40.159877072853114L211.81443747758863,72.6011163260087L211.9588629770279,60.166879534805965L212.54619334141412,35.90676137786783L213.1142669725418,22.854991522739127L214.81848786592485,12.069851520862995L215.30953456401824,7.733785837484478L215.61764229615528,11.560586237257994L215.70429759581884,30.73375425513988L215.88723656177518,30.88349976950924L216.0605471611023,35.121191618196725L216.5708505924543,59.23418167976551L216.7634179250399,67.66854865249762L216.97524199088414,103.56939195169159L217.19669442335766,112.70247916070177L217.36037665605542,92.58523070192003L217.38926175594332,63.79001294146011L217.41814685583117,74.19365485244373L217.7743964211146,65.72592340359014L218.04399068673453,69.19573598414676L218.2173012860616,57.21744288367571L218.23655801932014,51.435100958390834L219.14162448247276,54.972810813056576L219.40159038146336,34.46732418023229L219.6519279138247,45.215690525769915L219.89263707955678,34.28596964343984L219.92152217944462,38.93786184957009L220.9421290421486,47.0303920457998L220.9806425086657,59.236059510123845L221.12506800810496,52.75025580271614L221.1443247413635,44.4103508153512L221.19246657450995,37.5551111042627L221.25023677428564,35.00195064006721L221.45243247350058,33.087890006619745L221.79905367215474,23.063527674804444L221.95310753822326,22.79071189266637L222.69449176867803,17.898247042129015L223.0411129673322,25.298430713174767L223.11813990036646,20.140357357128643L223.17591010014215,30.32621840755359L223.4262476325035,28.028238560653325L223.46476109902062,25.091132079245778L223.6958418981234,34.457225681556395L223.80175393104554,32.10333695862344L224.02320636351902,37.815935736772L224.44685449520748,34.12239595209912L225.2074954589208,77.86113545781188L225.48671809117,76.06688618306498L225.929622956117,104.24917658832538L227.05614185174306,92.33821288148553L227.07539858500164,110.49019774077856L227.16205388466517,86.3137702472207L227.2005673511823,77.90564378649471L227.2101957178116,108.57366420604559L227.27759428421658,106.52447314789829L227.43164815028507,76.02943229912802L227.96120831489563,77.28754141996426L227.9804650481542,49.37883405251331L228.38485644658405,35.38777482106106L228.51965357939403,24.158876045007514L229.27066617647804,18.690289074025202L229.33806474288306,16.08660331126228L229.5884022752444,42.058182465622615L231.68738620042802,50.37411446203934L231.91846699953078,43.57617107140635L232.1784328985214,21.790588543279448L232.39025696436565,27.111438157731985L232.48654063065845,19.457245220152828L232.640594496727,34.64900162411182L233.2856950608889,15.058435354144875L233.70934319257736,11.687868726565913L233.82488359212874,26.125468324294737L233.89228215853373,44.8257412156505L234.03670765797298,44.262603366366655L234.72032168865204,33.79588274132996L234.7395784219106,44.29168878832616L235.09582798719404,31.302045074239974L235.55798958539964,25.162386248774272L236.02977955023448,29.44860587389598L236.20309014956155,25.29971579380793L236.54008298158644,22.35841960945368L236.89633254686993,27.353315927135558L237.2910955786705,53.351544955407434L237.8399124765396,51.1709675730497L238.3598442745209,73.19689767548718L238.60055344025292,63.444387692339305L239.9485247683525,39.963314770810065L240.20849066734314,40.90171606018451L240.54548349936803,38.46162055922531L241.2194691634178,51.93800744726236L241.26761099656423,44.6423030027025L241.3927797627449,48.693635246026396L241.61423219521842,45.1428171999914L241.7297725947698,37.66171968488951L243.23179778893788,37.37829723389547L243.57841898759207,28.0280521886722L243.88652671972912,36.341676375034766L244.6182825835546,31.481174947576488L244.62791095018386,29.32398459734809L245.52334904670715,31.87556070969118L246.3802736767133,30.53646139671685L246.39953040997187,25.07454311330028L246.91946220795313,21.06881731460303L246.94834730784098,20.207889631198015L247.62233297189076,18.509903167727614L248.57554126818977,48.45349249964587L249.8753707631429,54.60281830681091L250.58786989370984,62.29957119644577L251.01151802539826,50.3072432756693L251.06928822517395,57.61962031040678L251.50256472349167,95.92806599310894L252.45577301979066,81.77325832333312L253.7652308813731,59.60762715217796L253.9770549472173,52.40651811833819L254.102223713398,41.2546647277425L254.5258718450864,46.47416691675857L254.853236310482,42.786737078292305L254.89174977699915,45.04475643131898L255.07468874295552,68.43747737746547L256.1723225386938,49.976770073182465L256.4611735375722,29.991349255545412L257.11590246836346,28.721750419004998L257.2506996011734,41.096331896444916L257.6358342663447,35.514272702747995L258.21353626410166,37.494777681349895L258.3098199303945,34.364610723401995L258.4157319633166,27.36859425058039L258.45424542983375,45.58797878004162L258.7623531619708,53.612771044117345L258.82975172837575,58.93395853151184L259.0319474275907,64.32555295560046L259.3689402596156,62.624576102804866L259.5615075922012,75.9297447906157L259.58076432545977,65.35941035202423L259.7444465581576,57.263672297152944L259.8792436909676,56.43801647968354L260.4762024219831,56.66456357660441L260.49545915524163,53.72210724355131L261.04427605311076,65.40418449441215L261.76640355030696,75.43740804799162L262.36336228132245,44.91956962086362L263.7979889090856,33.05468459461562L264.2408937740326,17.176982824961396L264.4623462065061,35.186058489339814L265.85845936775206,24.308931223982064L266.2147089330355,86.06474871354625L266.33024933258696,65.64276962217117L266.5805868649483,59.70846244844215L266.7346407310168,48.175934708282945L266.7538974642754,47.400369091450926L266.8309243973096,32.371307687957525L266.85018113056816,66.62342283950605L267.25457252899804,42.15536397827011L267.80338942686717,40.7962894605123L267.9478149263064,28.65770478243951L267.9574432929357,62.66754146924535L268.4677467242877,46.42947553422962L268.69882752339043,32.46816687706928L268.79511118968327,22.867439500717772L268.9106515892347,19.295704189110825L269.4979819536209,63.790654423818516L270.13345415115356,50.433910856867705L270.2201094508171,57.50135685271882L270.52821718295417,52.957885949859104L270.61487248261767,82.47457600914086L270.69189941565196,73.8583453669577L270.7689263486862,91.29316928134114L271.06740571419397,68.89492269640184L271.08666244745257,49.07869864622974L272.1265260434151,54.0005865929097L272.1457827766736,36.650357850481335L272.3864919424057,33.42695200078697L272.51166070858636,21.73829824430189L272.53091744184496,19.97581633713328L272.61757274150847,28.970665511562416L273.2241598391533,28.227363910495782L273.6478079708417,19.624035171600013L273.6959498039881,39.275456162094514L274.3217936348915,45.859085318056735L274.88986726601917,40.99803459401369L275.24611683130263,45.04099817712248L275.29425866444905,64.22689578609994L275.34240049759546,56.30307965595032L275.6601365963618,65.64193644249889L275.8141904624303,62.871496998072054L276.1511832944552,67.02672362082345L276.24746696074806,64.34931879727759L276.2667236940066,54.07483473319982L276.30523716052375,53.251808174059995L276.34375062704083,82.2706608070005L276.84442569176355,101.82001844912706L277.4317560561498,90.85775997274393L277.4413844227791,83.98025252882987L277.45101278940837,80.37226205090306L278.39459271907805,60.61583633984863L278.9337812503179,60.47443102911981L279.35742938200633,50.674349843730816L279.5018548814456,79.23730350193027L279.684793847402,71.77993013465269L279.790705880324,78.24631717912476L280.2239823786418,64.98349136482977L280.4069213445981,67.82761642071868L280.57060357729597,62.63005263927044L282.18816917101543,65.74498673880896L282.7562428021431,50.788257979137036L283.4783702993393,80.7061925238572L283.5072553992272,68.28135282714376L283.5939106988907,100.1559902969499L284.2390112630526,91.95574488820145L284.39306512912117,84.56276635175462L284.45083532889686,97.13628691308661L285.2499897591273,61.157182032972045L285.28850322564443,51.36425823240922L285.4906989248594,81.4652917512778L286.01063072284063,67.02050849350472L286.7135014867783,78.60051057929593L286.8482986195882,53.481963512996764L287.1660347183545,57.4362109772513L287.2430616513888,50.67400210221682L287.28157511790596,35.492517623985215L287.83039201577503,28.580538249271036L287.84964874903363,27.78242586006674L288.0518444482485,17.18882651680137L288.5910329794884,28.69608562805407L288.9087690782547,31.238889794196233" fill="none"></path></g></g></g></g><g opacity="0.2"><g><g><g><path style="fill: none;" stroke="rgb(255, 112, 67)" stroke-width="2px" d="M21.606054716110233,366.24999381588015L21.75048021554947,122.2872139052631L21.97193264802297,295.2547553113265L23.25250540971756,242.66756736148523L23.46432947556178,119.56187853429977L23.73392374118169,-159.57186393360652L24.38865267197291,-12.915781436446041L24.436794505119323,163.42775755824505L24.61010510444641,-23.1079017857523L24.99523976961772,74.16776049340017L25.390002801418305,2.068458254109008L25.447773001194,336.3128303219719L25.592198500633238,161.17404492079538L26.6128053633372,394.05278262284776L27.78746609210968,265.36130524276746L29.02952538728714,146.17834579259065L29.135437420209247,106.5052952163907L29.241349453131356,-198.14914888849543L29.953848583698274,56.20673558889798L30.088645716508232,243.51267939428413L30.656719347635903,279.10275453819634L30.984083813031514,173.6578208992118L31.31144827842712,43.100663521908146L31.33070501168569,312.92850559188577L31.455873777866362,62.50542508298256L31.494387244383493,180.84828987275716L32.50536574045817,143.46393374213983L32.90012877225876,-23.77398562755254L33.29489180405935,55.22147742416397L33.64151300271352,10.156593174996619L33.795566868782046,187.68672769575667L33.82445196866989,70.49171690733348L34.16144480069479,35.303455324197614L34.19032990058263,133.0622433704022L34.32512703339259,73.21265901567435L34.92208576440811,2.2905632999420864L34.99911269744238,81.78603997761843L35.33610552946727,198.44935202130773L40.52579514265061,386.8738041710952L41.58491547187169,155.61719503486307L41.970050137043,58.22053267193869L42.711434367497766,115.40555180823632L42.75957620064417,13.015650039694227L42.88474496682485,109.33322797037148L42.96177189985911,33.640213227226106L42.99065699974696,54.97459964325299L43.3565349316597,242.07700516784416L44.06903406222661,213.26261051634344L44.0786624288559,22.288197661518577L44.28085812807083,456.86540099791716L44.62747932672501,72.83456915411766L44.70450625975926,340.72783063307776L45.09926929155986,188.52973278931734L45.185924591223404,75.98159408954687L45.33035009066264,193.91725487919402L45.41700539032618,559.2851596043796L45.76362658898036,144.67836786940703L45.773254955609644,-68.35458645490229L45.9080520884196,4.122622571720266L46.071734321117404,-35.20732858298452L46.331700220108026,89.11370410926159L46.63980795224508,227.23980401913374L46.80349018494288,38.43638849453108L47.88186724742254,20.148174901539228L48.94098757664362,354.9955699582656L48.95061594327291,-86.78787404684519L49.14318327585856,10.232082890209808L49.15281164248784,111.3591422111409L49.537946307659155,225.8787886403823L50.2311887049675,261.2558732186673L50.46226950407028,156.04417569237393L50.69335030317306,-12.545244555920643L50.722235403060914,43.73109141025285L51.56953166643778,-66.36547554591948L52.03169326464335,413.4747128964731L52.79233422835668,69.14540563603279L52.95601646105448,-105.01437449023135L53.20635399341583,120.27029476671419L53.59148865858714,70.82566410590591L53.91885312398275,87.03376543333039L54.07290699005127,226.22292867674685L54.43878492196401,164.18725821398465L54.50618348836899,96.39051060384713L54.57358205477397,52.300532647562L54.60246715466182,116.55923463282753L54.78540612061819,488.2180687403409L54.9972301864624,24.935265808694265L55.67121585051219,94.00112443452569L56.30668804804483,23.965529728405183L56.95178861220678,71.21681462653557L57.125099211533865,62.607436580417925L57.52949060996373,44.82144667796815L57.88574017524719,61.091070362122295L57.991652208169306,234.76006767287433L58.81969173828761,447.6071798648516L58.935232137839,131.16462851488237L58.964117237726846,73.3946416413177L59.175941303571065,67.9728767715817L59.51293413559596,-27.639873813660852L59.61884616851807,99.72491717849215L59.95583900054296,207.33967964428786L60.24468999942144,-43.64230205410906L60.83202036380768,125.44584001704102L60.928304030100506,-123.14138003273582L62.14147822539012,18.530738330267294L62.92137592236201,105.3772482533327L62.95988938887914,85.9842019973718L63.200598554611204,128.465898406941L63.66276015281677,319.60272878123925L64.01900971810022,171.93808081345827L64.41377274990082,154.69461452667605L64.49079968293508,10.229537761334683L64.57745498259862,301.0680841552455L64.79890741507212,66.45891985292538L65.2514406466484,-44.44389007518337L65.78100081125895,106.26490830075335L65.81951427777608,18.989065234441536L65.89654121081034,282.52993892040547L66.53201340834299,-82.90456605994574L68.15920736869175,94.57033741626034L68.24586266835531,100.20249231682769L68.26511940161387,-26.618136319727853L68.70802426656087,-18.697785745870544L68.89096323251724,114.99116625044319L69.1990709646543,24.168964139657184L69.32423973083496,51.12185983046406L69.56494889656703,377.15337447342915L69.6901176627477,68.56381541744443L69.83454316218693,159.29004636878918L69.9211984618505,-100.97258588629205L70.23893456061681,-0.9963395031777355L70.4700153597196,73.49598740368353L70.49890045960744,54.90542046915229L70.88403512477875,130.66160795049944L71.27879815657933,76.12916160735921L71.6831895550092,-29.215648426129146L71.76984485467275,15.512052181514603L72.2994050192833,213.7442272095405L73.82068694670996,70.93633498679692L74.42727404435475,-0.4434306665911872L74.69686830997468,21.208209944442668L75.40936744054159,194.39334104315122L75.73673190593719,39.512965486966166L75.86190067211787,42.551211168767864L76.60328490257263,326.02361313714795L77.53723646561305,247.57086003957636L78.09568173011144,149.39591851690315L78.35564762910207,-15.034082893013052L78.3941610956192,262.42574618316604L79.19331552584966,15.718068581734682L79.36662612517675,166.26706537247787L79.71324732383093,248.02808466879324L80.2235507551829,19.747346927845843L80.24280748844147,84.8726817989538L80.47388828754426,41.43628632281621L80.48351665417354,391.19124366837866L80.53165848731994,21.04082970194662L80.57980032046635,144.87242103385339L82.1107106145223,59.97754534809013L82.3321630469958,-16.570234489513673L82.5054736463229,-1.4141383289149279L82.6595275123914,61.22020496651134L82.70766934553782,22.47236252008942L82.79432464520137,-113.15137827591347L83.50682377576828,402.7823656911642L84.05564067363738,43.69747699937626L84.24820800622305,147.4415549973129L84.74888307094574,-3.870359159677282L85.13401773611704,130.47409172951734L85.2110446691513,114.61154364058963L85.84651686668397,140.76901814160573L85.87540196657181,88.09387043877365L85.98131399949392,302.14445305644415L86.56864436388017,168.17918638882227L86.61678619702657,80.57316068470418L86.63604293028513,123.11112833922216L87.17523146152497,65.46934304162586L87.78181855916976,228.32959178236806L87.81070365905761,20.16016539154151L87.86847385883333,51.31074926085062L88.23435179074605,-5.62807326656513L88.64837155580521,21.795762414410298L89.09127642075221,328.4211430685923L89.29347211996713,78.0282009204404L89.62083658536275,294.78583344579374L89.90968758424124,69.17129455909682L90.05411308368048,220.98700274891797L90.18891021649041,57.693733429275454L90.85326751391094,51.08271911059444L91.12286177953085,-27.408744792722956L91.16137524604797,60.71629391660149L91.18063197930654,165.16491975014128L91.29617237885793,-1.512685167860469L91.52725317796072,113.43451515459031L91.6427935775121,103.6885604860704L91.77759071032206,109.18115783464795L91.88350274324416,26.177142376366458L92.36492107470829,280.4873153832927L92.47083310763041,48.85586594794741L92.79819757302602,330.56198714698655L93.01002163887024,249.87857124206454L93.65512220303218,122.90801728442109L93.68400730292002,-15.256529478494485L94.3098511338234,429.1286217830784L94.56018866618473,21.242170311535443L94.88755313158036,145.18243873502314L95.27268779675165,163.02192707591632L96.14886916001637,103.55551818824583L96.72657115777334,87.8073940677669L97.4583270215988,58.96715350622195L97.67015108744303,-5.327480012721687L98.36339348475138,72.04341752080104L98.95072384913763,-27.99426088126489L99.08552098194758,-32.24132158359176L99.133662815094,107.54595159724228L99.91356051206589,217.12618707621525L100.10612784465155,-12.535792937305303L101.01119430780412,77.4784108881256L101.56001120567322,26.18358357711808L101.61778140544891,-7.739644474605166L102.233996869723,81.97922978295475L102.6287599015236,35.34078211911276L102.66727336804072,24.152191154580684L102.96575273354848,43.49556882254485L103.25460373242696,92.5457434118284L103.52419799804687,150.36879392434633L103.75527879714966,159.9980815133166L103.77453553040823,134.1698738238152L104.20781202872594,184.72292737339762L104.30409569501876,27.388185513741032L104.66034526030222,15.686644187260105L104.7277438267072,90.72341468462474L105.1128784918785,19.23388973415929L105.76760742266973,141.60079822217105L105.96980312188467,-22.996736500203383L106.2297690208753,117.82991604342276L106.47047818660735,269.9783310884098L107.07706528425216,129.2716134567314L107.37554464975993,6.195900229763162L107.95324664751688,10.650230728659961L108.33838131268818,1.6821640577360535L108.71388761123022,156.3525576916303L108.82942801078161,-6.37861072860527L108.91608331044515,3.241444197409147L109.06050880988438,6.688108963365749L109.23381940921148,58.8702498167589L109.36861654202143,176.32398061387474L109.4937853082021,200.6613184534615L110.30256810506185,-13.318686063080778L111.09209416866302,43.998978315064456L111.17874946832657,-16.161340550338025L111.36168843428294,-2.1675309877011477L112.37266693035762,41.50171832131043L112.3822952969869,126.24622928708169L112.7674299621582,-17.197052427057088L113.16219299395878,44.79171305974569L113.17182136058807,-26.842163388971073L113.34513195991516,121.84969463177234L113.73989499171574,-7.729058215320852L113.97097579081853,167.7340413337186L114.0961445569992,39.14829741876785L114.25982678969702,43.065633732126166L114.51979268868764,45.477900493143885L114.74124512116114,200.74498813028495L115.0397244866689,185.7670040839768L115.04935285329819,7.034591540424637L115.05898121992746,130.47600542463292L115.1552648862203,-56.69535285226508L115.28043365240097,21.120851181324387L115.33820385217666,128.7264516609874L115.47300098498663,3.249835657225529L116.1469866490364,42.73889839679036L116.40695254802705,151.61714934333457L116.70543191353481,46.380846693071156L116.8691141462326,300.9011429650323L117.37941757758458,13.277269566290613L117.54309981028238,74.41248442982327L117.61049837668737,73.13247077010776L118.13043017466862,330.5054595503913L118.83330093860626,-2.566354329630724L118.8621860384941,11.3759156335376L118.87181440512339,24.18196841510278L119.34360436995824,370.28711767990114L119.82502270142237,145.80263055213499L119.88279290119806,9.19529125855812L119.89242126782734,123.2528443293302L119.95019146760305,104.34240192346628L120.3642112326622,11.138251351221264L120.52789346536001,122.40193781838767L120.94191323041916,28.966039314365148L121.27890606244405,64.30496013684517L121.6351556277275,-58.858000674572295L121.73143929402033,133.75824190075343L121.75069602727889,-36.64746546920566L122.34765475829441,226.98193479633954L122.44393842458724,117.84373882389343L122.51133699099222,19.644696750705457L122.96387022256852,67.92337113136416L123.64748425324757,16.227246526037533L125.39021861314774,32.22452746229638L125.43836044629415,242.24636504798394L125.5153873793284,77.41982589313884L125.6886979786555,33.713170278777326L126.0738326438268,74.96047939501875L126.30491344292959,76.6370108209349L126.36268364270528,107.56111516558383L126.80558850765229,108.35495923207077L127.20997990608215,6.923569019220977L127.26775010585784,-29.630004842562762L127.34477703889212,60.37913084136481L128.3557555349668,-13.600975299303641L128.9623426326116,55.9625313744982L129.10676813205083,6.325224702640871L129.43413259744645,82.9646191168617L129.60744319677352,580.0739504103602L130.7339620923996,61.42218455896394L131.0516981911659,137.12199272143297L131.87010935465494,35.66936893651984L132.25524401982625,142.6053233203229L132.44781135241192,3.542553889328364L132.53446665207545,172.7788090562209L132.7366623512904,177.35936476554483L133.0543984500567,11.581434429382107L133.32399271567664,378.8922081219995L133.60321534792584,-18.136272029913492L134.36385631163915,146.44139755764726L134.52753854433695,33.46474771561651L135.0570987089475,-8.059128873208165L135.52888867378235,37.53469120457625L136.48209697008133,6.804881502611614L136.52061043659847,-10.601956508916002L137.05979896783828,60.93639666018717L137.40642016649247,247.948638107961L137.8396966648102,-29.765979767353855L138.20557459672293,43.63054006569956L138.59070926189423,301.9584689901817L138.62922272841135,14.649518777462681L138.64847946166992,6.3102361693302225L138.85067516088486,0.163706999728057L138.86030352751413,295.44717905668574L139.3802353254954,-0.9533489556393072L139.39949205875396,42.11090194072978L139.41874879201254,187.30291488926468L140.58378115415573,-25.1039787284765L141.03631438573203,136.08232478893774L141.61401638348897,-7.39133594552464L142.41317081371943,-4.243691363731622L143.47229114294052,84.35259091416904L143.51080460945767,7.68232983620709L143.88631090799967,-20.858421383252868L144.15590517361957,45.45007915644883L144.19441864013672,84.69882068114363L144.6565802383423,27.188939681397464L144.88766103744507,-16.294396710868586L145.3113091691335,-13.49784000566999L146.23563236554463,68.7243490858512L146.93850312948229,18.561731219934856L147.3525228945414,13.592714681341386L147.78579939285916,56.49411853719792L148.16130569140117,-2.405139945027863L148.45015669027964,51.465001328414935L148.8064062555631,24.5037951979374L149.45150681972504,67.07723812255911L149.72110108534494,82.98449107190304L149.7981280183792,-59.262097614218774L150.4239718492826,165.97173397689664L150.60691081523893,-11.996496945657023L150.65505264838535,84.16600964863675L152.1474494759242,272.2923599697183L152.59998270750046,42.02780056870229L153.2450832716624,77.0940932632761L153.77464343627292,152.7058964352555L153.86129873593646,57.597177522789124L154.11163626829781,28.14585440502242L154.49677093346915,-14.560087935740091L155.75808696190518,-5.996675537474294L155.86399899482726,49.02470266757892L156.03730959415435,0.7918968691867214L156.53798465887706,214.85358733585284L156.60538322528203,15.778632934715075L157.4623078552882,-47.002686777794224L157.52970642169316,32.86045487260939L157.8955843536059,208.153408998213L157.9533545533816,159.9867981268642L158.08815168619157,55.07318603640987L158.1748069858551,45.79280793963717L159.20504221518834,-12.299574396047115L160.05233847856522,185.85969933325003L160.26416254440943,2.498819926030649L161.2269992073377,17.908407889908844L161.9394983379046,157.4068961189277L162.24760607004166,138.36916330242718L162.37277483622233,29.843179387617003L162.41128830273948,-44.19898992812554L162.92159173409146,26.483217919861602L162.96010520060858,26.127997921792527L163.1045307000478,125.00812502881163L163.86517166376115,-13.142187297852768L164.3177048953374,-9.136272389152866L164.35621836185453,70.69015590757895L164.74135302702587,65.38023116105522L164.87615015983582,66.10546394620569L165.0109472926458,11.30871841924273L165.15537279208502,18.622875160122472L165.3768252245585,-19.920726838941295L165.598277657032,-0.09743877692535519L166.89810715198516,50.39205814055449L167.03290428479514,46.357978597325975L167.1677014176051,2.4841316524617367L167.25435671726862,36.946078740286175L167.7165183154742,25.502709244256522L167.92834238131843,20.97743324661191L168.07276788075765,72.2677452433782L168.13053808053334,546.8592170229524L168.40013234615324,99.02664709040289L169.55553634166716,125.96572773641857L169.8251306072871,34.97047241262671L170.53762973785402,23.87590503967164L170.63391340414682,53.751113033659685L170.89387930313745,-33.92412175945941L171.57749333381653,-3.0565708970038656L171.68340536673864,23.56489546245207L172.08779676516852,-18.423027306032196L172.55958673000336,0.9214552371194716L173.61870705922445,179.3930373779105L174.43711822271348,182.61804656605054L175.0918471535047,110.25312852161916L175.10147552013396,79.26775915651622L175.61177895148595,-21.14637556847511L175.63103568474452,67.82745314096132L176.32427808205287,35.48494114239263L176.64201418081922,154.90855662565602L177.08491904576618,5.806260360534779L177.26785801172258,38.988555449635655L177.42191187779108,-6.024915407954429L179.1357611378034,-21.780531866395172L180.34893533309298,1.3426992952346093L180.38744879961015,174.11519461344574L181.34065709590914,-2.1113383915726947L181.64876482804615,7.886695364058093L181.7835619608561,118.57093690455633L181.81244706074395,-1.349165827770062L182.04352785984673,60.76426422062827L182.42866252501807,19.768162393200804L182.46717599153519,-25.343026705564274L182.9582226896286,134.53097993599616L183.09301982243858,9.094807361641328L183.45889775435128,22.249108749016866L183.67072182019552,64.91158606736623L184.09436995188395,30.318945155976337L184.15214015165964,251.84369094049882L184.31582238435746,250.68246779930178L184.43136278390884,17.14160965130355L185.14386191447576,92.68372977665744L185.3460576136907,26.063302380856744L185.47122637987138,115.76435849184173L185.5675100461642,117.2245308545328L185.64453697919848,-4.448000475405674L186.73254240830738,-27.587497926986703L187.08879197359087,89.02760434409598L187.89757477045057,7.828050845032471L188.35973636865617,-26.729705790388024L189.02409366607665,82.06871550995336L189.03372203270592,-11.740221700658571L189.64993749698002,207.28145485108564L189.97730196237563,2.538025328157791L190.3335515276591,-18.68706136322581L190.7764563926061,34.625023871441826L191.34453002373377,13.959835676643824L191.42155695676803,24.765618314217043L191.46007042328517,8.327846598919866L191.9414887547493,244.1998628614694L193.41462884902953,285.18261130420103L193.61682454824447,12.317956555009534L193.73236494779584,-4.064028291031687L193.80939188083013,-24.85531924028233L193.84790534734728,10.934711013655189L193.8864188138644,-25.882190331817032L195.7639503065745,189.90902695072293L195.8891190727552,39.2304465322594L196.46682107051214,-17.22221240888039L196.69790186961492,79.30706395528159L196.84232736905415,48.180853930378284L197.07340816815696,218.6611830617436L197.28523223400117,-33.84017044687256L197.59333996613822,38.21288888323713L198.49840642929078,-12.794845302595569L198.5465482624372,15.732108972804523L198.67171702861785,11.697894902965206L198.77762906153998,117.57467783527234L199.8656344906489,76.03654432736595L199.8752628572782,6.6650520342425805L199.9330330570539,133.82619123544802L199.96191815694175,51.05628116032588L200.07745855649313,53.77822991587997L200.22188405593238,13.137567112249458L201.27137601852417,177.9313396352877L202.10904391527177,32.654215561929846L202.57120551347734,7.170457848812292L203.14890751123428,20.247893793646433L203.24519117752712,-34.482884769661474L203.28370464404424,11.326844890150683L203.2933330106735,-11.689967135420943L204.20802784045537,55.0871260395086L204.87238513787588,45.15219199646627L205.26714816967646,38.684139948506704L205.82559343417486,12.919765450867018L206.10481606642406,41.53196042852579L206.239613199234,7.719406458760901L206.99062579631806,-45.32738056646729L207.0195108962059,25.944275701581116L207.4527873945236,33.88988048669288L208.1364014252027,58.29342436559548L208.2904552912712,-9.520625061395133L208.49265099048614,33.387673976822384L208.5600495568911,8.759644093152446L210.293155550162,23.966686832534652L210.48572288274767,-22.193969070504647L210.9671412142118,-44.210767088243074L211.07305324713388,59.71123368183136L211.64112687826156,52.93831519486567L211.65075524489086,105.48739676887716L211.68926871140798,73.31667790973049L211.81443747758863,239.1953266768288L211.9588629770279,14.07864077515855L212.54619334141412,-48.2884019136112L215.30953456401824,-9.140200065276089L215.61764229615528,27.257976066326556L215.70429759581884,118.62915535169266L215.88723656177518,31.48306216680778L216.0605471611023,52.55202531300242L216.5708505924543,174.2881193059884L216.7634179250399,103.3748404130263L216.97524199088414,294.1449852047626L217.19669442335766,151.55707956511367L217.36037665605542,21.186595496334125L217.38926175594332,-33.79590503622558L217.41814685583117,118.85451652007163L217.7743964211146,33.595132426957065L218.04399068673453,83.3948525174643L218.2173012860616,12.701040864879406L218.23655801932014,29.13314864969624L219.14162448247276,69.45633845987005L219.40159038146336,-38.15454862509889L219.6519279138247,91.47037312547101L219.89263707955678,-6.584008763643102L219.92152217944462,58.12587336224132L220.9421290421486,81.20776639060257L220.9806425086657,112.31806307978894L221.12506800810496,27.842673980316206L221.1443247413635,12.74027460271408L221.19246657450995,11.288014653242403L221.25023677428564,24.954554772888358L221.45243247350058,25.524971481200378L221.79905367215474,-14.622099852051777L221.95310753822326,21.701368720442016L222.69449176867803,-1.0753701042971207L223.0411129673322,56.40166572568891L223.11813990036646,0.1695015581395211L223.17591010014215,73.9842808075336L223.4262476325035,18.97044333627873L223.46476109902062,13.56075518538357L223.6958418981234,74.36870777792588L223.80175393104554,22.828452318255188L224.02320636351902,61.54926494191895L224.44685449520748,19.69110818360461L225.2074954589208,329.95455504684736L225.48671809117,68.97197034593434L225.929622956117,243.49181860381515L227.05614185174306,48.05462424903549L227.07539858500164,193.04252601256096L227.16205388466517,2.37163339053791L227.2005673511823,45.98959511877248L227.2101957178116,263.50736126134956L227.27759428421658,98.43456525328344L227.43164815028507,-26.419351510749987L227.96120831489563,82.36129881139685L227.9804650481542,-45.637883952283765L229.27066617647804,-2.4422892941024963L229.33806474288306,5.843645476158467L229.5884022752444,167.94118617187112L231.68738620042802,85.54985016321515L231.91846699953078,17.519525804379324L232.1784328985214,-54.828765494489325L232.39025696436565,49.15837187717476L232.48654063065845,-9.729344280575738L232.640594496727,102.19304984399263L233.2856950608889,-54.672578658122404L233.70934319257736,-1.508175390233363L233.82488359212874,89.95504432558634L233.89228215853373,130.2359106174418L234.03670765797298,42.018214181930325L234.72032168865204,-5.449825264947064L234.7395784219106,89.37788631628696L235.09582798719404,-16.689850909601105L235.55798958539964,1.53414324117874L236.02977955023448,47.0848013505652L236.20309014956155,9.135308555290027L236.54008298158644,10.81189951966784L236.89633254686993,48.00396637308078L237.2910955786705,179.39243413955538L237.8399124765396,42.569535326200686L238.3598442745209,176.50049027789046L238.60055344025292,26.72153154555972L239.9485247683525,-41.86796431197104L240.20849066734314,44.67825217213655L240.54548349936803,28.852302299051097L241.2194691634178,111.0947209181438L241.26761099656423,16.762213428736946L241.3927797627449,65.33707544037087L241.61423219521842,31.256769747598486L241.7297725947698,9.105268900609131L243.23179778893788,36.24667940839915L243.57841898759207,-7.26451475244345L243.88652671972912,71.50708255961669L244.6182825835546,12.627785582556024L244.62791095018386,20.813542547766648L245.52334904670715,42.25357225434325L246.3802736767133,25.225943178226746L246.39953040997187,3.966867856048426L246.91946220795313,5.448254943732591L246.94834730784098,16.783212266884362L247.62233297189076,11.791521388781295L248.57554126818977,198.73766595715915L249.8753707631429,80.2268987053995L250.58786989370984,94.71596219912992L251.01151802539826,5.7423340220529795L251.06928822517395,88.33510941599673L251.50256472349167,304.25298264844275L252.45577301979066,29.826704968998293L253.7652308813731,-18.18810926709903L253.9770549472173,24.872118040871758L254.102223713398,-0.39148464872036426L254.5258718450864,68.08629329092585L254.853236310482,28.378771299294712L254.89174977699915,54.21099115155622L255.07468874295552,179.38857343635826L256.4611735375722,-40.9907700359169L257.11590246836346,23.684617322013885L257.2506996011734,94.97921438405331L257.6358342663447,13.95826234399172L258.21353626410166,45.51977850659997L258.3098199303945,22.09123938307864L258.4157319633166,0.5850381950128855L258.45424542983375,128.49026052745114L258.7623531619708,87.48805305037318L258.82975172837575,80.98234282383687L259.0319474275907,86.67635819284476L259.3689402596156,55.89449042326836L259.5615075922012,134.26119237419638L259.58076432545977,25.74944856612184L259.7444465581576,26.47558000687175L259.8792436909676,53.15290369822313L260.4762024219831,57.57208104351218L260.49545915524163,42.17111717593988L261.04427605311076,116.0163563156445L261.76640355030696,118.39451360403409L262.36336228132245,-57.59387584317605L264.2408937740326,-40.52275017929307L264.4623462065061,116.99761853609286L265.85845936775206,-16.376982016667682L266.33024933258696,-6.716422470801291L266.5805868649483,36.84173918479758L266.7346407310168,5.204282580697346L266.7538974642754,44.31356289357179L266.8309243973096,-22.508494125662953L267.25457252899804,-42.667525515872946L267.80338942686717,35.407242150607765L267.9478149263064,-16.412231795749715L268.79511118968327,-13.316535614146327L268.9106515892347,5.329685774196826L269.4979819536209,322.4444441848848L270.13345415115356,1.190393745164683L270.2201094508171,87.13776649581891L270.52821718295417,35.29954827327553L270.61487248261767,230.0488009446274L270.69189941565196,41.19320936259099L270.7689263486862,170.1450560125294L271.06740571419397,-9.618510140998014L271.08666244745257,-21.3679686767073L272.1265260434151,74.33934218411474L272.1457827766736,-25.87973010451359L272.3864919424057,20.79539310048781L272.51166070858636,-21.775295953657395L272.53091744184496,13.005108372454531L272.61757274150847,67.1999010630399L273.2241598391533,25.26835807045696L273.6478079708417,-12.994713279420106L273.6959498039881,129.7037129864769L274.3217936348915,73.37476704106909L274.88986726601917,22.14257869567124L275.24611683130263,61.64912615932777L275.29425866444905,152.18945872060655L275.34240049759546,26.13755029224096L275.6601365963618,105.42969443408171L275.8141904624303,51.98398807643831L276.1511832944552,84.10888654222857L276.24746696074806,53.82124880547529L276.2667236940066,15.506102168391203L276.30523716052375,49.97710143298169L276.34375062704083,226.7121477971504L276.84442569176355,191.70608477084622L277.4317560561498,49.873964074779245L277.4413844227791,57.63140528736888L277.45101278940837,66.26768214448104L278.39459271907805,-9.641355475168725L278.9337812503179,59.909326114023195L279.35742938200633,13.782797243926915L279.5018548814456,220.835538012462L279.684793847402,43.3099470661822L279.790705880324,105.25023108233295L280.2239823786418,16.059687084046047L280.4069213445981,79.41795233289012L280.57060357729597,42.511205970678446L282.18816917101543,78.46177432397161L282.7562428021431,-3.8499501596167236L283.4783702993393,230.8268878858198L283.5072553992272,22.225426915392674L283.5939106988907,262.9800895087294L284.2390112630526,60.78983503032872L284.39306512912117,56.3276082041162L284.45083532889686,151.96498885716133L285.2499897591273,-56.437848486128196L285.28850322564443,14.498081042022957L285.4906989248594,232.75448906898117L286.01063072284063,14.097841845011198L286.7135014867783,128.73340168025751L286.8482986195882,-33.29588733001627L287.1660347183545,73.67023940371692L287.2430616513888,24.74868461986641L287.28157511790596,-19.89574176332108L287.83039201577503,2.105178690490031L287.84964874903363,24.606341465777486L288.0518444482485,-22.502862377257895L288.5910329794884,78.48786057585076L288.9087690782547,41.58062308324917" fill="none"></path></g></g></g></g></g></g><g transform="translate(41, 176)" clip-path="url(#clip_1)"><clipPath id="clip_1"><rect width="288" height="23"></rect></clipPath><g><g><line x1="0" y1="0" x2="0" y2="5" style="visibility: inherit;" fill="rgb(0, 0, 0)" stroke="rgb(204, 204, 204)" stroke-width="1px"></line><line x1="19.256733258565266" y1="0" x2="19.256733258565266" y2="5" style="visibility: inherit;" fill="rgb(0, 0, 0)" stroke="rgb(204, 204, 204)" stroke-width="1px"></line><line x1="38.51346651713053" y1="0" x2="38.51346651713053" y2="5" style="visibility: inherit;" fill="rgb(0, 0, 0)" stroke="rgb(204, 204, 204)" stroke-width="1px"></line><line x1="57.7701997756958" y1="0" x2="57.7701997756958" y2="5" style="visibility: inherit;" fill="rgb(0, 0, 0)" stroke="rgb(204, 204, 204)" stroke-width="1px"></line><line x1="77.02693303426106" y1="0" x2="77.02693303426106" y2="5" style="visibility: inherit;" fill="rgb(0, 0, 0)" stroke="rgb(204, 204, 204)" stroke-width="1px"></line><line x1="96.28366629282633" y1="0" x2="96.28366629282633" y2="5" style="visibility: inherit;" fill="rgb(0, 0, 0)" stroke="rgb(204, 204, 204)" stroke-width="1px"></line><line x1="115.5403995513916" y1="0" x2="115.5403995513916" y2="5" style="visibility: inherit;" fill="rgb(0, 0, 0)" stroke="rgb(204, 204, 204)" stroke-width="1px"></line><line x1="134.79713280995688" y1="0" x2="134.79713280995688" y2="5" style="visibility: inherit;" fill="rgb(0, 0, 0)" stroke="rgb(204, 204, 204)" stroke-width="1px"></line><line x1="154.05386606852213" y1="0" x2="154.05386606852213" y2="5" style="visibility: inherit;" fill="rgb(0, 0, 0)" stroke="rgb(204, 204, 204)" stroke-width="1px"></line><line x1="173.3105993270874" y1="0" x2="173.3105993270874" y2="5" style="visibility: inherit;" fill="rgb(0, 0, 0)" stroke="rgb(204, 204, 204)" stroke-width="1px"></line><line x1="192.56733258565265" y1="0" x2="192.56733258565265" y2="5" style="visibility: inherit;" fill="rgb(0, 0, 0)" stroke="rgb(204, 204, 204)" stroke-width="1px"></line><line x1="211.82406584421793" y1="0" x2="211.82406584421793" y2="5" style="visibility: inherit;" fill="rgb(0, 0, 0)" stroke="rgb(204, 204, 204)" stroke-width="1px"></line><line x1="231.0807991027832" y1="0" x2="231.0807991027832" y2="5" style="visibility: inherit;" fill="rgb(0, 0, 0)" stroke="rgb(204, 204, 204)" stroke-width="1px"></line><line x1="250.33753236134848" y1="0" x2="250.33753236134848" y2="5" style="visibility: inherit;" fill="rgb(0, 0, 0)" stroke="rgb(204, 204, 204)" stroke-width="1px"></line><line x1="269.59426561991376" y1="0" x2="269.59426561991376" y2="5" style="visibility: inherit;" fill="rgb(0, 0, 0)" stroke="rgb(204, 204, 204)" stroke-width="1px"></line><line x1="288.850998878479" y1="0" x2="288.850998878479" y2="5" style="visibility: inherit;" fill="rgb(0, 0, 0)" stroke="rgb(204, 204, 204)" stroke-width="1px"></line></g><g transform="translate(0, 8)"><text style="text-anchor: middle; visibility: hidden; font-family: Roboto, sans-serif; font-size: 12px; font-weight: 200;" x="0" y="0" dx="0em" dy="0.95em" fill="rgb(33, 33, 33)" stroke="none" stroke-width="1px">-2k</text><text style="text-anchor: middle; visibility: inherit; font-family: Roboto, sans-serif; font-size: 12px; font-weight: 200;" x="19.256733258565266" y="0" dx="0em" dy="0.95em" fill="rgb(33, 33, 33)" stroke="none" stroke-width="1px">0</text><text style="text-anchor: middle; visibility: hidden; font-family: Roboto, sans-serif; font-size: 12px; font-weight: 200;" x="38.51346651713053" y="0" dx="0em" dy="0.95em" fill="rgb(33, 33, 33)" stroke="none" stroke-width="1px">2k</text><text style="text-anchor: middle; visibility: inherit; font-family: Roboto, sans-serif; font-size: 12px; font-weight: 200;" x="57.7701997756958" y="0" dx="0em" dy="0.95em" fill="rgb(33, 33, 33)" stroke="none" stroke-width="1px">4k</text><text style="text-anchor: middle; visibility: hidden; font-family: Roboto, sans-serif; font-size: 12px; font-weight: 200;" x="77.02693303426106" y="0" dx="0em" dy="0.95em" fill="rgb(33, 33, 33)" stroke="none" stroke-width="1px">6k</text><text style="text-anchor: middle; visibility: inherit; font-family: Roboto, sans-serif; font-size: 12px; font-weight: 200;" x="96.28366629282633" y="0" dx="0em" dy="0.95em" fill="rgb(33, 33, 33)" stroke="none" stroke-width="1px">8k</text><text style="text-anchor: middle; visibility: hidden; font-family: Roboto, sans-serif; font-size: 12px; font-weight: 200;" x="115.5403995513916" y="0" dx="0em" dy="0.95em" fill="rgb(33, 33, 33)" stroke="none" stroke-width="1px">10k</text><text style="text-anchor: middle; visibility: inherit; font-family: Roboto, sans-serif; font-size: 12px; font-weight: 200;" x="134.79713280995688" y="0" dx="0em" dy="0.95em" fill="rgb(33, 33, 33)" stroke="none" stroke-width="1px">12k</text><text style="text-anchor: middle; visibility: hidden; font-family: Roboto, sans-serif; font-size: 12px; font-weight: 200;" x="154.05386606852213" y="0" dx="0em" dy="0.95em" fill="rgb(33, 33, 33)" stroke="none" stroke-width="1px">14k</text><text style="text-anchor: middle; visibility: inherit; font-family: Roboto, sans-serif; font-size: 12px; font-weight: 200;" x="173.3105993270874" y="0" dx="0em" dy="0.95em" fill="rgb(33, 33, 33)" stroke="none" stroke-width="1px">16k</text><text style="text-anchor: middle; visibility: hidden; font-family: Roboto, sans-serif; font-size: 12px; font-weight: 200;" x="192.56733258565265" y="0" dx="0em" dy="0.95em" fill="rgb(33, 33, 33)" stroke="none" stroke-width="1px">18k</text><text style="text-anchor: middle; visibility: inherit; font-family: Roboto, sans-serif; font-size: 12px; font-weight: 200;" x="211.82406584421793" y="0" dx="0em" dy="0.95em" fill="rgb(33, 33, 33)" stroke="none" stroke-width="1px">20k</text><text style="text-anchor: middle; visibility: hidden; font-family: Roboto, sans-serif; font-size: 12px; font-weight: 200;" x="231.0807991027832" y="0" dx="0em" dy="0.95em" fill="rgb(33, 33, 33)" stroke="none" stroke-width="1px">22k</text><text style="text-anchor: middle; visibility: inherit; font-family: Roboto, sans-serif; font-size: 12px; font-weight: 200;" x="250.33753236134848" y="0" dx="0em" dy="0.95em" fill="rgb(33, 33, 33)" stroke="none" stroke-width="1px">24k</text><text style="text-anchor: middle; visibility: hidden; font-family: Roboto, sans-serif; font-size: 12px; font-weight: 200;" x="269.59426561991376" y="0" dx="0em" dy="0.95em" fill="rgb(33, 33, 33)" stroke="none" stroke-width="1px">26k</text><text style="text-anchor: middle; visibility: hidden; font-family: Roboto, sans-serif; font-size: 12px; font-weight: 200;" x="288.850998878479" y="0" dx="0em" dy="0.95em" fill="rgb(33, 33, 33)" stroke="none" stroke-width="1px">28k</text></g><line x1="0" y1="0" x2="288.850998878479" y2="0" fill="rgb(0, 0, 0)" stroke="rgb(204, 204, 204)" stroke-width="1px"></line></g></g></g></g></svg>