<svg viewBox="0 0 330 200" xmlns="http://www.w3.org/2000/svg"><g><g><g><g><g><line x1="51.41600036621094" y1="176.95999908447266" x2="46.41600036621094" y2="176.95999908447266" style="visibility: inherit;" fill="rgb(0, 0, 0)" stroke="rgb(204, 204, 204)" stroke-width="1px"></line><line x1="51.41600036621094" y1="160.8727264404297" x2="46.41600036621094" y2="160.8727264404297" style="visibility: inherit;" fill="rgb(0, 0, 0)" stroke="rgb(204, 204, 204)" stroke-width="1px"></line><line x1="51.41600036621094" y1="144.78545379638672" x2="46.41600036621094" y2="144.78545379638672" style="visibility: inherit;" fill="rgb(0, 0, 0)" stroke="rgb(204, 204, 204)" stroke-width="1px"></line><line x1="51.41600036621094" y1="128.69818115234372" x2="46.41600036621094" y2="128.69818115234372" style="visibility: inherit;" fill="rgb(0, 0, 0)" stroke="rgb(204, 204, 204)" stroke-width="1px"></line><line x1="51.41600036621094" y1="112.61090850830075" x2="46.41600036621094" y2="112.61090850830075" style="visibility: inherit;" fill="rgb(0, 0, 0)" stroke="rgb(204, 204, 204)" stroke-width="1px"></line><line x1="51.41600036621094" y1="96.5236358642578" x2="46.41600036621094" y2="96.5236358642578" style="visibility: inherit;" fill="rgb(0, 0, 0)" stroke="rgb(204, 204, 204)" stroke-width="1px"></line><line x1="51.41600036621094" y1="80.43636322021483" x2="46.41600036621094" y2="80.43636322021483" style="visibility: inherit;" fill="rgb(0, 0, 0)" stroke="rgb(204, 204, 204)" stroke-width="1px"></line><line x1="51.41600036621094" y1="64.34909057617186" x2="46.41600036621094" y2="64.34909057617186" style="visibility: inherit;" fill="rgb(0, 0, 0)" stroke="rgb(204, 204, 204)" stroke-width="1px"></line><line x1="51.41600036621094" y1="48.2618179321289" x2="46.41600036621094" y2="48.2618179321289" style="visibility: inherit;" fill="rgb(0, 0, 0)" stroke="rgb(204, 204, 204)" stroke-width="1px"></line><line x1="51.41600036621094" y1="32.17454528808593" x2="46.41600036621094" y2="32.17454528808593" style="visibility: inherit;" fill="rgb(0, 0, 0)" stroke="rgb(204, 204, 204)" stroke-width="1px"></line><line x1="51.41600036621094" y1="16.087272644042933" x2="46.41600036621094" y2="16.087272644042933" style="visibility: inherit;" fill="rgb(0, 0, 0)" stroke="rgb(204, 204, 204)" stroke-width="1px"></line><line x1="51.41600036621094" y1="0" x2="46.41600036621094" y2="0" style="visibility: inherit;" fill="rgb(0, 0, 0)" stroke="rgb(204, 204, 204)" stroke-width="1px"></line></g><g transform="translate(41.41600036621094, 0)"><text style="text-anchor: end; visibility: hidden; font-family: Roboto, sans-serif; font-size: 12px; font-weight: 200;" x="0" y="176.95999908447266" dx="0em" dy="0.3em" fill="rgb(33, 33, 33)" stroke="none" stroke-width="1px">0.04</text><text style="text-anchor: end; visibility: inherit; font-family: Roboto, sans-serif; font-size: 12px; font-weight: 200;" x="0" y="160.8727264404297" dx="0em" dy="0.3em" fill="rgb(33, 33, 33)" stroke="none" stroke-width="1px">0.05</text><text style="text-anchor: end; visibility: hidden; font-family: Roboto, sans-serif; font-size: 12px; font-weight: 200;" x="0" y="144.78545379638672" dx="0em" dy="0.3em" fill="rgb(33, 33, 33)" stroke="none" stroke-width="1px">0.06</text><text style="text-anchor: end; visibility: inherit; font-family: Roboto, sans-serif; font-size: 12px; font-weight: 200;" x="0" y="128.69818115234372" dx="0em" dy="0.3em" fill="rgb(33, 33, 33)" stroke="none" stroke-width="1px">0.07</text><text style="text-anchor: end; visibility: hidden; font-family: Roboto, sans-serif; font-size: 12px; font-weight: 200;" x="0" y="112.61090850830075" dx="0em" dy="0.3em" fill="rgb(33, 33, 33)" stroke="none" stroke-width="1px">0.08</text><text style="text-anchor: end; visibility: inherit; font-family: Roboto, sans-serif; font-size: 12px; font-weight: 200;" x="0" y="96.5236358642578" dx="0em" dy="0.3em" fill="rgb(33, 33, 33)" stroke="none" stroke-width="1px">0.09</text><text style="text-anchor: end; visibility: hidden; font-family: Roboto, sans-serif; font-size: 12px; font-weight: 200;" x="0" y="80.43636322021483" dx="0em" dy="0.3em" fill="rgb(33, 33, 33)" stroke="none" stroke-width="1px">0.1</text><text style="text-anchor: end; visibility: inherit; font-family: Roboto, sans-serif; font-size: 12px; font-weight: 200;" x="0" y="64.34909057617186" dx="0em" dy="0.3em" fill="rgb(33, 33, 33)" stroke="none" stroke-width="1px">0.11</text><text style="text-anchor: end; visibility: hidden; font-family: Roboto, sans-serif; font-size: 12px; font-weight: 200;" x="0" y="48.2618179321289" dx="0em" dy="0.3em" fill="rgb(33, 33, 33)" stroke="none" stroke-width="1px">0.12</text><text style="text-anchor: end; visibility: inherit; font-family: Roboto, sans-serif; font-size: 12px; font-weight: 200;" x="0" y="32.17454528808593" dx="0em" dy="0.3em" fill="rgb(33, 33, 33)" stroke="none" stroke-width="1px">0.13</text><text style="text-anchor: end; visibility: hidden; font-family: Roboto, sans-serif; font-size: 12px; font-weight: 200;" x="0" y="16.087272644042933" dx="0em" dy="0.3em" fill="rgb(33, 33, 33)" stroke="none" stroke-width="1px">0.14</text><text style="text-anchor: end; visibility: hidden; font-family: Roboto, sans-serif; font-size: 12px; font-weight: 200;" x="0" y="0" dx="0em" dy="0.3em" fill="rgb(33, 33, 33)" stroke="none" stroke-width="1px">0.15</text></g><line x1="51.41600036621094" y1="0" x2="51.41600036621094" y2="176.95999908447266" fill="rgb(0, 0, 0)" stroke="rgb(204, 204, 204)" stroke-width="1px"></line></g></g><g transform="translate(51, 0)" clip-path="url(#clip_0)"><clipPath id="clip_0"><rect width="278" height="176"></rect></clipPath><g><g><g><line x1="0" y1="0" x2="0" y2="176.95999908447266" fill="rgb(0, 0, 0)" stroke="rgb(66, 66, 66)" stroke-width="1px" opacity="0.25"></line><line x1="18.572266642252604" y1="0" x2="18.572266642252604" y2="176.95999908447266" fill="rgb(0, 0, 0)" stroke="rgb(66, 66, 66)" stroke-width="1px" opacity="0.25"></line><line x1="37.14453328450521" y1="0" x2="37.14453328450521" y2="176.95999908447266" fill="rgb(0, 0, 0)" stroke="rgb(66, 66, 66)" stroke-width="1px" opacity="0.25"></line><line x1="55.716799926757815" y1="0" x2="55.716799926757815" y2="176.95999908447266" fill="rgb(0, 0, 0)" stroke="rgb(66, 66, 66)" stroke-width="1px" opacity="0.25"></line><line x1="74.28906656901042" y1="0" x2="74.28906656901042" y2="176.95999908447266" fill="rgb(0, 0, 0)" stroke="rgb(66, 66, 66)" stroke-width="1px" opacity="0.25"></line><line x1="92.86133321126302" y1="0" x2="92.86133321126302" y2="176.95999908447266" fill="rgb(0, 0, 0)" stroke="rgb(66, 66, 66)" stroke-width="1px" opacity="0.25"></line><line x1="111.43359985351563" y1="0" x2="111.43359985351563" y2="176.95999908447266" fill="rgb(0, 0, 0)" stroke="rgb(66, 66, 66)" stroke-width="1px" opacity="0.25"></line><line x1="130.00586649576823" y1="0" x2="130.00586649576823" y2="176.95999908447266" fill="rgb(0, 0, 0)" stroke="rgb(66, 66, 66)" stroke-width="1px" opacity="0.25"></line><line x1="148.57813313802083" y1="0" x2="148.57813313802083" y2="176.95999908447266" fill="rgb(0, 0, 0)" stroke="rgb(66, 66, 66)" stroke-width="1px" opacity="0.25"></line><line x1="167.15039978027343" y1="0" x2="167.15039978027343" y2="176.95999908447266" fill="rgb(0, 0, 0)" stroke="rgb(66, 66, 66)" stroke-width="1px" opacity="0.25"></line><line x1="185.72266642252603" y1="0" x2="185.72266642252603" y2="176.95999908447266" fill="rgb(0, 0, 0)" stroke="rgb(66, 66, 66)" stroke-width="1px" opacity="0.25"></line><line x1="204.29493306477863" y1="0" x2="204.29493306477863" y2="176.95999908447266" fill="rgb(0, 0, 0)" stroke="rgb(66, 66, 66)" stroke-width="1px" opacity="0.25"></line><line x1="222.86719970703126" y1="0" x2="222.86719970703126" y2="176.95999908447266" fill="rgb(0, 0, 0)" stroke="rgb(66, 66, 66)" stroke-width="1px" opacity="0.25"></line><line x1="241.43946634928386" y1="0" x2="241.43946634928386" y2="176.95999908447266" fill="rgb(0, 0, 0)" stroke="rgb(66, 66, 66)" stroke-width="1px" opacity="0.25"></line><line x1="260.01173299153646" y1="0" x2="260.01173299153646" y2="176.95999908447266" fill="rgb(0, 0, 0)" stroke="rgb(66, 66, 66)" stroke-width="1px" opacity="0.25"></line><line x1="278.58399963378906" y1="0" x2="278.58399963378906" y2="176.95999908447266" fill="rgb(0, 0, 0)" stroke="rgb(66, 66, 66)" stroke-width="1px" opacity="0.25"></line></g><g><line x1="0" y1="176.95999908447266" x2="278.58399963378906" y2="176.95999908447266" fill="rgb(0, 0, 0)" stroke="rgb(66, 66, 66)" stroke-width="1px" opacity="0.25"></line><line x1="0" y1="160.8727264404297" x2="278.58399963378906" y2="160.8727264404297" fill="rgb(0, 0, 0)" stroke="rgb(66, 66, 66)" stroke-width="1px" opacity="0.25"></line><line x1="0" y1="144.78545379638672" x2="278.58399963378906" y2="144.78545379638672" fill="rgb(0, 0, 0)" stroke="rgb(66, 66, 66)" stroke-width="1px" opacity="0.25"></line><line x1="0" y1="128.69818115234372" x2="278.58399963378906" y2="128.69818115234372" fill="rgb(0, 0, 0)" stroke="rgb(66, 66, 66)" stroke-width="1px" opacity="0.25"></line><line x1="0" y1="112.61090850830075" x2="278.58399963378906" y2="112.61090850830075" fill="rgb(0, 0, 0)" stroke="rgb(66, 66, 66)" stroke-width="1px" opacity="0.25"></line><line x1="0" y1="96.5236358642578" x2="278.58399963378906" y2="96.5236358642578" fill="rgb(0, 0, 0)" stroke="rgb(66, 66, 66)" stroke-width="1px" opacity="0.25"></line><line x1="0" y1="80.43636322021483" x2="278.58399963378906" y2="80.43636322021483" fill="rgb(0, 0, 0)" stroke="rgb(66, 66, 66)" stroke-width="1px" opacity="0.25"></line><line x1="0" y1="64.34909057617186" x2="278.58399963378906" y2="64.34909057617186" fill="rgb(0, 0, 0)" stroke="rgb(66, 66, 66)" stroke-width="1px" opacity="0.25"></line><line x1="0" y1="48.2618179321289" x2="278.58399963378906" y2="48.2618179321289" fill="rgb(0, 0, 0)" stroke="rgb(66, 66, 66)" stroke-width="1px" opacity="0.25"></line><line x1="0" y1="32.17454528808593" x2="278.58399963378906" y2="32.17454528808593" fill="rgb(0, 0, 0)" stroke="rgb(66, 66, 66)" stroke-width="1px" opacity="0.25"></line><line x1="0" y1="16.087272644042933" x2="278.58399963378906" y2="16.087272644042933" fill="rgb(0, 0, 0)" stroke="rgb(66, 66, 66)" stroke-width="1px" opacity="0.25"></line><line x1="0" y1="0" x2="278.58399963378906" y2="0" fill="rgb(0, 0, 0)" stroke="rgb(66, 66, 66)" stroke-width="1px" opacity="0.25"></line></g></g></g><g><g><line x1="0" y1="241.30908966064456" x2="278.58399963378906" y2="241.30908966064456" fill="rgb(0, 0, 0)" stroke="rgb(153, 153, 153)" stroke-width="1.5px"></line></g></g><g><g><line x1="18.572266642252604" y1="0" x2="18.572266642252604" y2="176.95999908447266" fill="rgb(0, 0, 0)" stroke="rgb(153, 153, 153)" stroke-width="1.5px"></line></g></g><g><g><g><g><g><path style="fill: none;" stroke="rgb(255, 112, 67)" stroke-width="2px" d="M23.521775702412924,-6.801311416510457L23.568206369018554,5.6056794470896945L23.735356768798827,-11.385499679451824L24.106802101643883,-8.47339662105079L24.48753356781006,4.366560006263147L24.543250367736817,-5.110579052385546L24.68254236755371,13.795083076069213L25.666872499593097,16.73931181430639L26.038317832438153,25.36799916332349L26.614058098347982,10.663683002871599L26.799780764770507,1.7161182411028766L27.997691963195802,23.210007976599822L28.09983942972819,39.3932541426073L28.20198689626058,-24.50440318436971L28.889160762023927,-15.199436978074699L29.019166628519695,4.1094734036646186L29.08416956176758,15.6400381852932L29.269892228190105,33.400330124554436L29.38132582804362,28.11096056864314L29.492759427897134,32.068524383454026L29.567048494466146,40.91852724105034L29.88277702738444,35.9441060180047L30.198505560302735,43.1402658404761L30.217077826944987,38.08998947257498L30.33779756011963,29.770535798023467L30.374942093404133,40.522222733887695L31.349986092122396,38.02988972633638L31.730717558288575,28.454558124873888L32.11144902445476,31.982902202047125L32.4457498240153,23.072409704850806L32.594327957153325,27.37848571000443L32.622186357116696,16.57424132015828L32.94720102335612,15.703212131344758L32.9750594233195,13.833306014880025L33.105065289815265,2.7593454113294245L33.680805555725094,14.676654273698835L33.75509462229411,18.125695648170137L34.08010928853353,24.361721356130595L34.37726555480957,5.730598244390121L34.46084075469971,13.543903442153637L35.72375488637289,-1.896043656812953L36.782374084981285,-4.990764408375956L37.87813781687419,10.260184742218952L39.08533514862061,11.00478128657766L40.106809813944494,-2.736302017909132L40.47825514678956,21.58025728601842L41.19328741251628,34.363239024061095L41.23971807912191,33.542056303440845L41.360437812296546,54.69686931068427L41.43472687886556,12.858507145775055L41.46258527882894,-3.993720465286018L41.81545834503174,1.6913171038696408L42.502632210795085,36.28172354632272L42.51191834411622,35.86946100087902L42.70692714385986,57.80469629179084L43.04122794342041,50.55085351576852L43.11551700998942,48.3629779652043L43.4962484761556,51.54747181263276L43.579823676045734,41.35418118593901L43.71911567586263,50.47127310330989L43.802690875752766,48.083394000897556L44.13699167531332,62.71176103961801L44.146277808634444,77.3116725718454L44.27628367513021,73.71796492419578L44.43414794158936,57.363208514755776L44.68487354125976,47.464540839872505L44.98202980753581,52.26124458607967L45.13989407399495,51.57258255759989L46.179941005961105,64.83452795586898L47.20141567128499,76.6000190655247L47.21070180460612,60.459766625982496L47.396424471028645,65.41455136027663L47.40571060434977,74.22273423953823L47.77715593719483,83.94772613028267L48.27860713653565,92.27894878169867L48.44575753631592,68.89685403879682L48.66862473602295,71.3781034295001L48.89149193572998,78.73651556134988L48.91935033569336,38.33791368869885L49.73653006795247,62.520041126568664L50.18226446736654,37.50158464103281L50.915868999735515,64.82966798025042L51.07373326619466,45.570474728766605L51.31517273254395,56.432069819568554L51.686618065389,62.261802153071585L52.00234659830729,81.99763158131545L52.150924731445315,74.14792991992198L52.50379779764811,75.79038434195832L52.568800730896,66.9528960532663L52.63380366414388,56.59080065762364L52.66166206410726,69.59241837331408L52.83809859720866,73.03111609561891L53.04239353027344,73.28252860805844L53.69242286275228,84.91253007370919L54.305307661946614,41.760057242756226L54.92747859446207,56.438959824107684L55.09462899424235,65.77217196829226L55.48464659372965,39.925168486543456L55.82823352661133,56.16734752480926L55.93038099314372,72.29665179357889L56.496835125732424,82.61789441728514L56.72898845876058,53.379045052505234L56.840422058614095,45.079741593594L56.86828045857747,49.03171899736607L57.07257539164225,64.8611674403366L57.39759005788168,52.03134432346703L57.499737524414066,65.32160536878368L57.824752190653484,79.3794544625731L58.10333619028727,88.701528158259L58.66979032287598,104.77967087612774L58.76265165608724,77.89710814885687L59.93270445454915,82.29115675509328L60.684881253560384,78.3401854391231L60.72202578684489,60.18302854661137L60.95417911987305,72.11911627620651L61.39991351928711,59.47272150700112L61.74350045216878,51.51987071485619L62.124231918334964,72.60683243128653L62.19852098490397,48.35326882165265L62.282096184794106,62.1527758779745L62.49567725118001,86.65523190051496L62.932125517272944,91.8529169216484L63.4428628499349,80.57433799746134L63.4800073832194,78.39405596912461L63.55429644978841,77.02924086712669L63.90716951599121,85.74672797632651L64.16718124898274,79.1888869330316L65.73653778025309,95.33262083554685L65.82011298014324,107.70881663547092L65.83868524678549,89.38743701211347L66.22870284627278,93.99948694742295L66.26584737955729,101.22384171489095L66.4422839126587,95.51039155640562L66.73944017893474,99.75816866693721L66.86015991210937,97.28203206118314L67.09231324513753,78.0593737698657L67.21303297831217,99.62848518070027L67.35232497812906,99.96976558223653L67.43590017801921,84.46781459854677L67.74234257761637,77.64693470358347L67.96520977732341,77.95028864497645L67.99306817728679,89.29762564529408L68.36451351013184,95.0908457430549L68.74524497629801,102.42279802385L69.13526257578532,85.67537008032069L69.21883777567545,87.9444815173303L69.72957510833741,91.65701264833885L71.19678417307536,86.64827208074473L71.78181057230631,104.49386860499965L72.04182230529786,84.29624240026415L72.7289961710612,99.8253491772665L73.04472470397948,102.48773183927109L73.16544443715414,115.10994630148068L73.88047670288086,121.130508070728L74.11263003590902,128.67580999763214L74.26120816904704,122.79986574110463L74.78123163503011,120.03807541668945L75.31982736765544,126.51235641180877L75.57055296732584,123.52444434624023L75.60769750061034,126.59752503001747L76.37844656626383,133.830653542531L76.5455969660441,80.50417835168747L76.87989776560467,89.85996171957542L77.37206283162435,88.093890480518L77.3906350982666,103.11358090200534L77.61350229797364,60.32736541853177L77.62278843129477,79.33236458618732L77.6692190979004,84.60224857052604L77.71564976450601,107.02529290386289L79.19214496256511,102.28679954066598L79.40572602895102,98.74205007848722L79.52644576212565,94.5866619020612L79.57287642873129,89.59658208728412L79.72145456186931,86.78405338855768L79.76788522847494,98.6055550245154L79.85146042836507,82.75012262038463L80.0000385615031,90.64316824107996L80.53863429412843,94.01059471259978L81.06794389343261,112.54250696200197L81.25366655985515,108.56377026730462L81.7365454925537,118.57458381989507L82.10799082539877,127.79113816659209L82.18227989196777,129.91492774502208L82.79516469116211,134.98321654783388L82.82302309112549,140.9955694873971L82.92517055765788,126.70333922848288L83.49162469024658,120.55543662602884L83.53805535685221,118.42167416534186L83.55662762349446,113.61180802762583L84.07665108947754,108.40848371948474L84.66167748870849,82.71180272505032L84.68953588867187,98.0105895794133L84.74525268859864,104.87920533215032L85.09812575480143,100.75527065845677L85.49742948760986,110.45864681199832L85.92459162038168,111.47668226405663L86.11960042012532,122.8011437843367L86.43532895304362,72.27273890789371L86.71391295267742,83.82732180604529L86.85320495249431,97.19612135753593L86.98321081899006,81.4122509929956L87.62395401814778,53.36785938588261L87.88396575113933,82.03625874092852L87.92111028442383,104.90966708327132L87.93968255106607,84.84885696535159L88.0511161509196,62.938709106294354L88.27398335062664,77.80555584927194L88.38541695048013,87.2965306412821L88.5154228169759,95.23641885453921L88.6175702835083,99.63768523257097L89.0818769495646,99.3179054474992L89.184024416097,103.78887129488831L89.49975294901529,76.602137229611L89.55546974894206,60.066969971400404L89.70404788208008,54.68273570373211L90.32621881459553,51.3132730166064L90.35407721455891,67.36867742071156L90.5955166809082,90.69504690437772L90.94838974711101,88.49414691089137L90.95767588043213,83.60449650664634L91.19911534678141,23.504775630205142L91.51484387969971,36.19107705212871L91.88628921254475,52.48473573274271L92.73132734476725,60.791707967239205L93.28849534403483,63.99736063953508L93.99424147644042,79.93605868371806L94.19853640950521,96.03317732935479L94.86713800862631,98.79738472508424L95.43359214121502,76.87463327593403L95.56359800771078,77.93524261078751L95.61002867431641,87.31594689122409L96.36220547332763,107.86855445711424L96.54792813975017,109.76866010174616L97.42082467193603,124.50655658653544L97.95013427124024,131.45246355336133L98.00585107116699,119.29009598027055L98.60016360371907,130.02407331446662L98.98089506988525,141.9483480193185L99.01803960316975,124.20875112397154L99.30590973612468,111.55995810559047L99.58449373575846,120.90665652876994L99.84450546875,123.00245220387778L100.06737266845704,122.89495579573598L100.08594493509929,122.54931897392444L100.50382093454998,130.86239109598014L100.59668226776122,142.2009945607705L100.9402692006429,150.94373672221843L101.00527213389078,146.41619183872962L101.37671746673584,149.1729897672236L102.00817453257243,161.4094295067533L102.20318333231609,153.8042535180868L102.45390893198649,144.25323360267555L102.68606226501464,148.1016767498795L103.2710886642456,145.69419967853239L103.55895879720053,156.22444618722696L104.1161267964681,84.07177844576987L104.48757212931315,103.84781431417815L104.84973132883708,98.5419041147654L104.9611649286906,109.51205011375282L105.04474012858073,126.96001467427136L105.18403212839762,127.12140535523633L105.35118252817789,92.77437686400472L105.48118839467367,89.69276688824446L105.6019081278483,66.35891742263364L105.7412001276652,83.90052789214346L106.38194332682292,109.8096744427528L107.14340625915527,88.18326758632976L107.22698145904542,105.53221728170226L107.40341799214681,93.88077998399783L108.37846199086508,113.37145950737433L108.3877481241862,115.11502889612684L108.75919345703126,107.18737384009806L109.13992492319743,108.90749502715397L109.14921105651855,129.99281164157716L109.31636145629884,110.67279595707905L109.697092922465,122.95106368751046L109.91996012217204,119.85980687578167L110.04067985534668,114.18821106028433L110.19854412180582,122.69717106784432L110.44926972147624,134.2550658943615L110.66285078786214,125.41597393966263L110.95072092081705,124.93339265145568L110.96000705413817,119.65491845593705L110.9692931874593,108.15872533595893L111.06215452067057,116.12986017780246L111.18287425384521,125.77438791296734L111.23859105377197,133.16236331194312L111.36859692026773,118.10021360005175L112.01862625274659,85.95500228678516L112.269351852417,103.98286125950993L112.55722198537191,105.65627965458707L112.71508625183105,53.525782547572845L113.20725131785075,76.61020142745424L113.36511558430989,99.46182745894994L113.43011851755779,105.12963483751065L113.9315697168986,100.99245907962924L114.033717183431,85.10577738634028L114.60945744934082,100.19019379583845L114.63731584930419,120.21526347670184L114.64660198262531,136.52558841809167L115.10162251536052,125.94932694533055L115.56592918141683,142.69101692627058L115.62164598134358,153.7675167240616L115.6309321146647,164.5194477744918L115.68664891459147,150.1655264382269L116.0859526473999,163.27601517870136L116.24381691385905,160.34259749162504L116.64312064666748,163.03090413881057L116.9681353129069,171.8801439237884L117.31172224578857,159.26227926582504L117.40458357899983,163.4267566787542L117.42315584564209,174.42370529330222L117.99889611155191,167.46117273574285L118.09175744476319,151.0638357891038L118.15676037801106,149.917108531239L118.59320864410401,159.03366947433727L119.25252410990397,168.39611906981114L120.93331424102783,172.20305215235618L120.97974490763347,142.92751259998118L121.05403397420247,145.19489774632908L121.22118437398274,149.7695194328973L121.5926297068278,162.31155943780632L121.81549690653483,157.94675539580246L121.87121370646159,152.73967926126392L122.2983758392334,159.61901452124042L122.68839343872071,140.24692754853643L122.74411023864747,122.66517656979383L122.81839930521647,104.32732801043501L123.79344330393474,92.92329543452254L124.37846970316569,107.4049997608896L124.51776170298258,109.34122347313317L124.83349023590088,120.6209449511507L125.00064063568115,115.81832464307054L126.08711823425293,126.85983480982587L126.3935606338501,104.68778433971998L127.18288196614584,110.49610826057503L127.55432729899088,115.64914990335056L127.74004996541342,92.69464851286001L127.82362516530354,101.7705691434236L128.0186339650472,116.45069032959793L128.32507636464436,123.88608798991945L128.58508809763592,122.15957802299994L128.77081076405844,129.05540354372633L128.85438596394857,133.2000092453136L129.58799049631756,127.71268916464433L129.7458547627767,109.95123297487788L130.25659209543863,131.60717805007607L130.71161262817384,140.9240406765872L131.63093982696532,157.94540277463597L131.66808436024985,163.7744923984767L132.1881078262329,166.9685440629218L132.52240862579347,169.53601586004348L132.81027875874838,159.55057302191798L132.94028462524415,166.59913448199623L133.29315769144694,167.95937689218593L133.664603024292,158.91466965287353L133.70174755757648,152.3246062808319L133.72031982421873,146.16822484259694L133.9153286239624,146.7338136511017L133.92461475728354,137.26680059989937L134.06390675710043,105.96157544927172L134.17534035695394,88.68688607677272L134.42606595662434,102.39900568579253L134.4446382232666,115.71642098252048L134.46321048990885,99.05928013167083L135.1503843556722,111.87336011136803L135.58683262176515,114.99223105148823L136.02328088785808,122.650834035488L136.58044888712567,114.18395789994976L137.35119795277913,117.73914029705496L138.37267261810302,103.89862748324812L138.40981715138753,118.80783008356748L138.77197635091144,126.3519726149531L139.031988083903,122.39276688586145L139.0691326171875,117.4961698095509L139.51486701660156,100.68182545733153L139.7377342163086,100.54121967847438L140.14632408243816,107.81596981768189L141.03779288126626,119.07591313498212L141.7156806137085,118.03392259472749L142.11498434651693,138.72659380292154L142.53286034596763,141.5564673750767L142.89501954549155,126.71468295339685L143.17360354512533,138.02788086777812L143.517190478007,143.50470411286477L144.13936141052244,142.51020068093416L144.399373143514,135.43535657504702L144.473662210083,146.7252249351845L145.07726087595623,148.7641639553047L145.25369740905762,147.10045124049225L145.30012807566322,158.76426323465017L146.73947874043785,147.68746617480957L147.17592700653077,150.62295501200083L147.79809793904622,152.36979631425072L148.30883527170818,155.91298851551983L148.39241047159828,138.80138610770814L148.6338499379476,125.69020583078665L149.00529527079266,134.12818754330803L150.2217787358602,142.45047060697632L150.32392620239256,156.79643135785804L150.49107660217285,157.57434670215997L150.97395553487144,119.18405522128467L151.03895846811932,129.3994905090185L151.86542433369956,129.52220272897995L151.93042726694742,138.06192278112056L152.2833003331502,129.74746581504172L152.33901713307696,124.09183218317361L152.46902299957276,138.2680109713806L152.5525981994629,144.0776138812474L153.5462144648234,152.86094471792435L153.9362320643107,124.72782799613442L154.36339419708253,130.085560596879L154.56768913014727,141.7011887743252L155.49630246225993,146.20861155837912L156.18347632802326,147.5599322579677L156.48063259429932,160.14801167754345L156.60135232747396,154.07963456824427L156.63849686075847,158.17645425713928L157.13066192677817,148.03878649360655L157.16780646006268,127.45206957308073L157.30709845987954,146.08253987621308L158.04070299224855,151.970291245433L158.46786512502032,145.95037672473137L158.47715125834145,113.02267685619235L158.51429579162595,87.43926608699101L158.88574112447102,102.3900300183599L159.0157469909668,102.74344151344083L159.14575285746258,116.4313830403281L159.28504485727944,134.6492043938412L159.49862592366537,138.92970223916927L159.5822011235555,132.47374695538335L159.71220699005127,136.4969258120929L160.96583498840332,130.89754414229523L161.0958408548991,138.64729618808923L161.22584672139484,139.03100084671655L161.30942192128498,150.75230126420513L161.75515632069906,154.72698110990112L161.95945125376383,129.77039272416053L162.09874325358072,144.17529824517302L162.15446005350748,136.31483548479775L162.414471786499,127.84786745170786L163.52880778503416,142.3126151408405L163.78881951802572,149.79137244603723L164.47599338378907,152.1226482159983L164.56885471700033,154.9544125823062L164.81958031667074,141.29655737193872L164.92172778320312,146.93384864800294L165.22817018280028,133.38567613672853L165.4788957824707,129.6502434972878L165.5810432490031,140.18266388396754L165.9710608484904,125.41853597191663L166.4260813812256,130.3168039766987L167.44755604654947,135.5750091441418L167.85614591267904,138.43918858903456L168.2368773788452,132.91548399144946L168.8683344446818,145.79680451527332L168.87762057800293,155.13937699138467L169.3697856440226,115.8908001561604L169.38835791066487,120.66605045664521L170.056959509786,126.85696175994376L170.36340190938316,84.03554578468977L170.79056404215495,87.63476514222049L170.96700057525635,92.11780109507232L171.11557870839437,99.45270933864438L172.76851043955483,95.08296435977014L173.93856323801674,103.42816001618903L173.97570777130127,128.93634939262634L174.89503497009278,141.84146607701646L175.1921912363688,137.5796774702405L175.32219710286458,133.42567923776411L175.35005550282796,141.32002658642534L175.57292270253498,154.71849441075088L175.94436803538005,150.91759591696004L175.98151256866456,153.32293419664833L176.45510536804198,142.61137195616104L176.58511123453778,111.58290976439622L176.93798430074057,125.63581107953247L177.14227923380534,140.8028386700842L177.55086909993489,153.26750554911396L177.60658589986164,146.57538313938423L177.61587203318277,119.65608547416575L177.7644501663208,113.71468511056591L177.8758837661743,130.23043792870507L178.56305763193768,121.4417247163285L178.75806643168133,105.6654223104094L178.87878616485597,114.20858017463785L178.9716474980672,127.62756290608581L179.04593656463624,140.47693081343755L180.0952696299235,135.16087114779808L180.4388565628052,137.7604390000315L181.2188917617798,141.35983290612867L181.66462616119384,136.5734290940568L182.30536936035156,63.03158962189099L182.3146554936727,87.42545816442619L182.66752855987548,98.71892576656356L182.82539282633462,106.04464450707195L182.90896802622476,120.08180352322016L183.22469655914304,133.47351123687886L183.56828349202476,134.01471625410076L183.99544562479653,138.54335442767328L184.543327490743,119.97949805372279L184.617616557312,127.70755559247418L184.65476109059654,143.56320676703592L185.11906775665284,146.7387552779684L185.76909708913166,161.47173310325735L185.79695548909507,166.83831534167524L186.04768108876544,171.0100723439757L186.53984615478515,153.2909263902293L186.7348549545288,144.28924758448136L186.8462885543823,150.50820838304745L186.92057762095135,164.09273062805855L186.95772215423585,133.3326452111658L186.99486668752036,144.80388455925416L187.64489601999918,137.38293327279013L188.28563921915688,141.0169849938168L188.80566268513996,146.90756222083107L188.92638241831463,150.99651237482976L189.4835504175822,158.2802013064104L189.70641761728925,164.8861242757587L189.8457096171061,167.90729761030886L190.06857681681316,137.50181623648857L190.18929654998777,138.9315685960719L190.27287174987794,105.37715732223523L190.570028016154,122.55272673658959L191.44292454833985,115.63563466912407L191.48935521494548,120.16993308126786L191.61007494812011,131.94645766332042L191.71222241465253,135.0148973578483L192.76155547993977,139.21234542654884L192.7708416132609,150.40001924464468L192.82655841318768,157.17994824364055L192.85441681315106,166.21755772881647L192.96585041300455,166.32413386385682L193.10514241282146,157.70350151279905L194.1173309448242,152.89279342087892L194.9252245437622,158.07834112269663L195.37095894317628,167.60834714196747L195.92812694244387,170.0676711021706L196.0209882756551,171.02178513806638L196.0581328089396,174.83698984215584L196.06741894226073,180.81437796385075L197.59034480692546,187.6951301822891L197.97107627309163,161.63227264787298L198.50967200571696,165.30261618338935L198.77896987202962,171.46929628998464L198.90897573852538,158.40223753123632L199.63329413757324,156.86869791860323L199.66115253753662,136.67029861568568L200.0790285369873,150.17806385588275L200.73834400278727,160.49753671961662L200.8869221359253,148.32960631177295L201.08193093566894,140.72912104532276L201.14693386891682,121.43313706562991L202.81843786671956,91.3056190133334L203.00416053314208,108.05053926608801L203.3198890660604,123.90716866971735L203.46846719919841,118.22667819684767L203.5706146657308,138.33574789832113L204.11849653167724,149.42531768180115L204.12778266499836,157.08349174183365L204.16492719828287,153.22955277859373L204.2856469314575,134.7360078037644L204.42493893127443,145.6201945190623L204.99139306386311,140.01218667474845L205.53927492980958,133.91903474838873L207.18292052764895,152.4794576225262L207.65651332702635,152.92738159450408L207.9536695933024,154.93232570684293L208.03724479319254,156.91121476426036L208.21368132629394,158.8704008403846L208.3808317260742,166.7976355441255L208.87299679209391,165.15038048005323L209.05871945851644,164.4839482035668L209.2630143915812,163.84852745134592L209.47659545796714,170.98413833764752L209.63445972442625,173.70177121012205L209.66231812438966,171.09284015644357L209.69017652435303,172.33911565525952L210.0337634572347,180.27888496597L210.29377519022626,157.7652423073298L210.4609255900065,162.12943755080326L210.47949785664875,157.6349925192738L211.35239438883465,145.12545751701484L211.60311998850503,152.7489889224652L211.8445594548543,159.38694816714482L212.07671278788249,164.43185309203983L212.10457118784586,143.0021282568248L213.08890131988525,129.92532098744869L213.12604585316976,135.95336784330726L213.26533785298665,143.90170209296298L213.2839101196289,144.66251512847006L213.33034078623456,147.73084714394062L213.38605758616131,161.92361158897072L213.58106638590496,159.27146077817304L213.9153671854655,134.82197766730025L214.06394531860352,144.32403535046944L214.77897758433025,158.3083736102843L215.1132783838908,126.43199500694745L215.1875674504598,137.92252853209047L215.24328425038655,138.63893227907803L215.48472371673583,141.12026680146923L215.52186825002033,106.68773762171664L215.74473544972736,98.9611333859834L215.84688291625977,102.22780314235445L216.06046398264567,95.68475607429781L216.46905384877525,108.923522128555L217.2026583811442,93.00697015044229L217.47195624745686,98.51820315333529L217.89911838022869,108.32461962253095L218.98559597880046,123.51311178377L219.0041682454427,127.92967623736445L219.08774344533285,88.3614594796586L219.12488797861735,106.37168079910951L219.13417411193848,118.40355294789491L219.1991770451864,122.89489923041039L219.34775517832438,108.84020192230612L219.85849251098634,113.88240449245555L219.8770647776286,101.09564225517462L220.26708237711588,98.29686116877772L220.39708824361165,112.678353406859L221.12140664265948,105.44816636725496L221.1864095759074,115.30548171817698L221.42784904225667,118.85308933826681L223.45222610626223,120.27890665131352L223.67509330596923,134.35486477744493L223.92581890563963,139.3445115991788L224.13011383870443,137.36577938406487L224.22297517191566,133.60413825461382L224.3715533050537,139.84561917203783L224.99372423756915,140.21330631348658L225.40231410369873,148.99843037647426L225.51374770355224,133.09811274775163L225.57875063680012,138.67061384397954L225.71804263661704,151.9029184011995L226.377358102417,145.47941525861458L226.39593036905924,146.74926762876075L226.7395173019409,151.68613562377556L227.18525170135499,167.3754746063705L227.6402722340902,175.5097029198265L227.80742263387043,171.00687143750463L228.13243730010984,158.7410581628792L228.47602423299156,148.88829535574075L228.85675569915773,144.97782692186797L229.38606529846192,100.31827902603817L229.88751649780275,105.10403632073708L230.11966983083087,121.60474930629644L231.41972849578858,124.90370305559574L231.67045409545898,124.19644574958336L231.9954687616984,134.4740910885193L232.64549809417724,138.42688911540756L232.6919287607829,141.896476116122L232.8126484939575,143.29109434602194L233.02622956034344,154.90425062267124L233.13766316019692,155.64856463301365L234.58629995829264,151.84401116503818L234.9206007578532,148.26688324958295L235.21775702412924,108.55620730477537L235.92350315653482,105.60840387010126L235.93278928985595,114.93205962331497L236.7963996887207,133.2833548747038L237.62286555430094,146.67749235570605L237.6414378209432,131.19197541393152L238.14288902028403,135.79731912021944L238.17074742024738,126.96966959706448L238.82077675272623,137.08535153338713L239.74010395151774,143.5681801140007L240.99373194986978,140.50245173403962L241.68090581563314,141.10091951688943L242.08949568176268,142.907092396268L242.14521248168944,153.29321299378756L242.56308848114014,158.57221778630068L243.48241567993165,107.33043167939437L244.74532981160482,109.00119121824294L244.9496247446696,121.62794249749247L245.07034447784426,121.66646788162662L245.4789343439738,140.38448309420207L245.7946628768921,145.78280509933643L245.8318074101766,159.6082099401457L246.008243943278,144.8665370465485L247.0668631418864,135.71771928250175L247.3454471415202,102.1746531181623L247.97690420735677,90.89432952901396L248.10691007385253,106.53113243042007L248.4783554066976,99.02859772653068L249.03552340596517,120.60705489373055L249.12838473917643,108.4167464221437L249.2305322057088,121.03688101255237L249.26767673899334,133.17133648646603L249.56483300526938,149.13886881489543L249.62983593851726,157.31804396618017L249.8248447382609,156.19882481264366L250.14985940450035,159.78637777736253L250.33558207092284,122.25422301017625L250.3541543375651,109.10011241223738L250.51201860402426,118.98464062417288L250.64202447052003,129.4616090513134L251.21776473642987,136.53729273245054L251.23633700307212,150.6060018852452L251.7656466023763,151.42601125868364L252.4621066014608,133.0863378061042L253.0378468673706,140.48909833751668L254.4214807322184,129.97004196692058L254.8486428649902,137.17724494138065L255.06222393137614,144.58310747947777L256.40871326293944,143.4902682428843L256.75230019582114,137.03295233185864L256.86373379567465,148.83080388564258L257.1051732620239,141.1350724520808L257.25375139516194,134.23045841519715L257.2723236618042,132.79522340510533L257.3466127283732,145.08629622210395L257.36518499501545,129.49030736802837L257.75520259450275,127.77173536283256L258.28451219380696,130.7085591521868L258.4238041936239,117.8842138901668L258.433090326945,111.97070009578277L258.9252553929647,126.26231786240561L259.1481225926717,134.70865407077366L259.240983925883,152.71506260911326L259.3524175257365,160.67031756299403L259.9188716583252,152.50791669742603L260.5317564575195,162.65025586826948L260.6153316574097,150.4274501371079L260.9124879236857,152.6599314585738L260.9960631235758,160.41816288247355L261.0703521901449,162.01160434997558L261.1446412567139,165.69119019544553L261.4325113896688,169.02589097168965L261.451083656311,167.77067822292196L262.4539860549927,155.9056700179849L262.47255832163495,150.6193878320164L262.7047116546631,157.9119053248688L262.82543138783774,169.77245006312853L262.84400365448,181.5170687467406L263.51260525360107,184.77143553843945L263.9211951197306,152.52802843276302L263.96762578633627,148.48739836342114L264.5712244522095,138.69565391399857L265.1191063181559,148.16679577147008L265.4626932510376,151.5281647888763L265.5091239176432,126.75934461768824L265.55555458424885,133.6046921709939L265.86199698384604,136.5599313389639L266.01057511698406,142.91051611307617L266.33558978322344,142.8803633170981L266.42845111643476,148.56956690887313L266.447023383077,162.08306531854672L266.4841679163615,135.691443283403L266.521312449646,128.90025815446745L267.0041913823446,101.64234150110458L267.5706455149333,124.2572239195446L267.5799316482544,137.5152930409731L267.58921778157554,138.89937920263552L268.4992588470459,149.16927568618487L269.01928231302895,145.30924301085855L269.4278721791585,142.4794661954472L269.5671641789754,107.74232754374304L269.74360071207684,100.08705052464228L269.8457481786092,51.93067412457374L270.2636241780599,85.3756097868897L270.4400607111613,107.53289727109778L270.59792497762044,115.21571833487396L272.15799537556967,133.79201464553466L272.70587724151613,126.64598117225438L273.4023372406006,136.56869203513097L273.43019564056397,125.6719185838964L273.51377084045413,128.46944479788183L274.13594177296955,124.65782251357716L274.2845199061076,133.1191271506455L274.3402367060343,151.36171036359903L275.11098577168787,159.9279379233078L275.1481303049723,149.05902390961495L275.343139104716,149.27882695608182L275.8445903040568,105.73673718492063L276.522478036499,120.18210660706237L276.6524839029948,114.27913447578061L276.958926302592,114.19054984072302L277.0332153691609,127.65618978185726L277.0703599024455,143.25157799415203L277.59966950174964,149.35467374306697L277.61824176839195,148.47369207021268L277.8132505681356,125.9437080514337L278.33327403411863,133.5619514528771L278.6397164337158,129.40332162880063" fill="none"></path></g></g></g></g><g opacity="0.2"><g><g><g><path style="fill: none;" stroke="rgb(255, 112, 67)" stroke-width="2px" d="M18.73941704203288,-71.43599669171182L19.148006908162433,4.530872096115665L19.565882907613116,-212.94478458860794L20.16948157348633,56.87769621119514L20.838083172607423,14.05399873571695L20.977375172424317,-119.6498967049297L21.190956238810223,-56.130079637914626L22.305292237345377,49.211025755046194L22.42601197052002,-5.393616136909706L22.890318636576335,-103.70606330623563L23.308194636027018,71.57944936132708L23.521775702412924,35.84570626873756L23.568206369018554,52.505316757442415L23.735356768798827,-76.36109634253673L24.106802101643883,2.765173542281886L24.48753356781006,54.28073591846328L24.543250367736817,-42.1655104883189L24.68254236755371,88.05543506321781L25.666872499593097,28.346503535915407L26.038317832438153,59.48482059134335L26.614058098347982,-47.61108812495422L26.799780764770507,-33.81005530638277L27.997691963195802,108.67805679622052L28.09983942972819,103.82054592952386L28.20198689626058,-279.12943839533466L28.889160762023927,21.90793770813116L29.019166628519695,81.15837060814896L29.08416956176758,61.67308388794025L29.269892228190105,104.3315669990943L29.38132582804362,6.979674034421334L29.492759427897134,47.88310211724364L29.567048494466146,76.29049189284956L29.88277702738444,16.05903278192044L30.198505560302735,71.91030958425245L30.217077826944987,17.897078542882795L30.33779756011963,-3.496479631887752L30.374942093404133,83.51780528728453L31.349986092122396,28.062628245386335L31.730717558288575,-9.840404381559441L32.11144902445476,46.094402521249556L32.4457498240153,-12.565770179587616L32.594327957153325,44.601324448883595L32.622186357116696,-26.6397950441433L32.94720102335612,12.219285069450038L32.9750594233195,6.354007332613477L33.105065289815265,-41.534953518037156L33.680805555725094,62.34456089883452L33.75509462229411,31.921553481283794L34.08010928853353,49.30537917030732L34.37726555480957,-68.7928305534729L34.46084075469971,44.79676738450962L35.72375488637289,-63.65526791498043L36.206633819071456,-129.74532858740307L36.29949515228272,74.15624928255625L36.58736528523763,16.78188158369493L36.77308795166016,-2.9350576335605396L36.782374084981285,-15.06397821262226L37.87813781687419,71.26383526952623L39.08533514862061,13.983161758558253L40.106809813944494,-57.70055100326089L40.47825514678956,118.84637525366884L41.19328741251628,85.49511582618378L41.23971807912191,30.257327998283458L41.360437812296546,139.31606822329286L41.43472687886556,-154.4948574742921L41.46258527882894,-71.40260382904444L41.81545834503174,24.431460072089525L42.502632210795085,174.64331374196547L42.51191834411622,34.22041115829414L42.70692714385986,145.54562301762644L43.04122794342041,21.53548623127334L43.11551700998942,39.61147668458807L43.4962484761556,64.28544612917449L43.579823676045734,0.5810214272696469L43.71911567586263,86.93963880642286L43.802690875752766,38.53187800326169L44.13699167531332,121.22522717527431L44.146277808634444,135.7113170885168L44.27628367513021,59.34313465107379L44.43414794158936,-8.055815967150036L44.68487354125976,7.869870700001226L44.98202980753581,71.44805935394743L45.13989407399495,48.81793446860002L46.179941005961105,117.88230916503834L47.20141567128499,123.66198323167737L47.21070180460612,-4.101242833160111L47.396424471028645,85.23369022401653L47.40571060434977,109.45546565214498L47.77715593719483,122.84769360101222L48.27860713653565,125.60383932414082L48.44575753631592,-24.63152479086149L48.66862473602295,81.30310098026256L48.89149193572998,108.17016406015911L48.91935033569336,-123.25649367633564L49.73653006795247,159.24855081791634L50.18226446736654,-62.572241251341474L50.915868999735515,174.14200129362996L51.07373326619466,-31.466298252648837L51.31517273254395,99.87845017171365L51.686618065389,85.58073148233346L52.00234659830729,160.94094928142624L52.150924731445315,42.74912327844162L52.50379779764811,82.36020202941857L52.568800730896,31.602942901447463L52.63380366414388,15.142419077819797L52.66166206410726,121.59888923329846L52.83809859720866,86.78590698425069L53.04239353027344,74.28817865778228L53.69242286275228,131.43253593504028L54.305307661946614,-130.84983407728035L54.92747859446207,115.15457014848607L55.09462899424235,103.10502054450808L55.48464659372965,-63.46284543929418L55.82823352661133,121.13606367729061L55.93038099314372,136.81386886819496L56.496835125732424,123.9028649118734L56.72898845876058,-63.57635240607809L56.840422058614095,11.882527758070863L56.86828045857747,64.83962861240796L57.07257539164225,128.1789612120701L57.39759005788168,0.7120518560850524L57.499737524414066,118.48264954997033L57.824752190653484,135.6108508376633L58.10333619028727,125.98982294096685L58.66979032287598,169.0922417475531L58.76265165608724,-29.633142760160386L59.93270445454915,99.86735118003025L60.684881253560384,62.53630017524869L60.72202578684489,-12.445599023412818L60.95417911987305,119.86346719457514L61.39991351928711,8.887142430189671L61.74350045216878,19.708467546281547L62.124231918334964,156.95467929699703L62.19852098490397,-48.660985616872956L62.282096184794106,117.35080410325736L62.49567725118001,184.6650559906703L62.932125517272944,112.643657006181L63.4428628499349,35.46002230071507L63.4800073832194,69.67292785577797L63.55429644978841,71.56998045913497L63.90716951599121,120.6166764131251L64.16718124898274,52.9575227598525L65.73653778025309,159.90755644560693L65.82011298014324,157.21359983516663L65.83868524678549,16.101918518684215L66.22870284627278,112.44768668866071L66.26584737955729,130.12126078476285L66.4422839126587,72.65659092246437L66.73944017893474,116.7492771090633L66.86015991210937,87.37748563816693L67.09231324513753,1.1687406045962145L67.21303297831217,185.90493082403836L67.35232497812906,101.3348871883818L67.43590017801921,22.460010663787664L67.74234257761637,50.36341512373042L67.96520977732341,79.16370441054822L67.99306817728679,134.68697364656464L68.36451351013184,118.26372613409832L68.74524497629801,131.75060714703022L69.13526257578532,18.68565830620354L69.21883777567545,97.02092726536874L69.72957510833741,106.50713717237294L71.19678417307536,66.61330981036826L71.78181057230631,175.87625470201942L72.04182230529786,3.505737581322119L72.7289961710612,161.94177628527598L73.04472470397948,113.13726248728925L73.16544443715414,165.59880415031898L73.88047670288086,145.2127551477173L74.11263003590902,158.8570177052486L74.26120816904704,99.29608871499453L74.78123163503011,108.99091411902872L75.31982736765544,152.40948039228613L75.57055296732584,111.57279608396607L75.60769750061034,138.88984776512643L76.37844656626383,162.7631675925852L76.5455969660441,-132.8017224116866L76.87989776560467,127.28309519112712L77.37206283162435,81.0296055242884L77.3906350982666,163.1923425879546L77.61350229797364,-110.81749651536259L77.62278843129477,155.35236125680967L77.6692190979004,105.6817845078808L77.71564976450601,196.71747023721025L79.19214496256511,83.33282608787839L79.40572602895102,84.5630522297722L79.52644576212565,77.96510919635692L79.57287642873129,69.63626282817586L79.72145456186931,75.533938593652L79.76788522847494,145.89156156834633L79.85146042836507,19.32839300386148L80.0000385615031,122.2153507238613L80.53863429412843,107.48030059867914L81.06794389343261,186.6701559596106L81.25366655985515,92.64882348851526L81.7365454925537,158.61783803025673L82.10799082539877,164.65735555338028L82.18227989196777,138.41008605874208L82.79516469116211,155.25637175908116L82.82302309112549,165.04498124564975L82.92517055765788,69.53441819282602L83.49162469024658,95.96382621621272L83.53805535685221,109.88662432259389L83.55662762349446,94.37234347676166L84.07665108947754,87.59518648692051L84.66167748870849,-20.074921252687552L84.68953588867187,159.20573699686543L84.74525268859864,132.35366834309843L85.09812575480143,84.25953196368253L85.49742948760986,149.27215142616433L85.92459162038168,115.54882407229L86.11960042012532,168.09898986545704L86.43532895304362,-129.84088059787842L86.71391295267742,130.04565339865167L86.85320495249431,150.6713195634984L86.98321081899006,18.276769534834326L87.62395401814778,-58.809707042569265L87.92111028442383,196.40330045264253L87.93968255106607,4.605616493672631L88.0511161509196,-24.701882329934506L88.27398335062664,137.27294282118237L88.38541695048013,125.26042980932287L88.5154228169759,126.9959717075676L88.6175702835083,117.24275074469801L89.0818769495646,98.03878630721215L89.184024416097,121.67273468444476L89.49975294901529,-32.14479903149826L89.55546974894206,-6.073699061441857L89.70404788208008,33.14579863305879L90.32621881459553,37.83542226810367L90.35407721455891,131.59029503713214L90.5955166809082,184.00052483904233L90.94838974711101,79.690546936946L90.95767588043213,64.04589488966622L91.19911534678141,-216.8941078755597L91.51484387969971,86.93628273982313L91.88628921254475,117.65937045519877L92.73132734476725,94.01959690522516L93.28849534403483,76.81997132871857L93.99424147644042,143.69085086045004L94.19853640950521,160.4216519119018L94.86713800862631,109.85421430800216L95.43359214121502,-10.816372520666864L95.56359800771078,82.17767995020152L95.61002867431641,124.83876401297039L96.36220547332763,190.07898472067495L96.54792813975017,117.36908268027376L97.42082467193603,183.45814252569252L97.95013427124024,159.23609142066482L98.00585107116699,70.64062568790744L98.60016360371907,172.95998265125093L98.98089506988525,189.6454468387259L99.01803960316975,53.25036354258373L99.30590973612468,60.96478603206606L99.58449373575846,158.293450221488L99.84450546875,131.38563490430897L100.06737266845704,122.4649701631688L100.08594493509929,121.16677168667819L100.50382093454998,164.11467958420303L100.59668226776122,187.55540841993195L100.9402692006429,185.91470536801012L101.00527213389078,128.3060123047744L101.37671746673584,160.2001814811996L102.00817453257243,210.3551884648721L102.20318333231609,123.38354956342074L102.45390893198649,106.04915394103045L102.68606226501464,163.49544933869538L103.2710886642456,136.064291393144L103.55895879720053,198.34543222200523L104.48757212931315,182.95195778781135L104.84973132883708,77.3182633171143L104.9611649286906,153.3926341097026L105.04474012858073,196.75187291634558L105.18403212839762,127.76696807909615L105.35118252817789,-44.61373710092176L105.48118839467367,77.36632698520337L105.6019081278483,-26.97648043980962L105.7412001276652,154.0669697701827L106.38194332682292,213.44626064519022L107.14340625915527,1.6776401606375497L107.22698145904542,174.92801606319233L107.40341799214681,47.27503079318011L108.37846199086508,191.33417760088037L108.3877481241862,122.08930645113695L108.75919345703126,75.47675361598294L109.13992492319743,115.7879797753776L109.14921105651855,214.33407809926987L109.31636145629884,33.392733219086495L109.697092922465,172.06413460923613L109.91996012217204,107.49477962886657L110.04067985534668,91.50182779829493L110.19854412180582,156.7330110980845L110.44926972147624,180.4866452004302L110.66285078786214,90.05960612086709L110.95072092081705,123.00306749862784L110.96000705413817,98.54102167386257L110.9692931874593,62.17395285604653L111.06215452067057,148.01439954517662L111.18287425384521,164.3524988536268L111.23859105377197,162.7142649078462L111.36859692026773,57.85161475248628L112.01862625274659,-42.625842966281226L112.269351852417,176.09429715040903L112.55722198537191,112.34995323489557L112.71508625183105,-154.99620588048407L113.20725131785075,168.94787694697982L113.36511558430989,190.86833158493278L113.43011851755779,127.80086435175349L113.9315697168986,84.44375604810374L114.033717183431,21.559050613184347L114.60945744934082,160.52785943383128L114.63731584930419,200.3155422001552L114.64660198262531,201.76688818365108L115.10162251536052,83.644281054286L115.56592918141683,209.65777685003076L115.6309321146647,207.52717197621251L115.68664891459147,92.74984109316732L116.0859526473999,215.71797014059914L116.24381691385905,148.60892674331978L116.64312064666748,173.7841307275528L116.9681353129069,207.27710306369974L117.31172224578857,108.79082063397162L117.40458357899983,180.0846663304708L117.42315584564209,218.41149975149435L117.99889611155191,139.61104250550534L118.09175744476319,85.47448800254755L118.15676037801106,145.33019949977984L118.59320864410401,195.49991324673044L120.93331424102783,187.4307844825364L120.97974490763347,25.82535439048114L121.05403397420247,154.26443833172073L121.22118437398274,168.0680061791702L121.5926297068278,212.4797194574424L121.81549690653483,140.487539227787L121.87121370646159,131.91137472310967L122.2983758392334,187.13635556114642L122.68839343872071,62.75857965772047L122.74411023864747,52.33817265482343L122.81839930521647,30.975933772999724L123.79344330393474,47.30716513087259L124.37846970316569,165.33181706635787L124.51776170298258,117.0861183221075L124.83349023590088,165.73983086322073L125.00064063568115,96.60784341074985L126.08711823425293,171.0258754768472L126.3935606338501,15.999582459296555L127.18288196614584,133.72940394399507L127.55432729899088,136.26131647445277L127.74004996541342,0.8766429508977964L127.82362516530354,138.07425166567782L128.0186339650472,175.17117507429532L128.32507636464436,153.62767863120553L128.58508809763592,115.25353815532185L128.77081076405844,156.63870562663192L128.85438596394857,149.77843205166266L129.58799049631756,105.76340884196723L129.7458547627767,38.905408215812244L130.25659209543863,218.23095835086875L132.52240862579347,179.80590304853024L132.81027875874838,119.60880166941593L132.94028462524415,194.79338032230916L133.29315769144694,173.4003465329448L133.664603024292,122.73584069562388L133.70174755757648,125.96435279266528L133.72031982421873,121.54269908965716L133.9153286239624,148.9961688851207L133.92461475728354,99.39874839509001L134.06390675710043,-19.25932515323894L134.17534035695394,19.588128586776733L134.42606595662434,157.24748412187182L134.4446382232666,168.98608216943217L134.46321048990885,32.43071672827227L135.1503843556722,163.1296800301567L135.58683262176515,127.46771481196902L136.02328088785808,153.28524597148714L136.58044888712567,80.31645335779672L137.35119795277913,131.95986988547588L138.37267261810302,48.536576228020756L138.40981715138753,178.44464048484494L138.77197635091144,156.5285427404956L139.031988083903,106.55594396949482L139.0691326171875,97.90978150430874L139.51486701660156,33.424448048454L139.7377342163086,99.97879656304575L140.14632408243816,136.914970374512L141.03779288126626,164.11568640418295L141.7156806137085,113.86596043370899L142.11498434651693,221.4972786356978L142.53286034596763,152.87596166369724L142.89501954549155,67.34754526667757L143.17360354512533,183.28067252530332L143.517190478007,165.4119970932112L144.13936141052244,138.53218695321175L144.399373143514,107.1359801514984L144.473662210083,191.8846983757345L145.07726087595623,156.91992003578548L145.25369740905762,140.44560038124243L145.30012807566322,205.4195112112819L146.73947874043785,103.3802779354471L147.17592700653077,162.36491036076586L147.79809793904622,159.35716152325028L148.30883527170818,170.08575732059626L148.39241047159828,70.3549764764614L148.6338499379476,73.24548472310086L149.00529527079266,167.88011439339357L150.2217787358602,175.73960286164947L150.32392620239256,214.18027436138487L150.49107660217285,160.68600807936775L150.97395553487144,-34.377110702216676L151.03895846811932,170.26123165995386L151.86542433369956,130.01305160882563L151.93042726694742,172.22080298968308L152.2833003331502,96.4896379507263L152.33901713307696,101.4692976557012L152.46902299957276,194.97272612420858L152.5525981994629,167.3160255207148L153.5462144648234,187.99426806463202L153.9362320643107,12.195361108974781L154.36339419708253,151.51649099985718L154.56768913014727,188.1637014841101L155.49630246225993,164.23830269459472L156.18347632802326,152.965215056322L156.48063259429932,210.50032935584656L156.60135232747396,129.80612613104768L156.63849686075847,174.56373301271924L157.13066192677817,107.48811543947568L157.16780646006268,45.10520189097746L157.30709845987954,220.6044210887424L158.04070299224855,175.52129672231274L158.46786512502032,121.8707186419249L158.47715125834145,-18.68812261796392L158.51429579162595,-14.894376989814216L158.88574112447102,162.19308574383547L159.0157469909668,104.15708749376446L159.14575285746258,171.18314914787732L159.28504485727944,207.52048980789343L159.49862592366537,156.05169362048173L159.5822011235555,106.64992582023955L159.71220699005127,152.58964123893122L160.96583498840332,108.50001746310454L161.0958408548991,169.64630437126516L161.22584672139484,140.56581948122584L161.30942192128498,197.6375029341594L161.75515632069906,170.62570049268516L161.95945125376383,29.944039181198146L162.09874325358072,201.79492032922298L162.15446005350748,104.87298444329666L162.414471786499,93.97999531934829L163.52880778503416,200.17160589737102L163.78881951802572,179.70640166682418L164.47599338378907,161.44775129584275L164.56885471700033,166.2814700475377L164.81958031667074,86.66513653046877L164.92172778320312,169.4830137522598L165.22817018280028,79.19298609163091L165.4788957824707,114.7085129395248L165.5810432490031,182.31234543068638L165.9710608484904,66.36202432371306L166.4260813812256,149.90987599582695L167.44755604654947,156.60782981391435L167.85614591267904,149.89590636860555L168.2368773788452,110.82066560110887L168.8683344446818,197.3220866105689L169.3697856440226,-41.10350718473684L169.38835791066487,139.76705165858448L170.056959509786,151.6206069731379L170.36340190938316,-87.25011811632615L170.79056404215495,102.03164257234333L170.96700057525635,110.04994490647958L171.11557870839437,128.79234231293253L172.76851043955483,77.60398444427322L173.93856323801674,136.80894264186463L173.97570777130127,230.9691068983757L174.89503497009278,193.46193281457687L175.1921912363688,120.53252304313675L175.32219710286458,116.80968630785854L175.35005550282796,172.89741598107014L175.57292270253498,208.31236570805314L175.94436803538005,135.7140019417966L175.98151256866456,162.94428731540165L176.45510536804198,99.76512299421188L176.58511123453778,-12.53093900266321L177.55086909993489,203.12617306523293L177.60658589986164,119.8068935004653L177.61587203318277,11.97889481329184L177.7644501663208,89.94908365616652L177.8758837661743,196.29344920126186L178.56305763193768,86.28687186682214L178.75806643168133,42.56021268673294L178.87878616485597,148.38121163155165L178.9716474980672,181.30349383187763L179.04593656463624,191.8744024428446L180.0952696299235,113.89663248524016L180.4388565628052,148.15871040896525L181.2188917617798,155.7574085305174L181.66462616119384,117.42781384576915L182.30536936035156,-231.13576826677226L182.3146554936727,185.00093233456707L182.66752855987548,143.89279617511306L182.82539282633462,135.34751946910546L182.90896802622476,176.23043958781295L183.22469655914304,187.0403420915136L183.56828349202476,136.1795363229885L183.99544562479653,156.65790712196326L184.543327490743,45.724072557920856L184.617616557312,158.6197857474798L184.65476109059654,206.98581146528286L185.11906775665284,159.44094932169833L185.76909708913166,220.40364440441323L186.04768108876544,187.69710035317758L186.53984615478515,82.4143425752436L186.7348549545288,108.2825323614895L186.8462885543823,175.38405157731177L186.92057762095135,218.4308196081031L186.95772215423585,10.292303543594686L186.99486668752036,190.68884195160766L187.64489601999918,107.69912812693404L188.28563921915688,155.5531918779235L188.80566268513996,170.46987112888814L188.92638241831463,167.35231299082443L189.4835504175822,187.41495703273299L189.8457096171061,179.99199094850948L190.06857681681316,15.879890741207419L190.18929654998777,144.65057803440516L190.27287174987794,-28.840487773111356L190.570028016154,191.25500439400696L191.44292454833985,87.9672663992619L191.48935521494548,138.30712672984305L191.61007494812011,179.05255599153068L191.71222241465253,147.28865613595985L192.76155547993977,156.002137701351L192.7708416132609,195.15071451702798L192.85441681315106,202.36799566952016L192.96585041300455,166.75043840401827L193.10514241282146,123.22097210856782L194.1173309448242,133.64996105319847L194.9252245437622,178.82053192996747L195.92812694244387,179.90496694298315L196.0209882756551,174.8382412816494L196.0581328089396,190.09780865851383L197.59034480692546,209.85935958964149L197.97107627309163,57.380842510208375L198.50967200571696,179.9839903254548L198.77896987202962,196.1360167163659L198.90897573852538,106.13400249624304L199.63329413757324,150.73453946807092L199.66115253753662,55.876701404015414L200.0790285369873,204.20912481667105L200.73834400278727,201.7754281745522L200.8869221359253,99.65788468039817L201.08193093566894,110.32717997952204L201.14693386891682,44.24920114685846L202.81843786671956,-29.204453195852707L203.00416053314208,175.03022027710642L203.3198890660604,187.33368628423477L203.46846719919841,95.5047163053689L203.5706146657308,218.772026704215L204.12778266499836,187.7161879819636L204.16492719828287,137.81379692563405L204.2856469314575,60.76182790444705L204.42493893127443,189.15694138025404L204.99139306386311,117.58015529749285L205.53927492980958,109.54642704294996L207.18292052764895,226.72114911907613L207.65651332702635,154.71907748241563L207.9536695933024,162.95210215619818L208.03724479319254,164.82677099393015L208.21368132629394,166.70714514488168L208.3808317260742,198.50657435908914L208.87299679209391,158.56136022376404L209.05871945851644,161.81821909762107L209.2630143915812,161.30684444246242L209.47659545796714,199.52658188285398L209.63445972442625,184.57230270002012L209.66231812438966,160.65711594172967L209.69017652435303,177.3242176505232L210.0337634572347,212.03796220881202L210.29377519022626,67.71067167276897L210.4609255900065,179.5862185246972L210.47949785664875,139.657212393156L211.35239438883465,95.08731750797891L211.60311998850503,183.24311454426663L212.07671278788249,184.61147279161992L212.10457118784586,57.28322891596462L213.08890131988525,77.61809190994425L213.12604585316976,160.06555526674163L213.26533785298665,175.69503909158584L213.2839101196289,147.70576727049843L213.33034078623456,160.0041752058229L213.38605758616131,218.69466936909103L213.58106638590496,148.66285753498232L213.9153671854655,37.02404522380901L214.06394531860352,182.33226608314624L215.1875674504598,183.8846626326625L215.24328425038655,141.50454726702833L215.48472371673583,151.04560489103392L215.52186825002033,-31.042379097293647L215.74473544972736,68.05471644305044L215.84688291625977,115.29448216783861L216.06046398264567,69.51256780207132L216.46905384877525,161.8785863455838L217.2026583811442,29.340762237991378L217.47195624745686,120.56313516490718L217.89911838022869,147.55028549931353L218.98559597880046,184.2670804287263L219.0041682454427,145.59593405174212L219.08774344533285,-69.91140755116479L219.12488797861735,178.4125660769132L219.13417411193848,166.53104154303662L219.1991770451864,140.8602843604723L219.34775517832438,52.62141268988899L219.85849251098634,134.0512147730533L219.8770647776286,49.94859330605094L220.26708237711588,87.10173682319008L220.39708824361165,170.20432235918406L221.12140664265948,76.52741820883875L221.1864095759074,154.7347431218651L221.42784904225667,133.04351981862624L223.45222610626223,125.9821759035003L223.67509330596923,190.65869728197072L223.92581890563963,159.30309888611419L224.13011383870443,129.45085052360923L224.22297517191566,118.55757373680945L224.3715533050537,164.81154284173385L224.99372423756915,141.6840548792817L225.40231410369873,184.13892662842497L225.51374770355224,69.49684223286113L225.57875063680012,160.96061822889112L225.71804263661704,204.83213663007948L226.377358102417,119.78540268827486L226.39593036905924,151.82867710934545L226.7395173019409,171.43360760383473L227.18525170135499,230.13283053675025L227.6402722340902,208.0466161736507L227.80742263387043,152.9955455082171L228.13243730010984,109.67780506437748L228.47602423299156,109.47724412718685L228.85675569915773,129.33595318637686L229.38606529846192,-78.319912557281L229.88751649780275,124.2470654995327L230.11966983083087,187.6076012485339L231.41972849578858,138.09951805279297L231.67045409545898,121.36741652553381L231.9954687616984,175.5846724442631L232.64549809417724,154.23808122296066L232.6919287607829,155.7748241189796L232.8126484939575,148.86956726562175L233.02622956034344,201.35687572926855L233.13766316019692,158.62582067438325L234.58629995829264,136.6257972931362L234.9206007578532,133.95837158776203L235.21775702412924,-50.28649647445491L235.92350315653482,93.81719013140469L235.93278928985595,152.2266826361698L236.7963996887207,206.6885358802591L237.62286555430094,200.25404227971507L237.6414378209432,69.24990764683345L238.14288902028403,154.21869394537111L238.17074742024738,91.65907150444467L238.82077675272623,177.54807927867776L239.74010395151774,169.49949443645494L240.99373194986978,128.23953821419536L241.68090581563314,143.49479064828867L242.08949568176268,150.13178391378233L242.14521248168944,194.83769538386582L243.48241567993165,-97.63671274823083L244.74532981160482,115.6842293736372L244.9496247446696,172.13494761449056L245.07034447784426,121.82056941816312L245.4789343439738,215.25654394450387L245.7946628768921,167.37609311987399L245.8318074101766,214.90982930338276L246.008243943278,85.89984547215977L247.0668631418864,99.12244822631463L247.3454471415202,-31.99761153919555L247.97690420735677,45.773035172420585L248.10691007385253,169.07834403604454L248.4783554066976,69.01845891097311L249.03552340596517,206.9208835625301L249.12838473917643,59.65551253579634L249.2305322057088,171.51741937418706L249.26767673899334,181.70915838212068L249.62983593851726,190.03474457131915L249.8248447382609,151.72194819849778L250.14985940450035,174.1365896362379L250.33558207092284,-27.874396058568905L250.3541543375651,56.48367002048189L250.51201860402426,158.52275347191494L250.64202447052003,171.3694827598755L251.21776473642987,164.8400274569991L251.23633700307212,206.88083849642396L251.7656466023763,154.70604875243737L252.4621066014608,59.72764399578636L253.0378468673706,170.10014046316655L254.4214807322184,87.89381648453627L254.8486428649902,166.00605683922083L255.06222393137614,174.2065576318663L256.40871326293944,139.11891129651053L256.75230019582114,111.20368868775586L256.86373379567465,196.0222101007784L257.1051732620239,110.35214671783363L257.25375139516194,106.61200226766255L257.2723236618042,127.05428336473801L257.3466127283732,194.2505874900985L257.36518499501545,67.10635195172586L257.75520259450275,120.89744734204942L258.28451219380696,142.45585430960375L258.4238041936239,66.58683284208679L258.433090326945,88.31664491824654L258.9252553929647,183.428788928897L259.1481225926717,168.49399890424593L259.240983925883,224.74069676247169L259.3524175257365,192.49133737851704L259.9188716583252,119.85831323515411L260.5317564575195,203.21961255164328L260.6153316574097,101.53622721246164L260.9124879236857,161.58985674443727L260.9960631235758,191.45108857807259L261.0703521901449,168.38537021998377L261.1446412567139,180.40953357732522L261.4325113896688,182.36469407666618L261.451083656311,162.74982722785126L262.4539860549927,108.44563719823667L262.47255832163495,129.4742590881424L262.7047116546631,187.08197529627853L263.51260525360107,185.9545946167384L263.9211951197306,23.554400010057172L263.96762578633627,132.32487808605356L264.5712244522095,99.52867611630835L265.1191063181559,186.05136320135614L265.4626932510376,164.97364085850108L265.5091239176432,27.684063932936162L265.55555458424885,160.98608238421662L265.86199698384604,148.38088801084382L266.01057511698406,168.3128552095252L266.33558978322344,142.75975213318586L266.42845111643476,171.32638127597318L266.447023383077,216.1370589572411L266.4841679163615,30.12495514282817L266.521312449646,101.73551763872523L267.0041913823446,-7.3893251123468175L267.5799316482544,190.547569526687L267.58921778157554,144.4357238492853L268.4992588470459,190.24886162038229L269.01928231302895,129.86911230955343L269.4278721791585,131.16035893380172L269.5671641789754,-31.206227063073587L269.74360071207684,69.46594244823929L269.8457481786092,-140.69483147570057L270.4400607111613,196.16204720793004L270.59792497762044,145.94700258997875L272.15799537556967,208.0971998881776L272.70587724151613,98.06184727913318L273.4023372406006,176.25953548663745L273.43019564056397,82.08482477895814L273.51377084045413,139.65954965382366L274.13594177296955,109.41133337635847L274.2845199061076,166.96434569891892L274.3402367060343,224.33204321541325L275.11098577168787,194.19284816214287L275.1481303049723,105.58336785484356L275.343139104716,150.1580391419492L275.8445903040568,-68.43162189972419L276.522478036499,177.9635842956293L276.6524839029948,90.66724595065352L276.958926302592,113.83621130049278L277.0332153691609,181.51874954639428L277.0703599024455,205.6331308433312L277.59966950174964,173.76705673872664L277.61824176839195,144.94976537879552L277.8132505681356,35.823771976317865L278.33327403411863,164.03492505865074L278.6397164337158,112.76880233249473" fill="none"></path></g></g></g></g></g></g><g transform="translate(51, 176)" clip-path="url(#clip_1)"><clipPath id="clip_1"><rect width="278" height="23"></rect></clipPath><g><g><line x1="0" y1="0" x2="0" y2="5" style="visibility: inherit;" fill="rgb(0, 0, 0)" stroke="rgb(204, 204, 204)" stroke-width="1px"></line><line x1="18.572266642252604" y1="0" x2="18.572266642252604" y2="5" style="visibility: inherit;" fill="rgb(0, 0, 0)" stroke="rgb(204, 204, 204)" stroke-width="1px"></line><line x1="37.14453328450521" y1="0" x2="37.14453328450521" y2="5" style="visibility: inherit;" fill="rgb(0, 0, 0)" stroke="rgb(204, 204, 204)" stroke-width="1px"></line><line x1="55.716799926757815" y1="0" x2="55.716799926757815" y2="5" style="visibility: inherit;" fill="rgb(0, 0, 0)" stroke="rgb(204, 204, 204)" stroke-width="1px"></line><line x1="74.28906656901042" y1="0" x2="74.28906656901042" y2="5" style="visibility: inherit;" fill="rgb(0, 0, 0)" stroke="rgb(204, 204, 204)" stroke-width="1px"></line><line x1="92.86133321126302" y1="0" x2="92.86133321126302" y2="5" style="visibility: inherit;" fill="rgb(0, 0, 0)" stroke="rgb(204, 204, 204)" stroke-width="1px"></line><line x1="111.43359985351563" y1="0" x2="111.43359985351563" y2="5" style="visibility: inherit;" fill="rgb(0, 0, 0)" stroke="rgb(204, 204, 204)" stroke-width="1px"></line><line x1="130.00586649576823" y1="0" x2="130.00586649576823" y2="5" style="visibility: inherit;" fill="rgb(0, 0, 0)" stroke="rgb(204, 204, 204)" stroke-width="1px"></line><line x1="148.57813313802083" y1="0" x2="148.57813313802083" y2="5" style="visibility: inherit;" fill="rgb(0, 0, 0)" stroke="rgb(204, 204, 204)" stroke-width="1px"></line><line x1="167.15039978027343" y1="0" x2="167.15039978027343" y2="5" style="visibility: inherit;" fill="rgb(0, 0, 0)" stroke="rgb(204, 204, 204)" stroke-width="1px"></line><line x1="185.72266642252603" y1="0" x2="185.72266642252603" y2="5" style="visibility: inherit;" fill="rgb(0, 0, 0)" stroke="rgb(204, 204, 204)" stroke-width="1px"></line><line x1="204.29493306477863" y1="0" x2="204.29493306477863" y2="5" style="visibility: inherit;" fill="rgb(0, 0, 0)" stroke="rgb(204, 204, 204)" stroke-width="1px"></line><line x1="222.86719970703126" y1="0" x2="222.86719970703126" y2="5" style="visibility: inherit;" fill="rgb(0, 0, 0)" stroke="rgb(204, 204, 204)" stroke-width="1px"></line><line x1="241.43946634928386" y1="0" x2="241.43946634928386" y2="5" style="visibility: inherit;" fill="rgb(0, 0, 0)" stroke="rgb(204, 204, 204)" stroke-width="1px"></line><line x1="260.01173299153646" y1="0" x2="260.01173299153646" y2="5" style="visibility: inherit;" fill="rgb(0, 0, 0)" stroke="rgb(204, 204, 204)" stroke-width="1px"></line><line x1="278.58399963378906" y1="0" x2="278.58399963378906" y2="5" style="visibility: inherit;" fill="rgb(0, 0, 0)" stroke="rgb(204, 204, 204)" stroke-width="1px"></line></g><g transform="translate(0, 8)"><text style="text-anchor: middle; visibility: hidden; font-family: Roboto, sans-serif; font-size: 12px; font-weight: 200;" x="0" y="0" dx="0em" dy="0.95em" fill="rgb(33, 33, 33)" stroke="none" stroke-width="1px">-2k</text><text style="text-anchor: middle; visibility: inherit; font-family: Roboto, sans-serif; font-size: 12px; font-weight: 200;" x="18.572266642252604" y="0" dx="0em" dy="0.95em" fill="rgb(33, 33, 33)" stroke="none" stroke-width="1px">0</text><text style="text-anchor: middle; visibility: hidden; font-family: Roboto, sans-serif; font-size: 12px; font-weight: 200;" x="37.14453328450521" y="0" dx="0em" dy="0.95em" fill="rgb(33, 33, 33)" stroke="none" stroke-width="1px">2k</text><text style="text-anchor: middle; visibility: inherit; font-family: Roboto, sans-serif; font-size: 12px; font-weight: 200;" x="55.716799926757815" y="0" dx="0em" dy="0.95em" fill="rgb(33, 33, 33)" stroke="none" stroke-width="1px">4k</text><text style="text-anchor: middle; visibility: hidden; font-family: Roboto, sans-serif; font-size: 12px; font-weight: 200;" x="74.28906656901042" y="0" dx="0em" dy="0.95em" fill="rgb(33, 33, 33)" stroke="none" stroke-width="1px">6k</text><text style="text-anchor: middle; visibility: inherit; font-family: Roboto, sans-serif; font-size: 12px; font-weight: 200;" x="92.86133321126302" y="0" dx="0em" dy="0.95em" fill="rgb(33, 33, 33)" stroke="none" stroke-width="1px">8k</text><text style="text-anchor: middle; visibility: hidden; font-family: Roboto, sans-serif; font-size: 12px; font-weight: 200;" x="111.43359985351563" y="0" dx="0em" dy="0.95em" fill="rgb(33, 33, 33)" stroke="none" stroke-width="1px">10k</text><text style="text-anchor: middle; visibility: inherit; font-family: Roboto, sans-serif; font-size: 12px; font-weight: 200;" x="130.00586649576823" y="0" dx="0em" dy="0.95em" fill="rgb(33, 33, 33)" stroke="none" stroke-width="1px">12k</text><text style="text-anchor: middle; visibility: hidden; font-family: Roboto, sans-serif; font-size: 12px; font-weight: 200;" x="148.57813313802083" y="0" dx="0em" dy="0.95em" fill="rgb(33, 33, 33)" stroke="none" stroke-width="1px">14k</text><text style="text-anchor: middle; visibility: inherit; font-family: Roboto, sans-serif; font-size: 12px; font-weight: 200;" x="167.15039978027343" y="0" dx="0em" dy="0.95em" fill="rgb(33, 33, 33)" stroke="none" stroke-width="1px">16k</text><text style="text-anchor: middle; visibility: hidden; font-family: Roboto, sans-serif; font-size: 12px; font-weight: 200;" x="185.72266642252603" y="0" dx="0em" dy="0.95em" fill="rgb(33, 33, 33)" stroke="none" stroke-width="1px">18k</text><text style="text-anchor: middle; visibility: inherit; font-family: Roboto, sans-serif; font-size: 12px; font-weight: 200;" x="204.29493306477863" y="0" dx="0em" dy="0.95em" fill="rgb(33, 33, 33)" stroke="none" stroke-width="1px">20k</text><text style="text-anchor: middle; visibility: hidden; font-family: Roboto, sans-serif; font-size: 12px; font-weight: 200;" x="222.86719970703126" y="0" dx="0em" dy="0.95em" fill="rgb(33, 33, 33)" stroke="none" stroke-width="1px">22k</text><text style="text-anchor: middle; visibility: inherit; font-family: Roboto, sans-serif; font-size: 12px; font-weight: 200;" x="241.43946634928386" y="0" dx="0em" dy="0.95em" fill="rgb(33, 33, 33)" stroke="none" stroke-width="1px">24k</text><text style="text-anchor: middle; visibility: hidden; font-family: Roboto, sans-serif; font-size: 12px; font-weight: 200;" x="260.01173299153646" y="0" dx="0em" dy="0.95em" fill="rgb(33, 33, 33)" stroke="none" stroke-width="1px">26k</text><text style="text-anchor: middle; visibility: hidden; font-family: Roboto, sans-serif; font-size: 12px; font-weight: 200;" x="278.58399963378906" y="0" dx="0em" dy="0.95em" fill="rgb(33, 33, 33)" stroke="none" stroke-width="1px">28k</text></g><line x1="0" y1="0" x2="278.58399963378906" y2="0" fill="rgb(0, 0, 0)" stroke="rgb(204, 204, 204)" stroke-width="1px"></line></g></g></g></g></svg>